%TF.GenerationSoftware,KiCad,Pcbnew,9.0.7*%
%TF.CreationDate,2026-02-21T00:44:38-08:00*%
%TF.ProjectId,matrix-driver,6d617472-6978-42d6-9472-697665722e6b,rev?*%
%TF.SameCoordinates,Original*%
%TF.FileFunction,Copper,L2,Inr*%
%TF.FilePolarity,Positive*%
%FSLAX46Y46*%
G04 Gerber Fmt 4.6, Leading zero omitted, Abs format (unit mm)*
G04 Created by KiCad (PCBNEW 9.0.7) date 2026-02-21 00:44:38*
%MOMM*%
%LPD*%
G01*
G04 APERTURE LIST*
G04 Aperture macros list*
%AMRoundRect*
0 Rectangle with rounded corners*
0 $1 Rounding radius*
0 $2 $3 $4 $5 $6 $7 $8 $9 X,Y pos of 4 corners*
0 Add a 4 corners polygon primitive as box body*
4,1,4,$2,$3,$4,$5,$6,$7,$8,$9,$2,$3,0*
0 Add four circle primitives for the rounded corners*
1,1,$1+$1,$2,$3*
1,1,$1+$1,$4,$5*
1,1,$1+$1,$6,$7*
1,1,$1+$1,$8,$9*
0 Add four rect primitives between the rounded corners*
20,1,$1+$1,$2,$3,$4,$5,0*
20,1,$1+$1,$4,$5,$6,$7,0*
20,1,$1+$1,$6,$7,$8,$9,0*
20,1,$1+$1,$8,$9,$2,$3,0*%
G04 Aperture macros list end*
%TA.AperFunction,ComponentPad*%
%ADD10O,1.700000X1.950000*%
%TD*%
%TA.AperFunction,ComponentPad*%
%ADD11RoundRect,0.250000X-0.600000X-0.725000X0.600000X-0.725000X0.600000X0.725000X-0.600000X0.725000X0*%
%TD*%
%TA.AperFunction,ComponentPad*%
%ADD12O,1.950000X1.700000*%
%TD*%
%TA.AperFunction,ComponentPad*%
%ADD13RoundRect,0.250000X-0.725000X0.600000X-0.725000X-0.600000X0.725000X-0.600000X0.725000X0.600000X0*%
%TD*%
%TA.AperFunction,ComponentPad*%
%ADD14R,1.700000X1.700000*%
%TD*%
%TA.AperFunction,ViaPad*%
%ADD15C,0.400000*%
%TD*%
%TA.AperFunction,Conductor*%
%ADD16C,0.200000*%
%TD*%
%TA.AperFunction,Conductor*%
%ADD17C,0.160000*%
%TD*%
G04 APERTURE END LIST*
D10*
%TO.N,/LINE15*%
%TO.C,J6*%
X153700000Y-97300000D03*
%TO.N,/LINE14*%
X151200000Y-97300000D03*
%TO.N,/LINE13*%
X148700000Y-97300000D03*
%TO.N,/LINE12*%
X146200000Y-97300000D03*
%TO.N,/LINE11*%
X143700000Y-97300000D03*
%TO.N,/LINE10*%
X141200000Y-97300000D03*
%TO.N,/LINE9*%
X138700000Y-97300000D03*
D11*
%TO.N,/LINE8*%
X136200000Y-97300000D03*
%TD*%
D10*
%TO.N,/LINE7*%
%TO.C,J5*%
X125650000Y-97300000D03*
%TO.N,/LINE6*%
X123150000Y-97300000D03*
%TO.N,/LINE5*%
X120650000Y-97300000D03*
%TO.N,/LINE4*%
X118150000Y-97300000D03*
%TO.N,/LINE3*%
X115650000Y-97300000D03*
%TO.N,/LINE2*%
X113150000Y-97300000D03*
%TO.N,/LINE1*%
X110650000Y-97300000D03*
D11*
%TO.N,/LINE0*%
X108150000Y-97300000D03*
%TD*%
D12*
%TO.N,GND*%
%TO.C,J2*%
X168800000Y-131750000D03*
X168800000Y-129250000D03*
%TO.N,/TH2*%
X168800000Y-126750000D03*
%TO.N,/TH1*%
X168800000Y-124250000D03*
%TO.N,Net-(J1-Pin_1)*%
X168800000Y-121750000D03*
%TO.N,/SOUT*%
X168800000Y-119250000D03*
%TO.N,/SIN*%
X168800000Y-116750000D03*
%TO.N,/SCLK*%
X168800000Y-114250000D03*
%TO.N,/2V8_EN*%
X168800000Y-111750000D03*
%TO.N,/3V8_EN*%
X168800000Y-109250000D03*
%TO.N,+12V*%
X168800000Y-106750000D03*
D13*
X168800000Y-104250000D03*
%TD*%
D14*
%TO.N,Net-(J1-Pin_1)*%
%TO.C,J1*%
X164400000Y-98000000D03*
%TD*%
D15*
%TO.N,/R11*%
X117500000Y-132400000D03*
%TO.N,/B9*%
X117500000Y-131100000D03*
%TO.N,/TH1*%
X113000000Y-124500000D03*
%TO.N,/TH2*%
X117700000Y-137911000D03*
%TO.N,/B4*%
X125800000Y-123300000D03*
%TO.N,/R4*%
X125381801Y-122381801D03*
%TO.N,GND*%
X147490200Y-124500000D03*
%TO.N,Net-(U2-SW)*%
X147490200Y-123000000D03*
X145390200Y-125900000D03*
%TO.N,GND*%
X129200000Y-116700000D03*
X131900000Y-122100000D03*
X129200000Y-121200000D03*
X146390200Y-124000000D03*
X151100000Y-137200000D03*
X131000000Y-121200000D03*
X124300000Y-124800000D03*
X145890200Y-124500000D03*
X133700000Y-118500000D03*
X151300000Y-129300000D03*
X112700000Y-123400000D03*
X132800000Y-120300000D03*
X132800000Y-117600000D03*
X130100000Y-116700000D03*
X132800000Y-121200000D03*
X148800000Y-138300000D03*
X131000000Y-117600000D03*
X146990200Y-124500000D03*
X146400000Y-137000000D03*
X133700000Y-122100000D03*
X133700000Y-117600000D03*
X128300000Y-117600000D03*
X145900000Y-137000000D03*
X152600000Y-137200000D03*
X149400000Y-136500000D03*
X131900000Y-116700000D03*
X128300000Y-116700000D03*
X128300000Y-120300000D03*
X129200000Y-120300000D03*
X132800000Y-118500000D03*
X153400000Y-125300000D03*
X131900000Y-117600000D03*
X154600000Y-137200000D03*
X131000000Y-120300000D03*
X145890200Y-125000000D03*
X145890200Y-124000000D03*
X132800000Y-116700000D03*
X133700000Y-119400000D03*
X131900000Y-118500000D03*
X146400000Y-136500000D03*
X124300000Y-124300000D03*
X133700000Y-116700000D03*
X148900000Y-136500000D03*
X147990200Y-124500000D03*
X151237500Y-115000000D03*
X150900000Y-125300000D03*
X129200000Y-119400000D03*
X150500000Y-124500000D03*
X148990200Y-124500000D03*
X148400000Y-136500000D03*
X152400000Y-125300000D03*
X128300000Y-119400000D03*
X146800000Y-114900000D03*
X130100000Y-121200000D03*
X151400000Y-125300000D03*
X130100000Y-119400000D03*
X129200000Y-117600000D03*
X130100000Y-118500000D03*
X133700000Y-120300000D03*
X129200000Y-118500000D03*
X151900000Y-125300000D03*
X146390200Y-125000000D03*
X131900000Y-119400000D03*
X131900000Y-121200000D03*
X128300000Y-121200000D03*
X132800000Y-122100000D03*
X133700000Y-121200000D03*
X154400000Y-125300000D03*
X150751005Y-129266734D03*
X112700000Y-137400000D03*
X147400000Y-136500000D03*
X153600000Y-137200000D03*
X131000000Y-118500000D03*
X152900000Y-125300000D03*
X146900000Y-136500000D03*
X149990200Y-124500000D03*
X149490200Y-124500000D03*
X153900000Y-125300000D03*
X130100000Y-117600000D03*
X148490200Y-124500000D03*
X132800000Y-119400000D03*
X145900000Y-136000000D03*
X151200000Y-119700000D03*
X152100000Y-137200000D03*
X131000000Y-122100000D03*
X128300000Y-118500000D03*
X146400000Y-136000000D03*
X129200000Y-122100000D03*
X130100000Y-120300000D03*
X131000000Y-119400000D03*
X131900000Y-120300000D03*
X150400000Y-136500000D03*
X147900000Y-136500000D03*
X151600000Y-137200000D03*
X151200000Y-119200000D03*
X146390200Y-124500000D03*
X153100000Y-137200000D03*
X128300000Y-122100000D03*
X149900000Y-136500000D03*
X145900000Y-136500000D03*
X131000000Y-116700000D03*
X153500000Y-138100000D03*
X154100000Y-137200000D03*
X130100000Y-122100000D03*
X127400000Y-118200000D03*
%TO.N,Net-(U3-SW)*%
X145350000Y-137750000D03*
X147450000Y-135100000D03*
%TO.N,+2V8*%
X140800000Y-136000000D03*
X123700000Y-118800000D03*
X124200000Y-118800000D03*
X142600000Y-132700000D03*
X143600000Y-132700000D03*
X140500000Y-133500000D03*
X144100000Y-132700000D03*
X142600000Y-133200000D03*
X121200000Y-118800000D03*
X121200000Y-119300000D03*
X139800000Y-136500000D03*
X140000000Y-134000000D03*
X141000000Y-133000000D03*
X141300000Y-136500000D03*
X140500000Y-134000000D03*
X141800000Y-136000000D03*
X143600000Y-133200000D03*
X140800000Y-136500000D03*
X143300000Y-136000000D03*
X140000000Y-133000000D03*
X141000000Y-134000000D03*
X121700000Y-119300000D03*
X122200000Y-118800000D03*
X142800000Y-136000000D03*
X141500000Y-133500000D03*
X142300000Y-136500000D03*
X123200000Y-119300000D03*
X125200000Y-118800000D03*
X121700000Y-118800000D03*
X140300000Y-136500000D03*
X141300000Y-136000000D03*
X141500000Y-134000000D03*
X144300000Y-136000000D03*
X124700000Y-118800000D03*
X139800000Y-136000000D03*
X122700000Y-119300000D03*
X144300000Y-136500000D03*
X120700000Y-118800000D03*
X120700000Y-119300000D03*
X142300000Y-136000000D03*
X143800000Y-136500000D03*
X140000000Y-133500000D03*
X122200000Y-119300000D03*
X125200000Y-119300000D03*
X123200000Y-118800000D03*
X123700000Y-119300000D03*
X140500000Y-133000000D03*
X141800000Y-136500000D03*
X124200000Y-119300000D03*
X143300000Y-136500000D03*
X141000000Y-133500000D03*
X122700000Y-118800000D03*
X140300000Y-136000000D03*
X143100000Y-133200000D03*
X143800000Y-136000000D03*
X143100000Y-132700000D03*
X142800000Y-136500000D03*
X144100000Y-133200000D03*
X124700000Y-119300000D03*
X141500000Y-133000000D03*
%TO.N,+3V3*%
X150100000Y-116500000D03*
X114500000Y-122811000D03*
X150300000Y-117200000D03*
X125700000Y-118260000D03*
X114300000Y-136800000D03*
%TO.N,/SOUT*%
X135800000Y-114400000D03*
%TO.N,/2V8_EN*%
X147700000Y-140200000D03*
%TO.N,/SIN*%
X135500000Y-113900000D03*
%TO.N,/3V8_EN*%
X151300000Y-132400000D03*
%TO.N,/SCLK*%
X135200000Y-113410000D03*
%TO.N,/G1*%
X114708200Y-116800000D03*
X124500000Y-116961246D03*
%TO.N,/R2*%
X114708200Y-117400000D03*
X125610999Y-119750002D03*
%TO.N,/G5*%
X126600000Y-126040000D03*
X114708200Y-120400000D03*
%TO.N,/G3*%
X124881178Y-121582425D03*
X114708200Y-118600000D03*
%TO.N,/B0*%
X125300000Y-116360000D03*
X114708200Y-116200000D03*
%TO.N,/R4*%
X114708200Y-119200000D03*
%TO.N,/G7*%
X114708200Y-122200000D03*
X129854730Y-127194730D03*
%TO.N,/B6*%
X114708200Y-121600000D03*
X128785230Y-126864230D03*
%TO.N,/B2*%
X124310485Y-120810485D03*
X114708200Y-118000000D03*
%TO.N,/B4*%
X114708200Y-119800000D03*
%TO.N,/R6*%
X127600000Y-126518000D03*
X114708200Y-121000000D03*
%TO.N,/B10*%
X114700000Y-132000000D03*
X133326516Y-130273484D03*
%TO.N,/R10*%
X114700000Y-131400000D03*
X134825270Y-125374730D03*
%TO.N,/G13*%
X114700000Y-134400000D03*
X138100000Y-120600000D03*
%TO.N,/B12*%
X114700000Y-133800000D03*
X137660000Y-124300000D03*
%TO.N,/G14*%
X140385582Y-116833154D03*
X119200000Y-135860000D03*
%TO.N,/R14*%
X114700000Y-135000000D03*
X139350000Y-116440000D03*
%TO.N,/R15*%
X139516954Y-114980000D03*
X115000000Y-136100000D03*
%TO.N,/G15*%
X115600000Y-136900000D03*
X139838980Y-115440000D03*
%TO.N,/R12*%
X137225270Y-121274730D03*
X114700000Y-133200000D03*
%TO.N,/G11*%
X133200270Y-132300270D03*
X114700000Y-132600000D03*
%TO.N,/R13*%
X117500000Y-134121000D03*
X139060000Y-122400000D03*
%TO.N,/B8*%
X114700000Y-130200000D03*
X131340002Y-127009835D03*
%TO.N,/G9*%
X133318000Y-128030047D03*
X114700000Y-130800000D03*
%TO.N,/R8*%
X114700000Y-129600000D03*
X130150540Y-129600000D03*
%TO.N,/B9*%
X132600000Y-129400000D03*
%TO.N,/B14*%
X140550000Y-117358006D03*
X114700000Y-135600000D03*
%TO.N,/B15*%
X117700000Y-136400000D03*
X139511081Y-115900000D03*
%TO.N,/R11*%
X136660000Y-123400000D03*
%TD*%
D16*
%TO.N,/G14*%
X134340000Y-135860000D02*
X119200000Y-135860000D01*
X141200000Y-129000000D02*
X134340000Y-135860000D01*
X141200000Y-117311969D02*
X141200000Y-129000000D01*
X140721185Y-116833154D02*
X141200000Y-117311969D01*
X140385582Y-116833154D02*
X140721185Y-116833154D01*
%TO.N,/B14*%
X115200000Y-135600000D02*
X114700000Y-135600000D01*
X115400000Y-135400000D02*
X115200000Y-135600000D01*
X134077633Y-135400000D02*
X115400000Y-135400000D01*
X140700000Y-128777633D02*
X134077633Y-135400000D01*
X140700000Y-117508006D02*
X140700000Y-128777633D01*
X140550000Y-117358006D02*
X140700000Y-117508006D01*
%TO.N,/B10*%
X131494919Y-131912000D02*
X114788000Y-131912000D01*
X114788000Y-131912000D02*
X114700000Y-132000000D01*
X131706919Y-131700000D02*
X131494919Y-131912000D01*
X131900000Y-131700000D02*
X131706919Y-131700000D01*
X133326516Y-130273484D02*
X131900000Y-131700000D01*
D17*
%TO.N,/TH2*%
X161119000Y-134431000D02*
X168800000Y-126750000D01*
X138619000Y-134431000D02*
X161119000Y-134431000D01*
X135139000Y-137911000D02*
X138619000Y-134431000D01*
X117700000Y-137911000D02*
X135139000Y-137911000D01*
D16*
%TO.N,/SCLK*%
X153210000Y-113410000D02*
X135200000Y-113410000D01*
X154050000Y-114250000D02*
X153210000Y-113410000D01*
X168800000Y-114250000D02*
X154050000Y-114250000D01*
%TO.N,/SIN*%
X153048047Y-113900000D02*
X135500000Y-113900000D01*
X155898047Y-116750000D02*
X153048047Y-113900000D01*
X168800000Y-116750000D02*
X155898047Y-116750000D01*
%TO.N,/SOUT*%
X157650000Y-119250000D02*
X168800000Y-119250000D01*
X152800000Y-114400000D02*
X157650000Y-119250000D01*
X135800000Y-114400000D02*
X152800000Y-114400000D01*
%TO.N,/G1*%
X124500000Y-116961246D02*
X114869446Y-116961246D01*
X114869446Y-116961246D02*
X114708200Y-116800000D01*
%TO.N,/B0*%
X125300000Y-116360000D02*
X114868200Y-116360000D01*
X114868200Y-116360000D02*
X114708200Y-116200000D01*
%TO.N,/G3*%
X117782425Y-121582425D02*
X114800000Y-118600000D01*
X124881178Y-121582425D02*
X117782425Y-121582425D01*
X114800000Y-118600000D02*
X114708200Y-118600000D01*
%TO.N,/B2*%
X115238153Y-118000000D02*
X114708200Y-118000000D01*
X118048638Y-120810485D02*
X115238153Y-118000000D01*
X124310485Y-120810485D02*
X118048638Y-120810485D01*
%TO.N,/R4*%
X114760153Y-119200000D02*
X114708200Y-119200000D01*
X117941954Y-122381801D02*
X114760153Y-119200000D01*
X125381801Y-122381801D02*
X117941954Y-122381801D01*
%TO.N,/B4*%
X114760153Y-119800000D02*
X114708200Y-119800000D01*
X125800000Y-123300000D02*
X118260153Y-123300000D01*
X118260153Y-123300000D02*
X114760153Y-119800000D01*
%TO.N,/R2*%
X115300000Y-117400000D02*
X114708200Y-117400000D01*
X117700000Y-119800000D02*
X115300000Y-117400000D01*
X123985070Y-119800000D02*
X117700000Y-119800000D01*
X125610999Y-119750002D02*
X125572000Y-119789001D01*
X125572000Y-119789001D02*
X123996069Y-119789001D01*
X123996069Y-119789001D02*
X123985070Y-119800000D01*
%TO.N,/G5*%
X114760153Y-120400000D02*
X120400153Y-126040000D01*
X114708200Y-120400000D02*
X114760153Y-120400000D01*
X120400153Y-126040000D02*
X126600000Y-126040000D01*
%TO.N,/G7*%
X119848200Y-127340000D02*
X114708200Y-122200000D01*
X129709460Y-127340000D02*
X119848200Y-127340000D01*
X129854730Y-127194730D02*
X129709460Y-127340000D01*
%TO.N,/B6*%
X114939089Y-121600000D02*
X120318089Y-126979000D01*
X128670460Y-126979000D02*
X128785230Y-126864230D01*
X120318089Y-126979000D02*
X128670460Y-126979000D01*
X114708200Y-121600000D02*
X114939089Y-121600000D01*
%TO.N,/R6*%
X127600000Y-126518000D02*
X120367621Y-126518000D01*
X120367621Y-126518000D02*
X114849621Y-121000000D01*
X114849621Y-121000000D02*
X114708200Y-121000000D01*
%TO.N,/G13*%
X133518000Y-134582000D02*
X117309047Y-134582000D01*
X139600000Y-128500000D02*
X133518000Y-134582000D01*
X117127047Y-134400000D02*
X114700000Y-134400000D01*
X138100000Y-120600000D02*
X139600000Y-122100000D01*
X139600000Y-122100000D02*
X139600000Y-128500000D01*
X117309047Y-134582000D02*
X117127047Y-134400000D01*
%TO.N,/B12*%
X114839000Y-133661000D02*
X114700000Y-133800000D01*
X133139000Y-133661000D02*
X114839000Y-133661000D01*
X137660000Y-124300000D02*
X137660000Y-129140000D01*
X137660000Y-129140000D02*
X133139000Y-133661000D01*
%TO.N,/R14*%
X139350000Y-116440000D02*
X139350000Y-116450000D01*
X140100000Y-128700000D02*
X133800000Y-135000000D01*
X140100000Y-117200000D02*
X140100000Y-128700000D01*
X133800000Y-135000000D02*
X114700000Y-135000000D01*
X139350000Y-116450000D02*
X140100000Y-117200000D01*
%TO.N,/R15*%
X115409047Y-137461000D02*
X115000000Y-137051953D01*
X142700000Y-116800000D02*
X142700000Y-129600000D01*
X134839000Y-137461000D02*
X115409047Y-137461000D01*
X139516954Y-114980000D02*
X140880000Y-114980000D01*
X142700000Y-129600000D02*
X134839000Y-137461000D01*
X115000000Y-137051953D02*
X115000000Y-136100000D01*
X140880000Y-114980000D02*
X142700000Y-116800000D01*
%TO.N,/G15*%
X142200000Y-116900000D02*
X142200000Y-129400000D01*
X142200000Y-129400000D02*
X134700000Y-136900000D01*
X139838980Y-115440000D02*
X140740000Y-115440000D01*
X134700000Y-136900000D02*
X115600000Y-136900000D01*
X140740000Y-115440000D02*
X142200000Y-116900000D01*
%TO.N,/R12*%
X132900000Y-133300000D02*
X114800000Y-133300000D01*
X137200000Y-121300000D02*
X137200000Y-129000000D01*
X137200000Y-129000000D02*
X132900000Y-133300000D01*
X137225270Y-121274730D02*
X137200000Y-121300000D01*
X114800000Y-133300000D02*
X114700000Y-133200000D01*
%TO.N,/G11*%
X114751953Y-132600000D02*
X114700000Y-132600000D01*
X132561540Y-132939000D02*
X115090953Y-132939000D01*
X133200270Y-132300270D02*
X132561540Y-132939000D01*
X115090953Y-132939000D02*
X114751953Y-132600000D01*
%TO.N,/R13*%
X133279000Y-134121000D02*
X117500000Y-134121000D01*
X139060000Y-128340000D02*
X133279000Y-134121000D01*
X139060000Y-122400000D02*
X139060000Y-128340000D01*
%TO.N,/B8*%
X131340002Y-127009835D02*
X131340002Y-129062491D01*
X130202493Y-130200000D02*
X114700000Y-130200000D01*
X131340002Y-129062491D02*
X130202493Y-130200000D01*
%TO.N,/G9*%
X114751953Y-130800000D02*
X114700000Y-130800000D01*
X133318000Y-128030047D02*
X130787047Y-130561000D01*
X130787047Y-130561000D02*
X114990953Y-130561000D01*
X114990953Y-130561000D02*
X114751953Y-130800000D01*
%TO.N,/R8*%
X130150540Y-129600000D02*
X114700000Y-129600000D01*
%TO.N,/B15*%
X134500000Y-136400000D02*
X117700000Y-136400000D01*
X139511081Y-115900000D02*
X140600000Y-115900000D01*
X140600000Y-115900000D02*
X141700000Y-117000000D01*
X141700000Y-117000000D02*
X141700000Y-129200000D01*
X141700000Y-129200000D02*
X134500000Y-136400000D01*
%TO.N,/R10*%
X114861000Y-131561000D02*
X114700000Y-131400000D01*
X131349531Y-131561000D02*
X114861000Y-131561000D01*
X134800000Y-125400000D02*
X134800000Y-128110531D01*
X134800000Y-128110531D02*
X131349531Y-131561000D01*
X134825270Y-125374730D02*
X134800000Y-125400000D01*
%TO.N,/B9*%
X132600000Y-129400000D02*
X130900000Y-131100000D01*
X130900000Y-131100000D02*
X117500000Y-131100000D01*
%TO.N,/R11*%
X136660000Y-127918000D02*
X136660000Y-123400000D01*
X132178000Y-132400000D02*
X136660000Y-127918000D01*
X117500000Y-132400000D02*
X132178000Y-132400000D01*
%TD*%
%TA.AperFunction,Conductor*%
%TO.N,GND*%
G36*
X169909445Y-93500500D02*
G01*
X169934108Y-93500500D01*
X169996249Y-93500500D01*
X170003736Y-93500726D01*
X170293796Y-93518271D01*
X170308657Y-93520075D01*
X170590798Y-93571780D01*
X170605335Y-93575363D01*
X170879172Y-93660695D01*
X170893163Y-93666000D01*
X171154743Y-93783727D01*
X171167989Y-93790680D01*
X171413465Y-93939075D01*
X171425776Y-93947573D01*
X171651573Y-94124473D01*
X171662781Y-94134403D01*
X171865596Y-94337218D01*
X171875525Y-94348425D01*
X171995481Y-94501538D01*
X172052422Y-94574217D01*
X172060928Y-94586540D01*
X172209316Y-94832004D01*
X172216275Y-94845263D01*
X172333997Y-95106831D01*
X172339306Y-95120832D01*
X172424635Y-95394663D01*
X172428219Y-95409201D01*
X172479923Y-95691340D01*
X172481728Y-95706205D01*
X172499274Y-95996262D01*
X172499500Y-96003749D01*
X172499501Y-139934108D01*
X172499501Y-139996249D01*
X172499275Y-140003736D01*
X172481729Y-140293794D01*
X172479924Y-140308659D01*
X172428220Y-140590798D01*
X172424636Y-140605336D01*
X172339307Y-140879167D01*
X172333998Y-140893168D01*
X172216276Y-141154736D01*
X172209317Y-141167995D01*
X172060929Y-141413459D01*
X172052423Y-141425782D01*
X171875527Y-141651573D01*
X171865597Y-141662781D01*
X171662782Y-141865596D01*
X171651574Y-141875526D01*
X171425783Y-142052423D01*
X171413460Y-142060929D01*
X171167996Y-142209317D01*
X171154737Y-142216276D01*
X170893169Y-142333998D01*
X170879168Y-142339307D01*
X170605336Y-142424636D01*
X170590798Y-142428220D01*
X170308660Y-142479924D01*
X170293795Y-142481729D01*
X170003754Y-142499274D01*
X169996267Y-142499500D01*
X100003750Y-142499500D01*
X99996263Y-142499274D01*
X99706204Y-142481728D01*
X99691339Y-142479923D01*
X99409201Y-142428219D01*
X99394663Y-142424635D01*
X99120824Y-142339304D01*
X99106826Y-142333995D01*
X98954095Y-142265256D01*
X98845268Y-142216277D01*
X98832010Y-142209319D01*
X98643965Y-142095642D01*
X98586537Y-142060926D01*
X98574220Y-142052424D01*
X98348426Y-141875525D01*
X98337218Y-141865595D01*
X98134403Y-141662781D01*
X98124473Y-141651573D01*
X97947573Y-141425776D01*
X97939071Y-141413458D01*
X97790680Y-141167987D01*
X97783722Y-141154730D01*
X97666000Y-140893163D01*
X97660698Y-140879182D01*
X97575363Y-140605334D01*
X97571780Y-140590797D01*
X97520075Y-140308657D01*
X97518271Y-140293794D01*
X97509408Y-140147273D01*
X147299500Y-140147273D01*
X147299500Y-140252727D01*
X147326793Y-140354587D01*
X147379520Y-140445913D01*
X147454087Y-140520480D01*
X147545413Y-140573207D01*
X147647273Y-140600500D01*
X147647275Y-140600500D01*
X147752725Y-140600500D01*
X147752727Y-140600500D01*
X147854587Y-140573207D01*
X147945913Y-140520480D01*
X148020480Y-140445913D01*
X148073207Y-140354587D01*
X148100500Y-140252727D01*
X148100500Y-140147273D01*
X148073207Y-140045413D01*
X148020480Y-139954087D01*
X147945913Y-139879520D01*
X147854587Y-139826793D01*
X147752727Y-139799500D01*
X147647273Y-139799500D01*
X147545413Y-139826793D01*
X147545410Y-139826794D01*
X147454085Y-139879521D01*
X147379521Y-139954085D01*
X147326794Y-140045410D01*
X147326793Y-140045413D01*
X147299500Y-140147273D01*
X97509408Y-140147273D01*
X97509369Y-140146633D01*
X97500723Y-140003718D01*
X97500499Y-139996298D01*
X97500499Y-137878711D01*
X98149500Y-137878711D01*
X98149500Y-138121288D01*
X98181161Y-138361785D01*
X98243947Y-138596104D01*
X98336773Y-138820205D01*
X98336776Y-138820212D01*
X98458064Y-139030289D01*
X98458066Y-139030292D01*
X98458067Y-139030293D01*
X98605733Y-139222736D01*
X98605739Y-139222743D01*
X98777256Y-139394260D01*
X98777262Y-139394265D01*
X98969711Y-139541936D01*
X99179788Y-139663224D01*
X99403900Y-139756054D01*
X99638211Y-139818838D01*
X99818586Y-139842584D01*
X99878711Y-139850500D01*
X99878712Y-139850500D01*
X100121289Y-139850500D01*
X100169388Y-139844167D01*
X100361789Y-139818838D01*
X100596100Y-139756054D01*
X100820212Y-139663224D01*
X101030289Y-139541936D01*
X101222738Y-139394265D01*
X101394265Y-139222738D01*
X101541936Y-139030289D01*
X101663224Y-138820212D01*
X101756054Y-138596100D01*
X101818838Y-138361789D01*
X101850500Y-138121288D01*
X101850500Y-137878712D01*
X101845740Y-137842559D01*
X101840496Y-137802725D01*
X101818838Y-137638211D01*
X101756054Y-137403900D01*
X101663224Y-137179788D01*
X101541936Y-136969711D01*
X101394265Y-136777262D01*
X101394260Y-136777256D01*
X101364277Y-136747273D01*
X113899500Y-136747273D01*
X113899500Y-136852727D01*
X113926793Y-136954587D01*
X113979520Y-137045913D01*
X114054087Y-137120480D01*
X114145413Y-137173207D01*
X114247273Y-137200500D01*
X114247275Y-137200500D01*
X114352725Y-137200500D01*
X114352727Y-137200500D01*
X114454587Y-137173207D01*
X114545913Y-137120480D01*
X114545917Y-137120475D01*
X114548522Y-137118972D01*
X114557321Y-137116837D01*
X114564436Y-137111242D01*
X114590736Y-137108730D01*
X114616422Y-137102499D01*
X114624978Y-137105460D01*
X114633989Y-137104600D01*
X114657475Y-137116707D01*
X114682449Y-137125351D01*
X114689687Y-137133313D01*
X114696092Y-137136615D01*
X114717910Y-137164358D01*
X114719978Y-137167941D01*
X114719979Y-137167942D01*
X114750312Y-137220480D01*
X114750313Y-137220481D01*
X114759542Y-137236467D01*
X114759543Y-137236468D01*
X115027161Y-137504085D01*
X115168587Y-137645511D01*
X115224536Y-137701460D01*
X115224538Y-137701461D01*
X115224542Y-137701464D01*
X115293051Y-137741017D01*
X115293058Y-137741021D01*
X115369485Y-137761500D01*
X117175500Y-137761500D01*
X117242539Y-137781185D01*
X117288294Y-137833989D01*
X117299500Y-137885500D01*
X117299500Y-137963727D01*
X117326793Y-138065587D01*
X117379520Y-138156913D01*
X117454087Y-138231480D01*
X117545413Y-138284207D01*
X117647273Y-138311500D01*
X117647275Y-138311500D01*
X117752725Y-138311500D01*
X117752727Y-138311500D01*
X117854587Y-138284207D01*
X117945913Y-138231480D01*
X117949574Y-138227819D01*
X118010897Y-138194334D01*
X118037255Y-138191500D01*
X135175927Y-138191500D01*
X135175929Y-138191500D01*
X135247269Y-138172384D01*
X135311231Y-138135456D01*
X135363456Y-138083231D01*
X135363456Y-138083229D01*
X135373660Y-138073026D01*
X135373663Y-138073021D01*
X135749411Y-137697273D01*
X144949500Y-137697273D01*
X144949500Y-137802727D01*
X144976793Y-137904587D01*
X145029520Y-137995913D01*
X145104087Y-138070480D01*
X145195413Y-138123207D01*
X145297273Y-138150500D01*
X145297275Y-138150500D01*
X145402725Y-138150500D01*
X145402727Y-138150500D01*
X145504587Y-138123207D01*
X145595913Y-138070480D01*
X145670480Y-137995913D01*
X145723207Y-137904587D01*
X145730140Y-137878711D01*
X168149500Y-137878711D01*
X168149500Y-138121288D01*
X168181161Y-138361785D01*
X168243947Y-138596104D01*
X168336773Y-138820205D01*
X168336776Y-138820212D01*
X168458064Y-139030289D01*
X168458066Y-139030292D01*
X168458067Y-139030293D01*
X168605733Y-139222736D01*
X168605739Y-139222743D01*
X168777256Y-139394260D01*
X168777262Y-139394265D01*
X168969711Y-139541936D01*
X169179788Y-139663224D01*
X169403900Y-139756054D01*
X169638211Y-139818838D01*
X169818586Y-139842584D01*
X169878711Y-139850500D01*
X169878712Y-139850500D01*
X170121289Y-139850500D01*
X170169388Y-139844167D01*
X170361789Y-139818838D01*
X170596100Y-139756054D01*
X170820212Y-139663224D01*
X171030289Y-139541936D01*
X171222738Y-139394265D01*
X171394265Y-139222738D01*
X171541936Y-139030289D01*
X171663224Y-138820212D01*
X171756054Y-138596100D01*
X171818838Y-138361789D01*
X171850500Y-138121288D01*
X171850500Y-137878712D01*
X171845740Y-137842559D01*
X171840496Y-137802725D01*
X171818838Y-137638211D01*
X171756054Y-137403900D01*
X171663224Y-137179788D01*
X171541936Y-136969711D01*
X171467885Y-136873206D01*
X171394266Y-136777263D01*
X171394260Y-136777256D01*
X171222743Y-136605739D01*
X171222736Y-136605733D01*
X171030293Y-136458067D01*
X171030292Y-136458066D01*
X171030289Y-136458064D01*
X170835167Y-136345410D01*
X170820214Y-136336777D01*
X170820205Y-136336773D01*
X170596104Y-136243947D01*
X170478944Y-136212554D01*
X170361789Y-136181162D01*
X170361788Y-136181161D01*
X170361785Y-136181161D01*
X170121289Y-136149500D01*
X170121288Y-136149500D01*
X169878712Y-136149500D01*
X169878711Y-136149500D01*
X169638214Y-136181161D01*
X169403895Y-136243947D01*
X169179794Y-136336773D01*
X169179785Y-136336777D01*
X169017204Y-136430644D01*
X168978952Y-136452729D01*
X168969706Y-136458067D01*
X168777263Y-136605733D01*
X168777256Y-136605739D01*
X168605739Y-136777256D01*
X168605733Y-136777263D01*
X168458067Y-136969706D01*
X168336777Y-137179785D01*
X168336773Y-137179794D01*
X168243947Y-137403895D01*
X168181161Y-137638214D01*
X168149500Y-137878711D01*
X145730140Y-137878711D01*
X145750500Y-137802727D01*
X145750500Y-137697273D01*
X145723207Y-137595413D01*
X145670480Y-137504087D01*
X145595913Y-137429520D01*
X145504587Y-137376793D01*
X145402727Y-137349500D01*
X145297273Y-137349500D01*
X145195413Y-137376793D01*
X145195410Y-137376794D01*
X145104085Y-137429521D01*
X145029521Y-137504085D01*
X144976794Y-137595410D01*
X144976793Y-137595413D01*
X144949500Y-137697273D01*
X135749411Y-137697273D01*
X137499413Y-135947273D01*
X139399500Y-135947273D01*
X139399500Y-136052727D01*
X139426659Y-136154085D01*
X139426793Y-136154586D01*
X139426794Y-136154589D01*
X139446084Y-136188000D01*
X139462557Y-136255900D01*
X139446084Y-136312000D01*
X139426794Y-136345410D01*
X139426793Y-136345413D01*
X139399500Y-136447273D01*
X139399500Y-136552727D01*
X139426793Y-136654587D01*
X139479520Y-136745913D01*
X139554087Y-136820480D01*
X139645413Y-136873207D01*
X139747273Y-136900500D01*
X139747275Y-136900500D01*
X139852725Y-136900500D01*
X139852727Y-136900500D01*
X139954587Y-136873207D01*
X139988001Y-136853915D01*
X140055898Y-136837442D01*
X140111997Y-136853914D01*
X140145413Y-136873207D01*
X140247273Y-136900500D01*
X140247275Y-136900500D01*
X140352725Y-136900500D01*
X140352727Y-136900500D01*
X140454587Y-136873207D01*
X140488001Y-136853915D01*
X140555898Y-136837442D01*
X140611997Y-136853914D01*
X140645413Y-136873207D01*
X140747273Y-136900500D01*
X140747275Y-136900500D01*
X140852725Y-136900500D01*
X140852727Y-136900500D01*
X140954587Y-136873207D01*
X140988001Y-136853915D01*
X141055898Y-136837442D01*
X141111997Y-136853914D01*
X141145413Y-136873207D01*
X141247273Y-136900500D01*
X141247275Y-136900500D01*
X141352725Y-136900500D01*
X141352727Y-136900500D01*
X141454587Y-136873207D01*
X141488001Y-136853915D01*
X141555898Y-136837442D01*
X141611997Y-136853914D01*
X141645413Y-136873207D01*
X141747273Y-136900500D01*
X141747275Y-136900500D01*
X141852725Y-136900500D01*
X141852727Y-136900500D01*
X141954587Y-136873207D01*
X141988001Y-136853915D01*
X142055898Y-136837442D01*
X142111997Y-136853914D01*
X142145413Y-136873207D01*
X142247273Y-136900500D01*
X142247275Y-136900500D01*
X142352725Y-136900500D01*
X142352727Y-136900500D01*
X142454587Y-136873207D01*
X142488001Y-136853915D01*
X142555898Y-136837442D01*
X142611997Y-136853914D01*
X142645413Y-136873207D01*
X142747273Y-136900500D01*
X142747275Y-136900500D01*
X142852725Y-136900500D01*
X142852727Y-136900500D01*
X142954587Y-136873207D01*
X142988001Y-136853915D01*
X143055898Y-136837442D01*
X143111997Y-136853914D01*
X143145413Y-136873207D01*
X143247273Y-136900500D01*
X143247275Y-136900500D01*
X143352725Y-136900500D01*
X143352727Y-136900500D01*
X143454587Y-136873207D01*
X143488001Y-136853915D01*
X143555898Y-136837442D01*
X143611997Y-136853914D01*
X143645413Y-136873207D01*
X143747273Y-136900500D01*
X143747275Y-136900500D01*
X143852725Y-136900500D01*
X143852727Y-136900500D01*
X143954587Y-136873207D01*
X143988001Y-136853915D01*
X144055898Y-136837442D01*
X144111997Y-136853914D01*
X144145413Y-136873207D01*
X144247273Y-136900500D01*
X144247275Y-136900500D01*
X144352725Y-136900500D01*
X144352727Y-136900500D01*
X144454587Y-136873207D01*
X144545913Y-136820480D01*
X144620480Y-136745913D01*
X144673207Y-136654587D01*
X144700500Y-136552727D01*
X144700500Y-136447273D01*
X144673207Y-136345413D01*
X144653915Y-136311998D01*
X144637442Y-136244102D01*
X144653914Y-136188002D01*
X144673207Y-136154587D01*
X144700500Y-136052727D01*
X144700500Y-135947273D01*
X144673207Y-135845413D01*
X144620480Y-135754087D01*
X144545913Y-135679520D01*
X144454587Y-135626793D01*
X144352727Y-135599500D01*
X144247273Y-135599500D01*
X144145413Y-135626793D01*
X144145410Y-135626794D01*
X144112000Y-135646084D01*
X144044100Y-135662557D01*
X143988000Y-135646084D01*
X143954589Y-135626794D01*
X143954588Y-135626793D01*
X143954587Y-135626793D01*
X143852727Y-135599500D01*
X143747273Y-135599500D01*
X143645413Y-135626793D01*
X143645410Y-135626794D01*
X143612000Y-135646084D01*
X143544100Y-135662557D01*
X143488000Y-135646084D01*
X143454589Y-135626794D01*
X143454588Y-135626793D01*
X143454587Y-135626793D01*
X143352727Y-135599500D01*
X143247273Y-135599500D01*
X143145413Y-135626793D01*
X143145410Y-135626794D01*
X143112000Y-135646084D01*
X143044100Y-135662557D01*
X142988000Y-135646084D01*
X142954589Y-135626794D01*
X142954588Y-135626793D01*
X142954587Y-135626793D01*
X142852727Y-135599500D01*
X142747273Y-135599500D01*
X142645413Y-135626793D01*
X142645410Y-135626794D01*
X142612000Y-135646084D01*
X142544100Y-135662557D01*
X142488000Y-135646084D01*
X142454589Y-135626794D01*
X142454588Y-135626793D01*
X142454587Y-135626793D01*
X142352727Y-135599500D01*
X142247273Y-135599500D01*
X142145413Y-135626793D01*
X142145410Y-135626794D01*
X142112000Y-135646084D01*
X142044100Y-135662557D01*
X141988000Y-135646084D01*
X141954589Y-135626794D01*
X141954588Y-135626793D01*
X141954587Y-135626793D01*
X141852727Y-135599500D01*
X141747273Y-135599500D01*
X141645413Y-135626793D01*
X141645410Y-135626794D01*
X141612000Y-135646084D01*
X141544100Y-135662557D01*
X141488000Y-135646084D01*
X141454589Y-135626794D01*
X141454588Y-135626793D01*
X141454587Y-135626793D01*
X141352727Y-135599500D01*
X141247273Y-135599500D01*
X141145413Y-135626793D01*
X141145410Y-135626794D01*
X141112000Y-135646084D01*
X141044100Y-135662557D01*
X140988000Y-135646084D01*
X140954589Y-135626794D01*
X140954588Y-135626793D01*
X140954587Y-135626793D01*
X140852727Y-135599500D01*
X140747273Y-135599500D01*
X140645413Y-135626793D01*
X140645410Y-135626794D01*
X140612000Y-135646084D01*
X140544100Y-135662557D01*
X140488000Y-135646084D01*
X140454589Y-135626794D01*
X140454588Y-135626793D01*
X140454587Y-135626793D01*
X140352727Y-135599500D01*
X140247273Y-135599500D01*
X140145413Y-135626793D01*
X140145410Y-135626794D01*
X140112000Y-135646084D01*
X140044100Y-135662557D01*
X139988000Y-135646084D01*
X139954589Y-135626794D01*
X139954588Y-135626793D01*
X139954587Y-135626793D01*
X139852727Y-135599500D01*
X139747273Y-135599500D01*
X139645413Y-135626793D01*
X139645410Y-135626794D01*
X139554085Y-135679521D01*
X139479521Y-135754085D01*
X139426794Y-135845410D01*
X139426793Y-135845413D01*
X139399500Y-135947273D01*
X137499413Y-135947273D01*
X138698868Y-134747819D01*
X138760191Y-134714334D01*
X138786549Y-134711500D01*
X146997069Y-134711500D01*
X147064108Y-134731185D01*
X147109863Y-134783989D01*
X147119807Y-134853147D01*
X147104457Y-134897496D01*
X147076793Y-134945413D01*
X147049500Y-135047273D01*
X147049500Y-135152727D01*
X147076793Y-135254587D01*
X147129520Y-135345913D01*
X147204087Y-135420480D01*
X147295413Y-135473207D01*
X147397273Y-135500500D01*
X147397275Y-135500500D01*
X147502725Y-135500500D01*
X147502727Y-135500500D01*
X147604587Y-135473207D01*
X147695913Y-135420480D01*
X147770480Y-135345913D01*
X147823207Y-135254587D01*
X147850500Y-135152727D01*
X147850500Y-135047273D01*
X147823207Y-134945413D01*
X147795543Y-134897497D01*
X147779071Y-134829601D01*
X147801923Y-134763574D01*
X147856844Y-134720383D01*
X147902931Y-134711500D01*
X161155927Y-134711500D01*
X161155929Y-134711500D01*
X161227269Y-134692384D01*
X161291231Y-134655456D01*
X161343456Y-134603231D01*
X161343456Y-134603229D01*
X161353660Y-134593026D01*
X161353663Y-134593021D01*
X168181284Y-127765401D01*
X168242605Y-127731918D01*
X168312297Y-127736902D01*
X168316415Y-127738523D01*
X168368575Y-127760128D01*
X168368580Y-127760130D01*
X168571530Y-127800499D01*
X168571534Y-127800500D01*
X168571535Y-127800500D01*
X169028466Y-127800500D01*
X169028467Y-127800499D01*
X169231420Y-127760130D01*
X169422598Y-127680941D01*
X169594655Y-127565977D01*
X169740977Y-127419655D01*
X169855941Y-127247598D01*
X169935130Y-127056420D01*
X169975500Y-126853465D01*
X169975500Y-126646535D01*
X169935130Y-126443580D01*
X169855941Y-126252402D01*
X169740977Y-126080345D01*
X169740975Y-126080342D01*
X169594657Y-125934024D01*
X169508626Y-125876541D01*
X169422598Y-125819059D01*
X169231420Y-125739870D01*
X169231412Y-125739868D01*
X169028469Y-125699500D01*
X169028465Y-125699500D01*
X168571535Y-125699500D01*
X168571530Y-125699500D01*
X168368587Y-125739868D01*
X168368579Y-125739870D01*
X168177403Y-125819058D01*
X168005342Y-125934024D01*
X167859024Y-126080342D01*
X167744058Y-126252403D01*
X167664870Y-126443579D01*
X167664868Y-126443587D01*
X167624500Y-126646530D01*
X167624500Y-126853469D01*
X167664868Y-127056412D01*
X167664870Y-127056420D01*
X167744058Y-127247598D01*
X167752271Y-127259888D01*
X167773150Y-127326565D01*
X167754667Y-127393945D01*
X167736851Y-127416461D01*
X161039133Y-134114181D01*
X160977810Y-134147666D01*
X160951452Y-134150500D01*
X142024500Y-134150500D01*
X141957461Y-134130815D01*
X141911706Y-134078011D01*
X141900500Y-134026500D01*
X141900500Y-133947275D01*
X141900500Y-133947273D01*
X141873207Y-133845413D01*
X141853915Y-133811998D01*
X141837442Y-133744102D01*
X141853914Y-133688002D01*
X141873207Y-133654587D01*
X141900500Y-133552727D01*
X141900500Y-133447273D01*
X141873207Y-133345413D01*
X141853915Y-133311998D01*
X141837442Y-133244102D01*
X141853914Y-133188002D01*
X141873207Y-133154587D01*
X141900500Y-133052727D01*
X141900500Y-132947273D01*
X141873207Y-132845413D01*
X141820480Y-132754087D01*
X141745913Y-132679520D01*
X141690059Y-132647273D01*
X142199500Y-132647273D01*
X142199500Y-132752727D01*
X142212301Y-132800499D01*
X142226793Y-132854586D01*
X142226794Y-132854589D01*
X142246084Y-132888000D01*
X142262557Y-132955900D01*
X142246084Y-133012000D01*
X142226794Y-133045410D01*
X142226793Y-133045413D01*
X142199500Y-133147273D01*
X142199500Y-133252727D01*
X142226793Y-133354587D01*
X142279520Y-133445913D01*
X142354087Y-133520480D01*
X142445413Y-133573207D01*
X142547273Y-133600500D01*
X142547275Y-133600500D01*
X142652725Y-133600500D01*
X142652727Y-133600500D01*
X142754587Y-133573207D01*
X142788001Y-133553915D01*
X142855898Y-133537442D01*
X142911997Y-133553914D01*
X142945413Y-133573207D01*
X143047273Y-133600500D01*
X143047275Y-133600500D01*
X143152725Y-133600500D01*
X143152727Y-133600500D01*
X143254587Y-133573207D01*
X143288001Y-133553915D01*
X143355898Y-133537442D01*
X143411997Y-133553914D01*
X143445413Y-133573207D01*
X143547273Y-133600500D01*
X143547275Y-133600500D01*
X143652725Y-133600500D01*
X143652727Y-133600500D01*
X143754587Y-133573207D01*
X143788001Y-133553915D01*
X143855898Y-133537442D01*
X143911997Y-133553914D01*
X143945413Y-133573207D01*
X144047273Y-133600500D01*
X144047275Y-133600500D01*
X144152725Y-133600500D01*
X144152727Y-133600500D01*
X144254587Y-133573207D01*
X144345913Y-133520480D01*
X144420480Y-133445913D01*
X144473207Y-133354587D01*
X144500500Y-133252727D01*
X144500500Y-133147273D01*
X144473207Y-133045413D01*
X144453915Y-133011998D01*
X144437442Y-132944102D01*
X144453914Y-132888002D01*
X144473207Y-132854587D01*
X144500500Y-132752727D01*
X144500500Y-132647273D01*
X144473207Y-132545413D01*
X144420480Y-132454087D01*
X144345913Y-132379520D01*
X144290059Y-132347273D01*
X150899500Y-132347273D01*
X150899500Y-132452727D01*
X150926793Y-132554587D01*
X150979520Y-132645913D01*
X151054087Y-132720480D01*
X151145413Y-132773207D01*
X151247273Y-132800500D01*
X151247275Y-132800500D01*
X151352725Y-132800500D01*
X151352727Y-132800500D01*
X151454587Y-132773207D01*
X151545913Y-132720480D01*
X151620480Y-132645913D01*
X151673207Y-132554587D01*
X151700500Y-132452727D01*
X151700500Y-132347273D01*
X151673207Y-132245413D01*
X151620480Y-132154087D01*
X151545913Y-132079520D01*
X151454587Y-132026793D01*
X151352727Y-131999500D01*
X151247273Y-131999500D01*
X151145413Y-132026793D01*
X151145410Y-132026794D01*
X151054085Y-132079521D01*
X150979521Y-132154085D01*
X150926794Y-132245410D01*
X150926793Y-132245413D01*
X150899500Y-132347273D01*
X144290059Y-132347273D01*
X144261179Y-132330599D01*
X144254589Y-132326794D01*
X144254588Y-132326793D01*
X144254587Y-132326793D01*
X144152727Y-132299500D01*
X144047273Y-132299500D01*
X143945413Y-132326793D01*
X143945410Y-132326794D01*
X143912000Y-132346084D01*
X143844100Y-132362557D01*
X143788000Y-132346084D01*
X143754589Y-132326794D01*
X143754588Y-132326793D01*
X143754587Y-132326793D01*
X143652727Y-132299500D01*
X143547273Y-132299500D01*
X143445413Y-132326793D01*
X143445410Y-132326794D01*
X143412000Y-132346084D01*
X143344100Y-132362557D01*
X143288000Y-132346084D01*
X143254589Y-132326794D01*
X143254588Y-132326793D01*
X143254587Y-132326793D01*
X143152727Y-132299500D01*
X143047273Y-132299500D01*
X142945413Y-132326793D01*
X142945410Y-132326794D01*
X142912000Y-132346084D01*
X142844100Y-132362557D01*
X142788000Y-132346084D01*
X142754589Y-132326794D01*
X142754588Y-132326793D01*
X142754587Y-132326793D01*
X142652727Y-132299500D01*
X142547273Y-132299500D01*
X142445413Y-132326793D01*
X142445410Y-132326794D01*
X142354085Y-132379521D01*
X142279521Y-132454085D01*
X142226794Y-132545410D01*
X142226793Y-132545413D01*
X142199500Y-132647273D01*
X141690059Y-132647273D01*
X141654587Y-132626793D01*
X141552727Y-132599500D01*
X141447273Y-132599500D01*
X141345413Y-132626793D01*
X141345410Y-132626794D01*
X141312000Y-132646084D01*
X141244100Y-132662557D01*
X141188000Y-132646084D01*
X141154589Y-132626794D01*
X141154588Y-132626793D01*
X141154587Y-132626793D01*
X141052727Y-132599500D01*
X140947273Y-132599500D01*
X140845413Y-132626793D01*
X140845410Y-132626794D01*
X140812000Y-132646084D01*
X140744100Y-132662557D01*
X140688000Y-132646084D01*
X140654589Y-132626794D01*
X140654588Y-132626793D01*
X140654587Y-132626793D01*
X140552727Y-132599500D01*
X140447273Y-132599500D01*
X140447271Y-132599500D01*
X140439217Y-132600561D01*
X140438766Y-132597138D01*
X140384813Y-132595844D01*
X140326958Y-132556669D01*
X140299467Y-132492436D01*
X140311067Y-132423536D01*
X140334912Y-132390058D01*
X141526472Y-131198499D01*
X142940460Y-129784511D01*
X142946986Y-129773207D01*
X142980021Y-129715989D01*
X143000500Y-129639562D01*
X143000500Y-125847273D01*
X144989700Y-125847273D01*
X144989700Y-125952727D01*
X145016993Y-126054587D01*
X145069720Y-126145913D01*
X145144287Y-126220480D01*
X145235613Y-126273207D01*
X145337473Y-126300500D01*
X145337475Y-126300500D01*
X145442925Y-126300500D01*
X145442927Y-126300500D01*
X145544787Y-126273207D01*
X145636113Y-126220480D01*
X145710680Y-126145913D01*
X145763407Y-126054587D01*
X145790700Y-125952727D01*
X145790700Y-125847273D01*
X145763407Y-125745413D01*
X145710680Y-125654087D01*
X145636113Y-125579520D01*
X145569259Y-125540922D01*
X145544789Y-125526794D01*
X145544788Y-125526793D01*
X145544787Y-125526793D01*
X145442927Y-125499500D01*
X145337473Y-125499500D01*
X145235613Y-125526793D01*
X145235610Y-125526794D01*
X145144285Y-125579521D01*
X145069721Y-125654085D01*
X145016994Y-125745410D01*
X145016993Y-125745413D01*
X144989700Y-125847273D01*
X143000500Y-125847273D01*
X143000500Y-124146530D01*
X167624500Y-124146530D01*
X167624500Y-124353469D01*
X167664868Y-124556412D01*
X167664870Y-124556420D01*
X167744058Y-124747596D01*
X167859024Y-124919657D01*
X168005342Y-125065975D01*
X168005345Y-125065977D01*
X168177402Y-125180941D01*
X168368580Y-125260130D01*
X168571530Y-125300499D01*
X168571534Y-125300500D01*
X168571535Y-125300500D01*
X169028466Y-125300500D01*
X169028467Y-125300499D01*
X169231420Y-125260130D01*
X169422598Y-125180941D01*
X169594655Y-125065977D01*
X169740977Y-124919655D01*
X169855941Y-124747598D01*
X169935130Y-124556420D01*
X169975500Y-124353465D01*
X169975500Y-124146535D01*
X169935130Y-123943580D01*
X169855941Y-123752402D01*
X169740977Y-123580345D01*
X169740975Y-123580342D01*
X169594657Y-123434024D01*
X169472986Y-123352727D01*
X169422598Y-123319059D01*
X169231420Y-123239870D01*
X169231412Y-123239868D01*
X169028469Y-123199500D01*
X169028465Y-123199500D01*
X168571535Y-123199500D01*
X168571530Y-123199500D01*
X168368587Y-123239868D01*
X168368579Y-123239870D01*
X168177403Y-123319058D01*
X168005342Y-123434024D01*
X167859024Y-123580342D01*
X167744058Y-123752403D01*
X167664870Y-123943579D01*
X167664868Y-123943587D01*
X167624500Y-124146530D01*
X143000500Y-124146530D01*
X143000500Y-122947273D01*
X147089700Y-122947273D01*
X147089700Y-123052727D01*
X147116993Y-123154587D01*
X147169720Y-123245913D01*
X147244287Y-123320480D01*
X147335613Y-123373207D01*
X147437473Y-123400500D01*
X147437475Y-123400500D01*
X147542925Y-123400500D01*
X147542927Y-123400500D01*
X147644787Y-123373207D01*
X147736113Y-123320480D01*
X147810680Y-123245913D01*
X147863407Y-123154587D01*
X147890700Y-123052727D01*
X147890700Y-122947273D01*
X147863407Y-122845413D01*
X147810680Y-122754087D01*
X147736113Y-122679520D01*
X147644787Y-122626793D01*
X147542927Y-122599500D01*
X147437473Y-122599500D01*
X147335613Y-122626793D01*
X147335610Y-122626794D01*
X147244285Y-122679521D01*
X147169721Y-122754085D01*
X147116994Y-122845410D01*
X147116993Y-122845413D01*
X147089700Y-122947273D01*
X143000500Y-122947273D01*
X143000500Y-121646530D01*
X167624500Y-121646530D01*
X167624500Y-121853469D01*
X167664868Y-122056412D01*
X167664870Y-122056420D01*
X167735615Y-122227214D01*
X167744059Y-122247598D01*
X167747486Y-122252727D01*
X167859024Y-122419657D01*
X168005342Y-122565975D01*
X168005345Y-122565977D01*
X168177402Y-122680941D01*
X168368580Y-122760130D01*
X168571530Y-122800499D01*
X168571534Y-122800500D01*
X168571535Y-122800500D01*
X169028466Y-122800500D01*
X169028467Y-122800499D01*
X169231420Y-122760130D01*
X169422598Y-122680941D01*
X169594655Y-122565977D01*
X169740977Y-122419655D01*
X169855941Y-122247598D01*
X169935130Y-122056420D01*
X169975500Y-121853465D01*
X169975500Y-121646535D01*
X169935130Y-121443580D01*
X169855941Y-121252402D01*
X169740977Y-121080345D01*
X169740975Y-121080342D01*
X169594657Y-120934024D01*
X169488678Y-120863212D01*
X169422598Y-120819059D01*
X169231420Y-120739870D01*
X169231412Y-120739868D01*
X169028469Y-120699500D01*
X169028465Y-120699500D01*
X168571535Y-120699500D01*
X168571530Y-120699500D01*
X168368587Y-120739868D01*
X168368579Y-120739870D01*
X168177403Y-120819058D01*
X168005342Y-120934024D01*
X167859024Y-121080342D01*
X167744058Y-121252403D01*
X167664870Y-121443579D01*
X167664868Y-121443587D01*
X167624500Y-121646530D01*
X143000500Y-121646530D01*
X143000500Y-116760438D01*
X142996972Y-116747273D01*
X142996608Y-116745913D01*
X142980023Y-116684014D01*
X142980022Y-116684013D01*
X142980022Y-116684012D01*
X142940460Y-116615489D01*
X142772244Y-116447273D01*
X149699500Y-116447273D01*
X149699500Y-116552727D01*
X149726793Y-116654587D01*
X149779520Y-116745913D01*
X149854087Y-116820480D01*
X149898629Y-116846196D01*
X149946843Y-116896762D01*
X149960067Y-116965369D01*
X149944016Y-117015580D01*
X149926795Y-117045408D01*
X149926793Y-117045413D01*
X149899500Y-117147273D01*
X149899500Y-117252727D01*
X149926793Y-117354587D01*
X149979520Y-117445913D01*
X150054087Y-117520480D01*
X150145413Y-117573207D01*
X150247273Y-117600500D01*
X150247275Y-117600500D01*
X150352725Y-117600500D01*
X150352727Y-117600500D01*
X150454587Y-117573207D01*
X150545913Y-117520480D01*
X150620480Y-117445913D01*
X150673207Y-117354587D01*
X150700500Y-117252727D01*
X150700500Y-117147273D01*
X150673207Y-117045413D01*
X150620480Y-116954087D01*
X150545913Y-116879520D01*
X150501370Y-116853803D01*
X150453155Y-116803237D01*
X150439933Y-116734630D01*
X150455985Y-116684416D01*
X150456500Y-116683524D01*
X150473207Y-116654587D01*
X150500500Y-116552727D01*
X150500500Y-116447273D01*
X150473207Y-116345413D01*
X150420480Y-116254087D01*
X150345913Y-116179520D01*
X150254587Y-116126793D01*
X150152727Y-116099500D01*
X150047273Y-116099500D01*
X149945413Y-116126793D01*
X149945410Y-116126794D01*
X149854085Y-116179521D01*
X149779521Y-116254085D01*
X149726794Y-116345410D01*
X149726793Y-116345413D01*
X149699500Y-116447273D01*
X142772244Y-116447273D01*
X141237152Y-114912181D01*
X141203667Y-114850858D01*
X141208651Y-114781166D01*
X141250523Y-114725233D01*
X141315987Y-114700816D01*
X141324833Y-114700500D01*
X152624167Y-114700500D01*
X152691206Y-114720185D01*
X152711848Y-114736819D01*
X157465489Y-119490460D01*
X157534012Y-119530022D01*
X157610438Y-119550500D01*
X157689562Y-119550500D01*
X167579564Y-119550500D01*
X167646603Y-119570185D01*
X167692358Y-119622989D01*
X167694121Y-119627039D01*
X167744059Y-119747598D01*
X167780896Y-119802729D01*
X167859024Y-119919657D01*
X168005342Y-120065975D01*
X168005345Y-120065977D01*
X168177402Y-120180941D01*
X168368580Y-120260130D01*
X168571530Y-120300499D01*
X168571534Y-120300500D01*
X168571535Y-120300500D01*
X169028466Y-120300500D01*
X169028467Y-120300499D01*
X169231420Y-120260130D01*
X169422598Y-120180941D01*
X169594655Y-120065977D01*
X169740977Y-119919655D01*
X169855941Y-119747598D01*
X169935130Y-119556420D01*
X169975500Y-119353465D01*
X169975500Y-119146535D01*
X169935130Y-118943580D01*
X169855941Y-118752402D01*
X169740977Y-118580345D01*
X169740975Y-118580342D01*
X169594657Y-118434024D01*
X169475021Y-118354087D01*
X169422598Y-118319059D01*
X169407311Y-118312727D01*
X169231420Y-118239870D01*
X169231412Y-118239868D01*
X169028469Y-118199500D01*
X169028465Y-118199500D01*
X168571535Y-118199500D01*
X168571530Y-118199500D01*
X168368587Y-118239868D01*
X168368579Y-118239870D01*
X168177403Y-118319058D01*
X168005342Y-118434024D01*
X167859024Y-118580342D01*
X167744058Y-118752403D01*
X167694125Y-118872953D01*
X167650284Y-118927356D01*
X167583990Y-118949421D01*
X167579564Y-118949500D01*
X157825833Y-118949500D01*
X157758794Y-118929815D01*
X157738152Y-118913181D01*
X156087152Y-117262181D01*
X156053667Y-117200858D01*
X156058651Y-117131166D01*
X156100523Y-117075233D01*
X156165987Y-117050816D01*
X156174833Y-117050500D01*
X167579564Y-117050500D01*
X167646603Y-117070185D01*
X167692358Y-117122989D01*
X167694125Y-117127047D01*
X167727308Y-117207159D01*
X167744059Y-117247598D01*
X167770038Y-117286479D01*
X167859024Y-117419657D01*
X168005342Y-117565975D01*
X168005345Y-117565977D01*
X168177402Y-117680941D01*
X168368580Y-117760130D01*
X168571530Y-117800499D01*
X168571534Y-117800500D01*
X168571535Y-117800500D01*
X169028466Y-117800500D01*
X169028467Y-117800499D01*
X169231420Y-117760130D01*
X169422598Y-117680941D01*
X169594655Y-117565977D01*
X169740977Y-117419655D01*
X169855941Y-117247598D01*
X169935130Y-117056420D01*
X169975500Y-116853465D01*
X169975500Y-116646535D01*
X169935130Y-116443580D01*
X169855941Y-116252402D01*
X169740977Y-116080345D01*
X169740975Y-116080342D01*
X169594657Y-115934024D01*
X169508626Y-115876541D01*
X169422598Y-115819059D01*
X169231420Y-115739870D01*
X169231412Y-115739868D01*
X169028469Y-115699500D01*
X169028465Y-115699500D01*
X168571535Y-115699500D01*
X168571530Y-115699500D01*
X168368587Y-115739868D01*
X168368579Y-115739870D01*
X168177403Y-115819058D01*
X168005342Y-115934024D01*
X167859024Y-116080342D01*
X167744058Y-116252403D01*
X167694125Y-116372953D01*
X167650284Y-116427356D01*
X167583990Y-116449421D01*
X167579564Y-116449500D01*
X156073880Y-116449500D01*
X156006841Y-116429815D01*
X155986199Y-116413181D01*
X154335199Y-114762181D01*
X154301714Y-114700858D01*
X154306698Y-114631166D01*
X154348570Y-114575233D01*
X154414034Y-114550816D01*
X154422880Y-114550500D01*
X167579564Y-114550500D01*
X167646603Y-114570185D01*
X167692358Y-114622989D01*
X167694121Y-114627039D01*
X167701940Y-114645914D01*
X167738462Y-114734087D01*
X167744059Y-114747598D01*
X167766488Y-114781166D01*
X167859024Y-114919657D01*
X168005342Y-115065975D01*
X168005345Y-115065977D01*
X168177402Y-115180941D01*
X168368580Y-115260130D01*
X168571424Y-115300478D01*
X168571530Y-115300499D01*
X168571534Y-115300500D01*
X168571535Y-115300500D01*
X169028466Y-115300500D01*
X169028467Y-115300499D01*
X169231420Y-115260130D01*
X169422598Y-115180941D01*
X169594655Y-115065977D01*
X169740977Y-114919655D01*
X169855941Y-114747598D01*
X169935130Y-114556420D01*
X169975500Y-114353465D01*
X169975500Y-114146535D01*
X169935130Y-113943580D01*
X169855941Y-113752402D01*
X169740977Y-113580345D01*
X169740975Y-113580342D01*
X169594657Y-113434024D01*
X169479790Y-113357273D01*
X169422598Y-113319059D01*
X169231420Y-113239870D01*
X169231412Y-113239868D01*
X169028469Y-113199500D01*
X169028465Y-113199500D01*
X168571535Y-113199500D01*
X168571530Y-113199500D01*
X168368587Y-113239868D01*
X168368579Y-113239870D01*
X168177403Y-113319058D01*
X168005342Y-113434024D01*
X167859024Y-113580342D01*
X167744058Y-113752403D01*
X167694125Y-113872953D01*
X167650284Y-113927356D01*
X167583990Y-113949421D01*
X167579564Y-113949500D01*
X154225833Y-113949500D01*
X154158794Y-113929815D01*
X154138152Y-113913181D01*
X153394512Y-113169541D01*
X153394507Y-113169537D01*
X153385065Y-113164086D01*
X153385064Y-113164086D01*
X153385062Y-113164085D01*
X153325991Y-113129980D01*
X153325990Y-113129979D01*
X153300513Y-113123152D01*
X153249562Y-113109500D01*
X153249560Y-113109500D01*
X135513744Y-113109500D01*
X135451744Y-113092887D01*
X135445914Y-113089521D01*
X135445913Y-113089520D01*
X135354587Y-113036793D01*
X135252727Y-113009500D01*
X135147273Y-113009500D01*
X135045413Y-113036793D01*
X135045410Y-113036794D01*
X134954085Y-113089521D01*
X134879521Y-113164085D01*
X134826794Y-113255410D01*
X134826793Y-113255413D01*
X134799500Y-113357273D01*
X134799500Y-113462727D01*
X134826793Y-113564587D01*
X134879520Y-113655913D01*
X134954087Y-113730480D01*
X135037500Y-113778638D01*
X135085716Y-113829205D01*
X135099500Y-113886025D01*
X135099500Y-113952727D01*
X135126793Y-114054587D01*
X135179520Y-114145913D01*
X135254087Y-114220480D01*
X135337500Y-114268638D01*
X135385716Y-114319205D01*
X135399500Y-114376025D01*
X135399500Y-114452727D01*
X135426793Y-114554587D01*
X135479520Y-114645913D01*
X135554087Y-114720480D01*
X135645413Y-114773207D01*
X135747273Y-114800500D01*
X135747275Y-114800500D01*
X135852725Y-114800500D01*
X135852727Y-114800500D01*
X135954587Y-114773207D01*
X136045913Y-114720480D01*
X136045914Y-114720478D01*
X136051744Y-114717113D01*
X136113744Y-114700500D01*
X139015618Y-114700500D01*
X139082657Y-114720185D01*
X139128412Y-114772989D01*
X139138356Y-114842147D01*
X139135394Y-114856584D01*
X139116454Y-114927273D01*
X139116454Y-115032727D01*
X139143747Y-115134587D01*
X139196474Y-115225913D01*
X139271041Y-115300480D01*
X139323760Y-115330917D01*
X139371976Y-115381484D01*
X139385198Y-115450091D01*
X139359230Y-115514956D01*
X139323762Y-115545690D01*
X139265166Y-115579521D01*
X139190602Y-115654085D01*
X139137875Y-115745410D01*
X139137874Y-115745413D01*
X139110581Y-115847273D01*
X139110581Y-115952727D01*
X139112396Y-115959500D01*
X139125927Y-116009999D01*
X139124264Y-116079849D01*
X139093834Y-116129773D01*
X139029520Y-116194087D01*
X138976794Y-116285410D01*
X138976793Y-116285413D01*
X138949500Y-116387273D01*
X138949500Y-116492727D01*
X138976793Y-116594587D01*
X139029520Y-116685913D01*
X139104087Y-116760480D01*
X139195413Y-116813207D01*
X139290118Y-116838583D01*
X139345705Y-116870676D01*
X139763181Y-117288152D01*
X139796666Y-117349475D01*
X139799500Y-117375833D01*
X139799500Y-121575167D01*
X139779815Y-121642206D01*
X139727011Y-121687961D01*
X139657853Y-121697905D01*
X139594297Y-121668880D01*
X139587819Y-121662848D01*
X138534336Y-120609365D01*
X138502242Y-120553777D01*
X138500500Y-120547275D01*
X138500500Y-120547273D01*
X138473207Y-120445413D01*
X138420480Y-120354087D01*
X138345913Y-120279520D01*
X138254587Y-120226793D01*
X138152727Y-120199500D01*
X138047273Y-120199500D01*
X137945413Y-120226793D01*
X137945410Y-120226794D01*
X137854085Y-120279521D01*
X137779521Y-120354085D01*
X137726794Y-120445410D01*
X137726793Y-120445413D01*
X137699500Y-120547273D01*
X137699500Y-120652727D01*
X137726793Y-120754587D01*
X137779520Y-120845913D01*
X137854087Y-120920480D01*
X137945413Y-120973207D01*
X138047273Y-121000500D01*
X138047276Y-121000500D01*
X138053777Y-121002242D01*
X138109365Y-121034336D01*
X138915663Y-121840634D01*
X138949148Y-121901957D01*
X138944164Y-121971649D01*
X138902292Y-122027582D01*
X138889989Y-122035697D01*
X138814087Y-122079520D01*
X138814084Y-122079522D01*
X138739521Y-122154085D01*
X138686794Y-122245410D01*
X138686793Y-122245413D01*
X138659500Y-122347273D01*
X138659500Y-122452727D01*
X138686793Y-122554587D01*
X138739520Y-122645913D01*
X138739523Y-122645916D01*
X138742887Y-122651742D01*
X138759500Y-122713743D01*
X138759500Y-128164167D01*
X138739815Y-128231206D01*
X138723181Y-128251848D01*
X138172181Y-128802848D01*
X138110858Y-128836333D01*
X138041166Y-128831349D01*
X137985233Y-128789477D01*
X137960816Y-128724013D01*
X137960500Y-128715167D01*
X137960500Y-124613743D01*
X137977113Y-124551742D01*
X137980476Y-124545916D01*
X137980480Y-124545913D01*
X138033207Y-124454587D01*
X138060500Y-124352727D01*
X138060500Y-124247273D01*
X138033207Y-124145413D01*
X137980480Y-124054087D01*
X137905913Y-123979520D01*
X137814587Y-123926793D01*
X137712727Y-123899500D01*
X137624500Y-123899500D01*
X137557461Y-123879815D01*
X137511706Y-123827011D01*
X137500500Y-123775500D01*
X137500500Y-121617255D01*
X137520185Y-121550216D01*
X137536819Y-121529574D01*
X137545750Y-121520643D01*
X137598477Y-121429317D01*
X137625770Y-121327457D01*
X137625770Y-121222003D01*
X137598477Y-121120143D01*
X137545750Y-121028817D01*
X137471183Y-120954250D01*
X137379857Y-120901523D01*
X137277997Y-120874230D01*
X137172543Y-120874230D01*
X137070683Y-120901523D01*
X137070680Y-120901524D01*
X136979355Y-120954251D01*
X136904791Y-121028815D01*
X136852064Y-121120140D01*
X136852063Y-121120143D01*
X136824770Y-121222003D01*
X136824770Y-121327457D01*
X136831905Y-121354087D01*
X136852064Y-121429319D01*
X136852065Y-121429322D01*
X136882886Y-121482704D01*
X136899500Y-121544705D01*
X136899500Y-122887945D01*
X136879815Y-122954984D01*
X136827011Y-123000739D01*
X136757853Y-123010683D01*
X136743410Y-123007721D01*
X136725160Y-123002831D01*
X136712727Y-122999500D01*
X136607273Y-122999500D01*
X136505413Y-123026793D01*
X136505410Y-123026794D01*
X136414085Y-123079521D01*
X136339521Y-123154085D01*
X136286794Y-123245410D01*
X136286793Y-123245413D01*
X136259500Y-123347273D01*
X136259500Y-123452727D01*
X136286793Y-123554587D01*
X136339520Y-123645913D01*
X136339523Y-123645916D01*
X136342887Y-123651742D01*
X136359500Y-123713743D01*
X136359500Y-127742166D01*
X136339815Y-127809205D01*
X136323181Y-127829847D01*
X133922259Y-130230768D01*
X133860936Y-130264253D01*
X133791244Y-130259269D01*
X133735311Y-130217397D01*
X133714804Y-130175181D01*
X133699723Y-130118897D01*
X133646996Y-130027571D01*
X133572429Y-129953004D01*
X133566682Y-129947257D01*
X133568773Y-129945165D01*
X133535932Y-129900184D01*
X133531779Y-129830438D01*
X133564939Y-129770561D01*
X135040460Y-128295042D01*
X135069202Y-128245259D01*
X135080021Y-128226520D01*
X135100500Y-128150093D01*
X135100500Y-125717255D01*
X135120185Y-125650216D01*
X135136819Y-125629574D01*
X135145750Y-125620643D01*
X135198477Y-125529317D01*
X135225770Y-125427457D01*
X135225770Y-125322003D01*
X135198477Y-125220143D01*
X135145750Y-125128817D01*
X135071183Y-125054250D01*
X134979857Y-125001523D01*
X134877997Y-124974230D01*
X134772543Y-124974230D01*
X134670683Y-125001523D01*
X134670680Y-125001524D01*
X134579355Y-125054251D01*
X134504791Y-125128815D01*
X134452064Y-125220140D01*
X134452063Y-125220143D01*
X134424770Y-125322003D01*
X134424770Y-125427456D01*
X134452064Y-125529319D01*
X134452065Y-125529322D01*
X134482886Y-125582704D01*
X134499500Y-125644705D01*
X134499500Y-127934697D01*
X134479815Y-128001736D01*
X134463181Y-128022378D01*
X133181485Y-129304073D01*
X133120162Y-129337558D01*
X133050470Y-129332574D01*
X132994537Y-129290702D01*
X132974029Y-129248481D01*
X132973207Y-129245413D01*
X132920480Y-129154087D01*
X132857386Y-129090993D01*
X132823901Y-129029670D01*
X132828885Y-128959978D01*
X132857386Y-128915631D01*
X132983540Y-128789477D01*
X133308636Y-128464381D01*
X133364222Y-128432289D01*
X133370723Y-128430547D01*
X133370727Y-128430547D01*
X133472587Y-128403254D01*
X133563913Y-128350527D01*
X133638480Y-128275960D01*
X133691207Y-128184634D01*
X133718500Y-128082774D01*
X133718500Y-127977320D01*
X133691207Y-127875460D01*
X133638480Y-127784134D01*
X133563913Y-127709567D01*
X133472587Y-127656840D01*
X133370727Y-127629547D01*
X133265273Y-127629547D01*
X133163413Y-127656840D01*
X133163410Y-127656841D01*
X133072085Y-127709568D01*
X132997521Y-127784132D01*
X132944794Y-127875457D01*
X132944793Y-127875458D01*
X132915757Y-127983825D01*
X132883663Y-128039412D01*
X131852183Y-129070893D01*
X131790860Y-129104378D01*
X131721168Y-129099394D01*
X131665235Y-129057522D01*
X131640818Y-128992058D01*
X131640502Y-128983212D01*
X131640502Y-127323578D01*
X131657115Y-127261577D01*
X131660478Y-127255751D01*
X131660482Y-127255748D01*
X131713209Y-127164422D01*
X131740502Y-127062562D01*
X131740502Y-126957108D01*
X131713209Y-126855248D01*
X131660482Y-126763922D01*
X131585915Y-126689355D01*
X131515064Y-126648449D01*
X131494591Y-126636629D01*
X131494590Y-126636628D01*
X131494589Y-126636628D01*
X131392729Y-126609335D01*
X131287275Y-126609335D01*
X131185415Y-126636628D01*
X131185412Y-126636629D01*
X131094087Y-126689356D01*
X131019523Y-126763920D01*
X130966796Y-126855245D01*
X130966795Y-126855248D01*
X130939502Y-126957108D01*
X130939502Y-127062562D01*
X130966795Y-127164422D01*
X131019522Y-127255748D01*
X131019525Y-127255751D01*
X131022889Y-127261577D01*
X131039502Y-127323578D01*
X131039502Y-128886657D01*
X131019817Y-128953696D01*
X131003183Y-128974338D01*
X130634908Y-129342613D01*
X130573585Y-129376098D01*
X130503893Y-129371114D01*
X130459546Y-129342613D01*
X130396454Y-129279521D01*
X130396453Y-129279520D01*
X130305127Y-129226793D01*
X130203267Y-129199500D01*
X130097813Y-129199500D01*
X129995953Y-129226793D01*
X129995950Y-129226794D01*
X129958395Y-129248477D01*
X129904627Y-129279520D01*
X129904626Y-129279520D01*
X129898796Y-129282887D01*
X129836796Y-129299500D01*
X115013744Y-129299500D01*
X114951744Y-129282887D01*
X114945914Y-129279521D01*
X114945913Y-129279520D01*
X114854587Y-129226793D01*
X114752727Y-129199500D01*
X114647273Y-129199500D01*
X114545413Y-129226793D01*
X114545410Y-129226794D01*
X114454085Y-129279521D01*
X114379521Y-129354085D01*
X114326794Y-129445410D01*
X114326793Y-129445413D01*
X114299500Y-129547273D01*
X114299500Y-129652726D01*
X114326793Y-129754586D01*
X114326794Y-129754589D01*
X114374951Y-129838000D01*
X114391424Y-129905901D01*
X114374951Y-129962000D01*
X114326794Y-130045410D01*
X114326793Y-130045413D01*
X114299500Y-130147273D01*
X114299500Y-130252727D01*
X114302589Y-130264253D01*
X114326793Y-130354586D01*
X114326794Y-130354589D01*
X114374951Y-130438000D01*
X114391424Y-130505901D01*
X114374951Y-130562000D01*
X114326794Y-130645410D01*
X114326793Y-130645413D01*
X114299500Y-130747273D01*
X114299500Y-130852727D01*
X114326243Y-130952532D01*
X114326793Y-130954586D01*
X114326794Y-130954589D01*
X114374951Y-131038000D01*
X114391424Y-131105901D01*
X114374951Y-131162000D01*
X114326794Y-131245410D01*
X114326793Y-131245413D01*
X114299500Y-131347273D01*
X114299500Y-131452726D01*
X114326793Y-131554586D01*
X114326794Y-131554589D01*
X114374951Y-131638000D01*
X114391424Y-131705901D01*
X114374951Y-131762000D01*
X114326794Y-131845410D01*
X114326793Y-131845413D01*
X114299500Y-131947273D01*
X114299500Y-132052727D01*
X114326659Y-132154085D01*
X114326793Y-132154586D01*
X114326794Y-132154589D01*
X114374951Y-132238000D01*
X114391424Y-132305901D01*
X114374951Y-132362000D01*
X114326794Y-132445410D01*
X114326793Y-132445413D01*
X114299500Y-132547273D01*
X114299500Y-132652727D01*
X114326659Y-132754085D01*
X114326793Y-132754586D01*
X114326794Y-132754589D01*
X114374951Y-132838000D01*
X114391424Y-132905901D01*
X114374951Y-132962000D01*
X114326794Y-133045410D01*
X114326793Y-133045413D01*
X114299500Y-133147273D01*
X114299500Y-133252727D01*
X114325104Y-133348281D01*
X114326793Y-133354586D01*
X114326794Y-133354589D01*
X114374951Y-133438000D01*
X114391424Y-133505901D01*
X114374951Y-133562000D01*
X114326794Y-133645410D01*
X114326793Y-133645413D01*
X114299500Y-133747273D01*
X114299500Y-133852727D01*
X114324834Y-133947273D01*
X114326793Y-133954586D01*
X114326794Y-133954589D01*
X114374951Y-134038000D01*
X114391424Y-134105901D01*
X114374951Y-134162000D01*
X114326794Y-134245410D01*
X114326793Y-134245413D01*
X114299500Y-134347273D01*
X114299500Y-134452726D01*
X114326793Y-134554586D01*
X114326794Y-134554589D01*
X114374951Y-134638000D01*
X114391424Y-134705901D01*
X114374951Y-134762000D01*
X114326794Y-134845410D01*
X114326793Y-134845413D01*
X114299500Y-134947273D01*
X114299500Y-135052727D01*
X114326295Y-135152726D01*
X114326793Y-135154586D01*
X114326794Y-135154589D01*
X114374951Y-135238000D01*
X114391424Y-135305901D01*
X114374951Y-135362000D01*
X114326794Y-135445410D01*
X114326793Y-135445413D01*
X114299500Y-135547273D01*
X114299500Y-135652727D01*
X114326793Y-135754587D01*
X114379520Y-135845913D01*
X114454087Y-135920480D01*
X114537500Y-135968638D01*
X114585716Y-136019205D01*
X114599500Y-136076025D01*
X114599500Y-136152727D01*
X114608952Y-136188000D01*
X114626793Y-136254586D01*
X114626795Y-136254591D01*
X114630644Y-136261258D01*
X114647115Y-136329158D01*
X114624262Y-136395185D01*
X114569340Y-136438374D01*
X114499787Y-136445015D01*
X114461258Y-136430644D01*
X114454591Y-136426795D01*
X114454589Y-136426794D01*
X114454587Y-136426793D01*
X114352727Y-136399500D01*
X114247273Y-136399500D01*
X114145413Y-136426793D01*
X114145410Y-136426794D01*
X114054085Y-136479521D01*
X113979521Y-136554085D01*
X113926794Y-136645410D01*
X113926793Y-136645413D01*
X113899500Y-136747273D01*
X101364277Y-136747273D01*
X101222743Y-136605739D01*
X101222736Y-136605733D01*
X101030293Y-136458067D01*
X101030292Y-136458066D01*
X101030289Y-136458064D01*
X100835167Y-136345410D01*
X100820214Y-136336777D01*
X100820205Y-136336773D01*
X100596104Y-136243947D01*
X100478944Y-136212554D01*
X100361789Y-136181162D01*
X100361788Y-136181161D01*
X100361785Y-136181161D01*
X100121289Y-136149500D01*
X100121288Y-136149500D01*
X99878712Y-136149500D01*
X99878711Y-136149500D01*
X99638214Y-136181161D01*
X99403895Y-136243947D01*
X99179794Y-136336773D01*
X99179785Y-136336777D01*
X99017204Y-136430644D01*
X98978952Y-136452729D01*
X98969706Y-136458067D01*
X98777263Y-136605733D01*
X98777256Y-136605739D01*
X98605739Y-136777256D01*
X98605733Y-136777263D01*
X98458067Y-136969706D01*
X98336777Y-137179785D01*
X98336773Y-137179794D01*
X98243947Y-137403895D01*
X98181161Y-137638214D01*
X98149500Y-137878711D01*
X97500499Y-137878711D01*
X97500499Y-124447273D01*
X112599500Y-124447273D01*
X112599500Y-124552727D01*
X112626793Y-124654587D01*
X112679520Y-124745913D01*
X112754087Y-124820480D01*
X112845413Y-124873207D01*
X112947273Y-124900500D01*
X112947275Y-124900500D01*
X113052725Y-124900500D01*
X113052727Y-124900500D01*
X113154587Y-124873207D01*
X113245913Y-124820480D01*
X113320480Y-124745913D01*
X113373207Y-124654587D01*
X113400500Y-124552727D01*
X113400500Y-124447273D01*
X113373207Y-124345413D01*
X113320480Y-124254087D01*
X113245913Y-124179520D01*
X113154587Y-124126793D01*
X113052727Y-124099500D01*
X112947273Y-124099500D01*
X112845413Y-124126793D01*
X112845410Y-124126794D01*
X112754085Y-124179521D01*
X112679521Y-124254085D01*
X112626794Y-124345410D01*
X112626793Y-124345413D01*
X112599500Y-124447273D01*
X97500499Y-124447273D01*
X97500499Y-122758273D01*
X114099500Y-122758273D01*
X114099500Y-122863727D01*
X114126149Y-122963181D01*
X114126793Y-122965586D01*
X114126794Y-122965589D01*
X114140922Y-122990059D01*
X114179520Y-123056913D01*
X114254087Y-123131480D01*
X114345413Y-123184207D01*
X114447273Y-123211500D01*
X114447275Y-123211500D01*
X114552725Y-123211500D01*
X114552727Y-123211500D01*
X114654587Y-123184207D01*
X114745913Y-123131480D01*
X114820480Y-123056913D01*
X114856684Y-122994204D01*
X114907250Y-122945989D01*
X114975857Y-122932765D01*
X115040722Y-122958733D01*
X115051752Y-122968523D01*
X119663689Y-127580460D01*
X119723029Y-127614720D01*
X119732208Y-127620020D01*
X119732212Y-127620022D01*
X119808638Y-127640500D01*
X119808640Y-127640500D01*
X129749020Y-127640500D01*
X129749022Y-127640500D01*
X129825449Y-127620021D01*
X129839612Y-127611844D01*
X129901614Y-127595230D01*
X129907455Y-127595230D01*
X129907457Y-127595230D01*
X130009317Y-127567937D01*
X130100643Y-127515210D01*
X130175210Y-127440643D01*
X130227937Y-127349317D01*
X130255230Y-127247457D01*
X130255230Y-127142003D01*
X130227937Y-127040143D01*
X130175210Y-126948817D01*
X130100643Y-126874250D01*
X130009317Y-126821523D01*
X129907457Y-126794230D01*
X129802003Y-126794230D01*
X129700143Y-126821523D01*
X129700140Y-126821524D01*
X129608815Y-126874251D01*
X129534252Y-126948814D01*
X129534248Y-126948820D01*
X129517690Y-126977500D01*
X129509003Y-126985782D01*
X129504016Y-126996703D01*
X129484182Y-127009449D01*
X129467123Y-127025715D01*
X129453868Y-127028930D01*
X129445238Y-127034477D01*
X129410303Y-127039500D01*
X129309730Y-127039500D01*
X129242691Y-127019815D01*
X129196936Y-126967011D01*
X129185730Y-126915500D01*
X129185730Y-126811505D01*
X129185730Y-126811503D01*
X129158437Y-126709643D01*
X129105710Y-126618317D01*
X129031143Y-126543750D01*
X128939817Y-126491023D01*
X128837957Y-126463730D01*
X128732503Y-126463730D01*
X128630643Y-126491023D01*
X128630640Y-126491024D01*
X128539315Y-126543751D01*
X128464752Y-126618314D01*
X128459802Y-126624766D01*
X128458321Y-126623629D01*
X128457111Y-126624783D01*
X128452125Y-126635703D01*
X128432291Y-126648449D01*
X128415231Y-126664716D01*
X128401975Y-126667931D01*
X128393347Y-126673477D01*
X128358412Y-126678500D01*
X128124500Y-126678500D01*
X128057461Y-126658815D01*
X128011706Y-126606011D01*
X128000500Y-126554500D01*
X128000500Y-126465275D01*
X128000500Y-126465273D01*
X127973207Y-126363413D01*
X127920480Y-126272087D01*
X127845913Y-126197520D01*
X127754587Y-126144793D01*
X127652727Y-126117500D01*
X127547273Y-126117500D01*
X127445413Y-126144793D01*
X127445410Y-126144794D01*
X127386555Y-126178774D01*
X127354087Y-126197520D01*
X127354086Y-126197520D01*
X127348256Y-126200887D01*
X127332767Y-126205037D01*
X127321191Y-126212477D01*
X127286256Y-126217500D01*
X127124500Y-126217500D01*
X127057461Y-126197815D01*
X127011706Y-126145011D01*
X127000500Y-126093500D01*
X127000500Y-125987275D01*
X127000500Y-125987273D01*
X126973207Y-125885413D01*
X126920480Y-125794087D01*
X126845913Y-125719520D01*
X126754587Y-125666793D01*
X126652727Y-125639500D01*
X126547273Y-125639500D01*
X126445413Y-125666793D01*
X126445410Y-125666794D01*
X126388763Y-125699500D01*
X126354087Y-125719520D01*
X126354086Y-125719520D01*
X126348256Y-125722887D01*
X126286256Y-125739500D01*
X120575986Y-125739500D01*
X120508947Y-125719815D01*
X120488305Y-125703181D01*
X118597305Y-123812181D01*
X118563820Y-123750858D01*
X118568804Y-123681166D01*
X118610676Y-123625233D01*
X118676140Y-123600816D01*
X118684986Y-123600500D01*
X125486256Y-123600500D01*
X125548256Y-123617113D01*
X125554085Y-123620478D01*
X125554087Y-123620480D01*
X125645413Y-123673207D01*
X125747273Y-123700500D01*
X125747275Y-123700500D01*
X125852725Y-123700500D01*
X125852727Y-123700500D01*
X125954587Y-123673207D01*
X126045913Y-123620480D01*
X126120480Y-123545913D01*
X126173207Y-123454587D01*
X126200500Y-123352727D01*
X126200500Y-123247273D01*
X126173207Y-123145413D01*
X126120480Y-123054087D01*
X126045913Y-122979520D01*
X125954587Y-122926793D01*
X125852727Y-122899500D01*
X125747273Y-122899500D01*
X125744629Y-122899848D01*
X125742398Y-122899500D01*
X125739146Y-122899500D01*
X125739146Y-122898992D01*
X125675594Y-122889079D01*
X125623340Y-122842697D01*
X125604457Y-122775428D01*
X125624940Y-122708628D01*
X125640758Y-122689236D01*
X125702281Y-122627714D01*
X125755008Y-122536388D01*
X125782301Y-122434528D01*
X125782301Y-122329074D01*
X125755008Y-122227214D01*
X125702281Y-122135888D01*
X125627714Y-122061321D01*
X125536388Y-122008594D01*
X125434528Y-121981301D01*
X125329074Y-121981301D01*
X125328119Y-121981301D01*
X125261080Y-121961616D01*
X125215325Y-121908812D01*
X125205381Y-121839654D01*
X125220732Y-121795301D01*
X125224667Y-121788483D01*
X125254385Y-121737012D01*
X125281678Y-121635152D01*
X125281678Y-121529698D01*
X125254385Y-121427838D01*
X125201658Y-121336512D01*
X125127091Y-121261945D01*
X125035765Y-121209218D01*
X124933905Y-121181925D01*
X124828451Y-121181925D01*
X124828446Y-121181925D01*
X124798244Y-121190018D01*
X124728394Y-121188354D01*
X124670533Y-121149191D01*
X124643030Y-121084962D01*
X124654618Y-121016060D01*
X124658750Y-121008271D01*
X124683692Y-120965072D01*
X124710985Y-120863212D01*
X124710985Y-120757758D01*
X124683692Y-120655898D01*
X124630965Y-120564572D01*
X124556398Y-120490005D01*
X124465072Y-120437278D01*
X124363212Y-120409985D01*
X124257758Y-120409985D01*
X124155898Y-120437278D01*
X124155895Y-120437279D01*
X124097040Y-120471259D01*
X124064572Y-120490005D01*
X124064571Y-120490005D01*
X124058741Y-120493372D01*
X124042408Y-120497334D01*
X123996741Y-120509985D01*
X118224471Y-120509985D01*
X118157432Y-120490300D01*
X118136790Y-120473666D01*
X117975305Y-120312181D01*
X117941820Y-120250858D01*
X117946804Y-120181166D01*
X117988676Y-120125233D01*
X118054140Y-120100816D01*
X118062986Y-120100500D01*
X124024631Y-120100500D01*
X124024632Y-120100500D01*
X124046426Y-120094660D01*
X124049913Y-120093726D01*
X124082006Y-120089501D01*
X125364803Y-120089501D01*
X125426801Y-120106113D01*
X125456412Y-120123209D01*
X125558272Y-120150502D01*
X125558274Y-120150502D01*
X125663724Y-120150502D01*
X125663726Y-120150502D01*
X125765586Y-120123209D01*
X125856912Y-120070482D01*
X125931479Y-119995915D01*
X125984206Y-119904589D01*
X126011499Y-119802729D01*
X126011499Y-119697275D01*
X125984206Y-119595415D01*
X125931479Y-119504089D01*
X125856912Y-119429522D01*
X125765588Y-119376796D01*
X125765587Y-119376795D01*
X125692169Y-119357123D01*
X125632508Y-119320757D01*
X125606723Y-119276849D01*
X125600500Y-119258331D01*
X125600500Y-119247273D01*
X125573207Y-119145413D01*
X125547711Y-119101253D01*
X125543762Y-119089501D01*
X125542872Y-119066486D01*
X125537442Y-119044102D01*
X125541477Y-119030358D01*
X125541065Y-119019683D01*
X125548133Y-119007690D01*
X125553914Y-118988002D01*
X125573207Y-118954587D01*
X125600500Y-118852727D01*
X125600500Y-118784500D01*
X125620185Y-118717461D01*
X125672989Y-118671706D01*
X125724500Y-118660500D01*
X125752725Y-118660500D01*
X125752727Y-118660500D01*
X125854587Y-118633207D01*
X125945913Y-118580480D01*
X126020480Y-118505913D01*
X126073207Y-118414587D01*
X126100500Y-118312727D01*
X126100500Y-118207273D01*
X126073207Y-118105413D01*
X126020480Y-118014087D01*
X125945913Y-117939520D01*
X125854587Y-117886793D01*
X125752727Y-117859500D01*
X125647273Y-117859500D01*
X125545413Y-117886793D01*
X125545410Y-117886794D01*
X125454085Y-117939521D01*
X125379521Y-118014085D01*
X125326794Y-118105410D01*
X125326793Y-118105413D01*
X125299500Y-118207273D01*
X125299500Y-118275500D01*
X125279815Y-118342539D01*
X125227011Y-118388294D01*
X125208962Y-118394900D01*
X125192548Y-118399500D01*
X125147273Y-118399500D01*
X125045413Y-118426793D01*
X124998485Y-118453886D01*
X124983462Y-118458097D01*
X124963501Y-118457850D01*
X124944100Y-118462557D01*
X124926512Y-118457392D01*
X124913598Y-118457233D01*
X124903689Y-118450691D01*
X124888000Y-118446084D01*
X124854589Y-118426794D01*
X124854588Y-118426793D01*
X124854587Y-118426793D01*
X124752727Y-118399500D01*
X124647273Y-118399500D01*
X124545413Y-118426793D01*
X124545410Y-118426794D01*
X124512000Y-118446084D01*
X124444100Y-118462557D01*
X124388000Y-118446084D01*
X124354589Y-118426794D01*
X124354588Y-118426793D01*
X124354587Y-118426793D01*
X124252727Y-118399500D01*
X124147273Y-118399500D01*
X124045413Y-118426793D01*
X124045410Y-118426794D01*
X124012000Y-118446084D01*
X123944100Y-118462557D01*
X123888000Y-118446084D01*
X123854589Y-118426794D01*
X123854588Y-118426793D01*
X123854587Y-118426793D01*
X123752727Y-118399500D01*
X123647273Y-118399500D01*
X123545413Y-118426793D01*
X123545410Y-118426794D01*
X123512000Y-118446084D01*
X123444100Y-118462557D01*
X123388000Y-118446084D01*
X123354589Y-118426794D01*
X123354588Y-118426793D01*
X123354587Y-118426793D01*
X123252727Y-118399500D01*
X123147273Y-118399500D01*
X123045413Y-118426793D01*
X123045410Y-118426794D01*
X123012000Y-118446084D01*
X122944100Y-118462557D01*
X122888000Y-118446084D01*
X122854589Y-118426794D01*
X122854588Y-118426793D01*
X122854587Y-118426793D01*
X122752727Y-118399500D01*
X122647273Y-118399500D01*
X122545413Y-118426793D01*
X122545410Y-118426794D01*
X122512000Y-118446084D01*
X122444100Y-118462557D01*
X122388000Y-118446084D01*
X122354589Y-118426794D01*
X122354588Y-118426793D01*
X122354587Y-118426793D01*
X122252727Y-118399500D01*
X122147273Y-118399500D01*
X122045413Y-118426793D01*
X122045410Y-118426794D01*
X122012000Y-118446084D01*
X121944100Y-118462557D01*
X121888000Y-118446084D01*
X121854589Y-118426794D01*
X121854588Y-118426793D01*
X121854587Y-118426793D01*
X121752727Y-118399500D01*
X121647273Y-118399500D01*
X121545413Y-118426793D01*
X121545410Y-118426794D01*
X121512000Y-118446084D01*
X121444100Y-118462557D01*
X121388000Y-118446084D01*
X121354589Y-118426794D01*
X121354588Y-118426793D01*
X121354587Y-118426793D01*
X121252727Y-118399500D01*
X121147273Y-118399500D01*
X121045413Y-118426793D01*
X121045410Y-118426794D01*
X121012000Y-118446084D01*
X120944100Y-118462557D01*
X120888000Y-118446084D01*
X120854589Y-118426794D01*
X120854588Y-118426793D01*
X120854587Y-118426793D01*
X120752727Y-118399500D01*
X120647273Y-118399500D01*
X120545413Y-118426793D01*
X120545410Y-118426794D01*
X120454085Y-118479521D01*
X120379521Y-118554085D01*
X120326794Y-118645410D01*
X120326793Y-118645413D01*
X120299500Y-118747273D01*
X120299500Y-118852727D01*
X120323844Y-118943579D01*
X120326793Y-118954586D01*
X120326794Y-118954589D01*
X120346084Y-118988000D01*
X120362557Y-119055900D01*
X120346084Y-119112000D01*
X120326794Y-119145410D01*
X120326793Y-119145413D01*
X120299500Y-119247273D01*
X120299500Y-119352729D01*
X120300367Y-119359316D01*
X120289601Y-119428351D01*
X120243220Y-119480607D01*
X120177428Y-119499500D01*
X117875833Y-119499500D01*
X117808794Y-119479815D01*
X117788152Y-119463181D01*
X115798398Y-117473427D01*
X115764913Y-117412104D01*
X115769897Y-117342412D01*
X115811769Y-117286479D01*
X115877233Y-117262062D01*
X115886079Y-117261746D01*
X124186256Y-117261746D01*
X124248256Y-117278359D01*
X124254085Y-117281724D01*
X124254087Y-117281726D01*
X124345413Y-117334453D01*
X124447273Y-117361746D01*
X124447275Y-117361746D01*
X124552725Y-117361746D01*
X124552727Y-117361746D01*
X124654587Y-117334453D01*
X124745913Y-117281726D01*
X124820480Y-117207159D01*
X124873207Y-117115833D01*
X124900500Y-117013973D01*
X124900500Y-116908519D01*
X124877586Y-116823002D01*
X124879249Y-116753155D01*
X124918411Y-116695292D01*
X124982640Y-116667788D01*
X125051542Y-116679374D01*
X125059329Y-116683506D01*
X125145413Y-116733207D01*
X125247273Y-116760500D01*
X125247275Y-116760500D01*
X125352725Y-116760500D01*
X125352727Y-116760500D01*
X125454587Y-116733207D01*
X125545913Y-116680480D01*
X125620480Y-116605913D01*
X125673207Y-116514587D01*
X125700500Y-116412727D01*
X125700500Y-116307273D01*
X125673207Y-116205413D01*
X125620480Y-116114087D01*
X125545913Y-116039520D01*
X125454587Y-115986793D01*
X125352727Y-115959500D01*
X125247273Y-115959500D01*
X125145413Y-115986793D01*
X125145410Y-115986794D01*
X125105219Y-116009999D01*
X125054087Y-116039520D01*
X125054086Y-116039520D01*
X125048256Y-116042887D01*
X124986256Y-116059500D01*
X115161131Y-116059500D01*
X115094092Y-116039815D01*
X115053744Y-115997500D01*
X115047563Y-115986794D01*
X115028680Y-115954087D01*
X114954113Y-115879520D01*
X114862787Y-115826793D01*
X114760927Y-115799500D01*
X114655473Y-115799500D01*
X114553613Y-115826793D01*
X114553610Y-115826794D01*
X114462285Y-115879521D01*
X114387721Y-115954085D01*
X114334994Y-116045410D01*
X114334993Y-116045413D01*
X114307700Y-116147273D01*
X114307700Y-116252727D01*
X114322316Y-116307273D01*
X114334993Y-116354586D01*
X114334994Y-116354589D01*
X114383151Y-116438000D01*
X114399624Y-116505901D01*
X114383151Y-116562000D01*
X114334994Y-116645410D01*
X114334993Y-116645413D01*
X114307700Y-116747273D01*
X114307700Y-116852727D01*
X114334859Y-116954085D01*
X114334993Y-116954586D01*
X114334994Y-116954589D01*
X114383151Y-117038000D01*
X114399624Y-117105901D01*
X114383151Y-117162000D01*
X114334994Y-117245410D01*
X114334993Y-117245413D01*
X114307700Y-117347273D01*
X114307700Y-117452727D01*
X114313247Y-117473427D01*
X114334993Y-117554586D01*
X114334994Y-117554589D01*
X114383151Y-117638000D01*
X114399624Y-117705901D01*
X114383151Y-117762000D01*
X114334994Y-117845410D01*
X114334993Y-117845413D01*
X114307700Y-117947273D01*
X114307700Y-118052726D01*
X114334993Y-118154586D01*
X114334994Y-118154589D01*
X114383151Y-118238000D01*
X114399624Y-118305901D01*
X114383151Y-118362000D01*
X114334994Y-118445410D01*
X114334993Y-118445413D01*
X114307700Y-118547273D01*
X114307700Y-118652727D01*
X114333034Y-118747273D01*
X114334993Y-118754586D01*
X114334994Y-118754589D01*
X114383151Y-118838000D01*
X114399624Y-118905901D01*
X114383151Y-118962000D01*
X114334994Y-119045410D01*
X114334993Y-119045413D01*
X114307700Y-119147273D01*
X114307700Y-119252727D01*
X114334694Y-119353469D01*
X114334993Y-119354586D01*
X114334994Y-119354589D01*
X114383151Y-119438000D01*
X114399624Y-119505901D01*
X114383151Y-119562000D01*
X114334994Y-119645410D01*
X114334993Y-119645413D01*
X114307700Y-119747273D01*
X114307700Y-119852726D01*
X114334993Y-119954586D01*
X114334994Y-119954589D01*
X114383151Y-120038000D01*
X114399624Y-120105901D01*
X114383151Y-120162000D01*
X114334994Y-120245410D01*
X114334993Y-120245413D01*
X114307700Y-120347273D01*
X114307700Y-120452727D01*
X114333034Y-120547273D01*
X114334993Y-120554586D01*
X114334994Y-120554589D01*
X114383151Y-120638000D01*
X114399624Y-120705901D01*
X114383151Y-120762000D01*
X114334994Y-120845410D01*
X114334993Y-120845413D01*
X114307700Y-120947273D01*
X114307700Y-121052727D01*
X114316338Y-121084962D01*
X114334993Y-121154586D01*
X114334994Y-121154589D01*
X114383151Y-121238000D01*
X114399624Y-121305901D01*
X114383151Y-121362000D01*
X114334994Y-121445410D01*
X114334993Y-121445413D01*
X114307700Y-121547273D01*
X114307700Y-121652727D01*
X114330285Y-121737014D01*
X114334993Y-121754586D01*
X114334994Y-121754589D01*
X114383151Y-121838000D01*
X114399624Y-121905901D01*
X114383151Y-121962000D01*
X114334994Y-122045410D01*
X114334993Y-122045413D01*
X114307700Y-122147273D01*
X114307700Y-122252727D01*
X114331071Y-122339949D01*
X114329408Y-122409799D01*
X114290245Y-122467661D01*
X114273300Y-122479427D01*
X114254085Y-122490521D01*
X114179521Y-122565085D01*
X114126794Y-122656410D01*
X114126793Y-122656413D01*
X114099500Y-122758273D01*
X97500499Y-122758273D01*
X97500499Y-111646530D01*
X167624500Y-111646530D01*
X167624500Y-111853469D01*
X167664868Y-112056412D01*
X167664870Y-112056420D01*
X167744058Y-112247596D01*
X167859024Y-112419657D01*
X168005342Y-112565975D01*
X168005345Y-112565977D01*
X168177402Y-112680941D01*
X168368580Y-112760130D01*
X168571530Y-112800499D01*
X168571534Y-112800500D01*
X168571535Y-112800500D01*
X169028466Y-112800500D01*
X169028467Y-112800499D01*
X169231420Y-112760130D01*
X169422598Y-112680941D01*
X169594655Y-112565977D01*
X169740977Y-112419655D01*
X169855941Y-112247598D01*
X169935130Y-112056420D01*
X169975500Y-111853465D01*
X169975500Y-111646535D01*
X169935130Y-111443580D01*
X169855941Y-111252402D01*
X169740977Y-111080345D01*
X169740975Y-111080342D01*
X169594657Y-110934024D01*
X169508626Y-110876541D01*
X169422598Y-110819059D01*
X169231420Y-110739870D01*
X169231412Y-110739868D01*
X169028469Y-110699500D01*
X169028465Y-110699500D01*
X168571535Y-110699500D01*
X168571530Y-110699500D01*
X168368587Y-110739868D01*
X168368579Y-110739870D01*
X168177403Y-110819058D01*
X168005342Y-110934024D01*
X167859024Y-111080342D01*
X167744058Y-111252403D01*
X167664870Y-111443579D01*
X167664868Y-111443587D01*
X167624500Y-111646530D01*
X97500499Y-111646530D01*
X97500499Y-109146530D01*
X167624500Y-109146530D01*
X167624500Y-109353469D01*
X167664868Y-109556412D01*
X167664870Y-109556420D01*
X167744058Y-109747596D01*
X167859024Y-109919657D01*
X168005342Y-110065975D01*
X168005345Y-110065977D01*
X168177402Y-110180941D01*
X168368580Y-110260130D01*
X168571530Y-110300499D01*
X168571534Y-110300500D01*
X168571535Y-110300500D01*
X169028466Y-110300500D01*
X169028467Y-110300499D01*
X169231420Y-110260130D01*
X169422598Y-110180941D01*
X169594655Y-110065977D01*
X169740977Y-109919655D01*
X169855941Y-109747598D01*
X169935130Y-109556420D01*
X169975500Y-109353465D01*
X169975500Y-109146535D01*
X169935130Y-108943580D01*
X169855941Y-108752402D01*
X169740977Y-108580345D01*
X169740975Y-108580342D01*
X169594657Y-108434024D01*
X169508626Y-108376541D01*
X169422598Y-108319059D01*
X169231420Y-108239870D01*
X169231412Y-108239868D01*
X169028469Y-108199500D01*
X169028465Y-108199500D01*
X168571535Y-108199500D01*
X168571530Y-108199500D01*
X168368587Y-108239868D01*
X168368579Y-108239870D01*
X168177403Y-108319058D01*
X168005342Y-108434024D01*
X167859024Y-108580342D01*
X167744058Y-108752403D01*
X167664870Y-108943579D01*
X167664868Y-108943587D01*
X167624500Y-109146530D01*
X97500499Y-109146530D01*
X97500499Y-106646530D01*
X167624500Y-106646530D01*
X167624500Y-106853469D01*
X167664868Y-107056412D01*
X167664870Y-107056420D01*
X167744058Y-107247596D01*
X167859024Y-107419657D01*
X168005342Y-107565975D01*
X168005345Y-107565977D01*
X168177402Y-107680941D01*
X168368580Y-107760130D01*
X168571530Y-107800499D01*
X168571534Y-107800500D01*
X168571535Y-107800500D01*
X169028466Y-107800500D01*
X169028467Y-107800499D01*
X169231420Y-107760130D01*
X169422598Y-107680941D01*
X169594655Y-107565977D01*
X169740977Y-107419655D01*
X169855941Y-107247598D01*
X169935130Y-107056420D01*
X169975500Y-106853465D01*
X169975500Y-106646535D01*
X169935130Y-106443580D01*
X169855941Y-106252402D01*
X169740977Y-106080345D01*
X169740975Y-106080342D01*
X169594657Y-105934024D01*
X169508626Y-105876541D01*
X169422598Y-105819059D01*
X169231420Y-105739870D01*
X169231412Y-105739868D01*
X169028469Y-105699500D01*
X169028465Y-105699500D01*
X168571535Y-105699500D01*
X168571530Y-105699500D01*
X168368587Y-105739868D01*
X168368579Y-105739870D01*
X168177403Y-105819058D01*
X168005342Y-105934024D01*
X167859024Y-106080342D01*
X167744058Y-106252403D01*
X167664870Y-106443579D01*
X167664868Y-106443587D01*
X167624500Y-106646530D01*
X97500499Y-106646530D01*
X97500499Y-102563766D01*
X166324500Y-102563766D01*
X166324500Y-102736233D01*
X166358143Y-102905366D01*
X166358146Y-102905378D01*
X166424138Y-103064698D01*
X166424145Y-103064711D01*
X166519954Y-103208098D01*
X166519957Y-103208102D01*
X166641897Y-103330042D01*
X166641901Y-103330045D01*
X166785288Y-103425854D01*
X166785301Y-103425861D01*
X166944621Y-103491853D01*
X166944626Y-103491855D01*
X167069073Y-103516609D01*
X167113766Y-103525499D01*
X167113769Y-103525500D01*
X167113771Y-103525500D01*
X167286231Y-103525500D01*
X167286232Y-103525499D01*
X167455374Y-103491855D01*
X167455386Y-103491849D01*
X167461201Y-103490087D01*
X167461747Y-103491886D01*
X167522495Y-103485345D01*
X167584980Y-103516609D01*
X167620643Y-103576692D01*
X167624500Y-103607379D01*
X167624500Y-104904269D01*
X167627353Y-104934699D01*
X167627353Y-104934701D01*
X167672206Y-105062880D01*
X167672207Y-105062882D01*
X167752850Y-105172150D01*
X167862118Y-105252793D01*
X167904845Y-105267744D01*
X167990299Y-105297646D01*
X168020730Y-105300500D01*
X168020734Y-105300500D01*
X169579270Y-105300500D01*
X169609699Y-105297646D01*
X169609701Y-105297646D01*
X169673790Y-105275219D01*
X169737882Y-105252793D01*
X169847150Y-105172150D01*
X169927793Y-105062882D01*
X169950219Y-104998790D01*
X169972646Y-104934701D01*
X169972646Y-104934699D01*
X169975500Y-104904269D01*
X169975500Y-103595730D01*
X169972646Y-103565300D01*
X169972646Y-103565298D01*
X169927793Y-103437119D01*
X169927792Y-103437117D01*
X169919485Y-103425861D01*
X169847150Y-103327850D01*
X169737882Y-103247207D01*
X169737880Y-103247206D01*
X169609700Y-103202353D01*
X169579270Y-103199500D01*
X169579266Y-103199500D01*
X168105603Y-103199500D01*
X168038564Y-103179815D01*
X167992809Y-103127011D01*
X167982865Y-103057853D01*
X167991042Y-103028047D01*
X168041855Y-102905374D01*
X168075500Y-102736229D01*
X168075500Y-102563771D01*
X168075500Y-102563768D01*
X168075499Y-102563766D01*
X168041856Y-102394633D01*
X168041855Y-102394626D01*
X168041853Y-102394621D01*
X167975861Y-102235301D01*
X167975854Y-102235288D01*
X167880045Y-102091901D01*
X167880042Y-102091897D01*
X167758102Y-101969957D01*
X167758098Y-101969954D01*
X167614711Y-101874145D01*
X167614698Y-101874138D01*
X167455378Y-101808146D01*
X167455366Y-101808143D01*
X167286232Y-101774500D01*
X167286229Y-101774500D01*
X167113771Y-101774500D01*
X167113768Y-101774500D01*
X166944633Y-101808143D01*
X166944621Y-101808146D01*
X166785301Y-101874138D01*
X166785288Y-101874145D01*
X166641901Y-101969954D01*
X166641897Y-101969957D01*
X166519957Y-102091897D01*
X166519954Y-102091901D01*
X166424145Y-102235288D01*
X166424138Y-102235301D01*
X166358146Y-102394621D01*
X166358143Y-102394633D01*
X166324500Y-102563766D01*
X97500499Y-102563766D01*
X97500499Y-97878711D01*
X98149500Y-97878711D01*
X98149500Y-98121288D01*
X98181161Y-98361785D01*
X98243947Y-98596104D01*
X98336771Y-98820200D01*
X98336776Y-98820212D01*
X98458064Y-99030289D01*
X98458066Y-99030292D01*
X98458067Y-99030293D01*
X98605733Y-99222736D01*
X98605739Y-99222743D01*
X98777256Y-99394260D01*
X98777262Y-99394265D01*
X98969711Y-99541936D01*
X99179788Y-99663224D01*
X99403900Y-99756054D01*
X99638211Y-99818838D01*
X99818586Y-99842584D01*
X99878711Y-99850500D01*
X99878712Y-99850500D01*
X100121289Y-99850500D01*
X100169388Y-99844167D01*
X100361789Y-99818838D01*
X100596100Y-99756054D01*
X100820212Y-99663224D01*
X101030289Y-99541936D01*
X101222738Y-99394265D01*
X101394265Y-99222738D01*
X101541936Y-99030289D01*
X101663224Y-98820212D01*
X101665894Y-98813766D01*
X105674500Y-98813766D01*
X105674500Y-98986233D01*
X105708143Y-99155366D01*
X105708146Y-99155378D01*
X105774138Y-99314698D01*
X105774145Y-99314711D01*
X105869954Y-99458098D01*
X105869957Y-99458102D01*
X105991897Y-99580042D01*
X105991901Y-99580045D01*
X106135288Y-99675854D01*
X106135301Y-99675861D01*
X106294621Y-99741853D01*
X106294626Y-99741855D01*
X106463766Y-99775499D01*
X106463769Y-99775500D01*
X106463771Y-99775500D01*
X106636231Y-99775500D01*
X106636232Y-99775499D01*
X106805374Y-99741855D01*
X106964705Y-99675858D01*
X107108099Y-99580045D01*
X107230045Y-99458099D01*
X107325858Y-99314705D01*
X107391855Y-99155374D01*
X107425500Y-98986229D01*
X107425500Y-98813771D01*
X107425499Y-98813766D01*
X133724500Y-98813766D01*
X133724500Y-98986233D01*
X133758143Y-99155366D01*
X133758146Y-99155378D01*
X133824138Y-99314698D01*
X133824145Y-99314711D01*
X133919954Y-99458098D01*
X133919957Y-99458102D01*
X134041897Y-99580042D01*
X134041901Y-99580045D01*
X134185288Y-99675854D01*
X134185301Y-99675861D01*
X134344621Y-99741853D01*
X134344626Y-99741855D01*
X134513766Y-99775499D01*
X134513769Y-99775500D01*
X134513771Y-99775500D01*
X134686231Y-99775500D01*
X134686232Y-99775499D01*
X134855374Y-99741855D01*
X135014705Y-99675858D01*
X135158099Y-99580045D01*
X135280045Y-99458099D01*
X135375858Y-99314705D01*
X135441855Y-99155374D01*
X135475500Y-98986229D01*
X135475500Y-98813771D01*
X135475500Y-98813768D01*
X135475499Y-98813766D01*
X135441856Y-98644633D01*
X135441855Y-98644626D01*
X135441850Y-98644615D01*
X135440087Y-98638799D01*
X135441881Y-98638254D01*
X135435352Y-98577473D01*
X135466632Y-98514997D01*
X135526724Y-98479349D01*
X135557380Y-98475500D01*
X136854270Y-98475500D01*
X136884699Y-98472646D01*
X136884701Y-98472646D01*
X136948790Y-98450219D01*
X137012882Y-98427793D01*
X137122150Y-98347150D01*
X137202793Y-98237882D01*
X137225219Y-98173790D01*
X137247646Y-98109701D01*
X137247646Y-98109699D01*
X137250500Y-98079269D01*
X137250500Y-97071530D01*
X137649500Y-97071530D01*
X137649500Y-97528469D01*
X137689868Y-97731412D01*
X137689870Y-97731420D01*
X137769058Y-97922596D01*
X137884024Y-98094657D01*
X138030342Y-98240975D01*
X138030345Y-98240977D01*
X138202402Y-98355941D01*
X138393580Y-98435130D01*
X138582187Y-98472646D01*
X138596530Y-98475499D01*
X138596534Y-98475500D01*
X138596535Y-98475500D01*
X138803466Y-98475500D01*
X138803467Y-98475499D01*
X139006420Y-98435130D01*
X139197598Y-98355941D01*
X139369655Y-98240977D01*
X139515977Y-98094655D01*
X139630941Y-97922598D01*
X139710130Y-97731420D01*
X139750500Y-97528465D01*
X139750500Y-97071535D01*
X139750499Y-97071530D01*
X140149500Y-97071530D01*
X140149500Y-97528469D01*
X140189868Y-97731412D01*
X140189870Y-97731420D01*
X140269058Y-97922596D01*
X140384024Y-98094657D01*
X140530342Y-98240975D01*
X140530345Y-98240977D01*
X140702402Y-98355941D01*
X140893580Y-98435130D01*
X141082187Y-98472646D01*
X141096530Y-98475499D01*
X141096534Y-98475500D01*
X141096535Y-98475500D01*
X141303466Y-98475500D01*
X141303467Y-98475499D01*
X141506420Y-98435130D01*
X141697598Y-98355941D01*
X141869655Y-98240977D01*
X142015977Y-98094655D01*
X142130941Y-97922598D01*
X142210130Y-97731420D01*
X142250500Y-97528465D01*
X142250500Y-97071535D01*
X142250499Y-97071530D01*
X142649500Y-97071530D01*
X142649500Y-97528469D01*
X142689868Y-97731412D01*
X142689870Y-97731420D01*
X142769058Y-97922596D01*
X142884024Y-98094657D01*
X143030342Y-98240975D01*
X143030345Y-98240977D01*
X143202402Y-98355941D01*
X143393580Y-98435130D01*
X143582187Y-98472646D01*
X143596530Y-98475499D01*
X143596534Y-98475500D01*
X143596535Y-98475500D01*
X143803466Y-98475500D01*
X143803467Y-98475499D01*
X144006420Y-98435130D01*
X144197598Y-98355941D01*
X144369655Y-98240977D01*
X144515977Y-98094655D01*
X144630941Y-97922598D01*
X144710130Y-97731420D01*
X144750500Y-97528465D01*
X144750500Y-97071535D01*
X144750499Y-97071530D01*
X145149500Y-97071530D01*
X145149500Y-97528469D01*
X145189868Y-97731412D01*
X145189870Y-97731420D01*
X145269058Y-97922596D01*
X145384024Y-98094657D01*
X145530342Y-98240975D01*
X145530345Y-98240977D01*
X145702402Y-98355941D01*
X145893580Y-98435130D01*
X146082187Y-98472646D01*
X146096530Y-98475499D01*
X146096534Y-98475500D01*
X146096535Y-98475500D01*
X146303466Y-98475500D01*
X146303467Y-98475499D01*
X146506420Y-98435130D01*
X146697598Y-98355941D01*
X146869655Y-98240977D01*
X147015977Y-98094655D01*
X147130941Y-97922598D01*
X147210130Y-97731420D01*
X147250500Y-97528465D01*
X147250500Y-97071535D01*
X147250499Y-97071530D01*
X147649500Y-97071530D01*
X147649500Y-97528469D01*
X147689868Y-97731412D01*
X147689870Y-97731420D01*
X147769058Y-97922596D01*
X147884024Y-98094657D01*
X148030342Y-98240975D01*
X148030345Y-98240977D01*
X148202402Y-98355941D01*
X148393580Y-98435130D01*
X148582187Y-98472646D01*
X148596530Y-98475499D01*
X148596534Y-98475500D01*
X148596535Y-98475500D01*
X148803466Y-98475500D01*
X148803467Y-98475499D01*
X149006420Y-98435130D01*
X149197598Y-98355941D01*
X149369655Y-98240977D01*
X149515977Y-98094655D01*
X149630941Y-97922598D01*
X149710130Y-97731420D01*
X149750500Y-97528465D01*
X149750500Y-97071535D01*
X149750499Y-97071530D01*
X150149500Y-97071530D01*
X150149500Y-97528469D01*
X150189868Y-97731412D01*
X150189870Y-97731420D01*
X150269058Y-97922596D01*
X150384024Y-98094657D01*
X150530342Y-98240975D01*
X150530345Y-98240977D01*
X150702402Y-98355941D01*
X150893580Y-98435130D01*
X151082187Y-98472646D01*
X151096530Y-98475499D01*
X151096534Y-98475500D01*
X151096535Y-98475500D01*
X151303466Y-98475500D01*
X151303467Y-98475499D01*
X151506420Y-98435130D01*
X151697598Y-98355941D01*
X151869655Y-98240977D01*
X152015977Y-98094655D01*
X152130941Y-97922598D01*
X152210130Y-97731420D01*
X152250500Y-97528465D01*
X152250500Y-97071535D01*
X152250499Y-97071530D01*
X152649500Y-97071530D01*
X152649500Y-97528469D01*
X152689868Y-97731412D01*
X152689870Y-97731420D01*
X152769058Y-97922596D01*
X152884024Y-98094657D01*
X153030342Y-98240975D01*
X153030345Y-98240977D01*
X153202402Y-98355941D01*
X153393580Y-98435130D01*
X153582187Y-98472646D01*
X153596530Y-98475499D01*
X153596534Y-98475500D01*
X153596535Y-98475500D01*
X153803466Y-98475500D01*
X153803467Y-98475499D01*
X154006420Y-98435130D01*
X154197598Y-98355941D01*
X154369655Y-98240977D01*
X154515977Y-98094655D01*
X154630941Y-97922598D01*
X154710130Y-97731420D01*
X154750500Y-97528465D01*
X154750500Y-97130247D01*
X163349500Y-97130247D01*
X163349500Y-98869752D01*
X163361131Y-98928229D01*
X163361132Y-98928230D01*
X163405447Y-98994552D01*
X163471769Y-99038867D01*
X163471770Y-99038868D01*
X163530247Y-99050499D01*
X163530250Y-99050500D01*
X163530252Y-99050500D01*
X165269750Y-99050500D01*
X165269751Y-99050499D01*
X165284568Y-99047552D01*
X165328229Y-99038868D01*
X165328229Y-99038867D01*
X165328231Y-99038867D01*
X165394552Y-98994552D01*
X165438867Y-98928231D01*
X165438867Y-98928229D01*
X165438868Y-98928229D01*
X165450499Y-98869752D01*
X165450500Y-98869750D01*
X165450500Y-97878711D01*
X168149500Y-97878711D01*
X168149500Y-98121288D01*
X168181161Y-98361785D01*
X168243947Y-98596104D01*
X168336771Y-98820200D01*
X168336776Y-98820212D01*
X168458064Y-99030289D01*
X168458066Y-99030292D01*
X168458067Y-99030293D01*
X168605733Y-99222736D01*
X168605739Y-99222743D01*
X168777256Y-99394260D01*
X168777262Y-99394265D01*
X168969711Y-99541936D01*
X169179788Y-99663224D01*
X169403900Y-99756054D01*
X169638211Y-99818838D01*
X169818586Y-99842584D01*
X169878711Y-99850500D01*
X169878712Y-99850500D01*
X170121289Y-99850500D01*
X170169388Y-99844167D01*
X170361789Y-99818838D01*
X170596100Y-99756054D01*
X170820212Y-99663224D01*
X171030289Y-99541936D01*
X171222738Y-99394265D01*
X171394265Y-99222738D01*
X171541936Y-99030289D01*
X171663224Y-98820212D01*
X171756054Y-98596100D01*
X171818838Y-98361789D01*
X171850500Y-98121288D01*
X171850500Y-97878712D01*
X171818838Y-97638211D01*
X171756054Y-97403900D01*
X171663224Y-97179788D01*
X171541936Y-96969711D01*
X171394265Y-96777262D01*
X171394260Y-96777256D01*
X171222743Y-96605739D01*
X171222736Y-96605733D01*
X171030293Y-96458067D01*
X171030292Y-96458066D01*
X171030289Y-96458064D01*
X170820212Y-96336776D01*
X170820205Y-96336773D01*
X170596104Y-96243947D01*
X170361785Y-96181161D01*
X170121289Y-96149500D01*
X170121288Y-96149500D01*
X169878712Y-96149500D01*
X169878711Y-96149500D01*
X169638214Y-96181161D01*
X169403895Y-96243947D01*
X169179794Y-96336773D01*
X169179785Y-96336777D01*
X168969706Y-96458067D01*
X168777263Y-96605733D01*
X168777256Y-96605739D01*
X168605739Y-96777256D01*
X168605733Y-96777263D01*
X168458067Y-96969706D01*
X168336777Y-97179785D01*
X168336773Y-97179794D01*
X168243947Y-97403895D01*
X168181161Y-97638214D01*
X168149500Y-97878711D01*
X165450500Y-97878711D01*
X165450500Y-97130249D01*
X165450499Y-97130247D01*
X165438868Y-97071770D01*
X165438867Y-97071769D01*
X165394552Y-97005447D01*
X165328230Y-96961132D01*
X165328229Y-96961131D01*
X165269752Y-96949500D01*
X165269748Y-96949500D01*
X163530252Y-96949500D01*
X163530247Y-96949500D01*
X163471770Y-96961131D01*
X163471769Y-96961132D01*
X163405447Y-97005447D01*
X163361132Y-97071769D01*
X163361131Y-97071770D01*
X163349500Y-97130247D01*
X154750500Y-97130247D01*
X154750500Y-97071535D01*
X154710130Y-96868580D01*
X154630941Y-96677402D01*
X154515977Y-96505345D01*
X154515975Y-96505342D01*
X154369657Y-96359024D01*
X154283626Y-96301541D01*
X154197598Y-96244059D01*
X154197325Y-96243946D01*
X154006420Y-96164870D01*
X154006412Y-96164868D01*
X153803469Y-96124500D01*
X153803465Y-96124500D01*
X153596535Y-96124500D01*
X153596530Y-96124500D01*
X153393587Y-96164868D01*
X153393579Y-96164870D01*
X153202403Y-96244058D01*
X153030342Y-96359024D01*
X152884024Y-96505342D01*
X152769058Y-96677403D01*
X152689870Y-96868579D01*
X152689868Y-96868587D01*
X152649500Y-97071530D01*
X152250499Y-97071530D01*
X152210130Y-96868580D01*
X152130941Y-96677402D01*
X152015977Y-96505345D01*
X152015975Y-96505342D01*
X151869657Y-96359024D01*
X151783626Y-96301541D01*
X151697598Y-96244059D01*
X151697325Y-96243946D01*
X151506420Y-96164870D01*
X151506412Y-96164868D01*
X151303469Y-96124500D01*
X151303465Y-96124500D01*
X151096535Y-96124500D01*
X151096530Y-96124500D01*
X150893587Y-96164868D01*
X150893579Y-96164870D01*
X150702403Y-96244058D01*
X150530342Y-96359024D01*
X150384024Y-96505342D01*
X150269058Y-96677403D01*
X150189870Y-96868579D01*
X150189868Y-96868587D01*
X150149500Y-97071530D01*
X149750499Y-97071530D01*
X149710130Y-96868580D01*
X149630941Y-96677402D01*
X149515977Y-96505345D01*
X149515975Y-96505342D01*
X149369657Y-96359024D01*
X149283626Y-96301541D01*
X149197598Y-96244059D01*
X149197325Y-96243946D01*
X149006420Y-96164870D01*
X149006412Y-96164868D01*
X148803469Y-96124500D01*
X148803465Y-96124500D01*
X148596535Y-96124500D01*
X148596530Y-96124500D01*
X148393587Y-96164868D01*
X148393579Y-96164870D01*
X148202403Y-96244058D01*
X148030342Y-96359024D01*
X147884024Y-96505342D01*
X147769058Y-96677403D01*
X147689870Y-96868579D01*
X147689868Y-96868587D01*
X147649500Y-97071530D01*
X147250499Y-97071530D01*
X147210130Y-96868580D01*
X147130941Y-96677402D01*
X147015977Y-96505345D01*
X147015975Y-96505342D01*
X146869657Y-96359024D01*
X146783626Y-96301541D01*
X146697598Y-96244059D01*
X146697325Y-96243946D01*
X146506420Y-96164870D01*
X146506412Y-96164868D01*
X146303469Y-96124500D01*
X146303465Y-96124500D01*
X146096535Y-96124500D01*
X146096530Y-96124500D01*
X145893587Y-96164868D01*
X145893579Y-96164870D01*
X145702403Y-96244058D01*
X145530342Y-96359024D01*
X145384024Y-96505342D01*
X145269058Y-96677403D01*
X145189870Y-96868579D01*
X145189868Y-96868587D01*
X145149500Y-97071530D01*
X144750499Y-97071530D01*
X144710130Y-96868580D01*
X144630941Y-96677402D01*
X144515977Y-96505345D01*
X144515975Y-96505342D01*
X144369657Y-96359024D01*
X144283626Y-96301541D01*
X144197598Y-96244059D01*
X144197325Y-96243946D01*
X144006420Y-96164870D01*
X144006412Y-96164868D01*
X143803469Y-96124500D01*
X143803465Y-96124500D01*
X143596535Y-96124500D01*
X143596530Y-96124500D01*
X143393587Y-96164868D01*
X143393579Y-96164870D01*
X143202403Y-96244058D01*
X143030342Y-96359024D01*
X142884024Y-96505342D01*
X142769058Y-96677403D01*
X142689870Y-96868579D01*
X142689868Y-96868587D01*
X142649500Y-97071530D01*
X142250499Y-97071530D01*
X142210130Y-96868580D01*
X142130941Y-96677402D01*
X142015977Y-96505345D01*
X142015975Y-96505342D01*
X141869657Y-96359024D01*
X141783626Y-96301541D01*
X141697598Y-96244059D01*
X141697325Y-96243946D01*
X141506420Y-96164870D01*
X141506412Y-96164868D01*
X141303469Y-96124500D01*
X141303465Y-96124500D01*
X141096535Y-96124500D01*
X141096530Y-96124500D01*
X140893587Y-96164868D01*
X140893579Y-96164870D01*
X140702403Y-96244058D01*
X140530342Y-96359024D01*
X140384024Y-96505342D01*
X140269058Y-96677403D01*
X140189870Y-96868579D01*
X140189868Y-96868587D01*
X140149500Y-97071530D01*
X139750499Y-97071530D01*
X139710130Y-96868580D01*
X139630941Y-96677402D01*
X139515977Y-96505345D01*
X139515975Y-96505342D01*
X139369657Y-96359024D01*
X139283626Y-96301541D01*
X139197598Y-96244059D01*
X139197325Y-96243946D01*
X139006420Y-96164870D01*
X139006412Y-96164868D01*
X138803469Y-96124500D01*
X138803465Y-96124500D01*
X138596535Y-96124500D01*
X138596530Y-96124500D01*
X138393587Y-96164868D01*
X138393579Y-96164870D01*
X138202403Y-96244058D01*
X138030342Y-96359024D01*
X137884024Y-96505342D01*
X137769058Y-96677403D01*
X137689870Y-96868579D01*
X137689868Y-96868587D01*
X137649500Y-97071530D01*
X137250500Y-97071530D01*
X137250500Y-96520730D01*
X137247646Y-96490300D01*
X137247646Y-96490298D01*
X137202793Y-96362119D01*
X137202792Y-96362117D01*
X137122150Y-96252850D01*
X137012882Y-96172207D01*
X137012880Y-96172206D01*
X136884700Y-96127353D01*
X136854270Y-96124500D01*
X136854266Y-96124500D01*
X135545734Y-96124500D01*
X135545730Y-96124500D01*
X135515300Y-96127353D01*
X135515298Y-96127353D01*
X135387119Y-96172206D01*
X135387117Y-96172207D01*
X135277850Y-96252850D01*
X135197207Y-96362117D01*
X135197206Y-96362119D01*
X135152353Y-96490298D01*
X135152353Y-96490300D01*
X135149500Y-96520730D01*
X135149500Y-97994396D01*
X135129815Y-98061435D01*
X135077011Y-98107190D01*
X135007853Y-98117134D01*
X134978048Y-98108957D01*
X134855378Y-98058146D01*
X134855366Y-98058143D01*
X134686232Y-98024500D01*
X134686229Y-98024500D01*
X134513771Y-98024500D01*
X134513768Y-98024500D01*
X134344633Y-98058143D01*
X134344621Y-98058146D01*
X134185301Y-98124138D01*
X134185288Y-98124145D01*
X134041901Y-98219954D01*
X134041897Y-98219957D01*
X133919957Y-98341897D01*
X133919954Y-98341901D01*
X133824145Y-98485288D01*
X133824138Y-98485301D01*
X133758146Y-98644621D01*
X133758143Y-98644633D01*
X133724500Y-98813766D01*
X107425499Y-98813766D01*
X107391855Y-98644626D01*
X107388224Y-98635861D01*
X107385843Y-98624090D01*
X107387853Y-98600759D01*
X107385352Y-98577473D01*
X107390797Y-98566596D01*
X107391842Y-98554479D01*
X107406146Y-98535939D01*
X107416632Y-98514997D01*
X107427093Y-98508790D01*
X107434524Y-98499161D01*
X107456581Y-98491297D01*
X107476724Y-98479349D01*
X107497373Y-98476756D01*
X107500337Y-98475700D01*
X107502246Y-98476144D01*
X107507380Y-98475500D01*
X108804270Y-98475500D01*
X108834699Y-98472646D01*
X108834701Y-98472646D01*
X108898790Y-98450219D01*
X108962882Y-98427793D01*
X109072150Y-98347150D01*
X109152793Y-98237882D01*
X109175219Y-98173790D01*
X109197646Y-98109701D01*
X109197646Y-98109699D01*
X109200500Y-98079269D01*
X109200500Y-97071530D01*
X109599500Y-97071530D01*
X109599500Y-97528469D01*
X109639868Y-97731412D01*
X109639870Y-97731420D01*
X109719058Y-97922596D01*
X109834024Y-98094657D01*
X109980342Y-98240975D01*
X109980345Y-98240977D01*
X110152402Y-98355941D01*
X110343580Y-98435130D01*
X110532187Y-98472646D01*
X110546530Y-98475499D01*
X110546534Y-98475500D01*
X110546535Y-98475500D01*
X110753466Y-98475500D01*
X110753467Y-98475499D01*
X110956420Y-98435130D01*
X111147598Y-98355941D01*
X111319655Y-98240977D01*
X111465977Y-98094655D01*
X111580941Y-97922598D01*
X111660130Y-97731420D01*
X111700500Y-97528465D01*
X111700500Y-97071535D01*
X111700499Y-97071530D01*
X112099500Y-97071530D01*
X112099500Y-97528469D01*
X112139868Y-97731412D01*
X112139870Y-97731420D01*
X112219058Y-97922596D01*
X112334024Y-98094657D01*
X112480342Y-98240975D01*
X112480345Y-98240977D01*
X112652402Y-98355941D01*
X112843580Y-98435130D01*
X113032187Y-98472646D01*
X113046530Y-98475499D01*
X113046534Y-98475500D01*
X113046535Y-98475500D01*
X113253466Y-98475500D01*
X113253467Y-98475499D01*
X113456420Y-98435130D01*
X113647598Y-98355941D01*
X113819655Y-98240977D01*
X113965977Y-98094655D01*
X114080941Y-97922598D01*
X114160130Y-97731420D01*
X114200500Y-97528465D01*
X114200500Y-97071535D01*
X114200499Y-97071530D01*
X114599500Y-97071530D01*
X114599500Y-97528469D01*
X114639868Y-97731412D01*
X114639870Y-97731420D01*
X114719058Y-97922596D01*
X114834024Y-98094657D01*
X114980342Y-98240975D01*
X114980345Y-98240977D01*
X115152402Y-98355941D01*
X115343580Y-98435130D01*
X115532187Y-98472646D01*
X115546530Y-98475499D01*
X115546534Y-98475500D01*
X115546535Y-98475500D01*
X115753466Y-98475500D01*
X115753467Y-98475499D01*
X115956420Y-98435130D01*
X116147598Y-98355941D01*
X116319655Y-98240977D01*
X116465977Y-98094655D01*
X116580941Y-97922598D01*
X116660130Y-97731420D01*
X116700500Y-97528465D01*
X116700500Y-97071535D01*
X116700499Y-97071530D01*
X117099500Y-97071530D01*
X117099500Y-97528469D01*
X117139868Y-97731412D01*
X117139870Y-97731420D01*
X117219058Y-97922596D01*
X117334024Y-98094657D01*
X117480342Y-98240975D01*
X117480345Y-98240977D01*
X117652402Y-98355941D01*
X117843580Y-98435130D01*
X118032187Y-98472646D01*
X118046530Y-98475499D01*
X118046534Y-98475500D01*
X118046535Y-98475500D01*
X118253466Y-98475500D01*
X118253467Y-98475499D01*
X118456420Y-98435130D01*
X118647598Y-98355941D01*
X118819655Y-98240977D01*
X118965977Y-98094655D01*
X119080941Y-97922598D01*
X119160130Y-97731420D01*
X119200500Y-97528465D01*
X119200500Y-97071535D01*
X119200499Y-97071530D01*
X119599500Y-97071530D01*
X119599500Y-97528469D01*
X119639868Y-97731412D01*
X119639870Y-97731420D01*
X119719058Y-97922596D01*
X119834024Y-98094657D01*
X119980342Y-98240975D01*
X119980345Y-98240977D01*
X120152402Y-98355941D01*
X120343580Y-98435130D01*
X120532187Y-98472646D01*
X120546530Y-98475499D01*
X120546534Y-98475500D01*
X120546535Y-98475500D01*
X120753466Y-98475500D01*
X120753467Y-98475499D01*
X120956420Y-98435130D01*
X121147598Y-98355941D01*
X121319655Y-98240977D01*
X121465977Y-98094655D01*
X121580941Y-97922598D01*
X121660130Y-97731420D01*
X121700500Y-97528465D01*
X121700500Y-97071535D01*
X121700499Y-97071530D01*
X122099500Y-97071530D01*
X122099500Y-97528469D01*
X122139868Y-97731412D01*
X122139870Y-97731420D01*
X122219058Y-97922596D01*
X122334024Y-98094657D01*
X122480342Y-98240975D01*
X122480345Y-98240977D01*
X122652402Y-98355941D01*
X122843580Y-98435130D01*
X123032187Y-98472646D01*
X123046530Y-98475499D01*
X123046534Y-98475500D01*
X123046535Y-98475500D01*
X123253466Y-98475500D01*
X123253467Y-98475499D01*
X123456420Y-98435130D01*
X123647598Y-98355941D01*
X123819655Y-98240977D01*
X123965977Y-98094655D01*
X124080941Y-97922598D01*
X124160130Y-97731420D01*
X124200500Y-97528465D01*
X124200500Y-97071535D01*
X124200499Y-97071530D01*
X124599500Y-97071530D01*
X124599500Y-97528469D01*
X124639868Y-97731412D01*
X124639870Y-97731420D01*
X124719058Y-97922596D01*
X124834024Y-98094657D01*
X124980342Y-98240975D01*
X124980345Y-98240977D01*
X125152402Y-98355941D01*
X125343580Y-98435130D01*
X125532187Y-98472646D01*
X125546530Y-98475499D01*
X125546534Y-98475500D01*
X125546535Y-98475500D01*
X125753466Y-98475500D01*
X125753467Y-98475499D01*
X125956420Y-98435130D01*
X126147598Y-98355941D01*
X126319655Y-98240977D01*
X126465977Y-98094655D01*
X126580941Y-97922598D01*
X126660130Y-97731420D01*
X126700500Y-97528465D01*
X126700500Y-97071535D01*
X126660130Y-96868580D01*
X126580941Y-96677402D01*
X126465977Y-96505345D01*
X126465975Y-96505342D01*
X126319657Y-96359024D01*
X126233626Y-96301541D01*
X126147598Y-96244059D01*
X126147325Y-96243946D01*
X125956420Y-96164870D01*
X125956412Y-96164868D01*
X125753469Y-96124500D01*
X125753465Y-96124500D01*
X125546535Y-96124500D01*
X125546530Y-96124500D01*
X125343587Y-96164868D01*
X125343579Y-96164870D01*
X125152403Y-96244058D01*
X124980342Y-96359024D01*
X124834024Y-96505342D01*
X124719058Y-96677403D01*
X124639870Y-96868579D01*
X124639868Y-96868587D01*
X124599500Y-97071530D01*
X124200499Y-97071530D01*
X124160130Y-96868580D01*
X124080941Y-96677402D01*
X123965977Y-96505345D01*
X123965975Y-96505342D01*
X123819657Y-96359024D01*
X123733626Y-96301541D01*
X123647598Y-96244059D01*
X123647325Y-96243946D01*
X123456420Y-96164870D01*
X123456412Y-96164868D01*
X123253469Y-96124500D01*
X123253465Y-96124500D01*
X123046535Y-96124500D01*
X123046530Y-96124500D01*
X122843587Y-96164868D01*
X122843579Y-96164870D01*
X122652403Y-96244058D01*
X122480342Y-96359024D01*
X122334024Y-96505342D01*
X122219058Y-96677403D01*
X122139870Y-96868579D01*
X122139868Y-96868587D01*
X122099500Y-97071530D01*
X121700499Y-97071530D01*
X121660130Y-96868580D01*
X121580941Y-96677402D01*
X121465977Y-96505345D01*
X121465975Y-96505342D01*
X121319657Y-96359024D01*
X121233626Y-96301541D01*
X121147598Y-96244059D01*
X121147325Y-96243946D01*
X120956420Y-96164870D01*
X120956412Y-96164868D01*
X120753469Y-96124500D01*
X120753465Y-96124500D01*
X120546535Y-96124500D01*
X120546530Y-96124500D01*
X120343587Y-96164868D01*
X120343579Y-96164870D01*
X120152403Y-96244058D01*
X119980342Y-96359024D01*
X119834024Y-96505342D01*
X119719058Y-96677403D01*
X119639870Y-96868579D01*
X119639868Y-96868587D01*
X119599500Y-97071530D01*
X119200499Y-97071530D01*
X119160130Y-96868580D01*
X119080941Y-96677402D01*
X118965977Y-96505345D01*
X118965975Y-96505342D01*
X118819657Y-96359024D01*
X118733626Y-96301541D01*
X118647598Y-96244059D01*
X118647325Y-96243946D01*
X118456420Y-96164870D01*
X118456412Y-96164868D01*
X118253469Y-96124500D01*
X118253465Y-96124500D01*
X118046535Y-96124500D01*
X118046530Y-96124500D01*
X117843587Y-96164868D01*
X117843579Y-96164870D01*
X117652403Y-96244058D01*
X117480342Y-96359024D01*
X117334024Y-96505342D01*
X117219058Y-96677403D01*
X117139870Y-96868579D01*
X117139868Y-96868587D01*
X117099500Y-97071530D01*
X116700499Y-97071530D01*
X116660130Y-96868580D01*
X116580941Y-96677402D01*
X116465977Y-96505345D01*
X116465975Y-96505342D01*
X116319657Y-96359024D01*
X116233626Y-96301541D01*
X116147598Y-96244059D01*
X116147325Y-96243946D01*
X115956420Y-96164870D01*
X115956412Y-96164868D01*
X115753469Y-96124500D01*
X115753465Y-96124500D01*
X115546535Y-96124500D01*
X115546530Y-96124500D01*
X115343587Y-96164868D01*
X115343579Y-96164870D01*
X115152403Y-96244058D01*
X114980342Y-96359024D01*
X114834024Y-96505342D01*
X114719058Y-96677403D01*
X114639870Y-96868579D01*
X114639868Y-96868587D01*
X114599500Y-97071530D01*
X114200499Y-97071530D01*
X114160130Y-96868580D01*
X114080941Y-96677402D01*
X113965977Y-96505345D01*
X113965975Y-96505342D01*
X113819657Y-96359024D01*
X113733626Y-96301541D01*
X113647598Y-96244059D01*
X113647325Y-96243946D01*
X113456420Y-96164870D01*
X113456412Y-96164868D01*
X113253469Y-96124500D01*
X113253465Y-96124500D01*
X113046535Y-96124500D01*
X113046530Y-96124500D01*
X112843587Y-96164868D01*
X112843579Y-96164870D01*
X112652403Y-96244058D01*
X112480342Y-96359024D01*
X112334024Y-96505342D01*
X112219058Y-96677403D01*
X112139870Y-96868579D01*
X112139868Y-96868587D01*
X112099500Y-97071530D01*
X111700499Y-97071530D01*
X111660130Y-96868580D01*
X111580941Y-96677402D01*
X111465977Y-96505345D01*
X111465975Y-96505342D01*
X111319657Y-96359024D01*
X111233626Y-96301541D01*
X111147598Y-96244059D01*
X111147325Y-96243946D01*
X110956420Y-96164870D01*
X110956412Y-96164868D01*
X110753469Y-96124500D01*
X110753465Y-96124500D01*
X110546535Y-96124500D01*
X110546530Y-96124500D01*
X110343587Y-96164868D01*
X110343579Y-96164870D01*
X110152403Y-96244058D01*
X109980342Y-96359024D01*
X109834024Y-96505342D01*
X109719058Y-96677403D01*
X109639870Y-96868579D01*
X109639868Y-96868587D01*
X109599500Y-97071530D01*
X109200500Y-97071530D01*
X109200500Y-96520730D01*
X109197646Y-96490300D01*
X109197646Y-96490298D01*
X109152793Y-96362119D01*
X109152792Y-96362117D01*
X109072150Y-96252850D01*
X108962882Y-96172207D01*
X108962880Y-96172206D01*
X108834700Y-96127353D01*
X108804270Y-96124500D01*
X108804266Y-96124500D01*
X107495734Y-96124500D01*
X107495730Y-96124500D01*
X107465300Y-96127353D01*
X107465298Y-96127353D01*
X107337119Y-96172206D01*
X107337117Y-96172207D01*
X107227850Y-96252850D01*
X107147207Y-96362117D01*
X107147206Y-96362119D01*
X107102353Y-96490298D01*
X107102353Y-96490300D01*
X107099500Y-96520730D01*
X107099500Y-97994396D01*
X107079815Y-98061435D01*
X107027011Y-98107190D01*
X106957853Y-98117134D01*
X106928048Y-98108957D01*
X106805378Y-98058146D01*
X106805366Y-98058143D01*
X106636232Y-98024500D01*
X106636229Y-98024500D01*
X106463771Y-98024500D01*
X106463768Y-98024500D01*
X106294633Y-98058143D01*
X106294621Y-98058146D01*
X106135301Y-98124138D01*
X106135288Y-98124145D01*
X105991901Y-98219954D01*
X105991897Y-98219957D01*
X105869957Y-98341897D01*
X105869954Y-98341901D01*
X105774145Y-98485288D01*
X105774138Y-98485301D01*
X105708146Y-98644621D01*
X105708143Y-98644633D01*
X105674500Y-98813766D01*
X101665894Y-98813766D01*
X101756054Y-98596100D01*
X101818838Y-98361789D01*
X101850500Y-98121288D01*
X101850500Y-97878712D01*
X101818838Y-97638211D01*
X101756054Y-97403900D01*
X101663224Y-97179788D01*
X101541936Y-96969711D01*
X101394265Y-96777262D01*
X101394260Y-96777256D01*
X101222743Y-96605739D01*
X101222736Y-96605733D01*
X101030293Y-96458067D01*
X101030292Y-96458066D01*
X101030289Y-96458064D01*
X100820212Y-96336776D01*
X100820205Y-96336773D01*
X100596104Y-96243947D01*
X100361785Y-96181161D01*
X100121289Y-96149500D01*
X100121288Y-96149500D01*
X99878712Y-96149500D01*
X99878711Y-96149500D01*
X99638214Y-96181161D01*
X99403895Y-96243947D01*
X99179794Y-96336773D01*
X99179785Y-96336777D01*
X98969706Y-96458067D01*
X98777263Y-96605733D01*
X98777256Y-96605739D01*
X98605739Y-96777256D01*
X98605733Y-96777263D01*
X98458067Y-96969706D01*
X98336777Y-97179785D01*
X98336773Y-97179794D01*
X98243947Y-97403895D01*
X98181161Y-97638214D01*
X98149500Y-97878711D01*
X97500499Y-97878711D01*
X97500499Y-96003747D01*
X97500725Y-95996261D01*
X97518270Y-95706204D01*
X97520075Y-95691339D01*
X97571779Y-95409201D01*
X97575363Y-95394663D01*
X97660698Y-95120811D01*
X97666001Y-95106831D01*
X97783726Y-94845257D01*
X97790679Y-94832011D01*
X97830958Y-94765380D01*
X97939074Y-94586533D01*
X97947566Y-94574229D01*
X98124480Y-94348416D01*
X98134395Y-94337225D01*
X98337225Y-94134395D01*
X98348416Y-94124480D01*
X98574229Y-93947566D01*
X98586539Y-93939071D01*
X98832011Y-93790679D01*
X98845257Y-93783726D01*
X99106841Y-93665996D01*
X99120811Y-93660698D01*
X99394667Y-93575361D01*
X99409197Y-93571779D01*
X99691343Y-93520074D01*
X99706201Y-93518270D01*
X99996262Y-93500725D01*
X100003749Y-93500499D01*
X169909441Y-93500499D01*
X169909445Y-93500500D01*
G37*
%TD.AperFunction*%
%TD*%
M02*
