M48
; DRILL file {KiCad 9.0.7} date 2026-02-21T00:44:35-0800
; FORMAT={-:-/ absolute / inch / decimal}
; #@! TF.CreationDate,2026-02-21T00:44:35-08:00
; #@! TF.GenerationSoftware,Kicad,Pcbnew,9.0.7
; #@! TF.FileFunction,Plated,1,4,PTH
FMAT,2
INCH
; #@! TA.AperFunction,Plated,PTH,ViaDrill
T1C0.0079
; #@! TA.AperFunction,Plated,PTH,ComponentDrill
T2C0.0374
; #@! TA.AperFunction,Plated,PTH,ComponentDrill
T3C0.0394
%
G90
G05
T1
X4.437Y-4.8583
X4.437Y-5.4094
X4.4488Y-4.9016
X4.5Y-5.3858
X4.5079Y-4.8351
X4.5157Y-5.1024
X4.5157Y-5.126
X4.5157Y-5.1496
X4.5157Y-5.1732
X4.5157Y-5.1969
X4.5157Y-5.2205
X4.5157Y-5.2441
X4.5157Y-5.2677
X4.5157Y-5.2913
X4.5157Y-5.315
X4.5157Y-5.3386
X4.5161Y-4.5748
X4.5161Y-4.5984
X4.5161Y-4.622
X4.5161Y-4.6457
X4.5161Y-4.6693
X4.5161Y-4.6929
X4.5161Y-4.7165
X4.5161Y-4.7402
X4.5161Y-4.7638
X4.5161Y-4.7874
X4.5161Y-4.811
X4.5276Y-5.3583
X4.5512Y-5.3898
X4.626Y-5.1614
X4.626Y-5.2126
X4.626Y-5.2804
X4.6339Y-5.3701
X4.6339Y-5.4296
X4.6929Y-5.3488
X4.752Y-4.6772
X4.752Y-4.6969
X4.7717Y-4.6772
X4.7717Y-4.6969
X4.7913Y-4.6772
X4.7913Y-4.6969
X4.811Y-4.6772
X4.811Y-4.6969
X4.8307Y-4.6772
X4.8307Y-4.6969
X4.8504Y-4.6772
X4.8504Y-4.6969
X4.8701Y-4.6772
X4.8701Y-4.6969
X4.8898Y-4.6772
X4.8898Y-4.6969
X4.8937Y-4.8937
X4.8937Y-4.9134
X4.8941Y-4.7563
X4.9016Y-4.6048
X4.9094Y-4.6772
X4.9094Y-4.6969
X4.9166Y-4.7867
X4.9291Y-4.6772
X4.9291Y-4.6969
X4.9331Y-4.5811
X4.9363Y-4.8182
X4.9453Y-4.7146
X4.9488Y-4.6559
X4.9528Y-4.8543
X4.9843Y-4.9622
X5.0157Y-4.6535
X5.0236Y-4.981
X5.0512Y-4.5945
X5.0512Y-4.6299
X5.0512Y-4.6654
X5.0512Y-4.7008
X5.0512Y-4.7362
X5.0512Y-4.7717
X5.0512Y-4.8071
X5.0703Y-4.9947
X5.0866Y-4.5945
X5.0866Y-4.6299
X5.0866Y-4.6654
X5.0866Y-4.7008
X5.0866Y-4.7362
X5.0866Y-4.7717
X5.0866Y-4.8071
X5.1124Y-5.0077
X5.122Y-4.5945
X5.122Y-4.6299
X5.122Y-4.6654
X5.122Y-4.7008
X5.122Y-4.7362
X5.122Y-4.7717
X5.122Y-4.8071
X5.124Y-5.1024
X5.1575Y-4.5945
X5.1575Y-4.6299
X5.1575Y-4.6654
X5.1575Y-4.7008
X5.1575Y-4.7362
X5.1575Y-4.7717
X5.1575Y-4.8071
X5.1709Y-5.0004
X5.1929Y-4.5945
X5.1929Y-4.6299
X5.1929Y-4.6654
X5.1929Y-4.7008
X5.1929Y-4.7362
X5.1929Y-4.7717
X5.1929Y-4.8071
X5.2205Y-5.0945
X5.2283Y-4.5945
X5.2283Y-4.6299
X5.2283Y-4.6654
X5.2283Y-4.7008
X5.2283Y-4.7362
X5.2283Y-4.7717
X5.2283Y-4.8071
X5.2441Y-5.2087
X5.2487Y-5.0406
X5.2491Y-5.1289
X5.2638Y-4.5945
X5.2638Y-4.6299
X5.2638Y-4.6654
X5.2638Y-4.7008
X5.2638Y-4.7362
X5.2638Y-4.7717
X5.2638Y-4.8071
X5.3081Y-4.936
X5.3228Y-4.465
X5.3346Y-4.4843
X5.3465Y-4.5039
X5.3803Y-4.8583
X5.4026Y-4.7746
X5.4197Y-4.8937
X5.437Y-4.748
X5.4748Y-4.8189
X5.4862Y-4.5843
X5.4926Y-4.563
X5.4928Y-4.5268
X5.5039Y-5.3543
X5.5039Y-5.374
X5.5055Y-4.5449
X5.5118Y-5.2362
X5.5118Y-5.2559
X5.5118Y-5.2756
X5.5236Y-5.3543
X5.5236Y-5.374
X5.527Y-4.5997
X5.5315Y-5.2362
X5.5315Y-5.2559
X5.5315Y-5.2756
X5.5335Y-4.6204
X5.5433Y-5.3543
X5.5433Y-5.374
X5.5512Y-5.2362
X5.5512Y-5.2559
X5.5512Y-5.2756
X5.563Y-5.3543
X5.563Y-5.374
X5.5709Y-5.2362
X5.5709Y-5.2559
X5.5709Y-5.2756
X5.5827Y-5.3543
X5.5827Y-5.374
X5.6024Y-5.3543
X5.6024Y-5.374
X5.6142Y-5.2244
X5.6142Y-5.2441
X5.622Y-5.3543
X5.622Y-5.374
X5.6339Y-5.2244
X5.6339Y-5.2441
X5.6417Y-5.3543
X5.6417Y-5.374
X5.6535Y-5.2244
X5.6535Y-5.2441
X5.6614Y-5.3543
X5.6614Y-5.374
X5.6732Y-5.2244
X5.6732Y-5.2441
X5.6811Y-5.3543
X5.6811Y-5.374
X5.7224Y-5.4232
X5.724Y-4.9567
X5.7437Y-4.8819
X5.7437Y-4.9016
X5.7437Y-4.9213
X5.7441Y-5.3543
X5.7441Y-5.374
X5.7441Y-5.3937
X5.7634Y-4.8819
X5.7634Y-4.9016
X5.7634Y-4.9213
X5.7638Y-5.3543
X5.7638Y-5.374
X5.7638Y-5.3937
X5.7795Y-4.5236
X5.7835Y-5.374
X5.787Y-4.9016
X5.8031Y-5.374
X5.8051Y-5.3189
X5.8067Y-4.8425
X5.8067Y-4.9016
X5.815Y-5.5197
X5.8228Y-5.374
X5.8264Y-4.9016
X5.8425Y-5.374
X5.8461Y-4.9016
X5.8583Y-5.4449
X5.8622Y-5.374
X5.8658Y-4.9016
X5.8819Y-5.374
X5.8854Y-4.9016
X5.9016Y-5.374
X5.9051Y-4.9016
X5.9094Y-4.5866
X5.9173Y-4.6142
X5.9213Y-5.374
X5.9252Y-4.9016
X5.9351Y-5.0892
X5.9409Y-4.9331
X5.9488Y-5.4016
X5.9528Y-4.6929
X5.9528Y-4.7126
X5.9542Y-4.5276
X5.9567Y-5.0906
X5.9567Y-5.2126
X5.9606Y-4.9331
X5.9685Y-5.4016
X5.9803Y-4.9331
X5.9882Y-5.4016
X6.0Y-4.9331
X6.0079Y-5.4016
X6.0197Y-4.9331
X6.0276Y-5.4016
X6.0394Y-4.9331
X6.0433Y-5.437
X6.0472Y-5.4016
X6.0591Y-4.9331
X6.0669Y-5.4016
X6.0787Y-4.9331
X6.0866Y-5.4016
T2
X4.2579Y-3.8307
X4.3563Y-3.8307
X4.4547Y-3.8307
X4.5531Y-3.8307
X4.6516Y-3.8307
X4.75Y-3.8307
X4.8484Y-3.8307
X4.9469Y-3.8307
X5.3622Y-3.8307
X5.4606Y-3.8307
X5.5591Y-3.8307
X5.6575Y-3.8307
X5.7559Y-3.8307
X5.8543Y-3.8307
X5.9528Y-3.8307
X6.0512Y-3.8307
X6.6457Y-4.1043
X6.6457Y-4.2028
X6.6457Y-4.3012
X6.6457Y-4.3996
X6.6457Y-4.498
X6.6457Y-4.5965
X6.6457Y-4.6949
X6.6457Y-4.7933
X6.6457Y-4.8917
X6.6457Y-4.9902
X6.6457Y-5.0886
X6.6457Y-5.187
T3
X6.4724Y-3.8583
M30
