%TF.GenerationSoftware,KiCad,Pcbnew,9.0.7*%
%TF.CreationDate,2026-02-19T01:58:27-08:00*%
%TF.ProjectId,matrix-driver,6d617472-6978-42d6-9472-697665722e6b,rev?*%
%TF.SameCoordinates,Original*%
%TF.FileFunction,Copper,L3,Inr*%
%TF.FilePolarity,Positive*%
%FSLAX46Y46*%
G04 Gerber Fmt 4.6, Leading zero omitted, Abs format (unit mm)*
G04 Created by KiCad (PCBNEW 9.0.7) date 2026-02-19 01:58:27*
%MOMM*%
%LPD*%
G01*
G04 APERTURE LIST*
%TA.AperFunction,ViaPad*%
%ADD10C,0.400000*%
%TD*%
%TA.AperFunction,Conductor*%
%ADD11C,0.200000*%
%TD*%
%TA.AperFunction,Conductor*%
%ADD12C,0.500000*%
%TD*%
G04 APERTURE END LIST*
D10*
%TO.N,GND*%
X153500000Y-138100000D03*
X151200000Y-119700000D03*
X151200000Y-119200000D03*
X146800000Y-114900000D03*
X150751005Y-129266734D03*
X151300000Y-129300000D03*
X124300000Y-124800000D03*
X124300000Y-124300000D03*
%TO.N,/2V8_EN*%
X147700000Y-140200000D03*
X171300000Y-116300000D03*
%TO.N,/3V8_EN*%
X165600000Y-113800000D03*
%TO.N,GND*%
X164900000Y-125200000D03*
X165900000Y-125200000D03*
X165400000Y-125200000D03*
X166400000Y-125200000D03*
X167400000Y-125200000D03*
X170400000Y-127400000D03*
X170900000Y-127400000D03*
X169400000Y-125200000D03*
X166900000Y-125200000D03*
X168900000Y-125200000D03*
X168400000Y-125200000D03*
X169900000Y-125200000D03*
X167900000Y-127400000D03*
X168400000Y-127400000D03*
X168900000Y-127400000D03*
X165900000Y-127400000D03*
X169400000Y-127400000D03*
X166400000Y-127400000D03*
X169900000Y-127400000D03*
X167400000Y-127400000D03*
X166900000Y-127400000D03*
X170900000Y-125200000D03*
X170400000Y-125200000D03*
X167900000Y-125200000D03*
X164700000Y-127700000D03*
X165200000Y-127700000D03*
X162200000Y-127700000D03*
X162700000Y-127700000D03*
X159700000Y-127700000D03*
X163200000Y-127700000D03*
X160200000Y-127700000D03*
X163700000Y-127700000D03*
X160700000Y-127700000D03*
X164200000Y-127700000D03*
X161700000Y-127700000D03*
X161200000Y-127700000D03*
X159200000Y-127700000D03*
X164700000Y-129900000D03*
X165200000Y-129900000D03*
X164200000Y-129900000D03*
X162200000Y-129900000D03*
X162700000Y-129900000D03*
X163200000Y-129900000D03*
X163700000Y-129900000D03*
X161700000Y-129900000D03*
X161200000Y-129900000D03*
X160700000Y-129900000D03*
X160200000Y-129900000D03*
X159700000Y-129900000D03*
X159200000Y-129900000D03*
X154100000Y-137200000D03*
X154600000Y-137200000D03*
X153100000Y-137200000D03*
X153600000Y-137200000D03*
X152100000Y-137200000D03*
X152600000Y-137200000D03*
X151600000Y-137200000D03*
X152900000Y-125300000D03*
X153400000Y-125300000D03*
X153900000Y-125300000D03*
X154400000Y-125300000D03*
X152400000Y-125300000D03*
X151900000Y-125300000D03*
X151400000Y-125300000D03*
X150900000Y-125300000D03*
X150500000Y-124500000D03*
X150400000Y-136500000D03*
X149900000Y-136500000D03*
X149400000Y-136500000D03*
X148900000Y-136500000D03*
X148400000Y-136500000D03*
X145900000Y-137000000D03*
X145900000Y-136500000D03*
X145900000Y-136000000D03*
X146400000Y-136000000D03*
X146400000Y-137000000D03*
X146400000Y-136500000D03*
X146900000Y-136500000D03*
X147400000Y-136500000D03*
X147900000Y-136500000D03*
X148800000Y-138300000D03*
%TO.N,/3V8_EN*%
X151300000Y-132400000D03*
%TO.N,GND*%
X112700000Y-123400000D03*
X112700000Y-137400000D03*
%TO.N,+3V3*%
X114300000Y-136800000D03*
X114500000Y-122811000D03*
X150300000Y-117200000D03*
X150100000Y-116500000D03*
%TO.N,+2V8*%
X144300000Y-136000000D03*
X144300000Y-136500000D03*
X139800000Y-136000000D03*
X139800000Y-136500000D03*
X143800000Y-136500000D03*
X142300000Y-136500000D03*
X142800000Y-136500000D03*
X143300000Y-136500000D03*
X142300000Y-136000000D03*
X143300000Y-136000000D03*
X142800000Y-136000000D03*
X143800000Y-136000000D03*
X141800000Y-136500000D03*
X140300000Y-136500000D03*
X140800000Y-136500000D03*
X141300000Y-136500000D03*
X140300000Y-136000000D03*
X141300000Y-136000000D03*
X140800000Y-136000000D03*
X141800000Y-136000000D03*
X123200000Y-118800000D03*
X123700000Y-119300000D03*
X122700000Y-119300000D03*
X123200000Y-119300000D03*
X122700000Y-118800000D03*
X124200000Y-118800000D03*
X123700000Y-118800000D03*
X124200000Y-119300000D03*
%TO.N,+3V3*%
X125700000Y-118260000D03*
%TO.N,GND*%
X127400000Y-118200000D03*
%TO.N,+2V8*%
X120700000Y-118300000D03*
X120700000Y-118800000D03*
X121200000Y-118800000D03*
X121200000Y-118300000D03*
X121700000Y-118300000D03*
X121700000Y-118800000D03*
X122200000Y-118300000D03*
X122200000Y-118800000D03*
X124700000Y-118800000D03*
X124700000Y-119300000D03*
X125200000Y-118800000D03*
X125200000Y-119300000D03*
X140000000Y-133000000D03*
X140000000Y-134000000D03*
X141500000Y-134000000D03*
X140500000Y-134000000D03*
X141000000Y-134000000D03*
X141000000Y-133500000D03*
X140500000Y-133500000D03*
X141500000Y-133500000D03*
X140000000Y-133500000D03*
X140500000Y-133000000D03*
X141500000Y-133000000D03*
X141000000Y-133000000D03*
X144100000Y-133200000D03*
X143600000Y-133200000D03*
X143100000Y-133200000D03*
X142600000Y-133200000D03*
X142600000Y-132700000D03*
X143100000Y-132700000D03*
X143600000Y-132700000D03*
X144100000Y-132700000D03*
%TO.N,/R15*%
X139516954Y-114980000D03*
%TO.N,/SOUT*%
X135800000Y-114400000D03*
X165700000Y-123800000D03*
%TO.N,/SIN*%
X164200000Y-121300000D03*
X135500000Y-113900000D03*
%TO.N,/SCLK*%
X158600000Y-118800000D03*
X135200000Y-113410000D03*
%TO.N,GND*%
X151237500Y-115000000D03*
%TO.N,Net-(U3-SW)*%
X147450000Y-135100000D03*
X145350000Y-137750000D03*
%TO.N,GND*%
X145890200Y-125000000D03*
X145890200Y-124500000D03*
X145890200Y-124000000D03*
X146390200Y-125000000D03*
X146390200Y-124500000D03*
X146390200Y-124000000D03*
X149990200Y-124500000D03*
X149490200Y-124500000D03*
X148990200Y-124500000D03*
X148490200Y-124500000D03*
X147990200Y-124500000D03*
X147490200Y-124500000D03*
X146990200Y-124500000D03*
%TO.N,Net-(U1-SW)*%
X147490200Y-123000000D03*
X145390200Y-125900000D03*
%TO.N,GND*%
X129200000Y-116700000D03*
X131900000Y-122100000D03*
X129200000Y-121200000D03*
X131000000Y-121200000D03*
X133700000Y-118500000D03*
X132800000Y-120300000D03*
X132800000Y-117600000D03*
X130100000Y-116700000D03*
X132800000Y-121200000D03*
X131000000Y-117600000D03*
X133700000Y-122100000D03*
X133700000Y-117600000D03*
X128300000Y-117600000D03*
X131900000Y-116700000D03*
X128300000Y-116700000D03*
X128300000Y-120300000D03*
X129200000Y-120300000D03*
X132800000Y-118500000D03*
X131900000Y-117600000D03*
X131000000Y-120300000D03*
X132800000Y-116700000D03*
X133700000Y-119400000D03*
X131900000Y-118500000D03*
X133700000Y-116700000D03*
X129200000Y-119400000D03*
X128300000Y-119400000D03*
X130100000Y-121200000D03*
X130100000Y-119400000D03*
X129200000Y-117600000D03*
X130100000Y-118500000D03*
X133700000Y-120300000D03*
X129200000Y-118500000D03*
X131900000Y-119400000D03*
X131900000Y-121200000D03*
X128300000Y-121200000D03*
X132800000Y-122100000D03*
X133700000Y-121200000D03*
X131000000Y-118500000D03*
X130100000Y-117600000D03*
X132800000Y-119400000D03*
X131000000Y-122100000D03*
X128300000Y-118500000D03*
X129200000Y-122100000D03*
X130100000Y-120300000D03*
X131000000Y-119400000D03*
X131900000Y-120300000D03*
X128300000Y-122100000D03*
X131000000Y-116700000D03*
X130100000Y-122100000D03*
%TO.N,/G1*%
X114708200Y-116800000D03*
X123398754Y-116961246D03*
%TO.N,/R2*%
X114708200Y-117400000D03*
X121700000Y-119800000D03*
%TO.N,/G5*%
X126600000Y-126040000D03*
X114708200Y-120400000D03*
%TO.N,/G3*%
X123100000Y-121900000D03*
X114708200Y-118600000D03*
%TO.N,/B0*%
X124100000Y-116360000D03*
X114708200Y-116200000D03*
%TO.N,/R4*%
X114708200Y-119200000D03*
X124169464Y-122630536D03*
%TO.N,/G7*%
X114708200Y-122200000D03*
X129854730Y-127194730D03*
%TO.N,/B6*%
X114708200Y-121600000D03*
X128785230Y-126864230D03*
%TO.N,/B2*%
X122600000Y-120860000D03*
X114708200Y-118000000D03*
%TO.N,/B4*%
X124400000Y-123600000D03*
X114708200Y-119800000D03*
%TO.N,/R6*%
X127600000Y-126518000D03*
X114708200Y-121000000D03*
%TO.N,/B10*%
X114700000Y-132000000D03*
X133326516Y-130273484D03*
%TO.N,/R10*%
X114700000Y-131400000D03*
X134825270Y-125374730D03*
%TO.N,/G13*%
X114700000Y-134400000D03*
X138100000Y-120600000D03*
%TO.N,/B12*%
X114700000Y-133800000D03*
X137660000Y-124300000D03*
%TO.N,/G14*%
X141219949Y-117292020D03*
X119200000Y-135860000D03*
%TO.N,/R14*%
X114700000Y-135000000D03*
X139350000Y-116440000D03*
%TO.N,/R15*%
X115000000Y-136100000D03*
%TO.N,/G15*%
X115600000Y-136900000D03*
X139838980Y-115440000D03*
%TO.N,/R12*%
X137225270Y-121274730D03*
X114700000Y-133200000D03*
%TO.N,/G11*%
X133200270Y-132300270D03*
X114700000Y-132600000D03*
%TO.N,/R13*%
X117500000Y-134121000D03*
X139060000Y-122400000D03*
%TO.N,/B8*%
X114700000Y-130200000D03*
X131340002Y-127009835D03*
%TO.N,/G9*%
X133318000Y-128030047D03*
X114700000Y-130800000D03*
%TO.N,/R8*%
X114700000Y-129600000D03*
X130150540Y-129600000D03*
%TO.N,/B9*%
X117500000Y-131100000D03*
X132600000Y-129400000D03*
%TO.N,/B14*%
X140700000Y-117500000D03*
X114700000Y-135600000D03*
%TO.N,/B15*%
X117700000Y-136400000D03*
X139511081Y-115900000D03*
%TO.N,/R11*%
X136660000Y-123400000D03*
X117500000Y-132400000D03*
%TO.N,GND*%
X151100000Y-137200000D03*
%TD*%
D11*
%TO.N,/2V8_EN*%
X152237811Y-140200000D02*
X147700000Y-140200000D01*
X155051000Y-137386811D02*
X152237811Y-140200000D01*
X155051000Y-129149000D02*
X155051000Y-137386811D01*
X171300000Y-116300000D02*
X167900000Y-116300000D01*
X167900000Y-116300000D02*
X155051000Y-129149000D01*
%TO.N,/3V8_EN*%
X165600000Y-113800000D02*
X165600000Y-118100000D01*
X165600000Y-118100000D02*
X151300000Y-132400000D01*
D12*
%TO.N,+3V3*%
X126271000Y-117689000D02*
X125700000Y-118260000D01*
X126271000Y-117689000D02*
X125129000Y-117689000D01*
X131161000Y-112799000D02*
X126271000Y-117689000D01*
X145899000Y-112799000D02*
X131161000Y-112799000D01*
X150300000Y-117200000D02*
X145899000Y-112799000D01*
X114089000Y-136589000D02*
X114300000Y-136800000D01*
X114089000Y-123222000D02*
X114089000Y-136589000D01*
X114500000Y-122811000D02*
X114089000Y-123222000D01*
X120083285Y-117689000D02*
X125129000Y-117689000D01*
X114961285Y-122811000D02*
X120083285Y-117689000D01*
X114500000Y-122811000D02*
X114961285Y-122811000D01*
%TD*%
%TA.AperFunction,Conductor*%
%TO.N,+2V8*%
G36*
X125192540Y-118159185D02*
G01*
X125238295Y-118211989D01*
X125249501Y-118263500D01*
X125249501Y-118319310D01*
X125280199Y-118433885D01*
X125287144Y-118445913D01*
X125339511Y-118536614D01*
X125423386Y-118620489D01*
X125526113Y-118679799D01*
X125533152Y-118683863D01*
X125532107Y-118685671D01*
X125577855Y-118722536D01*
X125599921Y-118788830D01*
X125600000Y-118793258D01*
X125600000Y-129600000D01*
X129634424Y-129578766D01*
X129701562Y-129598096D01*
X129747595Y-129650659D01*
X129754847Y-129670667D01*
X129777333Y-129754587D01*
X129830060Y-129845913D01*
X129904627Y-129920480D01*
X129995953Y-129973207D01*
X130097813Y-130000500D01*
X130097815Y-130000500D01*
X130203265Y-130000500D01*
X130203267Y-130000500D01*
X130305127Y-129973207D01*
X130396453Y-129920480D01*
X130471020Y-129845913D01*
X130523747Y-129754587D01*
X130547688Y-129665234D01*
X130584051Y-129605576D01*
X130646898Y-129575046D01*
X130666789Y-129573332D01*
X132160831Y-129565469D01*
X132227973Y-129584800D01*
X132268870Y-129627467D01*
X132279520Y-129645913D01*
X132354087Y-129720480D01*
X132445413Y-129773207D01*
X132547273Y-129800500D01*
X132547275Y-129800500D01*
X132652725Y-129800500D01*
X132652727Y-129800500D01*
X132754587Y-129773207D01*
X132845913Y-129720480D01*
X132920480Y-129645913D01*
X132933803Y-129622835D01*
X132984367Y-129574622D01*
X133040531Y-129560839D01*
X144475347Y-129500656D01*
X144542490Y-129519987D01*
X144588522Y-129572550D01*
X144600000Y-129624654D01*
X144600000Y-136676500D01*
X144580315Y-136743539D01*
X144527511Y-136789294D01*
X144476502Y-136800499D01*
X120024502Y-136899495D01*
X119957383Y-136880082D01*
X119911415Y-136827464D01*
X119900000Y-136775496D01*
X119900000Y-132247543D01*
X132799770Y-132247543D01*
X132799770Y-132352997D01*
X132827063Y-132454857D01*
X132879790Y-132546183D01*
X132954357Y-132620750D01*
X133045683Y-132673477D01*
X133147543Y-132700770D01*
X133147545Y-132700770D01*
X133252995Y-132700770D01*
X133252997Y-132700770D01*
X133354857Y-132673477D01*
X133446183Y-132620750D01*
X133520750Y-132546183D01*
X133573477Y-132454857D01*
X133600770Y-132352997D01*
X133600770Y-132247543D01*
X133573477Y-132145683D01*
X133520750Y-132054357D01*
X133446183Y-131979790D01*
X133354857Y-131927063D01*
X133252997Y-131899770D01*
X133147543Y-131899770D01*
X133045683Y-131927063D01*
X133045680Y-131927064D01*
X132954355Y-131979791D01*
X132879791Y-132054355D01*
X132827064Y-132145680D01*
X132827063Y-132145683D01*
X132799770Y-132247543D01*
X119900000Y-132247543D01*
X119900000Y-130220757D01*
X132926016Y-130220757D01*
X132926016Y-130326211D01*
X132953309Y-130428071D01*
X133006036Y-130519397D01*
X133080603Y-130593964D01*
X133171929Y-130646691D01*
X133273789Y-130673984D01*
X133273791Y-130673984D01*
X133379241Y-130673984D01*
X133379243Y-130673984D01*
X133481103Y-130646691D01*
X133572429Y-130593964D01*
X133646996Y-130519397D01*
X133699723Y-130428071D01*
X133727016Y-130326211D01*
X133727016Y-130220757D01*
X133699723Y-130118897D01*
X133646996Y-130027571D01*
X133572429Y-129953004D01*
X133481103Y-129900277D01*
X133379243Y-129872984D01*
X133273789Y-129872984D01*
X133171929Y-129900277D01*
X133171926Y-129900278D01*
X133080601Y-129953005D01*
X133006037Y-130027569D01*
X132953310Y-130118894D01*
X132953309Y-130118897D01*
X132926016Y-130220757D01*
X119900000Y-130220757D01*
X119900000Y-122577809D01*
X123768964Y-122577809D01*
X123768964Y-122683263D01*
X123796257Y-122785123D01*
X123848984Y-122876449D01*
X123923551Y-122951016D01*
X124014877Y-123003743D01*
X124116737Y-123031036D01*
X124116739Y-123031036D01*
X124121701Y-123031036D01*
X124188740Y-123050721D01*
X124234495Y-123103525D01*
X124244439Y-123172683D01*
X124215414Y-123236239D01*
X124183703Y-123262420D01*
X124159987Y-123276113D01*
X124154085Y-123279521D01*
X124079521Y-123354085D01*
X124026794Y-123445410D01*
X124026793Y-123445413D01*
X123999500Y-123547273D01*
X123999500Y-123652726D01*
X124026793Y-123754586D01*
X124026794Y-123754589D01*
X124071540Y-123832091D01*
X124088013Y-123899991D01*
X124065160Y-123966018D01*
X124051835Y-123981772D01*
X123979520Y-124054087D01*
X123926794Y-124145410D01*
X123926793Y-124145413D01*
X123899500Y-124247273D01*
X123899500Y-124352726D01*
X123926793Y-124454586D01*
X123926794Y-124454589D01*
X123946084Y-124488000D01*
X123962557Y-124555900D01*
X123946084Y-124612000D01*
X123926794Y-124645410D01*
X123926793Y-124645413D01*
X123899500Y-124747273D01*
X123899500Y-124852727D01*
X123926793Y-124954587D01*
X123979520Y-125045913D01*
X124054087Y-125120480D01*
X124145413Y-125173207D01*
X124247273Y-125200500D01*
X124247275Y-125200500D01*
X124352725Y-125200500D01*
X124352727Y-125200500D01*
X124454587Y-125173207D01*
X124545913Y-125120480D01*
X124620480Y-125045913D01*
X124673207Y-124954587D01*
X124700500Y-124852727D01*
X124700500Y-124747273D01*
X124673207Y-124645413D01*
X124653915Y-124611998D01*
X124637442Y-124544102D01*
X124653914Y-124488002D01*
X124673207Y-124454587D01*
X124700500Y-124352727D01*
X124700500Y-124247273D01*
X124673207Y-124145413D01*
X124628458Y-124067906D01*
X124611986Y-124000008D01*
X124634838Y-123933981D01*
X124648154Y-123918238D01*
X124720480Y-123845913D01*
X124773207Y-123754587D01*
X124800500Y-123652727D01*
X124800500Y-123547273D01*
X124773207Y-123445413D01*
X124720480Y-123354087D01*
X124645913Y-123279520D01*
X124554587Y-123226793D01*
X124452727Y-123199500D01*
X124447763Y-123199500D01*
X124380724Y-123179815D01*
X124334969Y-123127011D01*
X124325025Y-123057853D01*
X124354050Y-122994297D01*
X124385760Y-122968115D01*
X124415377Y-122951016D01*
X124489944Y-122876449D01*
X124542671Y-122785123D01*
X124569964Y-122683263D01*
X124569964Y-122577809D01*
X124542671Y-122475949D01*
X124489944Y-122384623D01*
X124415377Y-122310056D01*
X124324051Y-122257329D01*
X124222191Y-122230036D01*
X124116737Y-122230036D01*
X124014877Y-122257329D01*
X124014874Y-122257330D01*
X123923549Y-122310057D01*
X123848985Y-122384621D01*
X123796258Y-122475946D01*
X123796257Y-122475949D01*
X123768964Y-122577809D01*
X119900000Y-122577809D01*
X119900000Y-121847273D01*
X122699500Y-121847273D01*
X122699500Y-121952727D01*
X122726793Y-122054587D01*
X122779520Y-122145913D01*
X122854087Y-122220480D01*
X122945413Y-122273207D01*
X123047273Y-122300500D01*
X123047275Y-122300500D01*
X123152725Y-122300500D01*
X123152727Y-122300500D01*
X123254587Y-122273207D01*
X123345913Y-122220480D01*
X123420480Y-122145913D01*
X123473207Y-122054587D01*
X123500500Y-121952727D01*
X123500500Y-121847273D01*
X123473207Y-121745413D01*
X123420480Y-121654087D01*
X123345913Y-121579520D01*
X123254587Y-121526793D01*
X123152727Y-121499500D01*
X123047273Y-121499500D01*
X122945413Y-121526793D01*
X122945410Y-121526794D01*
X122854085Y-121579521D01*
X122779521Y-121654085D01*
X122726794Y-121745410D01*
X122726793Y-121745413D01*
X122699500Y-121847273D01*
X119900000Y-121847273D01*
X119900000Y-120807273D01*
X122199500Y-120807273D01*
X122199500Y-120912727D01*
X122226793Y-121014587D01*
X122279520Y-121105913D01*
X122354087Y-121180480D01*
X122445413Y-121233207D01*
X122547273Y-121260500D01*
X122547275Y-121260500D01*
X122652725Y-121260500D01*
X122652727Y-121260500D01*
X122754587Y-121233207D01*
X122845913Y-121180480D01*
X122920480Y-121105913D01*
X122973207Y-121014587D01*
X123000500Y-120912727D01*
X123000500Y-120807273D01*
X122973207Y-120705413D01*
X122920480Y-120614087D01*
X122845913Y-120539520D01*
X122754587Y-120486793D01*
X122652727Y-120459500D01*
X122547273Y-120459500D01*
X122445413Y-120486793D01*
X122445410Y-120486794D01*
X122354085Y-120539521D01*
X122279521Y-120614085D01*
X122226794Y-120705410D01*
X122226793Y-120705413D01*
X122199500Y-120807273D01*
X119900000Y-120807273D01*
X119900000Y-119747273D01*
X121299500Y-119747273D01*
X121299500Y-119852727D01*
X121326793Y-119954587D01*
X121379520Y-120045913D01*
X121454087Y-120120480D01*
X121545413Y-120173207D01*
X121647273Y-120200500D01*
X121647275Y-120200500D01*
X121752725Y-120200500D01*
X121752727Y-120200500D01*
X121854587Y-120173207D01*
X121945913Y-120120480D01*
X122020480Y-120045913D01*
X122073207Y-119954587D01*
X122100500Y-119852727D01*
X122100500Y-119747273D01*
X122073207Y-119645413D01*
X122020480Y-119554087D01*
X121945913Y-119479520D01*
X121854587Y-119426793D01*
X121752727Y-119399500D01*
X121647273Y-119399500D01*
X121545413Y-119426793D01*
X121545410Y-119426794D01*
X121454085Y-119479521D01*
X121379521Y-119554085D01*
X121326794Y-119645410D01*
X121326793Y-119645413D01*
X121299500Y-119747273D01*
X119900000Y-119747273D01*
X119900000Y-118560750D01*
X119919685Y-118493711D01*
X119936319Y-118473069D01*
X120233569Y-118175819D01*
X120294892Y-118142334D01*
X120321250Y-118139500D01*
X125069691Y-118139500D01*
X125125501Y-118139500D01*
X125192540Y-118159185D01*
G37*
%TD.AperFunction*%
%TD*%
%TA.AperFunction,Conductor*%
%TO.N,GND*%
G36*
X124411812Y-124093721D02*
G01*
X124434195Y-124129953D01*
X124450489Y-124170655D01*
X124473548Y-124210595D01*
X124485933Y-124240494D01*
X124490773Y-124258553D01*
X124495000Y-124290653D01*
X124495000Y-124309345D01*
X124490774Y-124341441D01*
X124485849Y-124359820D01*
X124476963Y-124383220D01*
X124475949Y-124385245D01*
X124456737Y-124430106D01*
X124456736Y-124430110D01*
X124440271Y-124486187D01*
X124436490Y-124501105D01*
X124436490Y-124501106D01*
X124436490Y-124501107D01*
X124437101Y-124545914D01*
X124437736Y-124592555D01*
X124437736Y-124592557D01*
X124454208Y-124660449D01*
X124454210Y-124660454D01*
X124475946Y-124714747D01*
X124477665Y-124718286D01*
X124485899Y-124740365D01*
X124490774Y-124758558D01*
X124495000Y-124790653D01*
X124495000Y-124809347D01*
X124490773Y-124841446D01*
X124485934Y-124859502D01*
X124473549Y-124889402D01*
X124464199Y-124905597D01*
X124444492Y-124931279D01*
X124431279Y-124944492D01*
X124405597Y-124964199D01*
X124389402Y-124973549D01*
X124359504Y-124985934D01*
X124355386Y-124987037D01*
X124341443Y-124990773D01*
X124309348Y-124995000D01*
X124290652Y-124995000D01*
X124258561Y-124990775D01*
X124240504Y-124985937D01*
X124210593Y-124973548D01*
X124194399Y-124964198D01*
X124168720Y-124944493D01*
X124155506Y-124931279D01*
X124135800Y-124905598D01*
X124126451Y-124889405D01*
X124114063Y-124859499D01*
X124109223Y-124841435D01*
X124105000Y-124809347D01*
X124105000Y-124790651D01*
X124109225Y-124758558D01*
X124114148Y-124740185D01*
X124123039Y-124716774D01*
X124124048Y-124714757D01*
X124124048Y-124714756D01*
X124124052Y-124714750D01*
X124143259Y-124669898D01*
X124159732Y-124613798D01*
X124163508Y-124598897D01*
X124162264Y-124507450D01*
X124145791Y-124439550D01*
X124124052Y-124385249D01*
X124124049Y-124385244D01*
X124124048Y-124385241D01*
X124122337Y-124381718D01*
X124114099Y-124359632D01*
X124109223Y-124341434D01*
X124105000Y-124309346D01*
X124105000Y-124290651D01*
X124109224Y-124258561D01*
X124114064Y-124240496D01*
X124126450Y-124210595D01*
X124135800Y-124194400D01*
X124155503Y-124168722D01*
X124197145Y-124127082D01*
X124208737Y-124114482D01*
X124222062Y-124098728D01*
X124222065Y-124098721D01*
X124224399Y-124095963D01*
X124282721Y-124057488D01*
X124352586Y-124056652D01*
X124411812Y-124093721D01*
G37*
%TD.AperFunction*%
%TA.AperFunction,Conductor*%
G36*
X169909445Y-93500500D02*
G01*
X169934108Y-93500500D01*
X169996249Y-93500500D01*
X170003736Y-93500726D01*
X170293796Y-93518271D01*
X170308657Y-93520075D01*
X170590798Y-93571780D01*
X170605335Y-93575363D01*
X170879172Y-93660695D01*
X170893163Y-93666000D01*
X171154743Y-93783727D01*
X171167989Y-93790680D01*
X171413465Y-93939075D01*
X171425776Y-93947573D01*
X171651573Y-94124473D01*
X171662781Y-94134403D01*
X171865596Y-94337218D01*
X171875525Y-94348425D01*
X171995481Y-94501538D01*
X172052422Y-94574217D01*
X172060928Y-94586540D01*
X172209316Y-94832004D01*
X172216275Y-94845263D01*
X172333997Y-95106831D01*
X172339306Y-95120832D01*
X172424635Y-95394663D01*
X172428219Y-95409201D01*
X172479923Y-95691340D01*
X172481728Y-95706205D01*
X172499274Y-95996262D01*
X172499500Y-96003749D01*
X172499501Y-139934108D01*
X172499501Y-139996249D01*
X172499275Y-140003736D01*
X172481729Y-140293794D01*
X172479924Y-140308659D01*
X172428220Y-140590798D01*
X172424636Y-140605336D01*
X172339307Y-140879167D01*
X172333998Y-140893168D01*
X172216276Y-141154736D01*
X172209317Y-141167995D01*
X172060929Y-141413459D01*
X172052423Y-141425782D01*
X171875527Y-141651573D01*
X171865597Y-141662781D01*
X171662782Y-141865596D01*
X171651574Y-141875526D01*
X171425783Y-142052423D01*
X171413460Y-142060929D01*
X171167996Y-142209317D01*
X171154737Y-142216276D01*
X170893169Y-142333998D01*
X170879168Y-142339307D01*
X170605336Y-142424636D01*
X170590798Y-142428220D01*
X170308660Y-142479924D01*
X170293795Y-142481729D01*
X170003754Y-142499274D01*
X169996267Y-142499500D01*
X100003750Y-142499500D01*
X99996263Y-142499274D01*
X99706204Y-142481728D01*
X99691339Y-142479923D01*
X99409201Y-142428219D01*
X99394663Y-142424635D01*
X99120824Y-142339304D01*
X99106826Y-142333995D01*
X98954095Y-142265256D01*
X98845268Y-142216277D01*
X98832010Y-142209319D01*
X98643965Y-142095642D01*
X98586537Y-142060926D01*
X98574220Y-142052424D01*
X98348426Y-141875525D01*
X98337218Y-141865595D01*
X98134403Y-141662781D01*
X98124473Y-141651573D01*
X97947573Y-141425776D01*
X97939071Y-141413458D01*
X97790680Y-141167987D01*
X97783722Y-141154730D01*
X97666000Y-140893163D01*
X97660698Y-140879182D01*
X97575363Y-140605334D01*
X97571780Y-140590797D01*
X97520075Y-140308657D01*
X97518271Y-140293794D01*
X97509408Y-140147273D01*
X147299500Y-140147273D01*
X147299500Y-140252727D01*
X147326793Y-140354587D01*
X147379520Y-140445913D01*
X147454087Y-140520480D01*
X147545413Y-140573207D01*
X147647273Y-140600500D01*
X147647275Y-140600500D01*
X147752725Y-140600500D01*
X147752727Y-140600500D01*
X147854587Y-140573207D01*
X147945913Y-140520480D01*
X147945914Y-140520478D01*
X147951744Y-140517113D01*
X148013744Y-140500500D01*
X152277371Y-140500500D01*
X152277373Y-140500500D01*
X152353800Y-140480021D01*
X152422322Y-140440460D01*
X152478271Y-140384511D01*
X154984071Y-137878711D01*
X168149500Y-137878711D01*
X168149500Y-138121288D01*
X168181161Y-138361785D01*
X168243947Y-138596104D01*
X168336773Y-138820205D01*
X168336776Y-138820212D01*
X168458064Y-139030289D01*
X168458066Y-139030292D01*
X168458067Y-139030293D01*
X168605733Y-139222736D01*
X168605739Y-139222743D01*
X168777256Y-139394260D01*
X168777262Y-139394265D01*
X168969711Y-139541936D01*
X169179788Y-139663224D01*
X169403900Y-139756054D01*
X169638211Y-139818838D01*
X169818586Y-139842584D01*
X169878711Y-139850500D01*
X169878712Y-139850500D01*
X170121289Y-139850500D01*
X170169388Y-139844167D01*
X170361789Y-139818838D01*
X170596100Y-139756054D01*
X170820212Y-139663224D01*
X171030289Y-139541936D01*
X171222738Y-139394265D01*
X171394265Y-139222738D01*
X171541936Y-139030289D01*
X171663224Y-138820212D01*
X171756054Y-138596100D01*
X171818838Y-138361789D01*
X171850500Y-138121288D01*
X171850500Y-137878712D01*
X171818838Y-137638211D01*
X171756054Y-137403900D01*
X171663224Y-137179788D01*
X171541936Y-136969711D01*
X171426739Y-136819583D01*
X171394266Y-136777263D01*
X171394260Y-136777256D01*
X171222743Y-136605739D01*
X171222736Y-136605733D01*
X171030293Y-136458067D01*
X171030292Y-136458066D01*
X171030289Y-136458064D01*
X170836038Y-136345913D01*
X170820214Y-136336777D01*
X170820205Y-136336773D01*
X170596104Y-136243947D01*
X170361785Y-136181161D01*
X170121289Y-136149500D01*
X170121288Y-136149500D01*
X169878712Y-136149500D01*
X169878711Y-136149500D01*
X169638214Y-136181161D01*
X169403895Y-136243947D01*
X169179794Y-136336773D01*
X169179785Y-136336777D01*
X169066129Y-136402397D01*
X168978959Y-136452725D01*
X168969706Y-136458067D01*
X168777263Y-136605733D01*
X168777256Y-136605739D01*
X168605739Y-136777256D01*
X168605733Y-136777263D01*
X168458067Y-136969706D01*
X168336777Y-137179785D01*
X168336773Y-137179794D01*
X168243947Y-137403895D01*
X168181161Y-137638214D01*
X168149500Y-137878711D01*
X154984071Y-137878711D01*
X155291460Y-137571322D01*
X155312553Y-137534788D01*
X155330278Y-137504087D01*
X155331018Y-137502806D01*
X155331020Y-137502801D01*
X155331021Y-137502800D01*
X155351500Y-137426373D01*
X155351500Y-129324833D01*
X155371185Y-129257794D01*
X155387819Y-129237152D01*
X158161241Y-126463730D01*
X160877698Y-123747273D01*
X165299500Y-123747273D01*
X165299500Y-123852727D01*
X165326793Y-123954587D01*
X165379520Y-124045913D01*
X165454087Y-124120480D01*
X165545413Y-124173207D01*
X165647273Y-124200500D01*
X165647275Y-124200500D01*
X165752725Y-124200500D01*
X165752727Y-124200500D01*
X165854587Y-124173207D01*
X165945913Y-124120480D01*
X166020480Y-124045913D01*
X166073207Y-123954587D01*
X166100500Y-123852727D01*
X166100500Y-123747273D01*
X166073207Y-123645413D01*
X166020480Y-123554087D01*
X165945913Y-123479520D01*
X165854587Y-123426793D01*
X165752727Y-123399500D01*
X165647273Y-123399500D01*
X165545413Y-123426793D01*
X165545410Y-123426794D01*
X165454085Y-123479521D01*
X165379521Y-123554085D01*
X165326794Y-123645410D01*
X165326793Y-123645413D01*
X165299500Y-123747273D01*
X160877698Y-123747273D01*
X163635123Y-120989847D01*
X163696444Y-120956364D01*
X163766136Y-120961348D01*
X163822069Y-121003220D01*
X163846486Y-121068684D01*
X163831634Y-121136957D01*
X163830191Y-121139527D01*
X163826794Y-121145410D01*
X163826793Y-121145413D01*
X163799500Y-121247273D01*
X163799500Y-121352727D01*
X163826793Y-121454587D01*
X163879520Y-121545913D01*
X163954087Y-121620480D01*
X164045413Y-121673207D01*
X164147273Y-121700500D01*
X164147275Y-121700500D01*
X164252725Y-121700500D01*
X164252727Y-121700500D01*
X164354587Y-121673207D01*
X164445913Y-121620480D01*
X164520480Y-121545913D01*
X164573207Y-121454587D01*
X164600500Y-121352727D01*
X164600500Y-121247273D01*
X164573207Y-121145413D01*
X164520480Y-121054087D01*
X164445913Y-120979520D01*
X164354587Y-120926793D01*
X164252727Y-120899500D01*
X164147273Y-120899500D01*
X164045413Y-120926793D01*
X164045410Y-120926794D01*
X164039527Y-120930191D01*
X163971626Y-120946661D01*
X163905600Y-120923807D01*
X163862411Y-120868885D01*
X163855772Y-120799331D01*
X163887790Y-120737229D01*
X163889806Y-120735164D01*
X167988152Y-116636819D01*
X168049475Y-116603334D01*
X168075833Y-116600500D01*
X170986256Y-116600500D01*
X171048256Y-116617113D01*
X171054085Y-116620478D01*
X171054087Y-116620480D01*
X171145413Y-116673207D01*
X171247273Y-116700500D01*
X171247275Y-116700500D01*
X171352725Y-116700500D01*
X171352727Y-116700500D01*
X171454587Y-116673207D01*
X171545913Y-116620480D01*
X171620480Y-116545913D01*
X171673207Y-116454587D01*
X171700500Y-116352727D01*
X171700500Y-116247273D01*
X171673207Y-116145413D01*
X171620480Y-116054087D01*
X171545913Y-115979520D01*
X171454587Y-115926793D01*
X171352727Y-115899500D01*
X171247273Y-115899500D01*
X171145413Y-115926793D01*
X171145410Y-115926794D01*
X171100494Y-115952727D01*
X171054087Y-115979520D01*
X171054086Y-115979520D01*
X171048256Y-115982887D01*
X170986256Y-115999500D01*
X167860438Y-115999500D01*
X167821256Y-116009999D01*
X167784006Y-116019980D01*
X167784005Y-116019981D01*
X167750166Y-116039519D01*
X167750165Y-116039520D01*
X167739963Y-116045410D01*
X167715489Y-116059539D01*
X167715487Y-116059541D01*
X166112181Y-117662848D01*
X166050858Y-117696333D01*
X165981166Y-117691349D01*
X165925233Y-117649477D01*
X165900816Y-117584013D01*
X165900500Y-117575167D01*
X165900500Y-114113743D01*
X165917113Y-114051742D01*
X165920476Y-114045916D01*
X165920480Y-114045913D01*
X165973207Y-113954587D01*
X166000500Y-113852727D01*
X166000500Y-113747273D01*
X165973207Y-113645413D01*
X165920480Y-113554087D01*
X165845913Y-113479520D01*
X165754587Y-113426793D01*
X165652727Y-113399500D01*
X165547273Y-113399500D01*
X165445413Y-113426793D01*
X165445410Y-113426794D01*
X165354085Y-113479521D01*
X165279521Y-113554085D01*
X165226794Y-113645410D01*
X165226793Y-113645413D01*
X165199500Y-113747273D01*
X165199500Y-113852727D01*
X165226793Y-113954587D01*
X165279520Y-114045913D01*
X165279523Y-114045916D01*
X165282887Y-114051742D01*
X165299500Y-114113743D01*
X165299500Y-117924167D01*
X165279815Y-117991206D01*
X165263181Y-118011848D01*
X151309365Y-131965663D01*
X151253778Y-131997757D01*
X151145411Y-132026793D01*
X151145410Y-132026794D01*
X151054085Y-132079521D01*
X150979521Y-132154085D01*
X150926794Y-132245410D01*
X150926793Y-132245413D01*
X150899500Y-132347273D01*
X150899500Y-132452727D01*
X150926793Y-132554587D01*
X150979520Y-132645913D01*
X151054087Y-132720480D01*
X151145413Y-132773207D01*
X151247273Y-132800500D01*
X151247275Y-132800500D01*
X151352725Y-132800500D01*
X151352727Y-132800500D01*
X151454587Y-132773207D01*
X151545913Y-132720480D01*
X151620480Y-132645913D01*
X151673207Y-132554587D01*
X151700500Y-132452727D01*
X151700500Y-132452723D01*
X151702242Y-132446222D01*
X151734334Y-132390636D01*
X154538819Y-129586152D01*
X154600142Y-129552667D01*
X154669834Y-129557651D01*
X154725767Y-129599523D01*
X154750184Y-129664987D01*
X154750500Y-129673833D01*
X154750500Y-137210978D01*
X154730815Y-137278017D01*
X154714181Y-137298659D01*
X152149659Y-139863181D01*
X152088336Y-139896666D01*
X152061978Y-139899500D01*
X148013744Y-139899500D01*
X147951744Y-139882887D01*
X147945914Y-139879521D01*
X147945913Y-139879520D01*
X147854587Y-139826793D01*
X147752727Y-139799500D01*
X147647273Y-139799500D01*
X147545413Y-139826793D01*
X147545410Y-139826794D01*
X147454085Y-139879521D01*
X147379521Y-139954085D01*
X147326794Y-140045410D01*
X147326793Y-140045413D01*
X147299500Y-140147273D01*
X97509408Y-140147273D01*
X97509369Y-140146633D01*
X97500723Y-140003718D01*
X97500499Y-139996298D01*
X97500499Y-137878711D01*
X98149500Y-137878711D01*
X98149500Y-138121288D01*
X98181161Y-138361785D01*
X98243947Y-138596104D01*
X98336773Y-138820205D01*
X98336776Y-138820212D01*
X98458064Y-139030289D01*
X98458066Y-139030292D01*
X98458067Y-139030293D01*
X98605733Y-139222736D01*
X98605739Y-139222743D01*
X98777256Y-139394260D01*
X98777262Y-139394265D01*
X98969711Y-139541936D01*
X99179788Y-139663224D01*
X99403900Y-139756054D01*
X99638211Y-139818838D01*
X99818586Y-139842584D01*
X99878711Y-139850500D01*
X99878712Y-139850500D01*
X100121289Y-139850500D01*
X100169388Y-139844167D01*
X100361789Y-139818838D01*
X100596100Y-139756054D01*
X100820212Y-139663224D01*
X101030289Y-139541936D01*
X101222738Y-139394265D01*
X101394265Y-139222738D01*
X101541936Y-139030289D01*
X101663224Y-138820212D01*
X101756054Y-138596100D01*
X101818838Y-138361789D01*
X101850500Y-138121288D01*
X101850500Y-137878712D01*
X101826614Y-137697273D01*
X144949500Y-137697273D01*
X144949500Y-137802727D01*
X144976793Y-137904587D01*
X145029520Y-137995913D01*
X145104087Y-138070480D01*
X145195413Y-138123207D01*
X145297273Y-138150500D01*
X145297275Y-138150500D01*
X145402725Y-138150500D01*
X145402727Y-138150500D01*
X145504587Y-138123207D01*
X145595913Y-138070480D01*
X145670480Y-137995913D01*
X145723207Y-137904587D01*
X145750500Y-137802727D01*
X145750500Y-137697273D01*
X145723207Y-137595413D01*
X145670480Y-137504087D01*
X145595913Y-137429520D01*
X145504587Y-137376793D01*
X145402727Y-137349500D01*
X145297273Y-137349500D01*
X145195413Y-137376793D01*
X145195410Y-137376794D01*
X145104085Y-137429521D01*
X145029521Y-137504085D01*
X144976794Y-137595410D01*
X144976793Y-137595413D01*
X144949500Y-137697273D01*
X101826614Y-137697273D01*
X101818838Y-137638211D01*
X101756054Y-137403900D01*
X101663224Y-137179788D01*
X101541936Y-136969711D01*
X101426739Y-136819583D01*
X101394266Y-136777263D01*
X101394260Y-136777256D01*
X101222743Y-136605739D01*
X101222736Y-136605733D01*
X101030293Y-136458067D01*
X101030292Y-136458066D01*
X101030289Y-136458064D01*
X100836038Y-136345913D01*
X100820214Y-136336777D01*
X100820205Y-136336773D01*
X100596104Y-136243947D01*
X100361785Y-136181161D01*
X100121289Y-136149500D01*
X100121288Y-136149500D01*
X99878712Y-136149500D01*
X99878711Y-136149500D01*
X99638214Y-136181161D01*
X99403895Y-136243947D01*
X99179794Y-136336773D01*
X99179785Y-136336777D01*
X99066129Y-136402397D01*
X98978959Y-136452725D01*
X98969706Y-136458067D01*
X98777263Y-136605733D01*
X98777256Y-136605739D01*
X98605739Y-136777256D01*
X98605733Y-136777263D01*
X98458067Y-136969706D01*
X98336777Y-137179785D01*
X98336773Y-137179794D01*
X98243947Y-137403895D01*
X98181161Y-137638214D01*
X98149500Y-137878711D01*
X97500499Y-137878711D01*
X97500499Y-123162691D01*
X113638500Y-123162691D01*
X113638500Y-123169922D01*
X113638500Y-136648311D01*
X113648274Y-136684785D01*
X113648274Y-136684788D01*
X113648275Y-136684788D01*
X113669201Y-136762888D01*
X113676481Y-136775497D01*
X113728511Y-136865614D01*
X114023386Y-137160489D01*
X114095595Y-137202179D01*
X114126114Y-137219800D01*
X114196233Y-137238587D01*
X114240691Y-137250499D01*
X114240694Y-137250499D01*
X114359306Y-137250499D01*
X114359309Y-137250499D01*
X114429429Y-137231710D01*
X114473885Y-137219800D01*
X114489165Y-137210978D01*
X114576614Y-137160489D01*
X114660489Y-137076614D01*
X114719799Y-136973887D01*
X114720920Y-136969706D01*
X114731710Y-136929429D01*
X114750499Y-136859309D01*
X114750499Y-136740691D01*
X114728813Y-136659756D01*
X114721530Y-136632572D01*
X114723193Y-136562722D01*
X114762357Y-136504860D01*
X114826586Y-136477357D01*
X114873395Y-136480704D01*
X114947273Y-136500500D01*
X114947275Y-136500500D01*
X115052724Y-136500500D01*
X115052727Y-136500500D01*
X115136769Y-136477981D01*
X115206616Y-136479644D01*
X115264479Y-136518806D01*
X115291983Y-136583035D01*
X115280397Y-136651937D01*
X115276247Y-136659756D01*
X115226794Y-136745410D01*
X115226793Y-136745413D01*
X115199500Y-136847273D01*
X115199500Y-136952727D01*
X115226793Y-137054587D01*
X115279520Y-137145913D01*
X115354087Y-137220480D01*
X115445413Y-137273207D01*
X115547273Y-137300500D01*
X115547275Y-137300500D01*
X115652725Y-137300500D01*
X115652727Y-137300500D01*
X115754587Y-137273207D01*
X115845913Y-137220480D01*
X115920480Y-137145913D01*
X115973207Y-137054587D01*
X116000500Y-136952727D01*
X116000500Y-136847273D01*
X115973207Y-136745413D01*
X115920480Y-136654087D01*
X115845913Y-136579520D01*
X115754587Y-136526793D01*
X115652727Y-136499500D01*
X115547273Y-136499500D01*
X115547271Y-136499500D01*
X115463231Y-136522018D01*
X115441092Y-136521490D01*
X115419351Y-136525681D01*
X115406848Y-136520675D01*
X115393381Y-136520355D01*
X115375042Y-136507942D01*
X115354486Y-136499713D01*
X115346672Y-136488740D01*
X115335519Y-136481191D01*
X115326803Y-136460837D01*
X115313958Y-136442798D01*
X115313317Y-136429343D01*
X115308016Y-136416963D01*
X115311688Y-136395126D01*
X115310635Y-136373008D01*
X115318864Y-136352452D01*
X115319603Y-136348061D01*
X115320021Y-136347273D01*
X117299500Y-136347273D01*
X117299500Y-136452727D01*
X117326793Y-136554587D01*
X117379520Y-136645913D01*
X117454087Y-136720480D01*
X117545413Y-136773207D01*
X117647273Y-136800500D01*
X117647275Y-136800500D01*
X117752725Y-136800500D01*
X117752727Y-136800500D01*
X117854587Y-136773207D01*
X117945913Y-136720480D01*
X118020480Y-136645913D01*
X118073207Y-136554587D01*
X118100500Y-136452727D01*
X118100500Y-136347273D01*
X118073207Y-136245413D01*
X118020480Y-136154087D01*
X117945913Y-136079520D01*
X117854587Y-136026793D01*
X117752727Y-135999500D01*
X117647273Y-135999500D01*
X117545413Y-136026793D01*
X117545410Y-136026794D01*
X117454085Y-136079521D01*
X117379521Y-136154085D01*
X117326794Y-136245410D01*
X117326793Y-136245413D01*
X117299500Y-136347273D01*
X115320021Y-136347273D01*
X115323739Y-136340266D01*
X115373207Y-136254587D01*
X115400500Y-136152727D01*
X115400500Y-136047273D01*
X115373207Y-135945413D01*
X115320480Y-135854087D01*
X115245913Y-135779520D01*
X115162498Y-135731360D01*
X115114284Y-135680793D01*
X115100500Y-135623974D01*
X115100500Y-135547275D01*
X115100500Y-135547273D01*
X115073207Y-135445413D01*
X115025047Y-135361998D01*
X115008575Y-135294100D01*
X115025047Y-135238001D01*
X115073207Y-135154587D01*
X115100500Y-135052727D01*
X115100500Y-134947273D01*
X115073207Y-134845413D01*
X115025047Y-134761998D01*
X115008575Y-134694100D01*
X115025047Y-134638001D01*
X115073207Y-134554587D01*
X115100500Y-134452727D01*
X115100500Y-134347273D01*
X115073207Y-134245413D01*
X115025047Y-134161998D01*
X115022217Y-134150333D01*
X115015255Y-134140556D01*
X115014133Y-134117012D01*
X115008575Y-134094100D01*
X115012418Y-134081009D01*
X115011931Y-134070765D01*
X115012929Y-134068273D01*
X117099500Y-134068273D01*
X117099500Y-134173727D01*
X117126793Y-134275587D01*
X117179520Y-134366913D01*
X117254087Y-134441480D01*
X117345413Y-134494207D01*
X117447273Y-134521500D01*
X117447275Y-134521500D01*
X117552725Y-134521500D01*
X117552727Y-134521500D01*
X117654587Y-134494207D01*
X117745913Y-134441480D01*
X117820480Y-134366913D01*
X117873207Y-134275587D01*
X117900500Y-134173727D01*
X117900500Y-134068273D01*
X117873207Y-133966413D01*
X117820480Y-133875087D01*
X117745913Y-133800520D01*
X117654587Y-133747793D01*
X117552727Y-133720500D01*
X117447273Y-133720500D01*
X117345413Y-133747793D01*
X117345410Y-133747794D01*
X117254085Y-133800521D01*
X117179521Y-133875085D01*
X117126794Y-133966410D01*
X117126793Y-133966413D01*
X117099500Y-134068273D01*
X115012929Y-134068273D01*
X115025045Y-134038005D01*
X115073207Y-133954587D01*
X115100500Y-133852727D01*
X115100500Y-133747273D01*
X115073207Y-133645413D01*
X115025047Y-133561998D01*
X115008575Y-133494100D01*
X115025047Y-133438001D01*
X115073207Y-133354587D01*
X115100500Y-133252727D01*
X115100500Y-133147273D01*
X115073207Y-133045413D01*
X115025047Y-132961998D01*
X115008575Y-132894100D01*
X115025047Y-132838001D01*
X115073207Y-132754587D01*
X115100500Y-132652727D01*
X115100500Y-132547273D01*
X115073207Y-132445413D01*
X115025047Y-132361998D01*
X115021475Y-132347273D01*
X117099500Y-132347273D01*
X117099500Y-132452727D01*
X117126793Y-132554587D01*
X117179520Y-132645913D01*
X117254087Y-132720480D01*
X117345413Y-132773207D01*
X117447273Y-132800500D01*
X117447275Y-132800500D01*
X117552725Y-132800500D01*
X117552727Y-132800500D01*
X117654587Y-132773207D01*
X117745913Y-132720480D01*
X117820480Y-132645913D01*
X117873207Y-132554587D01*
X117900500Y-132452727D01*
X117900500Y-132347273D01*
X117873207Y-132245413D01*
X117820480Y-132154087D01*
X117745913Y-132079520D01*
X117654587Y-132026793D01*
X117552727Y-131999500D01*
X117447273Y-131999500D01*
X117345413Y-132026793D01*
X117345410Y-132026794D01*
X117254085Y-132079521D01*
X117179521Y-132154085D01*
X117126794Y-132245410D01*
X117126793Y-132245413D01*
X117099500Y-132347273D01*
X115021475Y-132347273D01*
X115008575Y-132294100D01*
X115025047Y-132238001D01*
X115073207Y-132154587D01*
X115100500Y-132052727D01*
X115100500Y-131947273D01*
X115073207Y-131845413D01*
X115025047Y-131761998D01*
X115008575Y-131694100D01*
X115025047Y-131638001D01*
X115073207Y-131554587D01*
X115100500Y-131452727D01*
X115100500Y-131347273D01*
X115073207Y-131245413D01*
X115025047Y-131161998D01*
X115022218Y-131150335D01*
X115015255Y-131140557D01*
X115014133Y-131117010D01*
X115008575Y-131094100D01*
X115012418Y-131081011D01*
X115011930Y-131070766D01*
X115021335Y-131047273D01*
X117099500Y-131047273D01*
X117099500Y-131152727D01*
X117126793Y-131254587D01*
X117179520Y-131345913D01*
X117254087Y-131420480D01*
X117345413Y-131473207D01*
X117447273Y-131500500D01*
X117447275Y-131500500D01*
X117552725Y-131500500D01*
X117552727Y-131500500D01*
X117654587Y-131473207D01*
X117745913Y-131420480D01*
X117820480Y-131345913D01*
X117873207Y-131254587D01*
X117900500Y-131152727D01*
X117900500Y-131047273D01*
X117873207Y-130945413D01*
X117820480Y-130854087D01*
X117745913Y-130779520D01*
X117654587Y-130726793D01*
X117552727Y-130699500D01*
X117447273Y-130699500D01*
X117345413Y-130726793D01*
X117345410Y-130726794D01*
X117254085Y-130779521D01*
X117179521Y-130854085D01*
X117126794Y-130945410D01*
X117126793Y-130945413D01*
X117099500Y-131047273D01*
X115021335Y-131047273D01*
X115025046Y-131038003D01*
X115073207Y-130954587D01*
X115100500Y-130852727D01*
X115100500Y-130747273D01*
X115073207Y-130645413D01*
X115025047Y-130561998D01*
X115008575Y-130494100D01*
X115025047Y-130438001D01*
X115073207Y-130354587D01*
X115100500Y-130252727D01*
X115100500Y-130147273D01*
X115073207Y-130045413D01*
X115025047Y-129961998D01*
X115008575Y-129894100D01*
X115025047Y-129838001D01*
X115073207Y-129754587D01*
X115100500Y-129652727D01*
X115100500Y-129547273D01*
X115073207Y-129445413D01*
X115020480Y-129354087D01*
X114945913Y-129279520D01*
X114872529Y-129237152D01*
X114854589Y-129226794D01*
X114854588Y-129226793D01*
X114854587Y-129226793D01*
X114752727Y-129199500D01*
X114663500Y-129199500D01*
X114596461Y-129179815D01*
X114550706Y-129127011D01*
X114539500Y-129075500D01*
X114539500Y-123459966D01*
X114548144Y-123430528D01*
X114554668Y-123400538D01*
X114558423Y-123395521D01*
X114559185Y-123392927D01*
X114575819Y-123372284D01*
X114650286Y-123297818D01*
X114711610Y-123264334D01*
X114737967Y-123261500D01*
X115020593Y-123261500D01*
X115020594Y-123261500D01*
X115110958Y-123237286D01*
X115135172Y-123230799D01*
X115237899Y-123171489D01*
X119482819Y-118926569D01*
X119544142Y-118893084D01*
X119613834Y-118898068D01*
X119669767Y-118939940D01*
X119694184Y-119005404D01*
X119694500Y-119014250D01*
X119694500Y-135488745D01*
X119674815Y-135555784D01*
X119622011Y-135601539D01*
X119552853Y-135611483D01*
X119489297Y-135582458D01*
X119482819Y-135576426D01*
X119445914Y-135539521D01*
X119445913Y-135539520D01*
X119354587Y-135486793D01*
X119252727Y-135459500D01*
X119147273Y-135459500D01*
X119045413Y-135486793D01*
X119045410Y-135486794D01*
X118954085Y-135539521D01*
X118879521Y-135614085D01*
X118826794Y-135705410D01*
X118826793Y-135705413D01*
X118799500Y-135807273D01*
X118799500Y-135912727D01*
X118826793Y-136014587D01*
X118879520Y-136105913D01*
X118954087Y-136180480D01*
X119045413Y-136233207D01*
X119147273Y-136260500D01*
X119147275Y-136260500D01*
X119252725Y-136260500D01*
X119252727Y-136260500D01*
X119354587Y-136233207D01*
X119445913Y-136180480D01*
X119482819Y-136143574D01*
X119544142Y-136110089D01*
X119613834Y-136115073D01*
X119669767Y-136156945D01*
X119694184Y-136222409D01*
X119694500Y-136231255D01*
X119694500Y-136775497D01*
X119699285Y-136819583D01*
X119699286Y-136819589D01*
X119710705Y-136871578D01*
X119713317Y-136882123D01*
X119713319Y-136882128D01*
X119756654Y-136962665D01*
X119756655Y-136962666D01*
X119802629Y-137015291D01*
X119820286Y-137033166D01*
X119820288Y-137033168D01*
X119851228Y-137050310D01*
X119900279Y-137077488D01*
X119900283Y-137077489D01*
X119900286Y-137077491D01*
X119967405Y-137096904D01*
X119967407Y-137096904D01*
X119967410Y-137096905D01*
X120025326Y-137104992D01*
X120025334Y-137104993D01*
X144477334Y-137005997D01*
X144520592Y-137001213D01*
X144552978Y-136994098D01*
X144571584Y-136990012D01*
X144571594Y-136990009D01*
X144571601Y-136990008D01*
X144581373Y-136987610D01*
X144662085Y-136944600D01*
X144714889Y-136898845D01*
X144732843Y-136881254D01*
X144777490Y-136801437D01*
X144797175Y-136734398D01*
X144805500Y-136676500D01*
X144805500Y-135047273D01*
X147049500Y-135047273D01*
X147049500Y-135152727D01*
X147076793Y-135254587D01*
X147129520Y-135345913D01*
X147204087Y-135420480D01*
X147295413Y-135473207D01*
X147397273Y-135500500D01*
X147397275Y-135500500D01*
X147502725Y-135500500D01*
X147502727Y-135500500D01*
X147604587Y-135473207D01*
X147695913Y-135420480D01*
X147770480Y-135345913D01*
X147823207Y-135254587D01*
X147850500Y-135152727D01*
X147850500Y-135047273D01*
X147823207Y-134945413D01*
X147770480Y-134854087D01*
X147695913Y-134779520D01*
X147604587Y-134726793D01*
X147502727Y-134699500D01*
X147397273Y-134699500D01*
X147295413Y-134726793D01*
X147295410Y-134726794D01*
X147204085Y-134779521D01*
X147129521Y-134854085D01*
X147076794Y-134945410D01*
X147076793Y-134945413D01*
X147049500Y-135047273D01*
X144805500Y-135047273D01*
X144805500Y-129624654D01*
X144800688Y-129580444D01*
X144800685Y-129580432D01*
X144800685Y-129580428D01*
X144789212Y-129528348D01*
X144786552Y-129517648D01*
X144786552Y-129517647D01*
X144743119Y-129437162D01*
X144700069Y-129388004D01*
X144697082Y-129384593D01*
X144679402Y-129366738D01*
X144679401Y-129366737D01*
X144679398Y-129366734D01*
X144664606Y-129358562D01*
X144599348Y-129322509D01*
X144546195Y-129307206D01*
X144532203Y-129303178D01*
X144532201Y-129303177D01*
X144532199Y-129303177D01*
X144474258Y-129295158D01*
X133098380Y-129355031D01*
X133031237Y-129335700D01*
X132985205Y-129283137D01*
X132977956Y-129263137D01*
X132973207Y-129245413D01*
X132920480Y-129154087D01*
X132845913Y-129079520D01*
X132754587Y-129026793D01*
X132652727Y-128999500D01*
X132547273Y-128999500D01*
X132445413Y-129026793D01*
X132445410Y-129026794D01*
X132354085Y-129079521D01*
X132279521Y-129154085D01*
X132226794Y-129245410D01*
X132226791Y-129245417D01*
X132220640Y-129268374D01*
X132184275Y-129328034D01*
X132121427Y-129358562D01*
X132101519Y-129360277D01*
X130665712Y-129367834D01*
X130649148Y-129368590D01*
X130630971Y-129370157D01*
X130629256Y-129370305D01*
X130629254Y-129370305D01*
X130629251Y-129370306D01*
X130587528Y-129381811D01*
X130517668Y-129380655D01*
X130466886Y-129349953D01*
X130396454Y-129279521D01*
X130396453Y-129279520D01*
X130323069Y-129237152D01*
X130305129Y-129226794D01*
X130305128Y-129226793D01*
X130305127Y-129226793D01*
X130203267Y-129199500D01*
X130097813Y-129199500D01*
X129995953Y-129226793D01*
X129995950Y-129226794D01*
X129904627Y-129279520D01*
X129829627Y-129354520D01*
X129768303Y-129388004D01*
X129707637Y-129385997D01*
X129691284Y-129381288D01*
X129691277Y-129381287D01*
X129633337Y-129373268D01*
X129633336Y-129373268D01*
X125930153Y-129392758D01*
X125863010Y-129373427D01*
X125816978Y-129320864D01*
X125805500Y-129268760D01*
X125805500Y-127977320D01*
X132917500Y-127977320D01*
X132917500Y-128082774D01*
X132944793Y-128184634D01*
X132997520Y-128275960D01*
X133072087Y-128350527D01*
X133163413Y-128403254D01*
X133265273Y-128430547D01*
X133265275Y-128430547D01*
X133370725Y-128430547D01*
X133370727Y-128430547D01*
X133472587Y-128403254D01*
X133563913Y-128350527D01*
X133638480Y-128275960D01*
X133691207Y-128184634D01*
X133718500Y-128082774D01*
X133718500Y-127977320D01*
X133691207Y-127875460D01*
X133638480Y-127784134D01*
X133563913Y-127709567D01*
X133472587Y-127656840D01*
X133370727Y-127629547D01*
X133265273Y-127629547D01*
X133163413Y-127656840D01*
X133163410Y-127656841D01*
X133072085Y-127709568D01*
X132997521Y-127784132D01*
X132944794Y-127875457D01*
X132944793Y-127875460D01*
X132917500Y-127977320D01*
X125805500Y-127977320D01*
X125805500Y-126465273D01*
X127199500Y-126465273D01*
X127199500Y-126570727D01*
X127226793Y-126672587D01*
X127279520Y-126763913D01*
X127354087Y-126838480D01*
X127445413Y-126891207D01*
X127547273Y-126918500D01*
X127547275Y-126918500D01*
X127652725Y-126918500D01*
X127652727Y-126918500D01*
X127754587Y-126891207D01*
X127845913Y-126838480D01*
X127872890Y-126811503D01*
X128384730Y-126811503D01*
X128384730Y-126916957D01*
X128412023Y-127018817D01*
X128464750Y-127110143D01*
X128539317Y-127184710D01*
X128630643Y-127237437D01*
X128732503Y-127264730D01*
X128732505Y-127264730D01*
X128837955Y-127264730D01*
X128837957Y-127264730D01*
X128939817Y-127237437D01*
X129031143Y-127184710D01*
X129073850Y-127142003D01*
X129454230Y-127142003D01*
X129454230Y-127247457D01*
X129481523Y-127349317D01*
X129534250Y-127440643D01*
X129608817Y-127515210D01*
X129700143Y-127567937D01*
X129802003Y-127595230D01*
X129802005Y-127595230D01*
X129907455Y-127595230D01*
X129907457Y-127595230D01*
X130009317Y-127567937D01*
X130100643Y-127515210D01*
X130175210Y-127440643D01*
X130227937Y-127349317D01*
X130255230Y-127247457D01*
X130255230Y-127142003D01*
X130227937Y-127040143D01*
X130179997Y-126957108D01*
X130939502Y-126957108D01*
X130939502Y-127062562D01*
X130966795Y-127164422D01*
X131019522Y-127255748D01*
X131094089Y-127330315D01*
X131185415Y-127383042D01*
X131287275Y-127410335D01*
X131287277Y-127410335D01*
X131392727Y-127410335D01*
X131392729Y-127410335D01*
X131494589Y-127383042D01*
X131585915Y-127330315D01*
X131660482Y-127255748D01*
X131713209Y-127164422D01*
X131740502Y-127062562D01*
X131740502Y-126957108D01*
X131713209Y-126855248D01*
X131660482Y-126763922D01*
X131585915Y-126689355D01*
X131494589Y-126636628D01*
X131392729Y-126609335D01*
X131287275Y-126609335D01*
X131185415Y-126636628D01*
X131185412Y-126636629D01*
X131094087Y-126689356D01*
X131019523Y-126763920D01*
X130966796Y-126855245D01*
X130966795Y-126855248D01*
X130939502Y-126957108D01*
X130179997Y-126957108D01*
X130175210Y-126948817D01*
X130100643Y-126874250D01*
X130009317Y-126821523D01*
X129907457Y-126794230D01*
X129802003Y-126794230D01*
X129700143Y-126821523D01*
X129700140Y-126821524D01*
X129608815Y-126874251D01*
X129534251Y-126948815D01*
X129481524Y-127040140D01*
X129481523Y-127040143D01*
X129454230Y-127142003D01*
X129073850Y-127142003D01*
X129105710Y-127110143D01*
X129158437Y-127018817D01*
X129185730Y-126916957D01*
X129185730Y-126811503D01*
X129158437Y-126709643D01*
X129105710Y-126618317D01*
X129031143Y-126543750D01*
X128939817Y-126491023D01*
X128837957Y-126463730D01*
X128732503Y-126463730D01*
X128630643Y-126491023D01*
X128630640Y-126491024D01*
X128539315Y-126543751D01*
X128464751Y-126618315D01*
X128412024Y-126709640D01*
X128412023Y-126709643D01*
X128384730Y-126811503D01*
X127872890Y-126811503D01*
X127920480Y-126763913D01*
X127973207Y-126672587D01*
X128000500Y-126570727D01*
X128000500Y-126465273D01*
X127973207Y-126363413D01*
X127920480Y-126272087D01*
X127845913Y-126197520D01*
X127754587Y-126144793D01*
X127652727Y-126117500D01*
X127547273Y-126117500D01*
X127445413Y-126144793D01*
X127445410Y-126144794D01*
X127354085Y-126197521D01*
X127279521Y-126272085D01*
X127226794Y-126363410D01*
X127226793Y-126363413D01*
X127199500Y-126465273D01*
X125805500Y-126465273D01*
X125805500Y-125987273D01*
X126199500Y-125987273D01*
X126199500Y-126092727D01*
X126226793Y-126194587D01*
X126279520Y-126285913D01*
X126354087Y-126360480D01*
X126445413Y-126413207D01*
X126547273Y-126440500D01*
X126547275Y-126440500D01*
X126652725Y-126440500D01*
X126652727Y-126440500D01*
X126754587Y-126413207D01*
X126845913Y-126360480D01*
X126920480Y-126285913D01*
X126973207Y-126194587D01*
X127000500Y-126092727D01*
X127000500Y-125987273D01*
X126973207Y-125885413D01*
X126951187Y-125847273D01*
X144989700Y-125847273D01*
X144989700Y-125952727D01*
X145016993Y-126054587D01*
X145069720Y-126145913D01*
X145144287Y-126220480D01*
X145235613Y-126273207D01*
X145337473Y-126300500D01*
X145337475Y-126300500D01*
X145442925Y-126300500D01*
X145442927Y-126300500D01*
X145544787Y-126273207D01*
X145636113Y-126220480D01*
X145710680Y-126145913D01*
X145763407Y-126054587D01*
X145790700Y-125952727D01*
X145790700Y-125847273D01*
X145763407Y-125745413D01*
X145710680Y-125654087D01*
X145636113Y-125579520D01*
X145544787Y-125526793D01*
X145442927Y-125499500D01*
X145337473Y-125499500D01*
X145235613Y-125526793D01*
X145235610Y-125526794D01*
X145144285Y-125579521D01*
X145069721Y-125654085D01*
X145016994Y-125745410D01*
X145016993Y-125745413D01*
X144989700Y-125847273D01*
X126951187Y-125847273D01*
X126920480Y-125794087D01*
X126845913Y-125719520D01*
X126754587Y-125666793D01*
X126652727Y-125639500D01*
X126547273Y-125639500D01*
X126445413Y-125666793D01*
X126445410Y-125666794D01*
X126354085Y-125719521D01*
X126279521Y-125794085D01*
X126226794Y-125885410D01*
X126226793Y-125885413D01*
X126199500Y-125987273D01*
X125805500Y-125987273D01*
X125805500Y-125322003D01*
X134424770Y-125322003D01*
X134424770Y-125427457D01*
X134452063Y-125529317D01*
X134504790Y-125620643D01*
X134579357Y-125695210D01*
X134670683Y-125747937D01*
X134772543Y-125775230D01*
X134772545Y-125775230D01*
X134877995Y-125775230D01*
X134877997Y-125775230D01*
X134979857Y-125747937D01*
X135071183Y-125695210D01*
X135145750Y-125620643D01*
X135198477Y-125529317D01*
X135225770Y-125427457D01*
X135225770Y-125322003D01*
X135198477Y-125220143D01*
X135145750Y-125128817D01*
X135071183Y-125054250D01*
X134979857Y-125001523D01*
X134877997Y-124974230D01*
X134772543Y-124974230D01*
X134670683Y-125001523D01*
X134670680Y-125001524D01*
X134579355Y-125054251D01*
X134504791Y-125128815D01*
X134452064Y-125220140D01*
X134452063Y-125220143D01*
X134424770Y-125322003D01*
X125805500Y-125322003D01*
X125805500Y-124247273D01*
X137259500Y-124247273D01*
X137259500Y-124352727D01*
X137286793Y-124454587D01*
X137339520Y-124545913D01*
X137414087Y-124620480D01*
X137505413Y-124673207D01*
X137607273Y-124700500D01*
X137607275Y-124700500D01*
X137712725Y-124700500D01*
X137712727Y-124700500D01*
X137814587Y-124673207D01*
X137905913Y-124620480D01*
X137980480Y-124545913D01*
X138033207Y-124454587D01*
X138060500Y-124352727D01*
X138060500Y-124247273D01*
X138033207Y-124145413D01*
X137980480Y-124054087D01*
X137905913Y-123979520D01*
X137814587Y-123926793D01*
X137712727Y-123899500D01*
X137607273Y-123899500D01*
X137505413Y-123926793D01*
X137505410Y-123926794D01*
X137414085Y-123979521D01*
X137339521Y-124054085D01*
X137286794Y-124145410D01*
X137286793Y-124145413D01*
X137259500Y-124247273D01*
X125805500Y-124247273D01*
X125805500Y-123347273D01*
X136259500Y-123347273D01*
X136259500Y-123452727D01*
X136286793Y-123554587D01*
X136339520Y-123645913D01*
X136414087Y-123720480D01*
X136505413Y-123773207D01*
X136607273Y-123800500D01*
X136607275Y-123800500D01*
X136712725Y-123800500D01*
X136712727Y-123800500D01*
X136814587Y-123773207D01*
X136905913Y-123720480D01*
X136980480Y-123645913D01*
X137033207Y-123554587D01*
X137060500Y-123452727D01*
X137060500Y-123347273D01*
X137033207Y-123245413D01*
X136980480Y-123154087D01*
X136905913Y-123079520D01*
X136814587Y-123026793D01*
X136712727Y-122999500D01*
X136607273Y-122999500D01*
X136505413Y-123026793D01*
X136505410Y-123026794D01*
X136414085Y-123079521D01*
X136339521Y-123154085D01*
X136286794Y-123245410D01*
X136286793Y-123245413D01*
X136259500Y-123347273D01*
X125805500Y-123347273D01*
X125805500Y-122947273D01*
X147089700Y-122947273D01*
X147089700Y-123052727D01*
X147116993Y-123154587D01*
X147169720Y-123245913D01*
X147244287Y-123320480D01*
X147335613Y-123373207D01*
X147437473Y-123400500D01*
X147437475Y-123400500D01*
X147542925Y-123400500D01*
X147542927Y-123400500D01*
X147644787Y-123373207D01*
X147736113Y-123320480D01*
X147810680Y-123245913D01*
X147863407Y-123154587D01*
X147890700Y-123052727D01*
X147890700Y-122947273D01*
X147863407Y-122845413D01*
X147810680Y-122754087D01*
X147736113Y-122679520D01*
X147644787Y-122626793D01*
X147542927Y-122599500D01*
X147437473Y-122599500D01*
X147335613Y-122626793D01*
X147335610Y-122626794D01*
X147244285Y-122679521D01*
X147169721Y-122754085D01*
X147116994Y-122845410D01*
X147116993Y-122845413D01*
X147089700Y-122947273D01*
X125805500Y-122947273D01*
X125805500Y-122347273D01*
X138659500Y-122347273D01*
X138659500Y-122452727D01*
X138686793Y-122554587D01*
X138739520Y-122645913D01*
X138814087Y-122720480D01*
X138905413Y-122773207D01*
X139007273Y-122800500D01*
X139007275Y-122800500D01*
X139112725Y-122800500D01*
X139112727Y-122800500D01*
X139214587Y-122773207D01*
X139305913Y-122720480D01*
X139380480Y-122645913D01*
X139433207Y-122554587D01*
X139460500Y-122452727D01*
X139460500Y-122347273D01*
X139433207Y-122245413D01*
X139380480Y-122154087D01*
X139305913Y-122079520D01*
X139214587Y-122026793D01*
X139112727Y-121999500D01*
X139007273Y-121999500D01*
X138905413Y-122026793D01*
X138905410Y-122026794D01*
X138814085Y-122079521D01*
X138739521Y-122154085D01*
X138686794Y-122245410D01*
X138686793Y-122245413D01*
X138659500Y-122347273D01*
X125805500Y-122347273D01*
X125805500Y-121222003D01*
X136824770Y-121222003D01*
X136824770Y-121327457D01*
X136852063Y-121429317D01*
X136904790Y-121520643D01*
X136979357Y-121595210D01*
X137070683Y-121647937D01*
X137172543Y-121675230D01*
X137172545Y-121675230D01*
X137277995Y-121675230D01*
X137277997Y-121675230D01*
X137379857Y-121647937D01*
X137471183Y-121595210D01*
X137545750Y-121520643D01*
X137598477Y-121429317D01*
X137625770Y-121327457D01*
X137625770Y-121222003D01*
X137598477Y-121120143D01*
X137545750Y-121028817D01*
X137471183Y-120954250D01*
X137379857Y-120901523D01*
X137277997Y-120874230D01*
X137172543Y-120874230D01*
X137070683Y-120901523D01*
X137070680Y-120901524D01*
X136979355Y-120954251D01*
X136904791Y-121028815D01*
X136852064Y-121120140D01*
X136852063Y-121120143D01*
X136824770Y-121222003D01*
X125805500Y-121222003D01*
X125805500Y-120547273D01*
X137699500Y-120547273D01*
X137699500Y-120652727D01*
X137726793Y-120754587D01*
X137779520Y-120845913D01*
X137854087Y-120920480D01*
X137945413Y-120973207D01*
X138047273Y-121000500D01*
X138047275Y-121000500D01*
X138152725Y-121000500D01*
X138152727Y-121000500D01*
X138254587Y-120973207D01*
X138345913Y-120920480D01*
X138420480Y-120845913D01*
X138473207Y-120754587D01*
X138500500Y-120652727D01*
X138500500Y-120547273D01*
X138473207Y-120445413D01*
X138420480Y-120354087D01*
X138345913Y-120279520D01*
X138254587Y-120226793D01*
X138152727Y-120199500D01*
X138047273Y-120199500D01*
X137945413Y-120226793D01*
X137945410Y-120226794D01*
X137854085Y-120279521D01*
X137779521Y-120354085D01*
X137726794Y-120445410D01*
X137726793Y-120445413D01*
X137699500Y-120547273D01*
X125805500Y-120547273D01*
X125805500Y-118793325D01*
X125805500Y-118793258D01*
X125805489Y-118792039D01*
X125808919Y-118779938D01*
X125807724Y-118767416D01*
X125818107Y-118747273D01*
X158199500Y-118747273D01*
X158199500Y-118852727D01*
X158226793Y-118954587D01*
X158279520Y-119045913D01*
X158354087Y-119120480D01*
X158445413Y-119173207D01*
X158547273Y-119200500D01*
X158547275Y-119200500D01*
X158652725Y-119200500D01*
X158652727Y-119200500D01*
X158754587Y-119173207D01*
X158845913Y-119120480D01*
X158920480Y-119045913D01*
X158973207Y-118954587D01*
X159000500Y-118852727D01*
X159000500Y-118747273D01*
X158973207Y-118645413D01*
X158920480Y-118554087D01*
X158845913Y-118479520D01*
X158754587Y-118426793D01*
X158652727Y-118399500D01*
X158547273Y-118399500D01*
X158445413Y-118426793D01*
X158445410Y-118426794D01*
X158354085Y-118479521D01*
X158279521Y-118554085D01*
X158226794Y-118645410D01*
X158226793Y-118645413D01*
X158199500Y-118747273D01*
X125818107Y-118747273D01*
X125818267Y-118746963D01*
X125824545Y-118724822D01*
X125834742Y-118715007D01*
X125839740Y-118705313D01*
X125867483Y-118683496D01*
X125873885Y-118679799D01*
X125873887Y-118679799D01*
X125976614Y-118620489D01*
X126631489Y-117965614D01*
X126631490Y-117965613D01*
X127149830Y-117447273D01*
X140299500Y-117447273D01*
X140299500Y-117552727D01*
X140326793Y-117654587D01*
X140379520Y-117745913D01*
X140454087Y-117820480D01*
X140545413Y-117873207D01*
X140647273Y-117900500D01*
X140647275Y-117900500D01*
X140752725Y-117900500D01*
X140752727Y-117900500D01*
X140854587Y-117873207D01*
X140945913Y-117820480D01*
X141020480Y-117745913D01*
X141020482Y-117745908D01*
X141025424Y-117739469D01*
X141026982Y-117740665D01*
X141069808Y-117699817D01*
X141138413Y-117686581D01*
X141158733Y-117690245D01*
X141167222Y-117692520D01*
X141167225Y-117692520D01*
X141272674Y-117692520D01*
X141272676Y-117692520D01*
X141374536Y-117665227D01*
X141465862Y-117612500D01*
X141540429Y-117537933D01*
X141593156Y-117446607D01*
X141620449Y-117344747D01*
X141620449Y-117239293D01*
X141593156Y-117137433D01*
X141540429Y-117046107D01*
X141465862Y-116971540D01*
X141382457Y-116923386D01*
X141374538Y-116918814D01*
X141374537Y-116918813D01*
X141374536Y-116918813D01*
X141272676Y-116891520D01*
X141167222Y-116891520D01*
X141065362Y-116918813D01*
X141065359Y-116918814D01*
X140974034Y-116971541D01*
X140899471Y-117046104D01*
X140894521Y-117052556D01*
X140892966Y-117051363D01*
X140850098Y-117092223D01*
X140781489Y-117105433D01*
X140761208Y-117101772D01*
X140752731Y-117099500D01*
X140752727Y-117099500D01*
X140647273Y-117099500D01*
X140545413Y-117126793D01*
X140545410Y-117126794D01*
X140454085Y-117179521D01*
X140379521Y-117254085D01*
X140326794Y-117345410D01*
X140326793Y-117345413D01*
X140299500Y-117447273D01*
X127149830Y-117447273D01*
X128209830Y-116387273D01*
X138949500Y-116387273D01*
X138949500Y-116492727D01*
X138976793Y-116594587D01*
X139029520Y-116685913D01*
X139104087Y-116760480D01*
X139195413Y-116813207D01*
X139297273Y-116840500D01*
X139297275Y-116840500D01*
X139402725Y-116840500D01*
X139402727Y-116840500D01*
X139504587Y-116813207D01*
X139595913Y-116760480D01*
X139670480Y-116685913D01*
X139723207Y-116594587D01*
X139750500Y-116492727D01*
X139750500Y-116387273D01*
X139735153Y-116329996D01*
X139736816Y-116260151D01*
X139767243Y-116210230D01*
X139831561Y-116145913D01*
X139884288Y-116054587D01*
X139911581Y-115952727D01*
X139911581Y-115930021D01*
X139931266Y-115862982D01*
X139984070Y-115817227D01*
X139988127Y-115815460D01*
X139993559Y-115813209D01*
X139993567Y-115813207D01*
X140084893Y-115760480D01*
X140159460Y-115685913D01*
X140212187Y-115594587D01*
X140239480Y-115492727D01*
X140239480Y-115387273D01*
X140212187Y-115285413D01*
X140159460Y-115194087D01*
X140084893Y-115119520D01*
X139993567Y-115066793D01*
X139993566Y-115066792D01*
X139986528Y-115062729D01*
X139987228Y-115061516D01*
X139939594Y-115023126D01*
X139917533Y-114956830D01*
X139917454Y-114952411D01*
X139917454Y-114927275D01*
X139917454Y-114927273D01*
X139890161Y-114825413D01*
X139837434Y-114734087D01*
X139762867Y-114659520D01*
X139671541Y-114606793D01*
X139569681Y-114579500D01*
X139464227Y-114579500D01*
X139362367Y-114606793D01*
X139362364Y-114606794D01*
X139271039Y-114659521D01*
X139196475Y-114734085D01*
X139143748Y-114825410D01*
X139143747Y-114825413D01*
X139116454Y-114927273D01*
X139116454Y-115032727D01*
X139143747Y-115134587D01*
X139196474Y-115225913D01*
X139271041Y-115300480D01*
X139323760Y-115330917D01*
X139371976Y-115381484D01*
X139385198Y-115450091D01*
X139359230Y-115514956D01*
X139323762Y-115545690D01*
X139265166Y-115579521D01*
X139190602Y-115654085D01*
X139137875Y-115745410D01*
X139137874Y-115745413D01*
X139110581Y-115847273D01*
X139110581Y-115952727D01*
X139118662Y-115982887D01*
X139125927Y-116009999D01*
X139124264Y-116079849D01*
X139093834Y-116129773D01*
X139029520Y-116194087D01*
X138976794Y-116285410D01*
X138976793Y-116285413D01*
X138949500Y-116387273D01*
X128209830Y-116387273D01*
X131311284Y-113285819D01*
X131372607Y-113252334D01*
X131398965Y-113249500D01*
X134675500Y-113249500D01*
X134742539Y-113269185D01*
X134788294Y-113321989D01*
X134799500Y-113373500D01*
X134799500Y-113462727D01*
X134816667Y-113526793D01*
X134826793Y-113564586D01*
X134826794Y-113564589D01*
X134835416Y-113579522D01*
X134879520Y-113655913D01*
X134954087Y-113730480D01*
X135037500Y-113778638D01*
X135085716Y-113829205D01*
X135099500Y-113886025D01*
X135099500Y-113952727D01*
X135114394Y-114008310D01*
X135126793Y-114054586D01*
X135126794Y-114054589D01*
X135140922Y-114079059D01*
X135179520Y-114145913D01*
X135254087Y-114220480D01*
X135337500Y-114268638D01*
X135385716Y-114319205D01*
X135399500Y-114376025D01*
X135399500Y-114452727D01*
X135426793Y-114554587D01*
X135479520Y-114645913D01*
X135554087Y-114720480D01*
X135645413Y-114773207D01*
X135747273Y-114800500D01*
X135747275Y-114800500D01*
X135852725Y-114800500D01*
X135852727Y-114800500D01*
X135954587Y-114773207D01*
X136045913Y-114720480D01*
X136120480Y-114645913D01*
X136173207Y-114554587D01*
X136200500Y-114452727D01*
X136200500Y-114347273D01*
X136173207Y-114245413D01*
X136120480Y-114154087D01*
X136045913Y-114079520D01*
X135962498Y-114031360D01*
X135914284Y-113980793D01*
X135900500Y-113923974D01*
X135900500Y-113847275D01*
X135900500Y-113847273D01*
X135873207Y-113745413D01*
X135820480Y-113654087D01*
X135745913Y-113579520D01*
X135662498Y-113531360D01*
X135654215Y-113522673D01*
X135643297Y-113517687D01*
X135630551Y-113497854D01*
X135614284Y-113480793D01*
X135611068Y-113467537D01*
X135605523Y-113458909D01*
X135600500Y-113423974D01*
X135600500Y-113373500D01*
X135620185Y-113306461D01*
X135672989Y-113260706D01*
X135724500Y-113249500D01*
X145661035Y-113249500D01*
X145728074Y-113269185D01*
X145748716Y-113285819D01*
X150023386Y-117560489D01*
X150095595Y-117602179D01*
X150126114Y-117619800D01*
X150194042Y-117638000D01*
X150240691Y-117650499D01*
X150240694Y-117650499D01*
X150359306Y-117650499D01*
X150359309Y-117650499D01*
X150429429Y-117631710D01*
X150473885Y-117619800D01*
X150486529Y-117612500D01*
X150576614Y-117560489D01*
X150660489Y-117476614D01*
X150719799Y-117373887D01*
X150726930Y-117347275D01*
X150731957Y-117328511D01*
X150750499Y-117259309D01*
X150750499Y-117140691D01*
X150738015Y-117094100D01*
X150719800Y-117026114D01*
X150702179Y-116995595D01*
X150660489Y-116923386D01*
X150506603Y-116769500D01*
X150473118Y-116708177D01*
X150474509Y-116649726D01*
X150475665Y-116645413D01*
X150500500Y-116552727D01*
X150500500Y-116447273D01*
X150473207Y-116345413D01*
X150420480Y-116254087D01*
X150345913Y-116179520D01*
X150254587Y-116126793D01*
X150152727Y-116099500D01*
X150047273Y-116099500D01*
X150047271Y-116099500D01*
X149950272Y-116125490D01*
X149880422Y-116123827D01*
X149830499Y-116093396D01*
X146175616Y-112438513D01*
X146175614Y-112438511D01*
X146116302Y-112404267D01*
X146072888Y-112379201D01*
X146060780Y-112375957D01*
X146048673Y-112372713D01*
X146048670Y-112372712D01*
X146010478Y-112362478D01*
X145958309Y-112348500D01*
X131101691Y-112348500D01*
X131032944Y-112366920D01*
X130987112Y-112379201D01*
X130987107Y-112379204D01*
X130943695Y-112404267D01*
X130943696Y-112404268D01*
X130884389Y-112438508D01*
X130884383Y-112438513D01*
X126120716Y-117202181D01*
X126059393Y-117235666D01*
X126033035Y-117238500D01*
X123900692Y-117238500D01*
X123833653Y-117218815D01*
X123787898Y-117166011D01*
X123777954Y-117096853D01*
X123780917Y-117082407D01*
X123799254Y-117013973D01*
X123799254Y-116908519D01*
X123792928Y-116884909D01*
X123794590Y-116815061D01*
X123833752Y-116757198D01*
X123897980Y-116729693D01*
X123944795Y-116733041D01*
X123945411Y-116733206D01*
X123945413Y-116733207D01*
X124047273Y-116760500D01*
X124047275Y-116760500D01*
X124152725Y-116760500D01*
X124152727Y-116760500D01*
X124254587Y-116733207D01*
X124345913Y-116680480D01*
X124420480Y-116605913D01*
X124473207Y-116514587D01*
X124500500Y-116412727D01*
X124500500Y-116307273D01*
X124473207Y-116205413D01*
X124420480Y-116114087D01*
X124345913Y-116039520D01*
X124254587Y-115986793D01*
X124152727Y-115959500D01*
X124047273Y-115959500D01*
X123945413Y-115986793D01*
X123945410Y-115986794D01*
X123854085Y-116039521D01*
X123779521Y-116114085D01*
X123726794Y-116205410D01*
X123726793Y-116205413D01*
X123699500Y-116307273D01*
X123699500Y-116412728D01*
X123705826Y-116436337D01*
X123704163Y-116506187D01*
X123664999Y-116564049D01*
X123600771Y-116591552D01*
X123553958Y-116588204D01*
X123497960Y-116573200D01*
X123451481Y-116560746D01*
X123346027Y-116560746D01*
X123244167Y-116588039D01*
X123244164Y-116588040D01*
X123152839Y-116640767D01*
X123078275Y-116715331D01*
X123025548Y-116806656D01*
X123025547Y-116806659D01*
X122998254Y-116908519D01*
X122998254Y-117013973D01*
X123006863Y-117046104D01*
X123016591Y-117082407D01*
X123014928Y-117152257D01*
X122975765Y-117210119D01*
X122911537Y-117237623D01*
X122896816Y-117238500D01*
X120023976Y-117238500D01*
X119933610Y-117262713D01*
X119933609Y-117262712D01*
X119909401Y-117269199D01*
X119909398Y-117269200D01*
X119806671Y-117328511D01*
X119806668Y-117328513D01*
X115299126Y-121836054D01*
X115237803Y-121869539D01*
X115168111Y-121864555D01*
X115112178Y-121822683D01*
X115087761Y-121757219D01*
X115091669Y-121716288D01*
X115108700Y-121652727D01*
X115108700Y-121547273D01*
X115081407Y-121445413D01*
X115033247Y-121361998D01*
X115016775Y-121294100D01*
X115033247Y-121238001D01*
X115081407Y-121154587D01*
X115108700Y-121052727D01*
X115108700Y-120947273D01*
X115081407Y-120845413D01*
X115033247Y-120761998D01*
X115016775Y-120694100D01*
X115033247Y-120638001D01*
X115081407Y-120554587D01*
X115108700Y-120452727D01*
X115108700Y-120347273D01*
X115081407Y-120245413D01*
X115033247Y-120161998D01*
X115016775Y-120094100D01*
X115033247Y-120038001D01*
X115081407Y-119954587D01*
X115108700Y-119852727D01*
X115108700Y-119747273D01*
X115081407Y-119645413D01*
X115033247Y-119561998D01*
X115016775Y-119494100D01*
X115033247Y-119438001D01*
X115081407Y-119354587D01*
X115108700Y-119252727D01*
X115108700Y-119147273D01*
X115081407Y-119045413D01*
X115033247Y-118961998D01*
X115016775Y-118894100D01*
X115033247Y-118838001D01*
X115081407Y-118754587D01*
X115108700Y-118652727D01*
X115108700Y-118547273D01*
X115081407Y-118445413D01*
X115033247Y-118361998D01*
X115016775Y-118294100D01*
X115033247Y-118238001D01*
X115081407Y-118154587D01*
X115108700Y-118052727D01*
X115108700Y-117947273D01*
X115081407Y-117845413D01*
X115033247Y-117761998D01*
X115016775Y-117694100D01*
X115033247Y-117638001D01*
X115081407Y-117554587D01*
X115108700Y-117452727D01*
X115108700Y-117347273D01*
X115081407Y-117245413D01*
X115033247Y-117161998D01*
X115016775Y-117094100D01*
X115033247Y-117038001D01*
X115081407Y-116954587D01*
X115108700Y-116852727D01*
X115108700Y-116747273D01*
X115081407Y-116645413D01*
X115033247Y-116561998D01*
X115016775Y-116494100D01*
X115033247Y-116438001D01*
X115081407Y-116354587D01*
X115108700Y-116252727D01*
X115108700Y-116147273D01*
X115081407Y-116045413D01*
X115028680Y-115954087D01*
X114954113Y-115879520D01*
X114862787Y-115826793D01*
X114760927Y-115799500D01*
X114655473Y-115799500D01*
X114553613Y-115826793D01*
X114553610Y-115826794D01*
X114462285Y-115879521D01*
X114387721Y-115954085D01*
X114334994Y-116045410D01*
X114334993Y-116045413D01*
X114307700Y-116147273D01*
X114307700Y-116252727D01*
X114334495Y-116352726D01*
X114334993Y-116354586D01*
X114334994Y-116354589D01*
X114383151Y-116438000D01*
X114399624Y-116505901D01*
X114383151Y-116562000D01*
X114334994Y-116645410D01*
X114334993Y-116645413D01*
X114307700Y-116747273D01*
X114307700Y-116852727D01*
X114325408Y-116918813D01*
X114334993Y-116954586D01*
X114334994Y-116954589D01*
X114383151Y-117038000D01*
X114399624Y-117105901D01*
X114383151Y-117162000D01*
X114334994Y-117245410D01*
X114334993Y-117245413D01*
X114307700Y-117347273D01*
X114307700Y-117452727D01*
X114334495Y-117552726D01*
X114334993Y-117554586D01*
X114334994Y-117554589D01*
X114383151Y-117638000D01*
X114399624Y-117705901D01*
X114383151Y-117762000D01*
X114334994Y-117845410D01*
X114334993Y-117845413D01*
X114307700Y-117947273D01*
X114307700Y-118052726D01*
X114334993Y-118154586D01*
X114334994Y-118154589D01*
X114383151Y-118238000D01*
X114399624Y-118305901D01*
X114383151Y-118362000D01*
X114334994Y-118445410D01*
X114334993Y-118445413D01*
X114307700Y-118547273D01*
X114307700Y-118652727D01*
X114333034Y-118747273D01*
X114334993Y-118754586D01*
X114334994Y-118754589D01*
X114383151Y-118838000D01*
X114399624Y-118905901D01*
X114383151Y-118962000D01*
X114334994Y-119045410D01*
X114334993Y-119045413D01*
X114307700Y-119147273D01*
X114307700Y-119252726D01*
X114334993Y-119354586D01*
X114334994Y-119354589D01*
X114383151Y-119438000D01*
X114399624Y-119505901D01*
X114383151Y-119562000D01*
X114334994Y-119645410D01*
X114334993Y-119645413D01*
X114307700Y-119747273D01*
X114307700Y-119852726D01*
X114334993Y-119954586D01*
X114334994Y-119954589D01*
X114383151Y-120038000D01*
X114399624Y-120105901D01*
X114383151Y-120162000D01*
X114334994Y-120245410D01*
X114334993Y-120245413D01*
X114307700Y-120347273D01*
X114307700Y-120452727D01*
X114333034Y-120547273D01*
X114334993Y-120554586D01*
X114334994Y-120554589D01*
X114383151Y-120638000D01*
X114399624Y-120705901D01*
X114383151Y-120762000D01*
X114334994Y-120845410D01*
X114334993Y-120845413D01*
X114307700Y-120947273D01*
X114307700Y-121052727D01*
X114308065Y-121054087D01*
X114334993Y-121154586D01*
X114334994Y-121154589D01*
X114383151Y-121238000D01*
X114399624Y-121305901D01*
X114383151Y-121362000D01*
X114334994Y-121445410D01*
X114334993Y-121445413D01*
X114307700Y-121547273D01*
X114307700Y-121652727D01*
X114324729Y-121716278D01*
X114334993Y-121754586D01*
X114334994Y-121754589D01*
X114383151Y-121838000D01*
X114399624Y-121905901D01*
X114383151Y-121962000D01*
X114334994Y-122045410D01*
X114334993Y-122045413D01*
X114307700Y-122147273D01*
X114307700Y-122252731D01*
X114317673Y-122289951D01*
X114316009Y-122359801D01*
X114276846Y-122417662D01*
X114259899Y-122429429D01*
X114223386Y-122450509D01*
X114223384Y-122450511D01*
X113728513Y-122945383D01*
X113728511Y-122945386D01*
X113669201Y-123048113D01*
X113668213Y-123051797D01*
X113668195Y-123051866D01*
X113667965Y-123052727D01*
X113638500Y-123162691D01*
X97500499Y-123162691D01*
X97500499Y-97878711D01*
X98149500Y-97878711D01*
X98149500Y-98121288D01*
X98181161Y-98361785D01*
X98243947Y-98596104D01*
X98336773Y-98820205D01*
X98336776Y-98820212D01*
X98458064Y-99030289D01*
X98458066Y-99030292D01*
X98458067Y-99030293D01*
X98605733Y-99222736D01*
X98605739Y-99222743D01*
X98777256Y-99394260D01*
X98777262Y-99394265D01*
X98969711Y-99541936D01*
X99179788Y-99663224D01*
X99403900Y-99756054D01*
X99638211Y-99818838D01*
X99818586Y-99842584D01*
X99878711Y-99850500D01*
X99878712Y-99850500D01*
X100121289Y-99850500D01*
X100169388Y-99844167D01*
X100361789Y-99818838D01*
X100596100Y-99756054D01*
X100820212Y-99663224D01*
X101030289Y-99541936D01*
X101222738Y-99394265D01*
X101394265Y-99222738D01*
X101541936Y-99030289D01*
X101663224Y-98820212D01*
X101756054Y-98596100D01*
X101818838Y-98361789D01*
X101850500Y-98121288D01*
X101850500Y-97878712D01*
X101850500Y-97878711D01*
X168149500Y-97878711D01*
X168149500Y-98121288D01*
X168181161Y-98361785D01*
X168243947Y-98596104D01*
X168336773Y-98820205D01*
X168336776Y-98820212D01*
X168458064Y-99030289D01*
X168458066Y-99030292D01*
X168458067Y-99030293D01*
X168605733Y-99222736D01*
X168605739Y-99222743D01*
X168777256Y-99394260D01*
X168777262Y-99394265D01*
X168969711Y-99541936D01*
X169179788Y-99663224D01*
X169403900Y-99756054D01*
X169638211Y-99818838D01*
X169818586Y-99842584D01*
X169878711Y-99850500D01*
X169878712Y-99850500D01*
X170121289Y-99850500D01*
X170169388Y-99844167D01*
X170361789Y-99818838D01*
X170596100Y-99756054D01*
X170820212Y-99663224D01*
X171030289Y-99541936D01*
X171222738Y-99394265D01*
X171394265Y-99222738D01*
X171541936Y-99030289D01*
X171663224Y-98820212D01*
X171756054Y-98596100D01*
X171818838Y-98361789D01*
X171850500Y-98121288D01*
X171850500Y-97878712D01*
X171818838Y-97638211D01*
X171756054Y-97403900D01*
X171663224Y-97179788D01*
X171541936Y-96969711D01*
X171394265Y-96777262D01*
X171394260Y-96777256D01*
X171222743Y-96605739D01*
X171222736Y-96605733D01*
X171030293Y-96458067D01*
X171030292Y-96458066D01*
X171030289Y-96458064D01*
X170820212Y-96336776D01*
X170820205Y-96336773D01*
X170596104Y-96243947D01*
X170361785Y-96181161D01*
X170121289Y-96149500D01*
X170121288Y-96149500D01*
X169878712Y-96149500D01*
X169878711Y-96149500D01*
X169638214Y-96181161D01*
X169403895Y-96243947D01*
X169179794Y-96336773D01*
X169179785Y-96336777D01*
X168969706Y-96458067D01*
X168777263Y-96605733D01*
X168777256Y-96605739D01*
X168605739Y-96777256D01*
X168605733Y-96777263D01*
X168458067Y-96969706D01*
X168336777Y-97179785D01*
X168336773Y-97179794D01*
X168243947Y-97403895D01*
X168181161Y-97638214D01*
X168149500Y-97878711D01*
X101850500Y-97878711D01*
X101818838Y-97638211D01*
X101756054Y-97403900D01*
X101663224Y-97179788D01*
X101541936Y-96969711D01*
X101394265Y-96777262D01*
X101394260Y-96777256D01*
X101222743Y-96605739D01*
X101222736Y-96605733D01*
X101030293Y-96458067D01*
X101030292Y-96458066D01*
X101030289Y-96458064D01*
X100820212Y-96336776D01*
X100820205Y-96336773D01*
X100596104Y-96243947D01*
X100361785Y-96181161D01*
X100121289Y-96149500D01*
X100121288Y-96149500D01*
X99878712Y-96149500D01*
X99878711Y-96149500D01*
X99638214Y-96181161D01*
X99403895Y-96243947D01*
X99179794Y-96336773D01*
X99179785Y-96336777D01*
X98969706Y-96458067D01*
X98777263Y-96605733D01*
X98777256Y-96605739D01*
X98605739Y-96777256D01*
X98605733Y-96777263D01*
X98458067Y-96969706D01*
X98336777Y-97179785D01*
X98336773Y-97179794D01*
X98243947Y-97403895D01*
X98181161Y-97638214D01*
X98149500Y-97878711D01*
X97500499Y-97878711D01*
X97500499Y-96003747D01*
X97500725Y-95996261D01*
X97518270Y-95706204D01*
X97520075Y-95691339D01*
X97571779Y-95409201D01*
X97575363Y-95394663D01*
X97660698Y-95120811D01*
X97666001Y-95106831D01*
X97783726Y-94845257D01*
X97790679Y-94832011D01*
X97830958Y-94765380D01*
X97939074Y-94586533D01*
X97947566Y-94574229D01*
X98124480Y-94348416D01*
X98134395Y-94337225D01*
X98337225Y-94134395D01*
X98348416Y-94124480D01*
X98574229Y-93947566D01*
X98586539Y-93939071D01*
X98832011Y-93790679D01*
X98845257Y-93783726D01*
X99106841Y-93665996D01*
X99120811Y-93660698D01*
X99394667Y-93575361D01*
X99409197Y-93571779D01*
X99691343Y-93520074D01*
X99706201Y-93518270D01*
X99996262Y-93500725D01*
X100003749Y-93500499D01*
X169909441Y-93500499D01*
X169909445Y-93500500D01*
G37*
%TD.AperFunction*%
%TD*%
M02*
