%TF.GenerationSoftware,KiCad,Pcbnew,9.0.7*%
%TF.CreationDate,2026-02-21T00:44:38-08:00*%
%TF.ProjectId,matrix-driver,6d617472-6978-42d6-9472-697665722e6b,rev?*%
%TF.SameCoordinates,Original*%
%TF.FileFunction,Copper,L4,Bot*%
%TF.FilePolarity,Positive*%
%FSLAX46Y46*%
G04 Gerber Fmt 4.6, Leading zero omitted, Abs format (unit mm)*
G04 Created by KiCad (PCBNEW 9.0.7) date 2026-02-21 00:44:38*
%MOMM*%
%LPD*%
G01*
G04 APERTURE LIST*
G04 Aperture macros list*
%AMRoundRect*
0 Rectangle with rounded corners*
0 $1 Rounding radius*
0 $2 $3 $4 $5 $6 $7 $8 $9 X,Y pos of 4 corners*
0 Add a 4 corners polygon primitive as box body*
4,1,4,$2,$3,$4,$5,$6,$7,$8,$9,$2,$3,0*
0 Add four circle primitives for the rounded corners*
1,1,$1+$1,$2,$3*
1,1,$1+$1,$4,$5*
1,1,$1+$1,$6,$7*
1,1,$1+$1,$8,$9*
0 Add four rect primitives between the rounded corners*
20,1,$1+$1,$2,$3,$4,$5,0*
20,1,$1+$1,$4,$5,$6,$7,0*
20,1,$1+$1,$6,$7,$8,$9,0*
20,1,$1+$1,$8,$9,$2,$3,0*%
G04 Aperture macros list end*
%TA.AperFunction,ComponentPad*%
%ADD10O,1.700000X1.950000*%
%TD*%
%TA.AperFunction,ComponentPad*%
%ADD11RoundRect,0.250000X-0.600000X-0.725000X0.600000X-0.725000X0.600000X0.725000X-0.600000X0.725000X0*%
%TD*%
%TA.AperFunction,ComponentPad*%
%ADD12O,1.950000X1.700000*%
%TD*%
%TA.AperFunction,ComponentPad*%
%ADD13RoundRect,0.250000X-0.725000X0.600000X-0.725000X-0.600000X0.725000X-0.600000X0.725000X0.600000X0*%
%TD*%
%TA.AperFunction,ComponentPad*%
%ADD14R,1.700000X1.700000*%
%TD*%
%TA.AperFunction,ViaPad*%
%ADD15C,0.400000*%
%TD*%
%TA.AperFunction,Conductor*%
%ADD16C,0.200000*%
%TD*%
G04 APERTURE END LIST*
D10*
%TO.P,J6,8,Pin_8*%
%TO.N,/LINE15*%
X153700000Y-97300000D03*
%TO.P,J6,7,Pin_7*%
%TO.N,/LINE14*%
X151200000Y-97300000D03*
%TO.P,J6,6,Pin_6*%
%TO.N,/LINE13*%
X148700000Y-97300000D03*
%TO.P,J6,5,Pin_5*%
%TO.N,/LINE12*%
X146200000Y-97300000D03*
%TO.P,J6,4,Pin_4*%
%TO.N,/LINE11*%
X143700000Y-97300000D03*
%TO.P,J6,3,Pin_3*%
%TO.N,/LINE10*%
X141200000Y-97300000D03*
%TO.P,J6,2,Pin_2*%
%TO.N,/LINE9*%
X138700000Y-97300000D03*
D11*
%TO.P,J6,1,Pin_1*%
%TO.N,/LINE8*%
X136200000Y-97300000D03*
%TD*%
D10*
%TO.P,J5,8,Pin_8*%
%TO.N,/LINE7*%
X125650000Y-97300000D03*
%TO.P,J5,7,Pin_7*%
%TO.N,/LINE6*%
X123150000Y-97300000D03*
%TO.P,J5,6,Pin_6*%
%TO.N,/LINE5*%
X120650000Y-97300000D03*
%TO.P,J5,5,Pin_5*%
%TO.N,/LINE4*%
X118150000Y-97300000D03*
%TO.P,J5,4,Pin_4*%
%TO.N,/LINE3*%
X115650000Y-97300000D03*
%TO.P,J5,3,Pin_3*%
%TO.N,/LINE2*%
X113150000Y-97300000D03*
%TO.P,J5,2,Pin_2*%
%TO.N,/LINE1*%
X110650000Y-97300000D03*
D11*
%TO.P,J5,1,Pin_1*%
%TO.N,/LINE0*%
X108150000Y-97300000D03*
%TD*%
D12*
%TO.P,J2,12,Pin_12*%
%TO.N,GND*%
X168800000Y-131750000D03*
%TO.P,J2,11,Pin_11*%
X168800000Y-129250000D03*
%TO.P,J2,10,Pin_10*%
%TO.N,/TH2*%
X168800000Y-126750000D03*
%TO.P,J2,9,Pin_9*%
%TO.N,/TH1*%
X168800000Y-124250000D03*
%TO.P,J2,8,Pin_8*%
%TO.N,Net-(J1-Pin_1)*%
X168800000Y-121750000D03*
%TO.P,J2,7,Pin_7*%
%TO.N,/SOUT*%
X168800000Y-119250000D03*
%TO.P,J2,6,Pin_6*%
%TO.N,/SIN*%
X168800000Y-116750000D03*
%TO.P,J2,5,Pin_5*%
%TO.N,/SCLK*%
X168800000Y-114250000D03*
%TO.P,J2,4,Pin_4*%
%TO.N,/2V8_EN*%
X168800000Y-111750000D03*
%TO.P,J2,3,Pin_3*%
%TO.N,/3V8_EN*%
X168800000Y-109250000D03*
%TO.P,J2,2,Pin_2*%
%TO.N,+12V*%
X168800000Y-106750000D03*
D13*
%TO.P,J2,1,Pin_1*%
X168800000Y-104250000D03*
%TD*%
D14*
%TO.P,J1,1,Pin_1*%
%TO.N,Net-(J1-Pin_1)*%
X164400000Y-98000000D03*
%TD*%
D15*
%TO.N,/R11*%
X117500000Y-132400000D03*
%TO.N,/B9*%
X117500000Y-131100000D03*
%TO.N,/TH1*%
X113000000Y-124500000D03*
%TO.N,/TH2*%
X117700000Y-137911000D03*
%TO.N,/B4*%
X125800000Y-123300000D03*
%TO.N,/R4*%
X125381801Y-122381801D03*
%TO.N,GND*%
X147490200Y-124500000D03*
%TO.N,Net-(U2-SW)*%
X147490200Y-123000000D03*
X145390200Y-125900000D03*
%TO.N,GND*%
X129200000Y-116700000D03*
X131900000Y-122100000D03*
X129200000Y-121200000D03*
X146390200Y-124000000D03*
X151100000Y-137200000D03*
X131000000Y-121200000D03*
X124300000Y-124800000D03*
X145890200Y-124500000D03*
X133700000Y-118500000D03*
X151300000Y-129300000D03*
X112700000Y-123400000D03*
X132800000Y-120300000D03*
X132800000Y-117600000D03*
X130100000Y-116700000D03*
X132800000Y-121200000D03*
X148800000Y-138300000D03*
X131000000Y-117600000D03*
X146990200Y-124500000D03*
X146400000Y-137000000D03*
X133700000Y-122100000D03*
X133700000Y-117600000D03*
X128300000Y-117600000D03*
X145900000Y-137000000D03*
X152600000Y-137200000D03*
X149400000Y-136500000D03*
X131900000Y-116700000D03*
X128300000Y-116700000D03*
X128300000Y-120300000D03*
X129200000Y-120300000D03*
X132800000Y-118500000D03*
X153400000Y-125300000D03*
X131900000Y-117600000D03*
X154600000Y-137200000D03*
X131000000Y-120300000D03*
X145890200Y-125000000D03*
X145890200Y-124000000D03*
X132800000Y-116700000D03*
X133700000Y-119400000D03*
X131900000Y-118500000D03*
X146400000Y-136500000D03*
X124300000Y-124300000D03*
X133700000Y-116700000D03*
X148900000Y-136500000D03*
X147990200Y-124500000D03*
X151237500Y-115000000D03*
X150900000Y-125300000D03*
X129200000Y-119400000D03*
X150500000Y-124500000D03*
X148990200Y-124500000D03*
X148400000Y-136500000D03*
X152400000Y-125300000D03*
X128300000Y-119400000D03*
X146800000Y-114900000D03*
X130100000Y-121200000D03*
X151400000Y-125300000D03*
X130100000Y-119400000D03*
X129200000Y-117600000D03*
X130100000Y-118500000D03*
X133700000Y-120300000D03*
X129200000Y-118500000D03*
X151900000Y-125300000D03*
X146390200Y-125000000D03*
X131900000Y-119400000D03*
X131900000Y-121200000D03*
X128300000Y-121200000D03*
X132800000Y-122100000D03*
X133700000Y-121200000D03*
X154400000Y-125300000D03*
X150751005Y-129266734D03*
X112700000Y-137400000D03*
X147400000Y-136500000D03*
X153600000Y-137200000D03*
X131000000Y-118500000D03*
X152900000Y-125300000D03*
X146900000Y-136500000D03*
X149990200Y-124500000D03*
X149490200Y-124500000D03*
X153900000Y-125300000D03*
X130100000Y-117600000D03*
X148490200Y-124500000D03*
X132800000Y-119400000D03*
X145900000Y-136000000D03*
X151200000Y-119700000D03*
X152100000Y-137200000D03*
X131000000Y-122100000D03*
X128300000Y-118500000D03*
X146400000Y-136000000D03*
X129200000Y-122100000D03*
X130100000Y-120300000D03*
X131000000Y-119400000D03*
X131900000Y-120300000D03*
X150400000Y-136500000D03*
X147900000Y-136500000D03*
X151600000Y-137200000D03*
X151200000Y-119200000D03*
X146390200Y-124500000D03*
X153100000Y-137200000D03*
X128300000Y-122100000D03*
X149900000Y-136500000D03*
X145900000Y-136500000D03*
X131000000Y-116700000D03*
X153500000Y-138100000D03*
X154100000Y-137200000D03*
X130100000Y-122100000D03*
X127400000Y-118200000D03*
%TO.N,Net-(U3-SW)*%
X145350000Y-137750000D03*
X147450000Y-135100000D03*
%TO.N,+2V8*%
X140800000Y-136000000D03*
X123700000Y-118800000D03*
X124200000Y-118800000D03*
X142600000Y-132700000D03*
X143600000Y-132700000D03*
X140500000Y-133500000D03*
X144100000Y-132700000D03*
X142600000Y-133200000D03*
X121200000Y-118800000D03*
X121200000Y-119300000D03*
X139800000Y-136500000D03*
X140000000Y-134000000D03*
X141000000Y-133000000D03*
X141300000Y-136500000D03*
X140500000Y-134000000D03*
X141800000Y-136000000D03*
X143600000Y-133200000D03*
X140800000Y-136500000D03*
X143300000Y-136000000D03*
X140000000Y-133000000D03*
X141000000Y-134000000D03*
X121700000Y-119300000D03*
X122200000Y-118800000D03*
X142800000Y-136000000D03*
X141500000Y-133500000D03*
X142300000Y-136500000D03*
X123200000Y-119300000D03*
X125200000Y-118800000D03*
X121700000Y-118800000D03*
X140300000Y-136500000D03*
X141300000Y-136000000D03*
X141500000Y-134000000D03*
X144300000Y-136000000D03*
X124700000Y-118800000D03*
X139800000Y-136000000D03*
X122700000Y-119300000D03*
X144300000Y-136500000D03*
X120700000Y-118800000D03*
X120700000Y-119300000D03*
X142300000Y-136000000D03*
X143800000Y-136500000D03*
X140000000Y-133500000D03*
X122200000Y-119300000D03*
X125200000Y-119300000D03*
X123200000Y-118800000D03*
X123700000Y-119300000D03*
X140500000Y-133000000D03*
X141800000Y-136500000D03*
X124200000Y-119300000D03*
X143300000Y-136500000D03*
X141000000Y-133500000D03*
X122700000Y-118800000D03*
X140300000Y-136000000D03*
X143100000Y-133200000D03*
X143800000Y-136000000D03*
X143100000Y-132700000D03*
X142800000Y-136500000D03*
X144100000Y-133200000D03*
X124700000Y-119300000D03*
X141500000Y-133000000D03*
%TO.N,+3V3*%
X150100000Y-116500000D03*
X114500000Y-122811000D03*
X150300000Y-117200000D03*
X125700000Y-118260000D03*
X114300000Y-136800000D03*
%TO.N,/SOUT*%
X135800000Y-114400000D03*
%TO.N,/2V8_EN*%
X147700000Y-140200000D03*
%TO.N,/SIN*%
X135500000Y-113900000D03*
%TO.N,/3V8_EN*%
X151300000Y-132400000D03*
%TO.N,/SCLK*%
X135200000Y-113410000D03*
%TO.N,/G1*%
X114708200Y-116800000D03*
X124500000Y-116961246D03*
%TO.N,/R2*%
X114708200Y-117400000D03*
X125610999Y-119750002D03*
%TO.N,/G5*%
X126600000Y-126040000D03*
X114708200Y-120400000D03*
%TO.N,/G3*%
X124881178Y-121582425D03*
X114708200Y-118600000D03*
%TO.N,/B0*%
X125300000Y-116360000D03*
X114708200Y-116200000D03*
%TO.N,/R4*%
X114708200Y-119200000D03*
%TO.N,/G7*%
X114708200Y-122200000D03*
X129854730Y-127194730D03*
%TO.N,/B6*%
X114708200Y-121600000D03*
X128785230Y-126864230D03*
%TO.N,/B2*%
X124310485Y-120810485D03*
X114708200Y-118000000D03*
%TO.N,/B4*%
X114708200Y-119800000D03*
%TO.N,/R6*%
X127600000Y-126518000D03*
X114708200Y-121000000D03*
%TO.N,/B10*%
X114700000Y-132000000D03*
X133326516Y-130273484D03*
%TO.N,/R10*%
X114700000Y-131400000D03*
X134825270Y-125374730D03*
%TO.N,/G13*%
X114700000Y-134400000D03*
X138100000Y-120600000D03*
%TO.N,/B12*%
X114700000Y-133800000D03*
X137660000Y-124300000D03*
%TO.N,/G14*%
X140385582Y-116833154D03*
X119200000Y-135860000D03*
%TO.N,/R14*%
X114700000Y-135000000D03*
X139350000Y-116440000D03*
%TO.N,/R15*%
X139516954Y-114980000D03*
X115000000Y-136100000D03*
%TO.N,/G15*%
X115600000Y-136900000D03*
X139838980Y-115440000D03*
%TO.N,/R12*%
X137225270Y-121274730D03*
X114700000Y-133200000D03*
%TO.N,/G11*%
X133200270Y-132300270D03*
X114700000Y-132600000D03*
%TO.N,/R13*%
X117500000Y-134121000D03*
X139060000Y-122400000D03*
%TO.N,/B8*%
X114700000Y-130200000D03*
X131340002Y-127009835D03*
%TO.N,/G9*%
X133318000Y-128030047D03*
X114700000Y-130800000D03*
%TO.N,/R8*%
X114700000Y-129600000D03*
X130150540Y-129600000D03*
%TO.N,/B9*%
X132600000Y-129400000D03*
%TO.N,/B14*%
X140550000Y-117358006D03*
X114700000Y-135600000D03*
%TO.N,/B15*%
X117700000Y-136400000D03*
X139511081Y-115900000D03*
%TO.N,/R11*%
X136660000Y-123400000D03*
%TD*%
D16*
%TO.N,Net-(U2-SW)*%
X145390200Y-125900000D02*
X145390200Y-123700000D01*
X145390200Y-123700000D02*
X146090200Y-123000000D01*
X146090200Y-123000000D02*
X147490200Y-123000000D01*
%TO.N,Net-(U3-SW)*%
X146000000Y-135100000D02*
X147450000Y-135100000D01*
X145350000Y-137750000D02*
X145350000Y-135750000D01*
X145350000Y-135750000D02*
X146000000Y-135100000D01*
%TD*%
%TA.AperFunction,Conductor*%
%TO.N,GND*%
G36*
X169934108Y-93500500D02*
G01*
X169996250Y-93500500D01*
X170003736Y-93500726D01*
X170293796Y-93518271D01*
X170308657Y-93520075D01*
X170590798Y-93571780D01*
X170605335Y-93575363D01*
X170879172Y-93660695D01*
X170893163Y-93666000D01*
X171154743Y-93783727D01*
X171167989Y-93790680D01*
X171413465Y-93939075D01*
X171425776Y-93947573D01*
X171651573Y-94124473D01*
X171662781Y-94134403D01*
X171865596Y-94337218D01*
X171875525Y-94348425D01*
X171995481Y-94501538D01*
X172052422Y-94574217D01*
X172060928Y-94586540D01*
X172209316Y-94832004D01*
X172216275Y-94845263D01*
X172333997Y-95106831D01*
X172339306Y-95120832D01*
X172424635Y-95394663D01*
X172428219Y-95409201D01*
X172479923Y-95691340D01*
X172481728Y-95706205D01*
X172499274Y-95996262D01*
X172499500Y-96003749D01*
X172499501Y-139934108D01*
X172499501Y-139996249D01*
X172499275Y-140003736D01*
X172481729Y-140293794D01*
X172479924Y-140308659D01*
X172428220Y-140590798D01*
X172424636Y-140605336D01*
X172339307Y-140879167D01*
X172333998Y-140893168D01*
X172216276Y-141154736D01*
X172209317Y-141167995D01*
X172060929Y-141413459D01*
X172052423Y-141425782D01*
X171875527Y-141651573D01*
X171865597Y-141662781D01*
X171662782Y-141865596D01*
X171651574Y-141875526D01*
X171425783Y-142052423D01*
X171413460Y-142060929D01*
X171167996Y-142209317D01*
X171154737Y-142216276D01*
X170893169Y-142333998D01*
X170879168Y-142339307D01*
X170605336Y-142424636D01*
X170590798Y-142428220D01*
X170308660Y-142479924D01*
X170293795Y-142481729D01*
X170003754Y-142499274D01*
X169996267Y-142499500D01*
X100003750Y-142499500D01*
X99996263Y-142499274D01*
X99706204Y-142481728D01*
X99691339Y-142479923D01*
X99409201Y-142428219D01*
X99394663Y-142424635D01*
X99120824Y-142339304D01*
X99106826Y-142333995D01*
X98954095Y-142265256D01*
X98845268Y-142216277D01*
X98832010Y-142209319D01*
X98643965Y-142095642D01*
X98586537Y-142060926D01*
X98574220Y-142052424D01*
X98348426Y-141875525D01*
X98337218Y-141865595D01*
X98134403Y-141662781D01*
X98124473Y-141651573D01*
X97947573Y-141425776D01*
X97939071Y-141413458D01*
X97790680Y-141167987D01*
X97783722Y-141154730D01*
X97666000Y-140893163D01*
X97660698Y-140879182D01*
X97575363Y-140605334D01*
X97571780Y-140590797D01*
X97520075Y-140308657D01*
X97518271Y-140293794D01*
X97509408Y-140147273D01*
X147299500Y-140147273D01*
X147299500Y-140252727D01*
X147326793Y-140354587D01*
X147379520Y-140445913D01*
X147454087Y-140520480D01*
X147545413Y-140573207D01*
X147647273Y-140600500D01*
X147647275Y-140600500D01*
X147752725Y-140600500D01*
X147752727Y-140600500D01*
X147854587Y-140573207D01*
X147945913Y-140520480D01*
X148020480Y-140445913D01*
X148073207Y-140354587D01*
X148100500Y-140252727D01*
X148100500Y-140147273D01*
X148073207Y-140045413D01*
X148020480Y-139954087D01*
X147945913Y-139879520D01*
X147854587Y-139826793D01*
X147752727Y-139799500D01*
X147647273Y-139799500D01*
X147545413Y-139826793D01*
X147545410Y-139826794D01*
X147454085Y-139879521D01*
X147379521Y-139954085D01*
X147326794Y-140045410D01*
X147326793Y-140045413D01*
X147299500Y-140147273D01*
X97509408Y-140147273D01*
X97509369Y-140146633D01*
X97500723Y-140003718D01*
X97500499Y-139996298D01*
X97500499Y-137878711D01*
X98149500Y-137878711D01*
X98149500Y-138121288D01*
X98181161Y-138361785D01*
X98243947Y-138596104D01*
X98336773Y-138820205D01*
X98336776Y-138820212D01*
X98458064Y-139030289D01*
X98458066Y-139030292D01*
X98458067Y-139030293D01*
X98605733Y-139222736D01*
X98605739Y-139222743D01*
X98777256Y-139394260D01*
X98777262Y-139394265D01*
X98969711Y-139541936D01*
X99179788Y-139663224D01*
X99403900Y-139756054D01*
X99638211Y-139818838D01*
X99818586Y-139842584D01*
X99878711Y-139850500D01*
X99878712Y-139850500D01*
X100121289Y-139850500D01*
X100169388Y-139844167D01*
X100361789Y-139818838D01*
X100596100Y-139756054D01*
X100820212Y-139663224D01*
X101030289Y-139541936D01*
X101222738Y-139394265D01*
X101394265Y-139222738D01*
X101541936Y-139030289D01*
X101663224Y-138820212D01*
X101756054Y-138596100D01*
X101818838Y-138361789D01*
X101850500Y-138121288D01*
X101850500Y-137878712D01*
X101847809Y-137858273D01*
X117299500Y-137858273D01*
X117299500Y-137963727D01*
X117326793Y-138065587D01*
X117379520Y-138156913D01*
X117454087Y-138231480D01*
X117545413Y-138284207D01*
X117647273Y-138311500D01*
X117647275Y-138311500D01*
X117752725Y-138311500D01*
X117752727Y-138311500D01*
X117854587Y-138284207D01*
X117945913Y-138231480D01*
X118020480Y-138156913D01*
X118073207Y-138065587D01*
X118100500Y-137963727D01*
X118100500Y-137858273D01*
X118073207Y-137756413D01*
X118039063Y-137697273D01*
X144949500Y-137697273D01*
X144949500Y-137802727D01*
X144976793Y-137904587D01*
X145029520Y-137995913D01*
X145104087Y-138070480D01*
X145195413Y-138123207D01*
X145297273Y-138150500D01*
X145297275Y-138150500D01*
X145402725Y-138150500D01*
X145402727Y-138150500D01*
X145504587Y-138123207D01*
X145595913Y-138070480D01*
X145670480Y-137995913D01*
X145723207Y-137904587D01*
X145730140Y-137878711D01*
X168149500Y-137878711D01*
X168149500Y-138121288D01*
X168181161Y-138361785D01*
X168243947Y-138596104D01*
X168336773Y-138820205D01*
X168336776Y-138820212D01*
X168458064Y-139030289D01*
X168458066Y-139030292D01*
X168458067Y-139030293D01*
X168605733Y-139222736D01*
X168605739Y-139222743D01*
X168777256Y-139394260D01*
X168777262Y-139394265D01*
X168969711Y-139541936D01*
X169179788Y-139663224D01*
X169403900Y-139756054D01*
X169638211Y-139818838D01*
X169818586Y-139842584D01*
X169878711Y-139850500D01*
X169878712Y-139850500D01*
X170121289Y-139850500D01*
X170169388Y-139844167D01*
X170361789Y-139818838D01*
X170596100Y-139756054D01*
X170820212Y-139663224D01*
X171030289Y-139541936D01*
X171222738Y-139394265D01*
X171394265Y-139222738D01*
X171541936Y-139030289D01*
X171663224Y-138820212D01*
X171756054Y-138596100D01*
X171818838Y-138361789D01*
X171850500Y-138121288D01*
X171850500Y-137878712D01*
X171847809Y-137858275D01*
X171826614Y-137697275D01*
X171818838Y-137638211D01*
X171756054Y-137403900D01*
X171663224Y-137179788D01*
X171541936Y-136969711D01*
X171467885Y-136873206D01*
X171394266Y-136777263D01*
X171394260Y-136777256D01*
X171222743Y-136605739D01*
X171222736Y-136605733D01*
X171030293Y-136458067D01*
X171030292Y-136458066D01*
X171030289Y-136458064D01*
X170835167Y-136345410D01*
X170820214Y-136336777D01*
X170820205Y-136336773D01*
X170596104Y-136243947D01*
X170478944Y-136212554D01*
X170361789Y-136181162D01*
X170361788Y-136181161D01*
X170361785Y-136181161D01*
X170121289Y-136149500D01*
X170121288Y-136149500D01*
X169878712Y-136149500D01*
X169878711Y-136149500D01*
X169638214Y-136181161D01*
X169403895Y-136243947D01*
X169179794Y-136336773D01*
X169179785Y-136336777D01*
X169019457Y-136429343D01*
X168978959Y-136452725D01*
X168969706Y-136458067D01*
X168777263Y-136605733D01*
X168777256Y-136605739D01*
X168605739Y-136777256D01*
X168605733Y-136777263D01*
X168458067Y-136969706D01*
X168336777Y-137179785D01*
X168336773Y-137179794D01*
X168243947Y-137403895D01*
X168181161Y-137638214D01*
X168149500Y-137878711D01*
X145730140Y-137878711D01*
X145750500Y-137802727D01*
X145750500Y-137697273D01*
X145723207Y-137595413D01*
X145670480Y-137504087D01*
X145670478Y-137504085D01*
X145667113Y-137498256D01*
X145650500Y-137436256D01*
X145650500Y-135925833D01*
X145670185Y-135858794D01*
X145686819Y-135838152D01*
X146088152Y-135436819D01*
X146149475Y-135403334D01*
X146175833Y-135400500D01*
X147136256Y-135400500D01*
X147198256Y-135417113D01*
X147204085Y-135420478D01*
X147204087Y-135420480D01*
X147295413Y-135473207D01*
X147397273Y-135500500D01*
X147397275Y-135500500D01*
X147502725Y-135500500D01*
X147502727Y-135500500D01*
X147604587Y-135473207D01*
X147695913Y-135420480D01*
X147770480Y-135345913D01*
X147823207Y-135254587D01*
X147850500Y-135152727D01*
X147850500Y-135047273D01*
X147823207Y-134945413D01*
X147770480Y-134854087D01*
X147695913Y-134779520D01*
X147604587Y-134726793D01*
X147502727Y-134699500D01*
X147397273Y-134699500D01*
X147295413Y-134726793D01*
X147295410Y-134726794D01*
X147248138Y-134754087D01*
X147204087Y-134779520D01*
X147204086Y-134779520D01*
X147198256Y-134782887D01*
X147136256Y-134799500D01*
X145960438Y-134799500D01*
X145922224Y-134809739D01*
X145884009Y-134819979D01*
X145854642Y-134836935D01*
X145839958Y-134845413D01*
X145832687Y-134849610D01*
X145815489Y-134859539D01*
X145109541Y-135565487D01*
X145109535Y-135565495D01*
X145069982Y-135634004D01*
X145069979Y-135634009D01*
X145056326Y-135684962D01*
X145050847Y-135705413D01*
X145049500Y-135710439D01*
X145049500Y-137436256D01*
X145032887Y-137498256D01*
X145029520Y-137504086D01*
X145029520Y-137504087D01*
X145010774Y-137536555D01*
X144976794Y-137595410D01*
X144976793Y-137595413D01*
X144949500Y-137697273D01*
X118039063Y-137697273D01*
X118020480Y-137665087D01*
X117945913Y-137590520D01*
X117854587Y-137537793D01*
X117752727Y-137510500D01*
X117647273Y-137510500D01*
X117545413Y-137537793D01*
X117545410Y-137537794D01*
X117454085Y-137590521D01*
X117379521Y-137665085D01*
X117326794Y-137756410D01*
X117326793Y-137756413D01*
X117299500Y-137858273D01*
X101847809Y-137858273D01*
X101818838Y-137638211D01*
X101756054Y-137403900D01*
X101663224Y-137179788D01*
X101541936Y-136969711D01*
X101394265Y-136777262D01*
X101394260Y-136777256D01*
X101364277Y-136747273D01*
X113899500Y-136747273D01*
X113899500Y-136852727D01*
X113926793Y-136954587D01*
X113979520Y-137045913D01*
X114054087Y-137120480D01*
X114145413Y-137173207D01*
X114247273Y-137200500D01*
X114247275Y-137200500D01*
X114352725Y-137200500D01*
X114352727Y-137200500D01*
X114454587Y-137173207D01*
X114545913Y-137120480D01*
X114620480Y-137045913D01*
X114673207Y-136954587D01*
X114700500Y-136852727D01*
X114700500Y-136747273D01*
X114673207Y-136645413D01*
X114669355Y-136638742D01*
X114652883Y-136570844D01*
X114675735Y-136504817D01*
X114730656Y-136461626D01*
X114800209Y-136454984D01*
X114838740Y-136469354D01*
X114845413Y-136473207D01*
X114947273Y-136500500D01*
X114947275Y-136500500D01*
X115052724Y-136500500D01*
X115052727Y-136500500D01*
X115136769Y-136477981D01*
X115206616Y-136479644D01*
X115264479Y-136518806D01*
X115291983Y-136583035D01*
X115280397Y-136651937D01*
X115276247Y-136659756D01*
X115226794Y-136745410D01*
X115226793Y-136745413D01*
X115199500Y-136847273D01*
X115199500Y-136952727D01*
X115226793Y-137054587D01*
X115279520Y-137145913D01*
X115354087Y-137220480D01*
X115445413Y-137273207D01*
X115547273Y-137300500D01*
X115547275Y-137300500D01*
X115652725Y-137300500D01*
X115652727Y-137300500D01*
X115754587Y-137273207D01*
X115845913Y-137220480D01*
X115920480Y-137145913D01*
X115973207Y-137054587D01*
X116000500Y-136952727D01*
X116000500Y-136847273D01*
X115973207Y-136745413D01*
X115920480Y-136654087D01*
X115845913Y-136579520D01*
X115754587Y-136526793D01*
X115652727Y-136499500D01*
X115547273Y-136499500D01*
X115547271Y-136499500D01*
X115463231Y-136522018D01*
X115441092Y-136521490D01*
X115419351Y-136525681D01*
X115406848Y-136520675D01*
X115393381Y-136520355D01*
X115375042Y-136507942D01*
X115354486Y-136499713D01*
X115346672Y-136488740D01*
X115335519Y-136481191D01*
X115326803Y-136460837D01*
X115313958Y-136442798D01*
X115313317Y-136429343D01*
X115308016Y-136416963D01*
X115311688Y-136395126D01*
X115310635Y-136373008D01*
X115318864Y-136352452D01*
X115319603Y-136348061D01*
X115320021Y-136347273D01*
X117299500Y-136347273D01*
X117299500Y-136452727D01*
X117326793Y-136554587D01*
X117379520Y-136645913D01*
X117454087Y-136720480D01*
X117545413Y-136773207D01*
X117647273Y-136800500D01*
X117647275Y-136800500D01*
X117752725Y-136800500D01*
X117752727Y-136800500D01*
X117854587Y-136773207D01*
X117945913Y-136720480D01*
X118020480Y-136645913D01*
X118073207Y-136554587D01*
X118100500Y-136452727D01*
X118100500Y-136347273D01*
X118073207Y-136245413D01*
X118020480Y-136154087D01*
X117945913Y-136079520D01*
X117854587Y-136026793D01*
X117752727Y-135999500D01*
X117647273Y-135999500D01*
X117545413Y-136026793D01*
X117545410Y-136026794D01*
X117454085Y-136079521D01*
X117379521Y-136154085D01*
X117326794Y-136245410D01*
X117326793Y-136245413D01*
X117299500Y-136347273D01*
X115320021Y-136347273D01*
X115323739Y-136340266D01*
X115373207Y-136254587D01*
X115400500Y-136152727D01*
X115400500Y-136047273D01*
X115373207Y-135945413D01*
X115320480Y-135854087D01*
X115273666Y-135807273D01*
X118799500Y-135807273D01*
X118799500Y-135912727D01*
X118826793Y-136014587D01*
X118879520Y-136105913D01*
X118954087Y-136180480D01*
X119045413Y-136233207D01*
X119147273Y-136260500D01*
X119147275Y-136260500D01*
X119252725Y-136260500D01*
X119252727Y-136260500D01*
X119354587Y-136233207D01*
X119445913Y-136180480D01*
X119520480Y-136105913D01*
X119573207Y-136014587D01*
X119591244Y-135947273D01*
X139399500Y-135947273D01*
X139399500Y-136052727D01*
X139426659Y-136154085D01*
X139426793Y-136154586D01*
X139426794Y-136154589D01*
X139446084Y-136188000D01*
X139462557Y-136255900D01*
X139446084Y-136312000D01*
X139426794Y-136345410D01*
X139426793Y-136345413D01*
X139399500Y-136447273D01*
X139399500Y-136552727D01*
X139426793Y-136654587D01*
X139479520Y-136745913D01*
X139554087Y-136820480D01*
X139645413Y-136873207D01*
X139747273Y-136900500D01*
X139747275Y-136900500D01*
X139852725Y-136900500D01*
X139852727Y-136900500D01*
X139954587Y-136873207D01*
X139988001Y-136853915D01*
X140055898Y-136837442D01*
X140111997Y-136853914D01*
X140145413Y-136873207D01*
X140247273Y-136900500D01*
X140247275Y-136900500D01*
X140352725Y-136900500D01*
X140352727Y-136900500D01*
X140454587Y-136873207D01*
X140488001Y-136853915D01*
X140555898Y-136837442D01*
X140611997Y-136853914D01*
X140645413Y-136873207D01*
X140747273Y-136900500D01*
X140747275Y-136900500D01*
X140852725Y-136900500D01*
X140852727Y-136900500D01*
X140954587Y-136873207D01*
X140988001Y-136853915D01*
X141055898Y-136837442D01*
X141111997Y-136853914D01*
X141145413Y-136873207D01*
X141247273Y-136900500D01*
X141247275Y-136900500D01*
X141352725Y-136900500D01*
X141352727Y-136900500D01*
X141454587Y-136873207D01*
X141488001Y-136853915D01*
X141555898Y-136837442D01*
X141611997Y-136853914D01*
X141645413Y-136873207D01*
X141747273Y-136900500D01*
X141747275Y-136900500D01*
X141852725Y-136900500D01*
X141852727Y-136900500D01*
X141954587Y-136873207D01*
X141988001Y-136853915D01*
X142055898Y-136837442D01*
X142111997Y-136853914D01*
X142145413Y-136873207D01*
X142247273Y-136900500D01*
X142247275Y-136900500D01*
X142352725Y-136900500D01*
X142352727Y-136900500D01*
X142454587Y-136873207D01*
X142488001Y-136853915D01*
X142555898Y-136837442D01*
X142611997Y-136853914D01*
X142645413Y-136873207D01*
X142747273Y-136900500D01*
X142747275Y-136900500D01*
X142852725Y-136900500D01*
X142852727Y-136900500D01*
X142954587Y-136873207D01*
X142988001Y-136853915D01*
X143055898Y-136837442D01*
X143111997Y-136853914D01*
X143145413Y-136873207D01*
X143247273Y-136900500D01*
X143247275Y-136900500D01*
X143352725Y-136900500D01*
X143352727Y-136900500D01*
X143454587Y-136873207D01*
X143488001Y-136853915D01*
X143555898Y-136837442D01*
X143611997Y-136853914D01*
X143645413Y-136873207D01*
X143747273Y-136900500D01*
X143747275Y-136900500D01*
X143852725Y-136900500D01*
X143852727Y-136900500D01*
X143954587Y-136873207D01*
X143988001Y-136853915D01*
X144055898Y-136837442D01*
X144111997Y-136853914D01*
X144145413Y-136873207D01*
X144247273Y-136900500D01*
X144247275Y-136900500D01*
X144352725Y-136900500D01*
X144352727Y-136900500D01*
X144454587Y-136873207D01*
X144545913Y-136820480D01*
X144620480Y-136745913D01*
X144673207Y-136654587D01*
X144700500Y-136552727D01*
X144700500Y-136447273D01*
X144673207Y-136345413D01*
X144653915Y-136311998D01*
X144637442Y-136244102D01*
X144653914Y-136188002D01*
X144673207Y-136154587D01*
X144700500Y-136052727D01*
X144700500Y-135947273D01*
X144673207Y-135845413D01*
X144620480Y-135754087D01*
X144545913Y-135679520D01*
X144454587Y-135626793D01*
X144352727Y-135599500D01*
X144247273Y-135599500D01*
X144145413Y-135626793D01*
X144145410Y-135626794D01*
X144112000Y-135646084D01*
X144044100Y-135662557D01*
X143988000Y-135646084D01*
X143954589Y-135626794D01*
X143954588Y-135626793D01*
X143954587Y-135626793D01*
X143852727Y-135599500D01*
X143747273Y-135599500D01*
X143645413Y-135626793D01*
X143645410Y-135626794D01*
X143612000Y-135646084D01*
X143544100Y-135662557D01*
X143488000Y-135646084D01*
X143454589Y-135626794D01*
X143454588Y-135626793D01*
X143454587Y-135626793D01*
X143352727Y-135599500D01*
X143247273Y-135599500D01*
X143145413Y-135626793D01*
X143145410Y-135626794D01*
X143112000Y-135646084D01*
X143044100Y-135662557D01*
X142988000Y-135646084D01*
X142954589Y-135626794D01*
X142954588Y-135626793D01*
X142954587Y-135626793D01*
X142852727Y-135599500D01*
X142747273Y-135599500D01*
X142645413Y-135626793D01*
X142645410Y-135626794D01*
X142612000Y-135646084D01*
X142544100Y-135662557D01*
X142488000Y-135646084D01*
X142454589Y-135626794D01*
X142454588Y-135626793D01*
X142454587Y-135626793D01*
X142352727Y-135599500D01*
X142247273Y-135599500D01*
X142145413Y-135626793D01*
X142145410Y-135626794D01*
X142112000Y-135646084D01*
X142044100Y-135662557D01*
X141988000Y-135646084D01*
X141954589Y-135626794D01*
X141954588Y-135626793D01*
X141954587Y-135626793D01*
X141852727Y-135599500D01*
X141747273Y-135599500D01*
X141645413Y-135626793D01*
X141645410Y-135626794D01*
X141612000Y-135646084D01*
X141544100Y-135662557D01*
X141488000Y-135646084D01*
X141454589Y-135626794D01*
X141454588Y-135626793D01*
X141454587Y-135626793D01*
X141352727Y-135599500D01*
X141247273Y-135599500D01*
X141145413Y-135626793D01*
X141145410Y-135626794D01*
X141112000Y-135646084D01*
X141044100Y-135662557D01*
X140988000Y-135646084D01*
X140954589Y-135626794D01*
X140954588Y-135626793D01*
X140954587Y-135626793D01*
X140852727Y-135599500D01*
X140747273Y-135599500D01*
X140645413Y-135626793D01*
X140645410Y-135626794D01*
X140612000Y-135646084D01*
X140544100Y-135662557D01*
X140488000Y-135646084D01*
X140454589Y-135626794D01*
X140454588Y-135626793D01*
X140454587Y-135626793D01*
X140352727Y-135599500D01*
X140247273Y-135599500D01*
X140145413Y-135626793D01*
X140145410Y-135626794D01*
X140112000Y-135646084D01*
X140044100Y-135662557D01*
X139988000Y-135646084D01*
X139954589Y-135626794D01*
X139954588Y-135626793D01*
X139954587Y-135626793D01*
X139852727Y-135599500D01*
X139747273Y-135599500D01*
X139645413Y-135626793D01*
X139645410Y-135626794D01*
X139554085Y-135679521D01*
X139479521Y-135754085D01*
X139426794Y-135845410D01*
X139426793Y-135845413D01*
X139399500Y-135947273D01*
X119591244Y-135947273D01*
X119600500Y-135912727D01*
X119600500Y-135807273D01*
X119573207Y-135705413D01*
X119520480Y-135614087D01*
X119445913Y-135539520D01*
X119354587Y-135486793D01*
X119252727Y-135459500D01*
X119147273Y-135459500D01*
X119045413Y-135486793D01*
X119045410Y-135486794D01*
X118954085Y-135539521D01*
X118879521Y-135614085D01*
X118826794Y-135705410D01*
X118826793Y-135705413D01*
X118799500Y-135807273D01*
X115273666Y-135807273D01*
X115245913Y-135779520D01*
X115162498Y-135731360D01*
X115114284Y-135680793D01*
X115100500Y-135623974D01*
X115100500Y-135547275D01*
X115100500Y-135547273D01*
X115073207Y-135445413D01*
X115025047Y-135361998D01*
X115008575Y-135294100D01*
X115025047Y-135238001D01*
X115073207Y-135154587D01*
X115100500Y-135052727D01*
X115100500Y-134947273D01*
X115073207Y-134845413D01*
X115025047Y-134761998D01*
X115008575Y-134694100D01*
X115025047Y-134638001D01*
X115073207Y-134554587D01*
X115100500Y-134452727D01*
X115100500Y-134347273D01*
X115073207Y-134245413D01*
X115025047Y-134161998D01*
X115022217Y-134150333D01*
X115015255Y-134140556D01*
X115014133Y-134117012D01*
X115008575Y-134094100D01*
X115012418Y-134081009D01*
X115011931Y-134070765D01*
X115012929Y-134068273D01*
X117099500Y-134068273D01*
X117099500Y-134173727D01*
X117126793Y-134275587D01*
X117179520Y-134366913D01*
X117254087Y-134441480D01*
X117345413Y-134494207D01*
X117447273Y-134521500D01*
X117447275Y-134521500D01*
X117552725Y-134521500D01*
X117552727Y-134521500D01*
X117654587Y-134494207D01*
X117745913Y-134441480D01*
X117820480Y-134366913D01*
X117873207Y-134275587D01*
X117900500Y-134173727D01*
X117900500Y-134068273D01*
X117873207Y-133966413D01*
X117820480Y-133875087D01*
X117745913Y-133800520D01*
X117654587Y-133747793D01*
X117552727Y-133720500D01*
X117447273Y-133720500D01*
X117345413Y-133747793D01*
X117345410Y-133747794D01*
X117254085Y-133800521D01*
X117179521Y-133875085D01*
X117126794Y-133966410D01*
X117126793Y-133966413D01*
X117099500Y-134068273D01*
X115012929Y-134068273D01*
X115025045Y-134038005D01*
X115073207Y-133954587D01*
X115100500Y-133852727D01*
X115100500Y-133747273D01*
X115073207Y-133645413D01*
X115025047Y-133561998D01*
X115008575Y-133494100D01*
X115025047Y-133438001D01*
X115073207Y-133354587D01*
X115100500Y-133252727D01*
X115100500Y-133147273D01*
X115073207Y-133045413D01*
X115025047Y-132961998D01*
X115021475Y-132947273D01*
X139599500Y-132947273D01*
X139599500Y-133052727D01*
X139624834Y-133147273D01*
X139626793Y-133154586D01*
X139626794Y-133154589D01*
X139646084Y-133188000D01*
X139662557Y-133255900D01*
X139646084Y-133312000D01*
X139626794Y-133345410D01*
X139626793Y-133345413D01*
X139599500Y-133447273D01*
X139599500Y-133552727D01*
X139612301Y-133600499D01*
X139626793Y-133654586D01*
X139626794Y-133654589D01*
X139646084Y-133688000D01*
X139662557Y-133755900D01*
X139646084Y-133812000D01*
X139626794Y-133845410D01*
X139626793Y-133845413D01*
X139599500Y-133947273D01*
X139599500Y-134052727D01*
X139626793Y-134154587D01*
X139679520Y-134245913D01*
X139754087Y-134320480D01*
X139845413Y-134373207D01*
X139947273Y-134400500D01*
X139947275Y-134400500D01*
X140052725Y-134400500D01*
X140052727Y-134400500D01*
X140154587Y-134373207D01*
X140188001Y-134353915D01*
X140255898Y-134337442D01*
X140311997Y-134353914D01*
X140345413Y-134373207D01*
X140447273Y-134400500D01*
X140447275Y-134400500D01*
X140552725Y-134400500D01*
X140552727Y-134400500D01*
X140654587Y-134373207D01*
X140688001Y-134353915D01*
X140755898Y-134337442D01*
X140811997Y-134353914D01*
X140845413Y-134373207D01*
X140947273Y-134400500D01*
X140947275Y-134400500D01*
X141052725Y-134400500D01*
X141052727Y-134400500D01*
X141154587Y-134373207D01*
X141188001Y-134353915D01*
X141255898Y-134337442D01*
X141311997Y-134353914D01*
X141345413Y-134373207D01*
X141447273Y-134400500D01*
X141447275Y-134400500D01*
X141552725Y-134400500D01*
X141552727Y-134400500D01*
X141654587Y-134373207D01*
X141745913Y-134320480D01*
X141820480Y-134245913D01*
X141873207Y-134154587D01*
X141900500Y-134052727D01*
X141900500Y-133947273D01*
X141873207Y-133845413D01*
X141853915Y-133811998D01*
X141837442Y-133744102D01*
X141853914Y-133688002D01*
X141873207Y-133654587D01*
X141900500Y-133552727D01*
X141900500Y-133447273D01*
X141873207Y-133345413D01*
X141853915Y-133311998D01*
X141837442Y-133244102D01*
X141853914Y-133188002D01*
X141873207Y-133154587D01*
X141900500Y-133052727D01*
X141900500Y-132947273D01*
X141873207Y-132845413D01*
X141820480Y-132754087D01*
X141745913Y-132679520D01*
X141690059Y-132647273D01*
X142199500Y-132647273D01*
X142199500Y-132752727D01*
X142212301Y-132800499D01*
X142226793Y-132854586D01*
X142226794Y-132854589D01*
X142246084Y-132888000D01*
X142262557Y-132955900D01*
X142246084Y-133012000D01*
X142226794Y-133045410D01*
X142226793Y-133045413D01*
X142199500Y-133147273D01*
X142199500Y-133252727D01*
X142226793Y-133354587D01*
X142279520Y-133445913D01*
X142354087Y-133520480D01*
X142445413Y-133573207D01*
X142547273Y-133600500D01*
X142547275Y-133600500D01*
X142652725Y-133600500D01*
X142652727Y-133600500D01*
X142754587Y-133573207D01*
X142788001Y-133553915D01*
X142855898Y-133537442D01*
X142911997Y-133553914D01*
X142945413Y-133573207D01*
X143047273Y-133600500D01*
X143047275Y-133600500D01*
X143152725Y-133600500D01*
X143152727Y-133600500D01*
X143254587Y-133573207D01*
X143288001Y-133553915D01*
X143355898Y-133537442D01*
X143411997Y-133553914D01*
X143445413Y-133573207D01*
X143547273Y-133600500D01*
X143547275Y-133600500D01*
X143652725Y-133600500D01*
X143652727Y-133600500D01*
X143754587Y-133573207D01*
X143788001Y-133553915D01*
X143855898Y-133537442D01*
X143911997Y-133553914D01*
X143945413Y-133573207D01*
X144047273Y-133600500D01*
X144047275Y-133600500D01*
X144152725Y-133600500D01*
X144152727Y-133600500D01*
X144254587Y-133573207D01*
X144345913Y-133520480D01*
X144420480Y-133445913D01*
X144473207Y-133354587D01*
X144500500Y-133252727D01*
X144500500Y-133147273D01*
X144473207Y-133045413D01*
X144453915Y-133011998D01*
X144437442Y-132944102D01*
X144453914Y-132888002D01*
X144473207Y-132854587D01*
X144500500Y-132752727D01*
X144500500Y-132647273D01*
X144473207Y-132545413D01*
X144420480Y-132454087D01*
X144345913Y-132379520D01*
X144290059Y-132347273D01*
X150899500Y-132347273D01*
X150899500Y-132452727D01*
X150926793Y-132554587D01*
X150979520Y-132645913D01*
X151054087Y-132720480D01*
X151145413Y-132773207D01*
X151247273Y-132800500D01*
X151247275Y-132800500D01*
X151352725Y-132800500D01*
X151352727Y-132800500D01*
X151454587Y-132773207D01*
X151545913Y-132720480D01*
X151620480Y-132645913D01*
X151673207Y-132554587D01*
X151700500Y-132452727D01*
X151700500Y-132347273D01*
X151673207Y-132245413D01*
X151620480Y-132154087D01*
X151545913Y-132079520D01*
X151454587Y-132026793D01*
X151352727Y-131999500D01*
X151247273Y-131999500D01*
X151145413Y-132026793D01*
X151145410Y-132026794D01*
X151054085Y-132079521D01*
X150979521Y-132154085D01*
X150926794Y-132245410D01*
X150926793Y-132245413D01*
X150899500Y-132347273D01*
X144290059Y-132347273D01*
X144254587Y-132326793D01*
X144152727Y-132299500D01*
X144047273Y-132299500D01*
X143945413Y-132326793D01*
X143945410Y-132326794D01*
X143912000Y-132346084D01*
X143844100Y-132362557D01*
X143788000Y-132346084D01*
X143754589Y-132326794D01*
X143754588Y-132326793D01*
X143754587Y-132326793D01*
X143652727Y-132299500D01*
X143547273Y-132299500D01*
X143445413Y-132326793D01*
X143445410Y-132326794D01*
X143412000Y-132346084D01*
X143344100Y-132362557D01*
X143288000Y-132346084D01*
X143254589Y-132326794D01*
X143254588Y-132326793D01*
X143254587Y-132326793D01*
X143152727Y-132299500D01*
X143047273Y-132299500D01*
X142945413Y-132326793D01*
X142945410Y-132326794D01*
X142912000Y-132346084D01*
X142844100Y-132362557D01*
X142788000Y-132346084D01*
X142754589Y-132326794D01*
X142754588Y-132326793D01*
X142754587Y-132326793D01*
X142652727Y-132299500D01*
X142547273Y-132299500D01*
X142445413Y-132326793D01*
X142445410Y-132326794D01*
X142354085Y-132379521D01*
X142279521Y-132454085D01*
X142226794Y-132545410D01*
X142226793Y-132545413D01*
X142199500Y-132647273D01*
X141690059Y-132647273D01*
X141654587Y-132626793D01*
X141552727Y-132599500D01*
X141447273Y-132599500D01*
X141345413Y-132626793D01*
X141345410Y-132626794D01*
X141312000Y-132646084D01*
X141244100Y-132662557D01*
X141188000Y-132646084D01*
X141154589Y-132626794D01*
X141154588Y-132626793D01*
X141154587Y-132626793D01*
X141052727Y-132599500D01*
X140947273Y-132599500D01*
X140845413Y-132626793D01*
X140845410Y-132626794D01*
X140812000Y-132646084D01*
X140744100Y-132662557D01*
X140688000Y-132646084D01*
X140654589Y-132626794D01*
X140654588Y-132626793D01*
X140654587Y-132626793D01*
X140552727Y-132599500D01*
X140447273Y-132599500D01*
X140345413Y-132626793D01*
X140345410Y-132626794D01*
X140312000Y-132646084D01*
X140244100Y-132662557D01*
X140188000Y-132646084D01*
X140154589Y-132626794D01*
X140154588Y-132626793D01*
X140154587Y-132626793D01*
X140052727Y-132599500D01*
X139947273Y-132599500D01*
X139845413Y-132626793D01*
X139845410Y-132626794D01*
X139754085Y-132679521D01*
X139679521Y-132754085D01*
X139626794Y-132845410D01*
X139626793Y-132845413D01*
X139599500Y-132947273D01*
X115021475Y-132947273D01*
X115008575Y-132894100D01*
X115025047Y-132838001D01*
X115073207Y-132754587D01*
X115100500Y-132652727D01*
X115100500Y-132547273D01*
X115073207Y-132445413D01*
X115025047Y-132361998D01*
X115021475Y-132347273D01*
X117099500Y-132347273D01*
X117099500Y-132452727D01*
X117126793Y-132554587D01*
X117179520Y-132645913D01*
X117254087Y-132720480D01*
X117345413Y-132773207D01*
X117447273Y-132800500D01*
X117447275Y-132800500D01*
X117552725Y-132800500D01*
X117552727Y-132800500D01*
X117654587Y-132773207D01*
X117745913Y-132720480D01*
X117820480Y-132645913D01*
X117873207Y-132554587D01*
X117900500Y-132452727D01*
X117900500Y-132347273D01*
X117873778Y-132247543D01*
X132799770Y-132247543D01*
X132799770Y-132352997D01*
X132827063Y-132454857D01*
X132879790Y-132546183D01*
X132954357Y-132620750D01*
X133045683Y-132673477D01*
X133147543Y-132700770D01*
X133147545Y-132700770D01*
X133252995Y-132700770D01*
X133252997Y-132700770D01*
X133354857Y-132673477D01*
X133446183Y-132620750D01*
X133520750Y-132546183D01*
X133573477Y-132454857D01*
X133600770Y-132352997D01*
X133600770Y-132247543D01*
X133573477Y-132145683D01*
X133520750Y-132054357D01*
X133446183Y-131979790D01*
X133354857Y-131927063D01*
X133252997Y-131899770D01*
X133147543Y-131899770D01*
X133045683Y-131927063D01*
X133045680Y-131927064D01*
X132954355Y-131979791D01*
X132879791Y-132054355D01*
X132827064Y-132145680D01*
X132827063Y-132145683D01*
X132799770Y-132247543D01*
X117873778Y-132247543D01*
X117873207Y-132245413D01*
X117820480Y-132154087D01*
X117745913Y-132079520D01*
X117654587Y-132026793D01*
X117552727Y-131999500D01*
X117447273Y-131999500D01*
X117345413Y-132026793D01*
X117345410Y-132026794D01*
X117254085Y-132079521D01*
X117179521Y-132154085D01*
X117126794Y-132245410D01*
X117126793Y-132245413D01*
X117099500Y-132347273D01*
X115021475Y-132347273D01*
X115008575Y-132294100D01*
X115025047Y-132238001D01*
X115073207Y-132154587D01*
X115100500Y-132052727D01*
X115100500Y-131947273D01*
X115073207Y-131845413D01*
X115025047Y-131761998D01*
X115008575Y-131694100D01*
X115025047Y-131638001D01*
X115073207Y-131554587D01*
X115100500Y-131452727D01*
X115100500Y-131347273D01*
X115073207Y-131245413D01*
X115025047Y-131161998D01*
X115022218Y-131150335D01*
X115015255Y-131140557D01*
X115014133Y-131117010D01*
X115008575Y-131094100D01*
X115012418Y-131081011D01*
X115011930Y-131070766D01*
X115021335Y-131047273D01*
X117099500Y-131047273D01*
X117099500Y-131152727D01*
X117126793Y-131254587D01*
X117179520Y-131345913D01*
X117254087Y-131420480D01*
X117345413Y-131473207D01*
X117447273Y-131500500D01*
X117447275Y-131500500D01*
X117552725Y-131500500D01*
X117552727Y-131500500D01*
X117654587Y-131473207D01*
X117745913Y-131420480D01*
X117820480Y-131345913D01*
X117873207Y-131254587D01*
X117900500Y-131152727D01*
X117900500Y-131047273D01*
X117873207Y-130945413D01*
X117820480Y-130854087D01*
X117745913Y-130779520D01*
X117654587Y-130726793D01*
X117552727Y-130699500D01*
X117447273Y-130699500D01*
X117345413Y-130726793D01*
X117345410Y-130726794D01*
X117254085Y-130779521D01*
X117179521Y-130854085D01*
X117126794Y-130945410D01*
X117126793Y-130945413D01*
X117099500Y-131047273D01*
X115021335Y-131047273D01*
X115025046Y-131038003D01*
X115073207Y-130954587D01*
X115100500Y-130852727D01*
X115100500Y-130747273D01*
X115073207Y-130645413D01*
X115025047Y-130561998D01*
X115008575Y-130494100D01*
X115025047Y-130438001D01*
X115073207Y-130354587D01*
X115100500Y-130252727D01*
X115100500Y-130220757D01*
X132926016Y-130220757D01*
X132926016Y-130326211D01*
X132933620Y-130354587D01*
X132953309Y-130428070D01*
X132953310Y-130428073D01*
X132963610Y-130445913D01*
X133006036Y-130519397D01*
X133080603Y-130593964D01*
X133171929Y-130646691D01*
X133273789Y-130673984D01*
X133273791Y-130673984D01*
X133379241Y-130673984D01*
X133379243Y-130673984D01*
X133481103Y-130646691D01*
X133572429Y-130593964D01*
X133646996Y-130519397D01*
X133699723Y-130428071D01*
X133727016Y-130326211D01*
X133727016Y-130220757D01*
X133699723Y-130118897D01*
X133646996Y-130027571D01*
X133572429Y-129953004D01*
X133481103Y-129900277D01*
X133379243Y-129872984D01*
X133273789Y-129872984D01*
X133171929Y-129900277D01*
X133171926Y-129900278D01*
X133080601Y-129953005D01*
X133006037Y-130027569D01*
X132953310Y-130118894D01*
X132953309Y-130118897D01*
X132926016Y-130220757D01*
X115100500Y-130220757D01*
X115100500Y-130147273D01*
X115073207Y-130045413D01*
X115025047Y-129961998D01*
X115008575Y-129894100D01*
X115025047Y-129838001D01*
X115073207Y-129754587D01*
X115100500Y-129652727D01*
X115100500Y-129547273D01*
X129750040Y-129547273D01*
X129750040Y-129652727D01*
X129777333Y-129754587D01*
X129830060Y-129845913D01*
X129904627Y-129920480D01*
X129995953Y-129973207D01*
X130097813Y-130000500D01*
X130097815Y-130000500D01*
X130203265Y-130000500D01*
X130203267Y-130000500D01*
X130305127Y-129973207D01*
X130396453Y-129920480D01*
X130471020Y-129845913D01*
X130523747Y-129754587D01*
X130551040Y-129652727D01*
X130551040Y-129547273D01*
X130523747Y-129445413D01*
X130471020Y-129354087D01*
X130464206Y-129347273D01*
X132199500Y-129347273D01*
X132199500Y-129452727D01*
X132226793Y-129554587D01*
X132279520Y-129645913D01*
X132354087Y-129720480D01*
X132445413Y-129773207D01*
X132547273Y-129800500D01*
X132547275Y-129800500D01*
X132652725Y-129800500D01*
X132652727Y-129800500D01*
X132754587Y-129773207D01*
X132845913Y-129720480D01*
X132920480Y-129645913D01*
X132973207Y-129554587D01*
X133000500Y-129452727D01*
X133000500Y-129347273D01*
X132973207Y-129245413D01*
X132920480Y-129154087D01*
X132845913Y-129079520D01*
X132754587Y-129026793D01*
X132652727Y-128999500D01*
X132547273Y-128999500D01*
X132445413Y-129026793D01*
X132445410Y-129026794D01*
X132354085Y-129079521D01*
X132279521Y-129154085D01*
X132226794Y-129245410D01*
X132226793Y-129245413D01*
X132199500Y-129347273D01*
X130464206Y-129347273D01*
X130396453Y-129279520D01*
X130305127Y-129226793D01*
X130203267Y-129199500D01*
X130097813Y-129199500D01*
X129995953Y-129226793D01*
X129995950Y-129226794D01*
X129904625Y-129279521D01*
X129830061Y-129354085D01*
X129777334Y-129445410D01*
X129777333Y-129445413D01*
X129750040Y-129547273D01*
X115100500Y-129547273D01*
X115073207Y-129445413D01*
X115020480Y-129354087D01*
X114945913Y-129279520D01*
X114854587Y-129226793D01*
X114752727Y-129199500D01*
X114647273Y-129199500D01*
X114545413Y-129226793D01*
X114545410Y-129226794D01*
X114454085Y-129279521D01*
X114379521Y-129354085D01*
X114326794Y-129445410D01*
X114326793Y-129445413D01*
X114299500Y-129547273D01*
X114299500Y-129652726D01*
X114326793Y-129754586D01*
X114326794Y-129754589D01*
X114374951Y-129838000D01*
X114391424Y-129905901D01*
X114374951Y-129962000D01*
X114326794Y-130045410D01*
X114326793Y-130045413D01*
X114299500Y-130147273D01*
X114299500Y-130252727D01*
X114319190Y-130326210D01*
X114326793Y-130354586D01*
X114326794Y-130354589D01*
X114374951Y-130438000D01*
X114391424Y-130505901D01*
X114374951Y-130562000D01*
X114326794Y-130645410D01*
X114326793Y-130645413D01*
X114299500Y-130747273D01*
X114299500Y-130852727D01*
X114299865Y-130854087D01*
X114326793Y-130954586D01*
X114326794Y-130954589D01*
X114374951Y-131038000D01*
X114391424Y-131105901D01*
X114374951Y-131162000D01*
X114326794Y-131245410D01*
X114326793Y-131245413D01*
X114299500Y-131347273D01*
X114299500Y-131452727D01*
X114312301Y-131500499D01*
X114326793Y-131554586D01*
X114326794Y-131554589D01*
X114374951Y-131638000D01*
X114391424Y-131705901D01*
X114374951Y-131762000D01*
X114326794Y-131845410D01*
X114326793Y-131845413D01*
X114299500Y-131947273D01*
X114299500Y-132052727D01*
X114326659Y-132154085D01*
X114326793Y-132154586D01*
X114326794Y-132154589D01*
X114374951Y-132238000D01*
X114391424Y-132305901D01*
X114374951Y-132362000D01*
X114326794Y-132445410D01*
X114326793Y-132445413D01*
X114299500Y-132547273D01*
X114299500Y-132652727D01*
X114326659Y-132754085D01*
X114326793Y-132754586D01*
X114326794Y-132754589D01*
X114374951Y-132838000D01*
X114391424Y-132905901D01*
X114374951Y-132962000D01*
X114326794Y-133045410D01*
X114326793Y-133045413D01*
X114299500Y-133147273D01*
X114299500Y-133252727D01*
X114299865Y-133254087D01*
X114326793Y-133354586D01*
X114326794Y-133354589D01*
X114374951Y-133438000D01*
X114391424Y-133505901D01*
X114374951Y-133562000D01*
X114326794Y-133645410D01*
X114326793Y-133645413D01*
X114299500Y-133747273D01*
X114299500Y-133852727D01*
X114324834Y-133947273D01*
X114326793Y-133954586D01*
X114326794Y-133954589D01*
X114374951Y-134038000D01*
X114391424Y-134105901D01*
X114374951Y-134162000D01*
X114326794Y-134245410D01*
X114326793Y-134245413D01*
X114299500Y-134347273D01*
X114299500Y-134452727D01*
X114317928Y-134521500D01*
X114326793Y-134554586D01*
X114326794Y-134554589D01*
X114374951Y-134638000D01*
X114391424Y-134705901D01*
X114374951Y-134762000D01*
X114326794Y-134845410D01*
X114326793Y-134845413D01*
X114299500Y-134947273D01*
X114299500Y-135052727D01*
X114326295Y-135152726D01*
X114326793Y-135154586D01*
X114326794Y-135154589D01*
X114374951Y-135238000D01*
X114391424Y-135305901D01*
X114374951Y-135362000D01*
X114326794Y-135445410D01*
X114326793Y-135445413D01*
X114299500Y-135547273D01*
X114299500Y-135652727D01*
X114326793Y-135754587D01*
X114379520Y-135845913D01*
X114454087Y-135920480D01*
X114537500Y-135968638D01*
X114585716Y-136019205D01*
X114599500Y-136076025D01*
X114599500Y-136152727D01*
X114621065Y-136233207D01*
X114626793Y-136254586D01*
X114626795Y-136254591D01*
X114630644Y-136261258D01*
X114647115Y-136329158D01*
X114624262Y-136395185D01*
X114569340Y-136438374D01*
X114499787Y-136445015D01*
X114461258Y-136430644D01*
X114454591Y-136426795D01*
X114454589Y-136426794D01*
X114454587Y-136426793D01*
X114352727Y-136399500D01*
X114247273Y-136399500D01*
X114145413Y-136426793D01*
X114145410Y-136426794D01*
X114054085Y-136479521D01*
X113979521Y-136554085D01*
X113926794Y-136645410D01*
X113926793Y-136645413D01*
X113899500Y-136747273D01*
X101364277Y-136747273D01*
X101222743Y-136605739D01*
X101222736Y-136605733D01*
X101030293Y-136458067D01*
X101030292Y-136458066D01*
X101030289Y-136458064D01*
X100835167Y-136345410D01*
X100820214Y-136336777D01*
X100820205Y-136336773D01*
X100596104Y-136243947D01*
X100478944Y-136212554D01*
X100361789Y-136181162D01*
X100361788Y-136181161D01*
X100361785Y-136181161D01*
X100121289Y-136149500D01*
X100121288Y-136149500D01*
X99878712Y-136149500D01*
X99878711Y-136149500D01*
X99638214Y-136181161D01*
X99403895Y-136243947D01*
X99179794Y-136336773D01*
X99179785Y-136336777D01*
X99019457Y-136429343D01*
X98978959Y-136452725D01*
X98969706Y-136458067D01*
X98777263Y-136605733D01*
X98777256Y-136605739D01*
X98605739Y-136777256D01*
X98605733Y-136777263D01*
X98458067Y-136969706D01*
X98336777Y-137179785D01*
X98336773Y-137179794D01*
X98243947Y-137403895D01*
X98181161Y-137638214D01*
X98149500Y-137878711D01*
X97500499Y-137878711D01*
X97500499Y-127977320D01*
X132917500Y-127977320D01*
X132917500Y-128082774D01*
X132944793Y-128184634D01*
X132997520Y-128275960D01*
X133072087Y-128350527D01*
X133163413Y-128403254D01*
X133265273Y-128430547D01*
X133265275Y-128430547D01*
X133370725Y-128430547D01*
X133370727Y-128430547D01*
X133472587Y-128403254D01*
X133563913Y-128350527D01*
X133638480Y-128275960D01*
X133691207Y-128184634D01*
X133718500Y-128082774D01*
X133718500Y-127977320D01*
X133691207Y-127875460D01*
X133638480Y-127784134D01*
X133563913Y-127709567D01*
X133472587Y-127656840D01*
X133370727Y-127629547D01*
X133265273Y-127629547D01*
X133163413Y-127656840D01*
X133163410Y-127656841D01*
X133072085Y-127709568D01*
X132997521Y-127784132D01*
X132944794Y-127875457D01*
X132944793Y-127875460D01*
X132917500Y-127977320D01*
X97500499Y-127977320D01*
X97500499Y-126465273D01*
X127199500Y-126465273D01*
X127199500Y-126570727D01*
X127226793Y-126672587D01*
X127279520Y-126763913D01*
X127354087Y-126838480D01*
X127445413Y-126891207D01*
X127547273Y-126918500D01*
X127547275Y-126918500D01*
X127652725Y-126918500D01*
X127652727Y-126918500D01*
X127754587Y-126891207D01*
X127845913Y-126838480D01*
X127872890Y-126811503D01*
X128384730Y-126811503D01*
X128384730Y-126916957D01*
X128412023Y-127018817D01*
X128464750Y-127110143D01*
X128539317Y-127184710D01*
X128630643Y-127237437D01*
X128732503Y-127264730D01*
X128732505Y-127264730D01*
X128837955Y-127264730D01*
X128837957Y-127264730D01*
X128939817Y-127237437D01*
X129031143Y-127184710D01*
X129073850Y-127142003D01*
X129454230Y-127142003D01*
X129454230Y-127247457D01*
X129481523Y-127349317D01*
X129534250Y-127440643D01*
X129608817Y-127515210D01*
X129700143Y-127567937D01*
X129802003Y-127595230D01*
X129802005Y-127595230D01*
X129907455Y-127595230D01*
X129907457Y-127595230D01*
X130009317Y-127567937D01*
X130100643Y-127515210D01*
X130175210Y-127440643D01*
X130227937Y-127349317D01*
X130255230Y-127247457D01*
X130255230Y-127142003D01*
X130227937Y-127040143D01*
X130179997Y-126957108D01*
X130939502Y-126957108D01*
X130939502Y-127062562D01*
X130966795Y-127164422D01*
X131019522Y-127255748D01*
X131094089Y-127330315D01*
X131185415Y-127383042D01*
X131287275Y-127410335D01*
X131287277Y-127410335D01*
X131392727Y-127410335D01*
X131392729Y-127410335D01*
X131494589Y-127383042D01*
X131585915Y-127330315D01*
X131660482Y-127255748D01*
X131713209Y-127164422D01*
X131740502Y-127062562D01*
X131740502Y-126957108D01*
X131713209Y-126855248D01*
X131660482Y-126763922D01*
X131585915Y-126689355D01*
X131519061Y-126650757D01*
X131511740Y-126646530D01*
X167624500Y-126646530D01*
X167624500Y-126853469D01*
X167664868Y-127056412D01*
X167664870Y-127056420D01*
X167744000Y-127247457D01*
X167744059Y-127247598D01*
X167755506Y-127264730D01*
X167859024Y-127419657D01*
X168005342Y-127565975D01*
X168005345Y-127565977D01*
X168177402Y-127680941D01*
X168368580Y-127760130D01*
X168571530Y-127800499D01*
X168571534Y-127800500D01*
X168571535Y-127800500D01*
X169028466Y-127800500D01*
X169028467Y-127800499D01*
X169231420Y-127760130D01*
X169422598Y-127680941D01*
X169594655Y-127565977D01*
X169740977Y-127419655D01*
X169855941Y-127247598D01*
X169935130Y-127056420D01*
X169975500Y-126853465D01*
X169975500Y-126646535D01*
X169935130Y-126443580D01*
X169855941Y-126252402D01*
X169740977Y-126080345D01*
X169740975Y-126080342D01*
X169594657Y-125934024D01*
X169508626Y-125876541D01*
X169422598Y-125819059D01*
X169231420Y-125739870D01*
X169231412Y-125739868D01*
X169028469Y-125699500D01*
X169028465Y-125699500D01*
X168571535Y-125699500D01*
X168571530Y-125699500D01*
X168368587Y-125739868D01*
X168368579Y-125739870D01*
X168177403Y-125819058D01*
X168005342Y-125934024D01*
X167859024Y-126080342D01*
X167744058Y-126252403D01*
X167664870Y-126443579D01*
X167664868Y-126443587D01*
X167624500Y-126646530D01*
X131511740Y-126646530D01*
X131494591Y-126636629D01*
X131494590Y-126636628D01*
X131494589Y-126636628D01*
X131392729Y-126609335D01*
X131287275Y-126609335D01*
X131185415Y-126636628D01*
X131185412Y-126636629D01*
X131094087Y-126689356D01*
X131019523Y-126763920D01*
X130966796Y-126855245D01*
X130966795Y-126855248D01*
X130939502Y-126957108D01*
X130179997Y-126957108D01*
X130175210Y-126948817D01*
X130100643Y-126874250D01*
X130009317Y-126821523D01*
X129907457Y-126794230D01*
X129802003Y-126794230D01*
X129700143Y-126821523D01*
X129700140Y-126821524D01*
X129608815Y-126874251D01*
X129534251Y-126948815D01*
X129481524Y-127040140D01*
X129481523Y-127040143D01*
X129454230Y-127142003D01*
X129073850Y-127142003D01*
X129105710Y-127110143D01*
X129158437Y-127018817D01*
X129185730Y-126916957D01*
X129185730Y-126811503D01*
X129158437Y-126709643D01*
X129105710Y-126618317D01*
X129031143Y-126543750D01*
X128939817Y-126491023D01*
X128837957Y-126463730D01*
X128732503Y-126463730D01*
X128630643Y-126491023D01*
X128630640Y-126491024D01*
X128539315Y-126543751D01*
X128464751Y-126618315D01*
X128412024Y-126709640D01*
X128412023Y-126709643D01*
X128384730Y-126811503D01*
X127872890Y-126811503D01*
X127920480Y-126763913D01*
X127973207Y-126672587D01*
X128000500Y-126570727D01*
X128000500Y-126465273D01*
X127973207Y-126363413D01*
X127920480Y-126272087D01*
X127845913Y-126197520D01*
X127754587Y-126144793D01*
X127652727Y-126117500D01*
X127547273Y-126117500D01*
X127445413Y-126144793D01*
X127445410Y-126144794D01*
X127354085Y-126197521D01*
X127279521Y-126272085D01*
X127226794Y-126363410D01*
X127226793Y-126363413D01*
X127199500Y-126465273D01*
X97500499Y-126465273D01*
X97500499Y-125987273D01*
X126199500Y-125987273D01*
X126199500Y-126092727D01*
X126226793Y-126194587D01*
X126279520Y-126285913D01*
X126354087Y-126360480D01*
X126445413Y-126413207D01*
X126547273Y-126440500D01*
X126547275Y-126440500D01*
X126652725Y-126440500D01*
X126652727Y-126440500D01*
X126754587Y-126413207D01*
X126845913Y-126360480D01*
X126920480Y-126285913D01*
X126973207Y-126194587D01*
X127000500Y-126092727D01*
X127000500Y-125987273D01*
X126973207Y-125885413D01*
X126951187Y-125847273D01*
X144989700Y-125847273D01*
X144989700Y-125952727D01*
X145016993Y-126054587D01*
X145069720Y-126145913D01*
X145144287Y-126220480D01*
X145235613Y-126273207D01*
X145337473Y-126300500D01*
X145337475Y-126300500D01*
X145442925Y-126300500D01*
X145442927Y-126300500D01*
X145544787Y-126273207D01*
X145636113Y-126220480D01*
X145710680Y-126145913D01*
X145763407Y-126054587D01*
X145790700Y-125952727D01*
X145790700Y-125847273D01*
X145763407Y-125745413D01*
X145710680Y-125654087D01*
X145710678Y-125654085D01*
X145707313Y-125648256D01*
X145690700Y-125586256D01*
X145690700Y-124146530D01*
X167624500Y-124146530D01*
X167624500Y-124353469D01*
X167664868Y-124556412D01*
X167664870Y-124556420D01*
X167744058Y-124747596D01*
X167859024Y-124919657D01*
X168005342Y-125065975D01*
X168005345Y-125065977D01*
X168177402Y-125180941D01*
X168368580Y-125260130D01*
X168571530Y-125300499D01*
X168571534Y-125300500D01*
X168571535Y-125300500D01*
X169028466Y-125300500D01*
X169028467Y-125300499D01*
X169231420Y-125260130D01*
X169422598Y-125180941D01*
X169594655Y-125065977D01*
X169740977Y-124919655D01*
X169855941Y-124747598D01*
X169935130Y-124556420D01*
X169975500Y-124353465D01*
X169975500Y-124146535D01*
X169935130Y-123943580D01*
X169855941Y-123752402D01*
X169740977Y-123580345D01*
X169740975Y-123580342D01*
X169594657Y-123434024D01*
X169472986Y-123352727D01*
X169422598Y-123319059D01*
X169231420Y-123239870D01*
X169231412Y-123239868D01*
X169028469Y-123199500D01*
X169028465Y-123199500D01*
X168571535Y-123199500D01*
X168571530Y-123199500D01*
X168368587Y-123239868D01*
X168368579Y-123239870D01*
X168177403Y-123319058D01*
X168005342Y-123434024D01*
X167859024Y-123580342D01*
X167744058Y-123752403D01*
X167664870Y-123943579D01*
X167664868Y-123943587D01*
X167624500Y-124146530D01*
X145690700Y-124146530D01*
X145690700Y-123875833D01*
X145710385Y-123808794D01*
X145727019Y-123788152D01*
X146178352Y-123336819D01*
X146239675Y-123303334D01*
X146266033Y-123300500D01*
X147176456Y-123300500D01*
X147238456Y-123317113D01*
X147244285Y-123320478D01*
X147244287Y-123320480D01*
X147335613Y-123373207D01*
X147437473Y-123400500D01*
X147437475Y-123400500D01*
X147542925Y-123400500D01*
X147542927Y-123400500D01*
X147644787Y-123373207D01*
X147736113Y-123320480D01*
X147810680Y-123245913D01*
X147863407Y-123154587D01*
X147890700Y-123052727D01*
X147890700Y-122947273D01*
X147863407Y-122845413D01*
X147810680Y-122754087D01*
X147736113Y-122679520D01*
X147644787Y-122626793D01*
X147542927Y-122599500D01*
X147437473Y-122599500D01*
X147335613Y-122626793D01*
X147335610Y-122626794D01*
X147276755Y-122660774D01*
X147244287Y-122679520D01*
X147244286Y-122679520D01*
X147238456Y-122682887D01*
X147176456Y-122699500D01*
X146050638Y-122699500D01*
X145974211Y-122719979D01*
X145974209Y-122719980D01*
X145952868Y-122732301D01*
X145952867Y-122732300D01*
X145905695Y-122759535D01*
X145905687Y-122759541D01*
X145149741Y-123515487D01*
X145149735Y-123515495D01*
X145110182Y-123584004D01*
X145110179Y-123584009D01*
X145089700Y-123660439D01*
X145089700Y-125586256D01*
X145073087Y-125648256D01*
X145016994Y-125745410D01*
X145016993Y-125745413D01*
X144989700Y-125847273D01*
X126951187Y-125847273D01*
X126920480Y-125794087D01*
X126845913Y-125719520D01*
X126754587Y-125666793D01*
X126652727Y-125639500D01*
X126547273Y-125639500D01*
X126445413Y-125666793D01*
X126445410Y-125666794D01*
X126354085Y-125719521D01*
X126279521Y-125794085D01*
X126226794Y-125885410D01*
X126226793Y-125885413D01*
X126199500Y-125987273D01*
X97500499Y-125987273D01*
X97500499Y-125322003D01*
X134424770Y-125322003D01*
X134424770Y-125427457D01*
X134452063Y-125529317D01*
X134504790Y-125620643D01*
X134579357Y-125695210D01*
X134670683Y-125747937D01*
X134772543Y-125775230D01*
X134772545Y-125775230D01*
X134877995Y-125775230D01*
X134877997Y-125775230D01*
X134979857Y-125747937D01*
X135071183Y-125695210D01*
X135145750Y-125620643D01*
X135198477Y-125529317D01*
X135225770Y-125427457D01*
X135225770Y-125322003D01*
X135198477Y-125220143D01*
X135145750Y-125128817D01*
X135071183Y-125054250D01*
X134979857Y-125001523D01*
X134877997Y-124974230D01*
X134772543Y-124974230D01*
X134670683Y-125001523D01*
X134670680Y-125001524D01*
X134579355Y-125054251D01*
X134504791Y-125128815D01*
X134452064Y-125220140D01*
X134452063Y-125220143D01*
X134424770Y-125322003D01*
X97500499Y-125322003D01*
X97500499Y-124447273D01*
X112599500Y-124447273D01*
X112599500Y-124552727D01*
X112626793Y-124654587D01*
X112679520Y-124745913D01*
X112754087Y-124820480D01*
X112845413Y-124873207D01*
X112947273Y-124900500D01*
X112947275Y-124900500D01*
X113052725Y-124900500D01*
X113052727Y-124900500D01*
X113154587Y-124873207D01*
X113245913Y-124820480D01*
X113320480Y-124745913D01*
X113373207Y-124654587D01*
X113400500Y-124552727D01*
X113400500Y-124447273D01*
X113373207Y-124345413D01*
X113320480Y-124254087D01*
X113313666Y-124247273D01*
X137259500Y-124247273D01*
X137259500Y-124352727D01*
X137286793Y-124454587D01*
X137339520Y-124545913D01*
X137414087Y-124620480D01*
X137505413Y-124673207D01*
X137607273Y-124700500D01*
X137607275Y-124700500D01*
X137712725Y-124700500D01*
X137712727Y-124700500D01*
X137814587Y-124673207D01*
X137905913Y-124620480D01*
X137980480Y-124545913D01*
X138033207Y-124454587D01*
X138060500Y-124352727D01*
X138060500Y-124247273D01*
X138033207Y-124145413D01*
X137980480Y-124054087D01*
X137905913Y-123979520D01*
X137814587Y-123926793D01*
X137712727Y-123899500D01*
X137607273Y-123899500D01*
X137505413Y-123926793D01*
X137505410Y-123926794D01*
X137414085Y-123979521D01*
X137339521Y-124054085D01*
X137286794Y-124145410D01*
X137286793Y-124145413D01*
X137259500Y-124247273D01*
X113313666Y-124247273D01*
X113245913Y-124179520D01*
X113154587Y-124126793D01*
X113052727Y-124099500D01*
X112947273Y-124099500D01*
X112845413Y-124126793D01*
X112845410Y-124126794D01*
X112754085Y-124179521D01*
X112679521Y-124254085D01*
X112626794Y-124345410D01*
X112626793Y-124345413D01*
X112599500Y-124447273D01*
X97500499Y-124447273D01*
X97500499Y-122758273D01*
X114099500Y-122758273D01*
X114099500Y-122863727D01*
X114126793Y-122965587D01*
X114179520Y-123056913D01*
X114254087Y-123131480D01*
X114345413Y-123184207D01*
X114447273Y-123211500D01*
X114447275Y-123211500D01*
X114552725Y-123211500D01*
X114552727Y-123211500D01*
X114654587Y-123184207D01*
X114745913Y-123131480D01*
X114820480Y-123056913D01*
X114873207Y-122965587D01*
X114900500Y-122863727D01*
X114900500Y-122758273D01*
X114877128Y-122671046D01*
X114878791Y-122601201D01*
X114917953Y-122543338D01*
X114934892Y-122531576D01*
X114954113Y-122520480D01*
X115028680Y-122445913D01*
X115081407Y-122354587D01*
X115108700Y-122252727D01*
X115108700Y-122147273D01*
X115081407Y-122045413D01*
X115033247Y-121961998D01*
X115016775Y-121894100D01*
X115033247Y-121838001D01*
X115081407Y-121754587D01*
X115108700Y-121652727D01*
X115108700Y-121547273D01*
X115081407Y-121445413D01*
X115033247Y-121361998D01*
X115016775Y-121294100D01*
X115033247Y-121238001D01*
X115081407Y-121154587D01*
X115108700Y-121052727D01*
X115108700Y-120947273D01*
X115081407Y-120845413D01*
X115033247Y-120761997D01*
X115032219Y-120757758D01*
X123909985Y-120757758D01*
X123909985Y-120863212D01*
X123934379Y-120954250D01*
X123937278Y-120965071D01*
X123937279Y-120965074D01*
X123941974Y-120973206D01*
X123990005Y-121056398D01*
X124064572Y-121130965D01*
X124155898Y-121183692D01*
X124257758Y-121210985D01*
X124257760Y-121210985D01*
X124363210Y-121210985D01*
X124363212Y-121210985D01*
X124393415Y-121202892D01*
X124463264Y-121204554D01*
X124521127Y-121243715D01*
X124548632Y-121307943D01*
X124537046Y-121376846D01*
X124532896Y-121384665D01*
X124507974Y-121427831D01*
X124507971Y-121427838D01*
X124480678Y-121529698D01*
X124480678Y-121635152D01*
X124507971Y-121737012D01*
X124560698Y-121828338D01*
X124635265Y-121902905D01*
X124726591Y-121955632D01*
X124828451Y-121982925D01*
X124828453Y-121982925D01*
X124934860Y-121982925D01*
X125001899Y-122002610D01*
X125047654Y-122055414D01*
X125057598Y-122124572D01*
X125042247Y-122168925D01*
X125008595Y-122227211D01*
X125008594Y-122227214D01*
X124981301Y-122329074D01*
X124981301Y-122434528D01*
X124986178Y-122452727D01*
X125008594Y-122536387D01*
X125008595Y-122536390D01*
X125019101Y-122554586D01*
X125061321Y-122627714D01*
X125135888Y-122702281D01*
X125227214Y-122755008D01*
X125329074Y-122782301D01*
X125329076Y-122782301D01*
X125434525Y-122782301D01*
X125434528Y-122782301D01*
X125434530Y-122782300D01*
X125437159Y-122781954D01*
X125439385Y-122782301D01*
X125442655Y-122782301D01*
X125442655Y-122782810D01*
X125506195Y-122792715D01*
X125558453Y-122839092D01*
X125577343Y-122906359D01*
X125556867Y-122973161D01*
X125541034Y-122992573D01*
X125479520Y-123054087D01*
X125426794Y-123145410D01*
X125426793Y-123145413D01*
X125399500Y-123247273D01*
X125399500Y-123352727D01*
X125426295Y-123452726D01*
X125426793Y-123454586D01*
X125426794Y-123454589D01*
X125440922Y-123479059D01*
X125479520Y-123545913D01*
X125554087Y-123620480D01*
X125645413Y-123673207D01*
X125747273Y-123700500D01*
X125747275Y-123700500D01*
X125852725Y-123700500D01*
X125852727Y-123700500D01*
X125954587Y-123673207D01*
X126045913Y-123620480D01*
X126120480Y-123545913D01*
X126173207Y-123454587D01*
X126200500Y-123352727D01*
X126200500Y-123347273D01*
X136259500Y-123347273D01*
X136259500Y-123452727D01*
X136286793Y-123554587D01*
X136339520Y-123645913D01*
X136414087Y-123720480D01*
X136505413Y-123773207D01*
X136607273Y-123800500D01*
X136607275Y-123800500D01*
X136712725Y-123800500D01*
X136712727Y-123800500D01*
X136814587Y-123773207D01*
X136905913Y-123720480D01*
X136980480Y-123645913D01*
X137033207Y-123554587D01*
X137060500Y-123452727D01*
X137060500Y-123347273D01*
X137033207Y-123245413D01*
X136980480Y-123154087D01*
X136905913Y-123079520D01*
X136814587Y-123026793D01*
X136712727Y-122999500D01*
X136607273Y-122999500D01*
X136505413Y-123026793D01*
X136505410Y-123026794D01*
X136414085Y-123079521D01*
X136339521Y-123154085D01*
X136286794Y-123245410D01*
X136286793Y-123245413D01*
X136259500Y-123347273D01*
X126200500Y-123347273D01*
X126200500Y-123247273D01*
X126173207Y-123145413D01*
X126120480Y-123054087D01*
X126045913Y-122979520D01*
X125954587Y-122926793D01*
X125852727Y-122899500D01*
X125747273Y-122899500D01*
X125744629Y-122899848D01*
X125742398Y-122899500D01*
X125739146Y-122899500D01*
X125739146Y-122898992D01*
X125675594Y-122889079D01*
X125623340Y-122842697D01*
X125604457Y-122775428D01*
X125624940Y-122708628D01*
X125640758Y-122689236D01*
X125702281Y-122627714D01*
X125755008Y-122536388D01*
X125782301Y-122434528D01*
X125782301Y-122347273D01*
X138659500Y-122347273D01*
X138659500Y-122452727D01*
X138686793Y-122554587D01*
X138739520Y-122645913D01*
X138814087Y-122720480D01*
X138905413Y-122773207D01*
X139007273Y-122800500D01*
X139007275Y-122800500D01*
X139112725Y-122800500D01*
X139112727Y-122800500D01*
X139214587Y-122773207D01*
X139305913Y-122720480D01*
X139380480Y-122645913D01*
X139433207Y-122554587D01*
X139460500Y-122452727D01*
X139460500Y-122347273D01*
X139433207Y-122245413D01*
X139380480Y-122154087D01*
X139305913Y-122079520D01*
X139214587Y-122026793D01*
X139112727Y-121999500D01*
X139007273Y-121999500D01*
X138905413Y-122026793D01*
X138905410Y-122026794D01*
X138814085Y-122079521D01*
X138739521Y-122154085D01*
X138686794Y-122245410D01*
X138686793Y-122245413D01*
X138659500Y-122347273D01*
X125782301Y-122347273D01*
X125782301Y-122329074D01*
X125755008Y-122227214D01*
X125702281Y-122135888D01*
X125627714Y-122061321D01*
X125536388Y-122008594D01*
X125434528Y-121981301D01*
X125329074Y-121981301D01*
X125328119Y-121981301D01*
X125261080Y-121961616D01*
X125215325Y-121908812D01*
X125205381Y-121839654D01*
X125220732Y-121795301D01*
X125224667Y-121788483D01*
X125254385Y-121737012D01*
X125281678Y-121635152D01*
X125281678Y-121529698D01*
X125254385Y-121427838D01*
X125201658Y-121336512D01*
X125127091Y-121261945D01*
X125057909Y-121222003D01*
X136824770Y-121222003D01*
X136824770Y-121327457D01*
X136852063Y-121429317D01*
X136904790Y-121520643D01*
X136979357Y-121595210D01*
X137070683Y-121647937D01*
X137172543Y-121675230D01*
X137172545Y-121675230D01*
X137277995Y-121675230D01*
X137277997Y-121675230D01*
X137379857Y-121647937D01*
X137382294Y-121646530D01*
X167624500Y-121646530D01*
X167624500Y-121853469D01*
X167664868Y-122056412D01*
X167664870Y-122056420D01*
X167735615Y-122227214D01*
X167744059Y-122247598D01*
X167747486Y-122252727D01*
X167859024Y-122419657D01*
X168005342Y-122565975D01*
X168005345Y-122565977D01*
X168177402Y-122680941D01*
X168368580Y-122760130D01*
X168532397Y-122792715D01*
X168571530Y-122800499D01*
X168571534Y-122800500D01*
X168571535Y-122800500D01*
X169028466Y-122800500D01*
X169028467Y-122800499D01*
X169231420Y-122760130D01*
X169422598Y-122680941D01*
X169594655Y-122565977D01*
X169740977Y-122419655D01*
X169855941Y-122247598D01*
X169935130Y-122056420D01*
X169975500Y-121853465D01*
X169975500Y-121646535D01*
X169935130Y-121443580D01*
X169855941Y-121252402D01*
X169740977Y-121080345D01*
X169740975Y-121080342D01*
X169594657Y-120934024D01*
X169488678Y-120863212D01*
X169422598Y-120819059D01*
X169404670Y-120811633D01*
X169231420Y-120739870D01*
X169231412Y-120739868D01*
X169028469Y-120699500D01*
X169028465Y-120699500D01*
X168571535Y-120699500D01*
X168571530Y-120699500D01*
X168368587Y-120739868D01*
X168368579Y-120739870D01*
X168177403Y-120819058D01*
X168005342Y-120934024D01*
X167859024Y-121080342D01*
X167744058Y-121252403D01*
X167664870Y-121443579D01*
X167664868Y-121443587D01*
X167624500Y-121646530D01*
X137382294Y-121646530D01*
X137471183Y-121595210D01*
X137545750Y-121520643D01*
X137598477Y-121429317D01*
X137625770Y-121327457D01*
X137625770Y-121222003D01*
X137598477Y-121120143D01*
X137545750Y-121028817D01*
X137471183Y-120954250D01*
X137379857Y-120901523D01*
X137277997Y-120874230D01*
X137172543Y-120874230D01*
X137070683Y-120901523D01*
X137070680Y-120901524D01*
X136979355Y-120954251D01*
X136904791Y-121028815D01*
X136852064Y-121120140D01*
X136852063Y-121120143D01*
X136824770Y-121222003D01*
X125057909Y-121222003D01*
X125035765Y-121209218D01*
X124933905Y-121181925D01*
X124828451Y-121181925D01*
X124828446Y-121181925D01*
X124798244Y-121190018D01*
X124728394Y-121188354D01*
X124670533Y-121149191D01*
X124643030Y-121084962D01*
X124654618Y-121016060D01*
X124658750Y-121008271D01*
X124683692Y-120965072D01*
X124710985Y-120863212D01*
X124710985Y-120757758D01*
X124683692Y-120655898D01*
X124630965Y-120564572D01*
X124613666Y-120547273D01*
X137699500Y-120547273D01*
X137699500Y-120652727D01*
X137726793Y-120754587D01*
X137779520Y-120845913D01*
X137854087Y-120920480D01*
X137945413Y-120973207D01*
X138047273Y-121000500D01*
X138047275Y-121000500D01*
X138152725Y-121000500D01*
X138152727Y-121000500D01*
X138254587Y-120973207D01*
X138345913Y-120920480D01*
X138420480Y-120845913D01*
X138473207Y-120754587D01*
X138500500Y-120652727D01*
X138500500Y-120547273D01*
X138473207Y-120445413D01*
X138420480Y-120354087D01*
X138345913Y-120279520D01*
X138254587Y-120226793D01*
X138152727Y-120199500D01*
X138047273Y-120199500D01*
X137945413Y-120226793D01*
X137945410Y-120226794D01*
X137854085Y-120279521D01*
X137779521Y-120354085D01*
X137726794Y-120445410D01*
X137726793Y-120445413D01*
X137699500Y-120547273D01*
X124613666Y-120547273D01*
X124556398Y-120490005D01*
X124465072Y-120437278D01*
X124363212Y-120409985D01*
X124257758Y-120409985D01*
X124155898Y-120437278D01*
X124155895Y-120437279D01*
X124064570Y-120490006D01*
X123990006Y-120564570D01*
X123937279Y-120655895D01*
X123937278Y-120655898D01*
X123909985Y-120757758D01*
X115032219Y-120757758D01*
X115016775Y-120694101D01*
X115033247Y-120638001D01*
X115081407Y-120554587D01*
X115108700Y-120452727D01*
X115108700Y-120347273D01*
X115081407Y-120245413D01*
X115033247Y-120161998D01*
X115016775Y-120094100D01*
X115033247Y-120038001D01*
X115081407Y-119954587D01*
X115108700Y-119852727D01*
X115108700Y-119747273D01*
X115081407Y-119645413D01*
X115033247Y-119561998D01*
X115016775Y-119494100D01*
X115033247Y-119438001D01*
X115081407Y-119354587D01*
X115108700Y-119252727D01*
X115108700Y-119147273D01*
X115081407Y-119045413D01*
X115033247Y-118961998D01*
X115031830Y-118956156D01*
X115027887Y-118951614D01*
X115023687Y-118922593D01*
X115016775Y-118894100D01*
X115018521Y-118886888D01*
X115017881Y-118882464D01*
X115023596Y-118865925D01*
X115027794Y-118848591D01*
X115030263Y-118843169D01*
X115081407Y-118754587D01*
X115083367Y-118747273D01*
X120299500Y-118747273D01*
X120299500Y-118852727D01*
X120325997Y-118951614D01*
X120326793Y-118954586D01*
X120326794Y-118954589D01*
X120346084Y-118988000D01*
X120362557Y-119055900D01*
X120346084Y-119112000D01*
X120326794Y-119145410D01*
X120326793Y-119145413D01*
X120299500Y-119247273D01*
X120299500Y-119352727D01*
X120326793Y-119454587D01*
X120379520Y-119545913D01*
X120454087Y-119620480D01*
X120545413Y-119673207D01*
X120647273Y-119700500D01*
X120647275Y-119700500D01*
X120752725Y-119700500D01*
X120752727Y-119700500D01*
X120854587Y-119673207D01*
X120888001Y-119653915D01*
X120955898Y-119637442D01*
X121011997Y-119653914D01*
X121045413Y-119673207D01*
X121147273Y-119700500D01*
X121147275Y-119700500D01*
X121252725Y-119700500D01*
X121252727Y-119700500D01*
X121354587Y-119673207D01*
X121388001Y-119653915D01*
X121455898Y-119637442D01*
X121511997Y-119653914D01*
X121545413Y-119673207D01*
X121647273Y-119700500D01*
X121647275Y-119700500D01*
X121752725Y-119700500D01*
X121752727Y-119700500D01*
X121854587Y-119673207D01*
X121888001Y-119653915D01*
X121955898Y-119637442D01*
X122011997Y-119653914D01*
X122045413Y-119673207D01*
X122147273Y-119700500D01*
X122147275Y-119700500D01*
X122252725Y-119700500D01*
X122252727Y-119700500D01*
X122354587Y-119673207D01*
X122388001Y-119653915D01*
X122455898Y-119637442D01*
X122511997Y-119653914D01*
X122545413Y-119673207D01*
X122647273Y-119700500D01*
X122647275Y-119700500D01*
X122752725Y-119700500D01*
X122752727Y-119700500D01*
X122854587Y-119673207D01*
X122888001Y-119653915D01*
X122955898Y-119637442D01*
X123011997Y-119653914D01*
X123045413Y-119673207D01*
X123147273Y-119700500D01*
X123147275Y-119700500D01*
X123252725Y-119700500D01*
X123252727Y-119700500D01*
X123354587Y-119673207D01*
X123388001Y-119653915D01*
X123455898Y-119637442D01*
X123511997Y-119653914D01*
X123545413Y-119673207D01*
X123647273Y-119700500D01*
X123647275Y-119700500D01*
X123752725Y-119700500D01*
X123752727Y-119700500D01*
X123854587Y-119673207D01*
X123888001Y-119653915D01*
X123955898Y-119637442D01*
X124011997Y-119653914D01*
X124045413Y-119673207D01*
X124147273Y-119700500D01*
X124147275Y-119700500D01*
X124252725Y-119700500D01*
X124252727Y-119700500D01*
X124354587Y-119673207D01*
X124388001Y-119653915D01*
X124455898Y-119637442D01*
X124511997Y-119653914D01*
X124545413Y-119673207D01*
X124647273Y-119700500D01*
X124647275Y-119700500D01*
X124752725Y-119700500D01*
X124752727Y-119700500D01*
X124854587Y-119673207D01*
X124888001Y-119653915D01*
X124955898Y-119637442D01*
X124993595Y-119645218D01*
X125003149Y-119648806D01*
X125045413Y-119673207D01*
X125124672Y-119694444D01*
X125130330Y-119696569D01*
X125153610Y-119714078D01*
X125178489Y-119729243D01*
X125181204Y-119734833D01*
X125186169Y-119738567D01*
X125196287Y-119765883D01*
X125209018Y-119792090D01*
X125209673Y-119796460D01*
X125210498Y-119802724D01*
X125210499Y-119802727D01*
X125210499Y-119802729D01*
X125237792Y-119904589D01*
X125290519Y-119995915D01*
X125365086Y-120070482D01*
X125456412Y-120123209D01*
X125558272Y-120150502D01*
X125558274Y-120150502D01*
X125663724Y-120150502D01*
X125663726Y-120150502D01*
X125765586Y-120123209D01*
X125856912Y-120070482D01*
X125931479Y-119995915D01*
X125984206Y-119904589D01*
X126011499Y-119802729D01*
X126011499Y-119697275D01*
X125984206Y-119595415D01*
X125931479Y-119504089D01*
X125856912Y-119429522D01*
X125765588Y-119376796D01*
X125765587Y-119376795D01*
X125692169Y-119357123D01*
X125680926Y-119350270D01*
X125667985Y-119347842D01*
X125651667Y-119332435D01*
X125632508Y-119320757D01*
X125625607Y-119307829D01*
X125617182Y-119299875D01*
X125609720Y-119278069D01*
X125603904Y-119267174D01*
X125600500Y-119253437D01*
X125600500Y-119247273D01*
X125573506Y-119146530D01*
X167624500Y-119146530D01*
X167624500Y-119353469D01*
X167664868Y-119556412D01*
X167664870Y-119556420D01*
X167738771Y-119734833D01*
X167744059Y-119747598D01*
X167780896Y-119802729D01*
X167859024Y-119919657D01*
X168005342Y-120065975D01*
X168005345Y-120065977D01*
X168177402Y-120180941D01*
X168368580Y-120260130D01*
X168571530Y-120300499D01*
X168571534Y-120300500D01*
X168571535Y-120300500D01*
X169028466Y-120300500D01*
X169028467Y-120300499D01*
X169231420Y-120260130D01*
X169422598Y-120180941D01*
X169594655Y-120065977D01*
X169740977Y-119919655D01*
X169855941Y-119747598D01*
X169935130Y-119556420D01*
X169975500Y-119353465D01*
X169975500Y-119146535D01*
X169935130Y-118943580D01*
X169855941Y-118752402D01*
X169740977Y-118580345D01*
X169740975Y-118580342D01*
X169594657Y-118434024D01*
X169475021Y-118354087D01*
X169422598Y-118319059D01*
X169407311Y-118312727D01*
X169231420Y-118239870D01*
X169231412Y-118239868D01*
X169028469Y-118199500D01*
X169028465Y-118199500D01*
X168571535Y-118199500D01*
X168571530Y-118199500D01*
X168368587Y-118239868D01*
X168368579Y-118239870D01*
X168177403Y-118319058D01*
X168005342Y-118434024D01*
X167859024Y-118580342D01*
X167744058Y-118752403D01*
X167664870Y-118943579D01*
X167664868Y-118943587D01*
X167624500Y-119146530D01*
X125573506Y-119146530D01*
X125573207Y-119145413D01*
X125553915Y-119111998D01*
X125537442Y-119044102D01*
X125553914Y-118988002D01*
X125573207Y-118954587D01*
X125600500Y-118852727D01*
X125600500Y-118784500D01*
X125620185Y-118717461D01*
X125672989Y-118671706D01*
X125724500Y-118660500D01*
X125752725Y-118660500D01*
X125752727Y-118660500D01*
X125854587Y-118633207D01*
X125945913Y-118580480D01*
X126020480Y-118505913D01*
X126073207Y-118414587D01*
X126100500Y-118312727D01*
X126100500Y-118207273D01*
X126073207Y-118105413D01*
X126020480Y-118014087D01*
X125945913Y-117939520D01*
X125854587Y-117886793D01*
X125752727Y-117859500D01*
X125647273Y-117859500D01*
X125545413Y-117886793D01*
X125545410Y-117886794D01*
X125454085Y-117939521D01*
X125379521Y-118014085D01*
X125326794Y-118105410D01*
X125326793Y-118105413D01*
X125299500Y-118207273D01*
X125299500Y-118275500D01*
X125279815Y-118342539D01*
X125227011Y-118388294D01*
X125208962Y-118394900D01*
X125192548Y-118399500D01*
X125147273Y-118399500D01*
X125045413Y-118426793D01*
X124998485Y-118453886D01*
X124983462Y-118458097D01*
X124963501Y-118457850D01*
X124944100Y-118462557D01*
X124926512Y-118457392D01*
X124913598Y-118457233D01*
X124903689Y-118450691D01*
X124888000Y-118446084D01*
X124854589Y-118426794D01*
X124854588Y-118426793D01*
X124854587Y-118426793D01*
X124752727Y-118399500D01*
X124647273Y-118399500D01*
X124545413Y-118426793D01*
X124545410Y-118426794D01*
X124512000Y-118446084D01*
X124444100Y-118462557D01*
X124388000Y-118446084D01*
X124354589Y-118426794D01*
X124354588Y-118426793D01*
X124354587Y-118426793D01*
X124252727Y-118399500D01*
X124147273Y-118399500D01*
X124045413Y-118426793D01*
X124045410Y-118426794D01*
X124012000Y-118446084D01*
X123944100Y-118462557D01*
X123888000Y-118446084D01*
X123854589Y-118426794D01*
X123854588Y-118426793D01*
X123854587Y-118426793D01*
X123752727Y-118399500D01*
X123647273Y-118399500D01*
X123545413Y-118426793D01*
X123545410Y-118426794D01*
X123512000Y-118446084D01*
X123444100Y-118462557D01*
X123388000Y-118446084D01*
X123354589Y-118426794D01*
X123354588Y-118426793D01*
X123354587Y-118426793D01*
X123252727Y-118399500D01*
X123147273Y-118399500D01*
X123045413Y-118426793D01*
X123045410Y-118426794D01*
X123012000Y-118446084D01*
X122944100Y-118462557D01*
X122888000Y-118446084D01*
X122854589Y-118426794D01*
X122854588Y-118426793D01*
X122854587Y-118426793D01*
X122752727Y-118399500D01*
X122647273Y-118399500D01*
X122545413Y-118426793D01*
X122545410Y-118426794D01*
X122512000Y-118446084D01*
X122444100Y-118462557D01*
X122388000Y-118446084D01*
X122354589Y-118426794D01*
X122354588Y-118426793D01*
X122354587Y-118426793D01*
X122252727Y-118399500D01*
X122147273Y-118399500D01*
X122045413Y-118426793D01*
X122045410Y-118426794D01*
X122012000Y-118446084D01*
X121944100Y-118462557D01*
X121888000Y-118446084D01*
X121854589Y-118426794D01*
X121854588Y-118426793D01*
X121854587Y-118426793D01*
X121752727Y-118399500D01*
X121647273Y-118399500D01*
X121545413Y-118426793D01*
X121545410Y-118426794D01*
X121512000Y-118446084D01*
X121444100Y-118462557D01*
X121388000Y-118446084D01*
X121354589Y-118426794D01*
X121354588Y-118426793D01*
X121354587Y-118426793D01*
X121252727Y-118399500D01*
X121147273Y-118399500D01*
X121045413Y-118426793D01*
X121045410Y-118426794D01*
X121012000Y-118446084D01*
X120944100Y-118462557D01*
X120888000Y-118446084D01*
X120854589Y-118426794D01*
X120854588Y-118426793D01*
X120854587Y-118426793D01*
X120752727Y-118399500D01*
X120647273Y-118399500D01*
X120545413Y-118426793D01*
X120545410Y-118426794D01*
X120454085Y-118479521D01*
X120379521Y-118554085D01*
X120326794Y-118645410D01*
X120326793Y-118645413D01*
X120299500Y-118747273D01*
X115083367Y-118747273D01*
X115108700Y-118652727D01*
X115108700Y-118547273D01*
X115081407Y-118445413D01*
X115033247Y-118361998D01*
X115016775Y-118294100D01*
X115033247Y-118238001D01*
X115081407Y-118154587D01*
X115108700Y-118052727D01*
X115108700Y-117947273D01*
X115081407Y-117845413D01*
X115033247Y-117761998D01*
X115016775Y-117694100D01*
X115033247Y-117638001D01*
X115081407Y-117554587D01*
X115108700Y-117452727D01*
X115108700Y-117347273D01*
X115081407Y-117245413D01*
X115033247Y-117161998D01*
X115032286Y-117158035D01*
X115029518Y-117155037D01*
X115024117Y-117124363D01*
X115016775Y-117094100D01*
X115017906Y-117089092D01*
X115017402Y-117086226D01*
X115021093Y-117074990D01*
X115026275Y-117052065D01*
X115029313Y-117044815D01*
X115081407Y-116954587D01*
X115093751Y-116908519D01*
X124099500Y-116908519D01*
X124099500Y-117013973D01*
X124126793Y-117115833D01*
X124179520Y-117207159D01*
X124254087Y-117281726D01*
X124345413Y-117334453D01*
X124447273Y-117361746D01*
X124447275Y-117361746D01*
X124552725Y-117361746D01*
X124552727Y-117361746D01*
X124654587Y-117334453D01*
X124745913Y-117281726D01*
X124820480Y-117207159D01*
X124873207Y-117115833D01*
X124900500Y-117013973D01*
X124900500Y-116908519D01*
X124877586Y-116823002D01*
X124879249Y-116753155D01*
X124918411Y-116695292D01*
X124982640Y-116667788D01*
X125051542Y-116679374D01*
X125059329Y-116683506D01*
X125145413Y-116733207D01*
X125247273Y-116760500D01*
X125247275Y-116760500D01*
X125352725Y-116760500D01*
X125352727Y-116760500D01*
X125454587Y-116733207D01*
X125545913Y-116680480D01*
X125620480Y-116605913D01*
X125673207Y-116514587D01*
X125700500Y-116412727D01*
X125700500Y-116387273D01*
X138949500Y-116387273D01*
X138949500Y-116492727D01*
X138976793Y-116594587D01*
X139029520Y-116685913D01*
X139104087Y-116760480D01*
X139195413Y-116813207D01*
X139297273Y-116840500D01*
X139297275Y-116840500D01*
X139402725Y-116840500D01*
X139402727Y-116840500D01*
X139504587Y-116813207D01*
X139561364Y-116780427D01*
X139985082Y-116780427D01*
X139985082Y-116885881D01*
X140012375Y-116987741D01*
X140062748Y-117074990D01*
X140065103Y-117079068D01*
X140128845Y-117142810D01*
X140162330Y-117204133D01*
X140160940Y-117262581D01*
X140155811Y-117281724D01*
X140149500Y-117305279D01*
X140149500Y-117410733D01*
X140158927Y-117445913D01*
X140176793Y-117512592D01*
X140176794Y-117512595D01*
X140190922Y-117537065D01*
X140229520Y-117603919D01*
X140304087Y-117678486D01*
X140395413Y-117731213D01*
X140497273Y-117758506D01*
X140497275Y-117758506D01*
X140602725Y-117758506D01*
X140602727Y-117758506D01*
X140704587Y-117731213D01*
X140795913Y-117678486D01*
X140870480Y-117603919D01*
X140923207Y-117512593D01*
X140950500Y-117410733D01*
X140950500Y-117305279D01*
X140923207Y-117203419D01*
X140870480Y-117112093D01*
X140806736Y-117048349D01*
X140773251Y-116987026D01*
X140774642Y-116928575D01*
X140786082Y-116885881D01*
X140786082Y-116780427D01*
X140758789Y-116678567D01*
X140706062Y-116587241D01*
X140631495Y-116512674D01*
X140540169Y-116459947D01*
X140492868Y-116447273D01*
X149699500Y-116447273D01*
X149699500Y-116552727D01*
X149726793Y-116654587D01*
X149779520Y-116745913D01*
X149854087Y-116820480D01*
X149898629Y-116846196D01*
X149946843Y-116896762D01*
X149960067Y-116965369D01*
X149944016Y-117015580D01*
X149926795Y-117045408D01*
X149926793Y-117045413D01*
X149899500Y-117147273D01*
X149899500Y-117252727D01*
X149926793Y-117354587D01*
X149979520Y-117445913D01*
X150054087Y-117520480D01*
X150145413Y-117573207D01*
X150247273Y-117600500D01*
X150247275Y-117600500D01*
X150352725Y-117600500D01*
X150352727Y-117600500D01*
X150454587Y-117573207D01*
X150545913Y-117520480D01*
X150620480Y-117445913D01*
X150673207Y-117354587D01*
X150700500Y-117252727D01*
X150700500Y-117147273D01*
X150673207Y-117045413D01*
X150620480Y-116954087D01*
X150545913Y-116879520D01*
X150501370Y-116853803D01*
X150453155Y-116803237D01*
X150439933Y-116734630D01*
X150448094Y-116700730D01*
X150451438Y-116692291D01*
X150473207Y-116654587D01*
X150475366Y-116646530D01*
X167624500Y-116646530D01*
X167624500Y-116853469D01*
X167664868Y-117056412D01*
X167664870Y-117056420D01*
X167727308Y-117207159D01*
X167744059Y-117247598D01*
X167782600Y-117305279D01*
X167859024Y-117419657D01*
X168005342Y-117565975D01*
X168005345Y-117565977D01*
X168177402Y-117680941D01*
X168368580Y-117760130D01*
X168571530Y-117800499D01*
X168571534Y-117800500D01*
X168571535Y-117800500D01*
X169028466Y-117800500D01*
X169028467Y-117800499D01*
X169231420Y-117760130D01*
X169422598Y-117680941D01*
X169594655Y-117565977D01*
X169740977Y-117419655D01*
X169855941Y-117247598D01*
X169935130Y-117056420D01*
X169975500Y-116853465D01*
X169975500Y-116646535D01*
X169935130Y-116443580D01*
X169855941Y-116252402D01*
X169740977Y-116080345D01*
X169740975Y-116080342D01*
X169594657Y-115934024D01*
X169488334Y-115862982D01*
X169422598Y-115819059D01*
X169418175Y-115817227D01*
X169231420Y-115739870D01*
X169231412Y-115739868D01*
X169028469Y-115699500D01*
X169028465Y-115699500D01*
X168571535Y-115699500D01*
X168571530Y-115699500D01*
X168368587Y-115739868D01*
X168368579Y-115739870D01*
X168177403Y-115819058D01*
X168005342Y-115934024D01*
X167859024Y-116080342D01*
X167744058Y-116252403D01*
X167664870Y-116443579D01*
X167664868Y-116443587D01*
X167624500Y-116646530D01*
X150475366Y-116646530D01*
X150500500Y-116552727D01*
X150500500Y-116447273D01*
X150473207Y-116345413D01*
X150420480Y-116254087D01*
X150345913Y-116179520D01*
X150254587Y-116126793D01*
X150152727Y-116099500D01*
X150047273Y-116099500D01*
X149945413Y-116126793D01*
X149945410Y-116126794D01*
X149854085Y-116179521D01*
X149779521Y-116254085D01*
X149726794Y-116345410D01*
X149726793Y-116345413D01*
X149699500Y-116447273D01*
X140492868Y-116447273D01*
X140438309Y-116432654D01*
X140332855Y-116432654D01*
X140230995Y-116459947D01*
X140230992Y-116459948D01*
X140139667Y-116512675D01*
X140065103Y-116587239D01*
X140012376Y-116678564D01*
X140012375Y-116678567D01*
X139985082Y-116780427D01*
X139561364Y-116780427D01*
X139595913Y-116760480D01*
X139670480Y-116685913D01*
X139723207Y-116594587D01*
X139750500Y-116492727D01*
X139750500Y-116387273D01*
X139735153Y-116329996D01*
X139736816Y-116260151D01*
X139767243Y-116210230D01*
X139831561Y-116145913D01*
X139884288Y-116054587D01*
X139911581Y-115952727D01*
X139911581Y-115930021D01*
X139931266Y-115862982D01*
X139984070Y-115817227D01*
X139988127Y-115815460D01*
X139993559Y-115813209D01*
X139993567Y-115813207D01*
X140084893Y-115760480D01*
X140159460Y-115685913D01*
X140212187Y-115594587D01*
X140239480Y-115492727D01*
X140239480Y-115387273D01*
X140212187Y-115285413D01*
X140159460Y-115194087D01*
X140084893Y-115119520D01*
X139993567Y-115066793D01*
X139993566Y-115066792D01*
X139986528Y-115062729D01*
X139987228Y-115061516D01*
X139939594Y-115023126D01*
X139917533Y-114956830D01*
X139917454Y-114952411D01*
X139917454Y-114927275D01*
X139917454Y-114927273D01*
X139890161Y-114825413D01*
X139837434Y-114734087D01*
X139762867Y-114659520D01*
X139671541Y-114606793D01*
X139569681Y-114579500D01*
X139464227Y-114579500D01*
X139362367Y-114606793D01*
X139362364Y-114606794D01*
X139271039Y-114659521D01*
X139196475Y-114734085D01*
X139143748Y-114825410D01*
X139143747Y-114825413D01*
X139116454Y-114927273D01*
X139116454Y-115032727D01*
X139143747Y-115134587D01*
X139196474Y-115225913D01*
X139271041Y-115300480D01*
X139323760Y-115330917D01*
X139371976Y-115381484D01*
X139385198Y-115450091D01*
X139359230Y-115514956D01*
X139323762Y-115545690D01*
X139265166Y-115579521D01*
X139190602Y-115654085D01*
X139137875Y-115745410D01*
X139137874Y-115745413D01*
X139110581Y-115847273D01*
X139110581Y-115952727D01*
X139112396Y-115959500D01*
X139125927Y-116009999D01*
X139124264Y-116079849D01*
X139093834Y-116129773D01*
X139029520Y-116194087D01*
X138976794Y-116285410D01*
X138976793Y-116285413D01*
X138949500Y-116387273D01*
X125700500Y-116387273D01*
X125700500Y-116307273D01*
X125673207Y-116205413D01*
X125620480Y-116114087D01*
X125545913Y-116039520D01*
X125454587Y-115986793D01*
X125352727Y-115959500D01*
X125247273Y-115959500D01*
X125145413Y-115986793D01*
X125145410Y-115986794D01*
X125054085Y-116039521D01*
X124979521Y-116114085D01*
X124926794Y-116205410D01*
X124926793Y-116205413D01*
X124899500Y-116307273D01*
X124899500Y-116412727D01*
X124908757Y-116447275D01*
X124922413Y-116498241D01*
X124920750Y-116568091D01*
X124881587Y-116625953D01*
X124817358Y-116653457D01*
X124748456Y-116641870D01*
X124740649Y-116637726D01*
X124665932Y-116594589D01*
X124654589Y-116588040D01*
X124654588Y-116588039D01*
X124654587Y-116588039D01*
X124552727Y-116560746D01*
X124447273Y-116560746D01*
X124345413Y-116588039D01*
X124345410Y-116588040D01*
X124254085Y-116640767D01*
X124179521Y-116715331D01*
X124126794Y-116806656D01*
X124126793Y-116806659D01*
X124099500Y-116908519D01*
X115093751Y-116908519D01*
X115108700Y-116852727D01*
X115108700Y-116747273D01*
X115081407Y-116645413D01*
X115033247Y-116561998D01*
X115016775Y-116494100D01*
X115033247Y-116438001D01*
X115081407Y-116354587D01*
X115108700Y-116252727D01*
X115108700Y-116147273D01*
X115081407Y-116045413D01*
X115028680Y-115954087D01*
X114954113Y-115879520D01*
X114862787Y-115826793D01*
X114760927Y-115799500D01*
X114655473Y-115799500D01*
X114553613Y-115826793D01*
X114553610Y-115826794D01*
X114462285Y-115879521D01*
X114387721Y-115954085D01*
X114334994Y-116045410D01*
X114334993Y-116045413D01*
X114307700Y-116147273D01*
X114307700Y-116252727D01*
X114328406Y-116330001D01*
X114334993Y-116354586D01*
X114334994Y-116354589D01*
X114383151Y-116438000D01*
X114399624Y-116505901D01*
X114383151Y-116562000D01*
X114334994Y-116645410D01*
X114334993Y-116645413D01*
X114307700Y-116747273D01*
X114307700Y-116852727D01*
X114334859Y-116954085D01*
X114334993Y-116954586D01*
X114334994Y-116954589D01*
X114383151Y-117038000D01*
X114399624Y-117105901D01*
X114383151Y-117162000D01*
X114334994Y-117245410D01*
X114334993Y-117245413D01*
X114307700Y-117347273D01*
X114307700Y-117452727D01*
X114323742Y-117512595D01*
X114334993Y-117554586D01*
X114334994Y-117554589D01*
X114383151Y-117638000D01*
X114399624Y-117705901D01*
X114383151Y-117762000D01*
X114334994Y-117845410D01*
X114334993Y-117845413D01*
X114307700Y-117947273D01*
X114307700Y-118052726D01*
X114334993Y-118154586D01*
X114334994Y-118154589D01*
X114383151Y-118238000D01*
X114399624Y-118305901D01*
X114383151Y-118362000D01*
X114334994Y-118445410D01*
X114334993Y-118445413D01*
X114307700Y-118547273D01*
X114307700Y-118652727D01*
X114333034Y-118747273D01*
X114334993Y-118754586D01*
X114334994Y-118754589D01*
X114383151Y-118838000D01*
X114399624Y-118905901D01*
X114383151Y-118962000D01*
X114334994Y-119045410D01*
X114334993Y-119045413D01*
X114307700Y-119147273D01*
X114307700Y-119252727D01*
X114334694Y-119353469D01*
X114334993Y-119354586D01*
X114334994Y-119354589D01*
X114383151Y-119438000D01*
X114399624Y-119505901D01*
X114383151Y-119562000D01*
X114334994Y-119645410D01*
X114334993Y-119645413D01*
X114307700Y-119747273D01*
X114307700Y-119852726D01*
X114334993Y-119954586D01*
X114334994Y-119954589D01*
X114383151Y-120038000D01*
X114399624Y-120105901D01*
X114383151Y-120162000D01*
X114334994Y-120245410D01*
X114334993Y-120245413D01*
X114307700Y-120347273D01*
X114307700Y-120452727D01*
X114333034Y-120547273D01*
X114334993Y-120554586D01*
X114334994Y-120554589D01*
X114383151Y-120638000D01*
X114399624Y-120705901D01*
X114383151Y-120762000D01*
X114334994Y-120845410D01*
X114334993Y-120845413D01*
X114307700Y-120947273D01*
X114307700Y-121052727D01*
X114316338Y-121084962D01*
X114334993Y-121154586D01*
X114334994Y-121154589D01*
X114383151Y-121238000D01*
X114399624Y-121305901D01*
X114383151Y-121362000D01*
X114334994Y-121445410D01*
X114334993Y-121445413D01*
X114307700Y-121547273D01*
X114307700Y-121652727D01*
X114330285Y-121737014D01*
X114334993Y-121754586D01*
X114334994Y-121754589D01*
X114383151Y-121838000D01*
X114399624Y-121905901D01*
X114383151Y-121962000D01*
X114334994Y-122045410D01*
X114334993Y-122045413D01*
X114307700Y-122147273D01*
X114307700Y-122252727D01*
X114331071Y-122339949D01*
X114329408Y-122409799D01*
X114290245Y-122467661D01*
X114273300Y-122479427D01*
X114254085Y-122490521D01*
X114179521Y-122565085D01*
X114126794Y-122656410D01*
X114126793Y-122656413D01*
X114099500Y-122758273D01*
X97500499Y-122758273D01*
X97500499Y-113357273D01*
X134799500Y-113357273D01*
X134799500Y-113462727D01*
X134816667Y-113526793D01*
X134826793Y-113564586D01*
X134826794Y-113564589D01*
X134835416Y-113579522D01*
X134879520Y-113655913D01*
X134954087Y-113730480D01*
X135037500Y-113778638D01*
X135085716Y-113829205D01*
X135099500Y-113886025D01*
X135099500Y-113952727D01*
X135126793Y-114054587D01*
X135179520Y-114145913D01*
X135254087Y-114220480D01*
X135337500Y-114268638D01*
X135385716Y-114319205D01*
X135399500Y-114376025D01*
X135399500Y-114452727D01*
X135426793Y-114554587D01*
X135479520Y-114645913D01*
X135554087Y-114720480D01*
X135645413Y-114773207D01*
X135747273Y-114800500D01*
X135747275Y-114800500D01*
X135852725Y-114800500D01*
X135852727Y-114800500D01*
X135954587Y-114773207D01*
X136045913Y-114720480D01*
X136120480Y-114645913D01*
X136173207Y-114554587D01*
X136200500Y-114452727D01*
X136200500Y-114347273D01*
X136173207Y-114245413D01*
X136120480Y-114154087D01*
X136112923Y-114146530D01*
X167624500Y-114146530D01*
X167624500Y-114353469D01*
X167664868Y-114556412D01*
X167664870Y-114556420D01*
X167738462Y-114734087D01*
X167744059Y-114747598D01*
X167779406Y-114800499D01*
X167859024Y-114919657D01*
X168005342Y-115065975D01*
X168005345Y-115065977D01*
X168177402Y-115180941D01*
X168368580Y-115260130D01*
X168571424Y-115300478D01*
X168571530Y-115300499D01*
X168571534Y-115300500D01*
X168571535Y-115300500D01*
X169028466Y-115300500D01*
X169028467Y-115300499D01*
X169231420Y-115260130D01*
X169422598Y-115180941D01*
X169594655Y-115065977D01*
X169740977Y-114919655D01*
X169855941Y-114747598D01*
X169935130Y-114556420D01*
X169975500Y-114353465D01*
X169975500Y-114146535D01*
X169935130Y-113943580D01*
X169855941Y-113752402D01*
X169740977Y-113580345D01*
X169740975Y-113580342D01*
X169594657Y-113434024D01*
X169479790Y-113357273D01*
X169422598Y-113319059D01*
X169231420Y-113239870D01*
X169231412Y-113239868D01*
X169028469Y-113199500D01*
X169028465Y-113199500D01*
X168571535Y-113199500D01*
X168571530Y-113199500D01*
X168368587Y-113239868D01*
X168368579Y-113239870D01*
X168177403Y-113319058D01*
X168005342Y-113434024D01*
X167859024Y-113580342D01*
X167744058Y-113752403D01*
X167664870Y-113943579D01*
X167664868Y-113943587D01*
X167624500Y-114146530D01*
X136112923Y-114146530D01*
X136045913Y-114079520D01*
X135962498Y-114031360D01*
X135914284Y-113980793D01*
X135900500Y-113923974D01*
X135900500Y-113847275D01*
X135900500Y-113847273D01*
X135873207Y-113745413D01*
X135820480Y-113654087D01*
X135745913Y-113579520D01*
X135662498Y-113531360D01*
X135614284Y-113480793D01*
X135600500Y-113423974D01*
X135600500Y-113357275D01*
X135600500Y-113357273D01*
X135573207Y-113255413D01*
X135520480Y-113164087D01*
X135445913Y-113089520D01*
X135354587Y-113036793D01*
X135252727Y-113009500D01*
X135147273Y-113009500D01*
X135045413Y-113036793D01*
X135045410Y-113036794D01*
X134954085Y-113089521D01*
X134879521Y-113164085D01*
X134826794Y-113255410D01*
X134826793Y-113255413D01*
X134799500Y-113357273D01*
X97500499Y-113357273D01*
X97500499Y-111646530D01*
X167624500Y-111646530D01*
X167624500Y-111853469D01*
X167664868Y-112056412D01*
X167664870Y-112056420D01*
X167744058Y-112247596D01*
X167859024Y-112419657D01*
X168005342Y-112565975D01*
X168005345Y-112565977D01*
X168177402Y-112680941D01*
X168368580Y-112760130D01*
X168571530Y-112800499D01*
X168571534Y-112800500D01*
X168571535Y-112800500D01*
X169028466Y-112800500D01*
X169028467Y-112800499D01*
X169231420Y-112760130D01*
X169422598Y-112680941D01*
X169594655Y-112565977D01*
X169740977Y-112419655D01*
X169855941Y-112247598D01*
X169935130Y-112056420D01*
X169975500Y-111853465D01*
X169975500Y-111646535D01*
X169935130Y-111443580D01*
X169855941Y-111252402D01*
X169740977Y-111080345D01*
X169740975Y-111080342D01*
X169594657Y-110934024D01*
X169508626Y-110876541D01*
X169422598Y-110819059D01*
X169231420Y-110739870D01*
X169231412Y-110739868D01*
X169028469Y-110699500D01*
X169028465Y-110699500D01*
X168571535Y-110699500D01*
X168571530Y-110699500D01*
X168368587Y-110739868D01*
X168368579Y-110739870D01*
X168177403Y-110819058D01*
X168005342Y-110934024D01*
X167859024Y-111080342D01*
X167744058Y-111252403D01*
X167664870Y-111443579D01*
X167664868Y-111443587D01*
X167624500Y-111646530D01*
X97500499Y-111646530D01*
X97500499Y-109146530D01*
X167624500Y-109146530D01*
X167624500Y-109353469D01*
X167664868Y-109556412D01*
X167664870Y-109556420D01*
X167744058Y-109747596D01*
X167859024Y-109919657D01*
X168005342Y-110065975D01*
X168005345Y-110065977D01*
X168177402Y-110180941D01*
X168368580Y-110260130D01*
X168571530Y-110300499D01*
X168571534Y-110300500D01*
X168571535Y-110300500D01*
X169028466Y-110300500D01*
X169028467Y-110300499D01*
X169231420Y-110260130D01*
X169422598Y-110180941D01*
X169594655Y-110065977D01*
X169740977Y-109919655D01*
X169855941Y-109747598D01*
X169935130Y-109556420D01*
X169975500Y-109353465D01*
X169975500Y-109146535D01*
X169935130Y-108943580D01*
X169855941Y-108752402D01*
X169740977Y-108580345D01*
X169740975Y-108580342D01*
X169594657Y-108434024D01*
X169508626Y-108376541D01*
X169422598Y-108319059D01*
X169231420Y-108239870D01*
X169231412Y-108239868D01*
X169028469Y-108199500D01*
X169028465Y-108199500D01*
X168571535Y-108199500D01*
X168571530Y-108199500D01*
X168368587Y-108239868D01*
X168368579Y-108239870D01*
X168177403Y-108319058D01*
X168005342Y-108434024D01*
X167859024Y-108580342D01*
X167744058Y-108752403D01*
X167664870Y-108943579D01*
X167664868Y-108943587D01*
X167624500Y-109146530D01*
X97500499Y-109146530D01*
X97500499Y-106646530D01*
X167624500Y-106646530D01*
X167624500Y-106853469D01*
X167664868Y-107056412D01*
X167664870Y-107056420D01*
X167744058Y-107247596D01*
X167859024Y-107419657D01*
X168005342Y-107565975D01*
X168005345Y-107565977D01*
X168177402Y-107680941D01*
X168368580Y-107760130D01*
X168571530Y-107800499D01*
X168571534Y-107800500D01*
X168571535Y-107800500D01*
X169028466Y-107800500D01*
X169028467Y-107800499D01*
X169231420Y-107760130D01*
X169422598Y-107680941D01*
X169594655Y-107565977D01*
X169740977Y-107419655D01*
X169855941Y-107247598D01*
X169935130Y-107056420D01*
X169975500Y-106853465D01*
X169975500Y-106646535D01*
X169935130Y-106443580D01*
X169855941Y-106252402D01*
X169740977Y-106080345D01*
X169740975Y-106080342D01*
X169594657Y-105934024D01*
X169508626Y-105876541D01*
X169422598Y-105819059D01*
X169231420Y-105739870D01*
X169231412Y-105739868D01*
X169028469Y-105699500D01*
X169028465Y-105699500D01*
X168571535Y-105699500D01*
X168571530Y-105699500D01*
X168368587Y-105739868D01*
X168368579Y-105739870D01*
X168177403Y-105819058D01*
X168005342Y-105934024D01*
X167859024Y-106080342D01*
X167744058Y-106252403D01*
X167664870Y-106443579D01*
X167664868Y-106443587D01*
X167624500Y-106646530D01*
X97500499Y-106646530D01*
X97500499Y-102563766D01*
X166324500Y-102563766D01*
X166324500Y-102736233D01*
X166358143Y-102905366D01*
X166358146Y-102905378D01*
X166424138Y-103064698D01*
X166424145Y-103064711D01*
X166519954Y-103208098D01*
X166519957Y-103208102D01*
X166641897Y-103330042D01*
X166641901Y-103330045D01*
X166785288Y-103425854D01*
X166785301Y-103425861D01*
X166944621Y-103491853D01*
X166944626Y-103491855D01*
X167069073Y-103516609D01*
X167113766Y-103525499D01*
X167113769Y-103525500D01*
X167113771Y-103525500D01*
X167286231Y-103525500D01*
X167286232Y-103525499D01*
X167455374Y-103491855D01*
X167455386Y-103491849D01*
X167461201Y-103490087D01*
X167461747Y-103491886D01*
X167522495Y-103485345D01*
X167584980Y-103516609D01*
X167620643Y-103576692D01*
X167624500Y-103607379D01*
X167624500Y-104904269D01*
X167627353Y-104934699D01*
X167627353Y-104934701D01*
X167672206Y-105062880D01*
X167672207Y-105062882D01*
X167752850Y-105172150D01*
X167862118Y-105252793D01*
X167904845Y-105267744D01*
X167990299Y-105297646D01*
X168020730Y-105300500D01*
X168020734Y-105300500D01*
X169579270Y-105300500D01*
X169609699Y-105297646D01*
X169609701Y-105297646D01*
X169673790Y-105275219D01*
X169737882Y-105252793D01*
X169847150Y-105172150D01*
X169927793Y-105062882D01*
X169950219Y-104998790D01*
X169972646Y-104934701D01*
X169972646Y-104934699D01*
X169975500Y-104904269D01*
X169975500Y-103595730D01*
X169972646Y-103565300D01*
X169972646Y-103565298D01*
X169927793Y-103437119D01*
X169927792Y-103437117D01*
X169919485Y-103425861D01*
X169847150Y-103327850D01*
X169737882Y-103247207D01*
X169737880Y-103247206D01*
X169609700Y-103202353D01*
X169579270Y-103199500D01*
X169579266Y-103199500D01*
X168105603Y-103199500D01*
X168038564Y-103179815D01*
X167992809Y-103127011D01*
X167982865Y-103057853D01*
X167991042Y-103028047D01*
X168041855Y-102905374D01*
X168075500Y-102736229D01*
X168075500Y-102563771D01*
X168075500Y-102563768D01*
X168075499Y-102563766D01*
X168041856Y-102394633D01*
X168041855Y-102394626D01*
X168041853Y-102394621D01*
X167975861Y-102235301D01*
X167975854Y-102235288D01*
X167880045Y-102091901D01*
X167880042Y-102091897D01*
X167758102Y-101969957D01*
X167758098Y-101969954D01*
X167614711Y-101874145D01*
X167614698Y-101874138D01*
X167455378Y-101808146D01*
X167455366Y-101808143D01*
X167286232Y-101774500D01*
X167286229Y-101774500D01*
X167113771Y-101774500D01*
X167113768Y-101774500D01*
X166944633Y-101808143D01*
X166944621Y-101808146D01*
X166785301Y-101874138D01*
X166785288Y-101874145D01*
X166641901Y-101969954D01*
X166641897Y-101969957D01*
X166519957Y-102091897D01*
X166519954Y-102091901D01*
X166424145Y-102235288D01*
X166424138Y-102235301D01*
X166358146Y-102394621D01*
X166358143Y-102394633D01*
X166324500Y-102563766D01*
X97500499Y-102563766D01*
X97500499Y-97878711D01*
X98149500Y-97878711D01*
X98149500Y-98121288D01*
X98181161Y-98361785D01*
X98243947Y-98596104D01*
X98336771Y-98820200D01*
X98336776Y-98820212D01*
X98458064Y-99030289D01*
X98458066Y-99030292D01*
X98458067Y-99030293D01*
X98605733Y-99222736D01*
X98605739Y-99222743D01*
X98777256Y-99394260D01*
X98777262Y-99394265D01*
X98969711Y-99541936D01*
X99179788Y-99663224D01*
X99403900Y-99756054D01*
X99638211Y-99818838D01*
X99818586Y-99842584D01*
X99878711Y-99850500D01*
X99878712Y-99850500D01*
X100121289Y-99850500D01*
X100169388Y-99844167D01*
X100361789Y-99818838D01*
X100596100Y-99756054D01*
X100820212Y-99663224D01*
X101030289Y-99541936D01*
X101222738Y-99394265D01*
X101394265Y-99222738D01*
X101541936Y-99030289D01*
X101663224Y-98820212D01*
X101665894Y-98813766D01*
X105674500Y-98813766D01*
X105674500Y-98986233D01*
X105708143Y-99155366D01*
X105708146Y-99155378D01*
X105774138Y-99314698D01*
X105774145Y-99314711D01*
X105869954Y-99458098D01*
X105869957Y-99458102D01*
X105991897Y-99580042D01*
X105991901Y-99580045D01*
X106135288Y-99675854D01*
X106135301Y-99675861D01*
X106294621Y-99741853D01*
X106294626Y-99741855D01*
X106463766Y-99775499D01*
X106463769Y-99775500D01*
X106463771Y-99775500D01*
X106636231Y-99775500D01*
X106636232Y-99775499D01*
X106805374Y-99741855D01*
X106964705Y-99675858D01*
X107108099Y-99580045D01*
X107230045Y-99458099D01*
X107325858Y-99314705D01*
X107391855Y-99155374D01*
X107425500Y-98986229D01*
X107425500Y-98813771D01*
X107425499Y-98813766D01*
X133724500Y-98813766D01*
X133724500Y-98986233D01*
X133758143Y-99155366D01*
X133758146Y-99155378D01*
X133824138Y-99314698D01*
X133824145Y-99314711D01*
X133919954Y-99458098D01*
X133919957Y-99458102D01*
X134041897Y-99580042D01*
X134041901Y-99580045D01*
X134185288Y-99675854D01*
X134185301Y-99675861D01*
X134344621Y-99741853D01*
X134344626Y-99741855D01*
X134513766Y-99775499D01*
X134513769Y-99775500D01*
X134513771Y-99775500D01*
X134686231Y-99775500D01*
X134686232Y-99775499D01*
X134855374Y-99741855D01*
X135014705Y-99675858D01*
X135158099Y-99580045D01*
X135280045Y-99458099D01*
X135375858Y-99314705D01*
X135441855Y-99155374D01*
X135475500Y-98986229D01*
X135475500Y-98813771D01*
X135475500Y-98813768D01*
X135475499Y-98813766D01*
X135441856Y-98644633D01*
X135441855Y-98644626D01*
X135441850Y-98644615D01*
X135440087Y-98638799D01*
X135441881Y-98638254D01*
X135435352Y-98577473D01*
X135466632Y-98514997D01*
X135526724Y-98479349D01*
X135557380Y-98475500D01*
X136854270Y-98475500D01*
X136884699Y-98472646D01*
X136884701Y-98472646D01*
X136948790Y-98450219D01*
X137012882Y-98427793D01*
X137122150Y-98347150D01*
X137202793Y-98237882D01*
X137225219Y-98173790D01*
X137247646Y-98109701D01*
X137247646Y-98109699D01*
X137250500Y-98079269D01*
X137250500Y-97071530D01*
X137649500Y-97071530D01*
X137649500Y-97528469D01*
X137689868Y-97731412D01*
X137689870Y-97731420D01*
X137769058Y-97922596D01*
X137884024Y-98094657D01*
X138030342Y-98240975D01*
X138030345Y-98240977D01*
X138202402Y-98355941D01*
X138393580Y-98435130D01*
X138582187Y-98472646D01*
X138596530Y-98475499D01*
X138596534Y-98475500D01*
X138596535Y-98475500D01*
X138803466Y-98475500D01*
X138803467Y-98475499D01*
X139006420Y-98435130D01*
X139197598Y-98355941D01*
X139369655Y-98240977D01*
X139515977Y-98094655D01*
X139630941Y-97922598D01*
X139710130Y-97731420D01*
X139750500Y-97528465D01*
X139750500Y-97071535D01*
X139750499Y-97071530D01*
X140149500Y-97071530D01*
X140149500Y-97528469D01*
X140189868Y-97731412D01*
X140189870Y-97731420D01*
X140269058Y-97922596D01*
X140384024Y-98094657D01*
X140530342Y-98240975D01*
X140530345Y-98240977D01*
X140702402Y-98355941D01*
X140893580Y-98435130D01*
X141082187Y-98472646D01*
X141096530Y-98475499D01*
X141096534Y-98475500D01*
X141096535Y-98475500D01*
X141303466Y-98475500D01*
X141303467Y-98475499D01*
X141506420Y-98435130D01*
X141697598Y-98355941D01*
X141869655Y-98240977D01*
X142015977Y-98094655D01*
X142130941Y-97922598D01*
X142210130Y-97731420D01*
X142250500Y-97528465D01*
X142250500Y-97071535D01*
X142250499Y-97071530D01*
X142649500Y-97071530D01*
X142649500Y-97528469D01*
X142689868Y-97731412D01*
X142689870Y-97731420D01*
X142769058Y-97922596D01*
X142884024Y-98094657D01*
X143030342Y-98240975D01*
X143030345Y-98240977D01*
X143202402Y-98355941D01*
X143393580Y-98435130D01*
X143582187Y-98472646D01*
X143596530Y-98475499D01*
X143596534Y-98475500D01*
X143596535Y-98475500D01*
X143803466Y-98475500D01*
X143803467Y-98475499D01*
X144006420Y-98435130D01*
X144197598Y-98355941D01*
X144369655Y-98240977D01*
X144515977Y-98094655D01*
X144630941Y-97922598D01*
X144710130Y-97731420D01*
X144750500Y-97528465D01*
X144750500Y-97071535D01*
X144750499Y-97071530D01*
X145149500Y-97071530D01*
X145149500Y-97528469D01*
X145189868Y-97731412D01*
X145189870Y-97731420D01*
X145269058Y-97922596D01*
X145384024Y-98094657D01*
X145530342Y-98240975D01*
X145530345Y-98240977D01*
X145702402Y-98355941D01*
X145893580Y-98435130D01*
X146082187Y-98472646D01*
X146096530Y-98475499D01*
X146096534Y-98475500D01*
X146096535Y-98475500D01*
X146303466Y-98475500D01*
X146303467Y-98475499D01*
X146506420Y-98435130D01*
X146697598Y-98355941D01*
X146869655Y-98240977D01*
X147015977Y-98094655D01*
X147130941Y-97922598D01*
X147210130Y-97731420D01*
X147250500Y-97528465D01*
X147250500Y-97071535D01*
X147250499Y-97071530D01*
X147649500Y-97071530D01*
X147649500Y-97528469D01*
X147689868Y-97731412D01*
X147689870Y-97731420D01*
X147769058Y-97922596D01*
X147884024Y-98094657D01*
X148030342Y-98240975D01*
X148030345Y-98240977D01*
X148202402Y-98355941D01*
X148393580Y-98435130D01*
X148582187Y-98472646D01*
X148596530Y-98475499D01*
X148596534Y-98475500D01*
X148596535Y-98475500D01*
X148803466Y-98475500D01*
X148803467Y-98475499D01*
X149006420Y-98435130D01*
X149197598Y-98355941D01*
X149369655Y-98240977D01*
X149515977Y-98094655D01*
X149630941Y-97922598D01*
X149710130Y-97731420D01*
X149750500Y-97528465D01*
X149750500Y-97071535D01*
X149750499Y-97071530D01*
X150149500Y-97071530D01*
X150149500Y-97528469D01*
X150189868Y-97731412D01*
X150189870Y-97731420D01*
X150269058Y-97922596D01*
X150384024Y-98094657D01*
X150530342Y-98240975D01*
X150530345Y-98240977D01*
X150702402Y-98355941D01*
X150893580Y-98435130D01*
X151082187Y-98472646D01*
X151096530Y-98475499D01*
X151096534Y-98475500D01*
X151096535Y-98475500D01*
X151303466Y-98475500D01*
X151303467Y-98475499D01*
X151506420Y-98435130D01*
X151697598Y-98355941D01*
X151869655Y-98240977D01*
X152015977Y-98094655D01*
X152130941Y-97922598D01*
X152210130Y-97731420D01*
X152250500Y-97528465D01*
X152250500Y-97071535D01*
X152250499Y-97071530D01*
X152649500Y-97071530D01*
X152649500Y-97528469D01*
X152689868Y-97731412D01*
X152689870Y-97731420D01*
X152769058Y-97922596D01*
X152884024Y-98094657D01*
X153030342Y-98240975D01*
X153030345Y-98240977D01*
X153202402Y-98355941D01*
X153393580Y-98435130D01*
X153582187Y-98472646D01*
X153596530Y-98475499D01*
X153596534Y-98475500D01*
X153596535Y-98475500D01*
X153803466Y-98475500D01*
X153803467Y-98475499D01*
X154006420Y-98435130D01*
X154197598Y-98355941D01*
X154369655Y-98240977D01*
X154515977Y-98094655D01*
X154630941Y-97922598D01*
X154710130Y-97731420D01*
X154750500Y-97528465D01*
X154750500Y-97130247D01*
X163349500Y-97130247D01*
X163349500Y-98869752D01*
X163361131Y-98928229D01*
X163361132Y-98928230D01*
X163405447Y-98994552D01*
X163471769Y-99038867D01*
X163471770Y-99038868D01*
X163530247Y-99050499D01*
X163530250Y-99050500D01*
X163530252Y-99050500D01*
X165269750Y-99050500D01*
X165269751Y-99050499D01*
X165284568Y-99047552D01*
X165328229Y-99038868D01*
X165328229Y-99038867D01*
X165328231Y-99038867D01*
X165394552Y-98994552D01*
X165438867Y-98928231D01*
X165438867Y-98928229D01*
X165438868Y-98928229D01*
X165450499Y-98869752D01*
X165450500Y-98869750D01*
X165450500Y-97878711D01*
X168149500Y-97878711D01*
X168149500Y-98121288D01*
X168181161Y-98361785D01*
X168243947Y-98596104D01*
X168336771Y-98820200D01*
X168336776Y-98820212D01*
X168458064Y-99030289D01*
X168458066Y-99030292D01*
X168458067Y-99030293D01*
X168605733Y-99222736D01*
X168605739Y-99222743D01*
X168777256Y-99394260D01*
X168777262Y-99394265D01*
X168969711Y-99541936D01*
X169179788Y-99663224D01*
X169403900Y-99756054D01*
X169638211Y-99818838D01*
X169818586Y-99842584D01*
X169878711Y-99850500D01*
X169878712Y-99850500D01*
X170121289Y-99850500D01*
X170169388Y-99844167D01*
X170361789Y-99818838D01*
X170596100Y-99756054D01*
X170820212Y-99663224D01*
X171030289Y-99541936D01*
X171222738Y-99394265D01*
X171394265Y-99222738D01*
X171541936Y-99030289D01*
X171663224Y-98820212D01*
X171756054Y-98596100D01*
X171818838Y-98361789D01*
X171850500Y-98121288D01*
X171850500Y-97878712D01*
X171818838Y-97638211D01*
X171756054Y-97403900D01*
X171663224Y-97179788D01*
X171541936Y-96969711D01*
X171394265Y-96777262D01*
X171394260Y-96777256D01*
X171222743Y-96605739D01*
X171222736Y-96605733D01*
X171030293Y-96458067D01*
X171030292Y-96458066D01*
X171030289Y-96458064D01*
X170820212Y-96336776D01*
X170820205Y-96336773D01*
X170596104Y-96243947D01*
X170361785Y-96181161D01*
X170121289Y-96149500D01*
X170121288Y-96149500D01*
X169878712Y-96149500D01*
X169878711Y-96149500D01*
X169638214Y-96181161D01*
X169403895Y-96243947D01*
X169179794Y-96336773D01*
X169179785Y-96336777D01*
X168969706Y-96458067D01*
X168777263Y-96605733D01*
X168777256Y-96605739D01*
X168605739Y-96777256D01*
X168605733Y-96777263D01*
X168458067Y-96969706D01*
X168336777Y-97179785D01*
X168336773Y-97179794D01*
X168243947Y-97403895D01*
X168181161Y-97638214D01*
X168149500Y-97878711D01*
X165450500Y-97878711D01*
X165450500Y-97130249D01*
X165450499Y-97130247D01*
X165438868Y-97071770D01*
X165438867Y-97071769D01*
X165394552Y-97005447D01*
X165328230Y-96961132D01*
X165328229Y-96961131D01*
X165269752Y-96949500D01*
X165269748Y-96949500D01*
X163530252Y-96949500D01*
X163530247Y-96949500D01*
X163471770Y-96961131D01*
X163471769Y-96961132D01*
X163405447Y-97005447D01*
X163361132Y-97071769D01*
X163361131Y-97071770D01*
X163349500Y-97130247D01*
X154750500Y-97130247D01*
X154750500Y-97071535D01*
X154710130Y-96868580D01*
X154630941Y-96677402D01*
X154515977Y-96505345D01*
X154515975Y-96505342D01*
X154369657Y-96359024D01*
X154283626Y-96301541D01*
X154197598Y-96244059D01*
X154197325Y-96243946D01*
X154006420Y-96164870D01*
X154006412Y-96164868D01*
X153803469Y-96124500D01*
X153803465Y-96124500D01*
X153596535Y-96124500D01*
X153596530Y-96124500D01*
X153393587Y-96164868D01*
X153393579Y-96164870D01*
X153202403Y-96244058D01*
X153030342Y-96359024D01*
X152884024Y-96505342D01*
X152769058Y-96677403D01*
X152689870Y-96868579D01*
X152689868Y-96868587D01*
X152649500Y-97071530D01*
X152250499Y-97071530D01*
X152210130Y-96868580D01*
X152130941Y-96677402D01*
X152015977Y-96505345D01*
X152015975Y-96505342D01*
X151869657Y-96359024D01*
X151783626Y-96301541D01*
X151697598Y-96244059D01*
X151697325Y-96243946D01*
X151506420Y-96164870D01*
X151506412Y-96164868D01*
X151303469Y-96124500D01*
X151303465Y-96124500D01*
X151096535Y-96124500D01*
X151096530Y-96124500D01*
X150893587Y-96164868D01*
X150893579Y-96164870D01*
X150702403Y-96244058D01*
X150530342Y-96359024D01*
X150384024Y-96505342D01*
X150269058Y-96677403D01*
X150189870Y-96868579D01*
X150189868Y-96868587D01*
X150149500Y-97071530D01*
X149750499Y-97071530D01*
X149710130Y-96868580D01*
X149630941Y-96677402D01*
X149515977Y-96505345D01*
X149515975Y-96505342D01*
X149369657Y-96359024D01*
X149283626Y-96301541D01*
X149197598Y-96244059D01*
X149197325Y-96243946D01*
X149006420Y-96164870D01*
X149006412Y-96164868D01*
X148803469Y-96124500D01*
X148803465Y-96124500D01*
X148596535Y-96124500D01*
X148596530Y-96124500D01*
X148393587Y-96164868D01*
X148393579Y-96164870D01*
X148202403Y-96244058D01*
X148030342Y-96359024D01*
X147884024Y-96505342D01*
X147769058Y-96677403D01*
X147689870Y-96868579D01*
X147689868Y-96868587D01*
X147649500Y-97071530D01*
X147250499Y-97071530D01*
X147210130Y-96868580D01*
X147130941Y-96677402D01*
X147015977Y-96505345D01*
X147015975Y-96505342D01*
X146869657Y-96359024D01*
X146783626Y-96301541D01*
X146697598Y-96244059D01*
X146697325Y-96243946D01*
X146506420Y-96164870D01*
X146506412Y-96164868D01*
X146303469Y-96124500D01*
X146303465Y-96124500D01*
X146096535Y-96124500D01*
X146096530Y-96124500D01*
X145893587Y-96164868D01*
X145893579Y-96164870D01*
X145702403Y-96244058D01*
X145530342Y-96359024D01*
X145384024Y-96505342D01*
X145269058Y-96677403D01*
X145189870Y-96868579D01*
X145189868Y-96868587D01*
X145149500Y-97071530D01*
X144750499Y-97071530D01*
X144710130Y-96868580D01*
X144630941Y-96677402D01*
X144515977Y-96505345D01*
X144515975Y-96505342D01*
X144369657Y-96359024D01*
X144283626Y-96301541D01*
X144197598Y-96244059D01*
X144197325Y-96243946D01*
X144006420Y-96164870D01*
X144006412Y-96164868D01*
X143803469Y-96124500D01*
X143803465Y-96124500D01*
X143596535Y-96124500D01*
X143596530Y-96124500D01*
X143393587Y-96164868D01*
X143393579Y-96164870D01*
X143202403Y-96244058D01*
X143030342Y-96359024D01*
X142884024Y-96505342D01*
X142769058Y-96677403D01*
X142689870Y-96868579D01*
X142689868Y-96868587D01*
X142649500Y-97071530D01*
X142250499Y-97071530D01*
X142210130Y-96868580D01*
X142130941Y-96677402D01*
X142015977Y-96505345D01*
X142015975Y-96505342D01*
X141869657Y-96359024D01*
X141783626Y-96301541D01*
X141697598Y-96244059D01*
X141697325Y-96243946D01*
X141506420Y-96164870D01*
X141506412Y-96164868D01*
X141303469Y-96124500D01*
X141303465Y-96124500D01*
X141096535Y-96124500D01*
X141096530Y-96124500D01*
X140893587Y-96164868D01*
X140893579Y-96164870D01*
X140702403Y-96244058D01*
X140530342Y-96359024D01*
X140384024Y-96505342D01*
X140269058Y-96677403D01*
X140189870Y-96868579D01*
X140189868Y-96868587D01*
X140149500Y-97071530D01*
X139750499Y-97071530D01*
X139710130Y-96868580D01*
X139630941Y-96677402D01*
X139515977Y-96505345D01*
X139515975Y-96505342D01*
X139369657Y-96359024D01*
X139283626Y-96301541D01*
X139197598Y-96244059D01*
X139197325Y-96243946D01*
X139006420Y-96164870D01*
X139006412Y-96164868D01*
X138803469Y-96124500D01*
X138803465Y-96124500D01*
X138596535Y-96124500D01*
X138596530Y-96124500D01*
X138393587Y-96164868D01*
X138393579Y-96164870D01*
X138202403Y-96244058D01*
X138030342Y-96359024D01*
X137884024Y-96505342D01*
X137769058Y-96677403D01*
X137689870Y-96868579D01*
X137689868Y-96868587D01*
X137649500Y-97071530D01*
X137250500Y-97071530D01*
X137250500Y-96520730D01*
X137247646Y-96490300D01*
X137247646Y-96490298D01*
X137202793Y-96362119D01*
X137202792Y-96362117D01*
X137122150Y-96252850D01*
X137012882Y-96172207D01*
X137012880Y-96172206D01*
X136884700Y-96127353D01*
X136854270Y-96124500D01*
X136854266Y-96124500D01*
X135545734Y-96124500D01*
X135545730Y-96124500D01*
X135515300Y-96127353D01*
X135515298Y-96127353D01*
X135387119Y-96172206D01*
X135387117Y-96172207D01*
X135277850Y-96252850D01*
X135197207Y-96362117D01*
X135197206Y-96362119D01*
X135152353Y-96490298D01*
X135152353Y-96490300D01*
X135149500Y-96520730D01*
X135149500Y-97994396D01*
X135129815Y-98061435D01*
X135077011Y-98107190D01*
X135007853Y-98117134D01*
X134978048Y-98108957D01*
X134855378Y-98058146D01*
X134855366Y-98058143D01*
X134686232Y-98024500D01*
X134686229Y-98024500D01*
X134513771Y-98024500D01*
X134513768Y-98024500D01*
X134344633Y-98058143D01*
X134344621Y-98058146D01*
X134185301Y-98124138D01*
X134185288Y-98124145D01*
X134041901Y-98219954D01*
X134041897Y-98219957D01*
X133919957Y-98341897D01*
X133919954Y-98341901D01*
X133824145Y-98485288D01*
X133824138Y-98485301D01*
X133758146Y-98644621D01*
X133758143Y-98644633D01*
X133724500Y-98813766D01*
X107425499Y-98813766D01*
X107391855Y-98644626D01*
X107388224Y-98635861D01*
X107385843Y-98624090D01*
X107387853Y-98600759D01*
X107385352Y-98577473D01*
X107390797Y-98566596D01*
X107391842Y-98554479D01*
X107406146Y-98535939D01*
X107416632Y-98514997D01*
X107427093Y-98508790D01*
X107434524Y-98499161D01*
X107456581Y-98491297D01*
X107476724Y-98479349D01*
X107497373Y-98476756D01*
X107500337Y-98475700D01*
X107502246Y-98476144D01*
X107507380Y-98475500D01*
X108804270Y-98475500D01*
X108834699Y-98472646D01*
X108834701Y-98472646D01*
X108898790Y-98450219D01*
X108962882Y-98427793D01*
X109072150Y-98347150D01*
X109152793Y-98237882D01*
X109175219Y-98173790D01*
X109197646Y-98109701D01*
X109197646Y-98109699D01*
X109200500Y-98079269D01*
X109200500Y-97071530D01*
X109599500Y-97071530D01*
X109599500Y-97528469D01*
X109639868Y-97731412D01*
X109639870Y-97731420D01*
X109719058Y-97922596D01*
X109834024Y-98094657D01*
X109980342Y-98240975D01*
X109980345Y-98240977D01*
X110152402Y-98355941D01*
X110343580Y-98435130D01*
X110532187Y-98472646D01*
X110546530Y-98475499D01*
X110546534Y-98475500D01*
X110546535Y-98475500D01*
X110753466Y-98475500D01*
X110753467Y-98475499D01*
X110956420Y-98435130D01*
X111147598Y-98355941D01*
X111319655Y-98240977D01*
X111465977Y-98094655D01*
X111580941Y-97922598D01*
X111660130Y-97731420D01*
X111700500Y-97528465D01*
X111700500Y-97071535D01*
X111700499Y-97071530D01*
X112099500Y-97071530D01*
X112099500Y-97528469D01*
X112139868Y-97731412D01*
X112139870Y-97731420D01*
X112219058Y-97922596D01*
X112334024Y-98094657D01*
X112480342Y-98240975D01*
X112480345Y-98240977D01*
X112652402Y-98355941D01*
X112843580Y-98435130D01*
X113032187Y-98472646D01*
X113046530Y-98475499D01*
X113046534Y-98475500D01*
X113046535Y-98475500D01*
X113253466Y-98475500D01*
X113253467Y-98475499D01*
X113456420Y-98435130D01*
X113647598Y-98355941D01*
X113819655Y-98240977D01*
X113965977Y-98094655D01*
X114080941Y-97922598D01*
X114160130Y-97731420D01*
X114200500Y-97528465D01*
X114200500Y-97071535D01*
X114200499Y-97071530D01*
X114599500Y-97071530D01*
X114599500Y-97528469D01*
X114639868Y-97731412D01*
X114639870Y-97731420D01*
X114719058Y-97922596D01*
X114834024Y-98094657D01*
X114980342Y-98240975D01*
X114980345Y-98240977D01*
X115152402Y-98355941D01*
X115343580Y-98435130D01*
X115532187Y-98472646D01*
X115546530Y-98475499D01*
X115546534Y-98475500D01*
X115546535Y-98475500D01*
X115753466Y-98475500D01*
X115753467Y-98475499D01*
X115956420Y-98435130D01*
X116147598Y-98355941D01*
X116319655Y-98240977D01*
X116465977Y-98094655D01*
X116580941Y-97922598D01*
X116660130Y-97731420D01*
X116700500Y-97528465D01*
X116700500Y-97071535D01*
X116700499Y-97071530D01*
X117099500Y-97071530D01*
X117099500Y-97528469D01*
X117139868Y-97731412D01*
X117139870Y-97731420D01*
X117219058Y-97922596D01*
X117334024Y-98094657D01*
X117480342Y-98240975D01*
X117480345Y-98240977D01*
X117652402Y-98355941D01*
X117843580Y-98435130D01*
X118032187Y-98472646D01*
X118046530Y-98475499D01*
X118046534Y-98475500D01*
X118046535Y-98475500D01*
X118253466Y-98475500D01*
X118253467Y-98475499D01*
X118456420Y-98435130D01*
X118647598Y-98355941D01*
X118819655Y-98240977D01*
X118965977Y-98094655D01*
X119080941Y-97922598D01*
X119160130Y-97731420D01*
X119200500Y-97528465D01*
X119200500Y-97071535D01*
X119200499Y-97071530D01*
X119599500Y-97071530D01*
X119599500Y-97528469D01*
X119639868Y-97731412D01*
X119639870Y-97731420D01*
X119719058Y-97922596D01*
X119834024Y-98094657D01*
X119980342Y-98240975D01*
X119980345Y-98240977D01*
X120152402Y-98355941D01*
X120343580Y-98435130D01*
X120532187Y-98472646D01*
X120546530Y-98475499D01*
X120546534Y-98475500D01*
X120546535Y-98475500D01*
X120753466Y-98475500D01*
X120753467Y-98475499D01*
X120956420Y-98435130D01*
X121147598Y-98355941D01*
X121319655Y-98240977D01*
X121465977Y-98094655D01*
X121580941Y-97922598D01*
X121660130Y-97731420D01*
X121700500Y-97528465D01*
X121700500Y-97071535D01*
X121700499Y-97071530D01*
X122099500Y-97071530D01*
X122099500Y-97528469D01*
X122139868Y-97731412D01*
X122139870Y-97731420D01*
X122219058Y-97922596D01*
X122334024Y-98094657D01*
X122480342Y-98240975D01*
X122480345Y-98240977D01*
X122652402Y-98355941D01*
X122843580Y-98435130D01*
X123032187Y-98472646D01*
X123046530Y-98475499D01*
X123046534Y-98475500D01*
X123046535Y-98475500D01*
X123253466Y-98475500D01*
X123253467Y-98475499D01*
X123456420Y-98435130D01*
X123647598Y-98355941D01*
X123819655Y-98240977D01*
X123965977Y-98094655D01*
X124080941Y-97922598D01*
X124160130Y-97731420D01*
X124200500Y-97528465D01*
X124200500Y-97071535D01*
X124200499Y-97071530D01*
X124599500Y-97071530D01*
X124599500Y-97528469D01*
X124639868Y-97731412D01*
X124639870Y-97731420D01*
X124719058Y-97922596D01*
X124834024Y-98094657D01*
X124980342Y-98240975D01*
X124980345Y-98240977D01*
X125152402Y-98355941D01*
X125343580Y-98435130D01*
X125532187Y-98472646D01*
X125546530Y-98475499D01*
X125546534Y-98475500D01*
X125546535Y-98475500D01*
X125753466Y-98475500D01*
X125753467Y-98475499D01*
X125956420Y-98435130D01*
X126147598Y-98355941D01*
X126319655Y-98240977D01*
X126465977Y-98094655D01*
X126580941Y-97922598D01*
X126660130Y-97731420D01*
X126700500Y-97528465D01*
X126700500Y-97071535D01*
X126660130Y-96868580D01*
X126580941Y-96677402D01*
X126465977Y-96505345D01*
X126465975Y-96505342D01*
X126319657Y-96359024D01*
X126233626Y-96301541D01*
X126147598Y-96244059D01*
X126147325Y-96243946D01*
X125956420Y-96164870D01*
X125956412Y-96164868D01*
X125753469Y-96124500D01*
X125753465Y-96124500D01*
X125546535Y-96124500D01*
X125546530Y-96124500D01*
X125343587Y-96164868D01*
X125343579Y-96164870D01*
X125152403Y-96244058D01*
X124980342Y-96359024D01*
X124834024Y-96505342D01*
X124719058Y-96677403D01*
X124639870Y-96868579D01*
X124639868Y-96868587D01*
X124599500Y-97071530D01*
X124200499Y-97071530D01*
X124160130Y-96868580D01*
X124080941Y-96677402D01*
X123965977Y-96505345D01*
X123965975Y-96505342D01*
X123819657Y-96359024D01*
X123733626Y-96301541D01*
X123647598Y-96244059D01*
X123647325Y-96243946D01*
X123456420Y-96164870D01*
X123456412Y-96164868D01*
X123253469Y-96124500D01*
X123253465Y-96124500D01*
X123046535Y-96124500D01*
X123046530Y-96124500D01*
X122843587Y-96164868D01*
X122843579Y-96164870D01*
X122652403Y-96244058D01*
X122480342Y-96359024D01*
X122334024Y-96505342D01*
X122219058Y-96677403D01*
X122139870Y-96868579D01*
X122139868Y-96868587D01*
X122099500Y-97071530D01*
X121700499Y-97071530D01*
X121660130Y-96868580D01*
X121580941Y-96677402D01*
X121465977Y-96505345D01*
X121465975Y-96505342D01*
X121319657Y-96359024D01*
X121233626Y-96301541D01*
X121147598Y-96244059D01*
X121147325Y-96243946D01*
X120956420Y-96164870D01*
X120956412Y-96164868D01*
X120753469Y-96124500D01*
X120753465Y-96124500D01*
X120546535Y-96124500D01*
X120546530Y-96124500D01*
X120343587Y-96164868D01*
X120343579Y-96164870D01*
X120152403Y-96244058D01*
X119980342Y-96359024D01*
X119834024Y-96505342D01*
X119719058Y-96677403D01*
X119639870Y-96868579D01*
X119639868Y-96868587D01*
X119599500Y-97071530D01*
X119200499Y-97071530D01*
X119160130Y-96868580D01*
X119080941Y-96677402D01*
X118965977Y-96505345D01*
X118965975Y-96505342D01*
X118819657Y-96359024D01*
X118733626Y-96301541D01*
X118647598Y-96244059D01*
X118647325Y-96243946D01*
X118456420Y-96164870D01*
X118456412Y-96164868D01*
X118253469Y-96124500D01*
X118253465Y-96124500D01*
X118046535Y-96124500D01*
X118046530Y-96124500D01*
X117843587Y-96164868D01*
X117843579Y-96164870D01*
X117652403Y-96244058D01*
X117480342Y-96359024D01*
X117334024Y-96505342D01*
X117219058Y-96677403D01*
X117139870Y-96868579D01*
X117139868Y-96868587D01*
X117099500Y-97071530D01*
X116700499Y-97071530D01*
X116660130Y-96868580D01*
X116580941Y-96677402D01*
X116465977Y-96505345D01*
X116465975Y-96505342D01*
X116319657Y-96359024D01*
X116233626Y-96301541D01*
X116147598Y-96244059D01*
X116147325Y-96243946D01*
X115956420Y-96164870D01*
X115956412Y-96164868D01*
X115753469Y-96124500D01*
X115753465Y-96124500D01*
X115546535Y-96124500D01*
X115546530Y-96124500D01*
X115343587Y-96164868D01*
X115343579Y-96164870D01*
X115152403Y-96244058D01*
X114980342Y-96359024D01*
X114834024Y-96505342D01*
X114719058Y-96677403D01*
X114639870Y-96868579D01*
X114639868Y-96868587D01*
X114599500Y-97071530D01*
X114200499Y-97071530D01*
X114160130Y-96868580D01*
X114080941Y-96677402D01*
X113965977Y-96505345D01*
X113965975Y-96505342D01*
X113819657Y-96359024D01*
X113733626Y-96301541D01*
X113647598Y-96244059D01*
X113647325Y-96243946D01*
X113456420Y-96164870D01*
X113456412Y-96164868D01*
X113253469Y-96124500D01*
X113253465Y-96124500D01*
X113046535Y-96124500D01*
X113046530Y-96124500D01*
X112843587Y-96164868D01*
X112843579Y-96164870D01*
X112652403Y-96244058D01*
X112480342Y-96359024D01*
X112334024Y-96505342D01*
X112219058Y-96677403D01*
X112139870Y-96868579D01*
X112139868Y-96868587D01*
X112099500Y-97071530D01*
X111700499Y-97071530D01*
X111660130Y-96868580D01*
X111580941Y-96677402D01*
X111465977Y-96505345D01*
X111465975Y-96505342D01*
X111319657Y-96359024D01*
X111233626Y-96301541D01*
X111147598Y-96244059D01*
X111147325Y-96243946D01*
X110956420Y-96164870D01*
X110956412Y-96164868D01*
X110753469Y-96124500D01*
X110753465Y-96124500D01*
X110546535Y-96124500D01*
X110546530Y-96124500D01*
X110343587Y-96164868D01*
X110343579Y-96164870D01*
X110152403Y-96244058D01*
X109980342Y-96359024D01*
X109834024Y-96505342D01*
X109719058Y-96677403D01*
X109639870Y-96868579D01*
X109639868Y-96868587D01*
X109599500Y-97071530D01*
X109200500Y-97071530D01*
X109200500Y-96520730D01*
X109197646Y-96490300D01*
X109197646Y-96490298D01*
X109152793Y-96362119D01*
X109152792Y-96362117D01*
X109072150Y-96252850D01*
X108962882Y-96172207D01*
X108962880Y-96172206D01*
X108834700Y-96127353D01*
X108804270Y-96124500D01*
X108804266Y-96124500D01*
X107495734Y-96124500D01*
X107495730Y-96124500D01*
X107465300Y-96127353D01*
X107465298Y-96127353D01*
X107337119Y-96172206D01*
X107337117Y-96172207D01*
X107227850Y-96252850D01*
X107147207Y-96362117D01*
X107147206Y-96362119D01*
X107102353Y-96490298D01*
X107102353Y-96490300D01*
X107099500Y-96520730D01*
X107099500Y-97994396D01*
X107079815Y-98061435D01*
X107027011Y-98107190D01*
X106957853Y-98117134D01*
X106928048Y-98108957D01*
X106805378Y-98058146D01*
X106805366Y-98058143D01*
X106636232Y-98024500D01*
X106636229Y-98024500D01*
X106463771Y-98024500D01*
X106463768Y-98024500D01*
X106294633Y-98058143D01*
X106294621Y-98058146D01*
X106135301Y-98124138D01*
X106135288Y-98124145D01*
X105991901Y-98219954D01*
X105991897Y-98219957D01*
X105869957Y-98341897D01*
X105869954Y-98341901D01*
X105774145Y-98485288D01*
X105774138Y-98485301D01*
X105708146Y-98644621D01*
X105708143Y-98644633D01*
X105674500Y-98813766D01*
X101665894Y-98813766D01*
X101756054Y-98596100D01*
X101818838Y-98361789D01*
X101850500Y-98121288D01*
X101850500Y-97878712D01*
X101818838Y-97638211D01*
X101756054Y-97403900D01*
X101663224Y-97179788D01*
X101541936Y-96969711D01*
X101394265Y-96777262D01*
X101394260Y-96777256D01*
X101222743Y-96605739D01*
X101222736Y-96605733D01*
X101030293Y-96458067D01*
X101030292Y-96458066D01*
X101030289Y-96458064D01*
X100820212Y-96336776D01*
X100820205Y-96336773D01*
X100596104Y-96243947D01*
X100361785Y-96181161D01*
X100121289Y-96149500D01*
X100121288Y-96149500D01*
X99878712Y-96149500D01*
X99878711Y-96149500D01*
X99638214Y-96181161D01*
X99403895Y-96243947D01*
X99179794Y-96336773D01*
X99179785Y-96336777D01*
X98969706Y-96458067D01*
X98777263Y-96605733D01*
X98777256Y-96605739D01*
X98605739Y-96777256D01*
X98605733Y-96777263D01*
X98458067Y-96969706D01*
X98336777Y-97179785D01*
X98336773Y-97179794D01*
X98243947Y-97403895D01*
X98181161Y-97638214D01*
X98149500Y-97878711D01*
X97500499Y-97878711D01*
X97500499Y-96003747D01*
X97500725Y-95996261D01*
X97518270Y-95706204D01*
X97520075Y-95691339D01*
X97571779Y-95409201D01*
X97575363Y-95394663D01*
X97660698Y-95120811D01*
X97666001Y-95106831D01*
X97783726Y-94845257D01*
X97790679Y-94832011D01*
X97830958Y-94765380D01*
X97939074Y-94586533D01*
X97947566Y-94574229D01*
X98124480Y-94348416D01*
X98134395Y-94337225D01*
X98337225Y-94134395D01*
X98348416Y-94124480D01*
X98574229Y-93947566D01*
X98586539Y-93939071D01*
X98832011Y-93790679D01*
X98845257Y-93783726D01*
X99106841Y-93665996D01*
X99120811Y-93660698D01*
X99394667Y-93575361D01*
X99409197Y-93571779D01*
X99691343Y-93520074D01*
X99706201Y-93518270D01*
X99996262Y-93500725D01*
X100003749Y-93500499D01*
X169909442Y-93500499D01*
X169934107Y-93500499D01*
X169934108Y-93500500D01*
G37*
%TD.AperFunction*%
%TD*%
M02*
