%TF.GenerationSoftware,KiCad,Pcbnew,9.0.7*%
%TF.CreationDate,2026-02-19T01:58:27-08:00*%
%TF.ProjectId,matrix-driver,6d617472-6978-42d6-9472-697665722e6b,rev?*%
%TF.SameCoordinates,Original*%
%TF.FileFunction,Legend,Top*%
%TF.FilePolarity,Positive*%
%FSLAX46Y46*%
G04 Gerber Fmt 4.6, Leading zero omitted, Abs format (unit mm)*
G04 Created by KiCad (PCBNEW 9.0.7) date 2026-02-19 01:58:27*
%MOMM*%
%LPD*%
G01*
G04 APERTURE LIST*
%ADD10C,0.200000*%
%ADD11C,0.120000*%
%ADD12C,0.152400*%
%ADD13C,0.508000*%
%ADD14C,0.000000*%
G04 APERTURE END LIST*
D10*
G36*
X118391410Y-130828749D02*
G01*
X118488115Y-130865963D01*
X118574681Y-130925210D01*
X118650537Y-131005670D01*
X118710201Y-131101453D01*
X118752508Y-131211933D01*
X118795692Y-131117797D01*
X118851714Y-131037895D01*
X118921036Y-130970499D01*
X119001699Y-130918549D01*
X119086705Y-130888053D01*
X119178101Y-130877809D01*
X119280210Y-130887974D01*
X119373584Y-130917880D01*
X119460324Y-130967934D01*
X119536655Y-131034159D01*
X119602159Y-131115037D01*
X119657184Y-131212421D01*
X119696636Y-131317467D01*
X119720956Y-131433041D01*
X119729357Y-131560956D01*
X119720967Y-131689454D01*
X119696683Y-131805514D01*
X119657306Y-131910956D01*
X119602201Y-132008675D01*
X119536692Y-132089355D01*
X119460446Y-132154955D01*
X119373682Y-132204515D01*
X119280260Y-132234149D01*
X119178101Y-132244225D01*
X119086684Y-132234017D01*
X119001675Y-132203635D01*
X118921036Y-132151902D01*
X118851767Y-132084703D01*
X118795737Y-132004739D01*
X118752508Y-131910223D01*
X118708891Y-132022258D01*
X118649911Y-132116756D01*
X118575310Y-132196110D01*
X118486743Y-132257444D01*
X118391478Y-132293563D01*
X118286859Y-132305775D01*
X118176699Y-132295004D01*
X118077482Y-132263535D01*
X117986807Y-132211253D01*
X117907804Y-132141599D01*
X117839940Y-132054849D01*
X117782986Y-131948569D01*
X117742940Y-131834313D01*
X117717945Y-131705909D01*
X117709225Y-131561078D01*
X118013551Y-131561078D01*
X118023519Y-131667264D01*
X118051653Y-131755618D01*
X118098027Y-131831577D01*
X118158143Y-131888241D01*
X118230484Y-131924771D01*
X118310917Y-131936968D01*
X118393498Y-131924643D01*
X118465279Y-131888241D01*
X118524579Y-131831651D01*
X118570669Y-131755618D01*
X118598895Y-131667257D01*
X118608893Y-131561078D01*
X118880369Y-131561078D01*
X118889505Y-131650161D01*
X118915785Y-131727041D01*
X118958456Y-131793256D01*
X119013237Y-131842324D01*
X119078961Y-131873618D01*
X119153677Y-131884211D01*
X119228894Y-131873566D01*
X119294605Y-131842202D01*
X119349414Y-131793013D01*
X119391814Y-131726797D01*
X119417907Y-131649914D01*
X119426985Y-131560712D01*
X119417928Y-131472131D01*
X119391814Y-131395237D01*
X119349442Y-131328987D01*
X119294727Y-131279710D01*
X119229041Y-131248436D01*
X119153921Y-131237823D01*
X119078802Y-131248436D01*
X119013115Y-131279710D01*
X118958421Y-131328963D01*
X118915785Y-131395237D01*
X118889489Y-131472280D01*
X118880369Y-131561078D01*
X118608893Y-131561078D01*
X118598968Y-131456461D01*
X118570669Y-131367394D01*
X118524497Y-131290526D01*
X118465157Y-131233671D01*
X118393364Y-131197338D01*
X118311284Y-131185066D01*
X118230526Y-131197248D01*
X118158143Y-131233671D01*
X118098086Y-131290591D01*
X118051653Y-131367394D01*
X118023447Y-131456454D01*
X118013551Y-131561078D01*
X117709225Y-131561078D01*
X117717938Y-131416158D01*
X117742900Y-131287844D01*
X117782864Y-131173831D01*
X117839716Y-131067955D01*
X117907652Y-130981217D01*
X117986929Y-130911270D01*
X118077783Y-130858680D01*
X118176965Y-130827068D01*
X118286859Y-130816260D01*
X118391410Y-130828749D01*
G37*
G36*
X118375886Y-132569679D02*
G01*
X118698653Y-132569679D01*
X118698653Y-133622244D01*
X118375886Y-133622244D01*
X118375886Y-132569679D01*
G37*
G36*
X117740000Y-134094976D02*
G01*
X119309016Y-134094976D01*
X119151479Y-133710782D01*
X119485115Y-133710782D01*
X119698583Y-134235782D01*
X119698583Y-134477338D01*
X117740000Y-134477338D01*
X117740000Y-134094976D01*
G37*
G36*
X117709225Y-135425488D02*
G01*
X117720063Y-135266073D01*
X117751849Y-135117855D01*
X117804149Y-134979000D01*
X117877425Y-134847982D01*
X117973007Y-134723657D01*
X118226287Y-134943719D01*
X118132113Y-135070739D01*
X118072292Y-135186619D01*
X118036883Y-135308571D01*
X118024787Y-135442463D01*
X118035749Y-135552419D01*
X118066552Y-135642376D01*
X118117290Y-135718561D01*
X118184521Y-135775488D01*
X118265526Y-135811291D01*
X118360010Y-135823604D01*
X118450678Y-135811121D01*
X118528230Y-135774711D01*
X118596071Y-135712718D01*
X118646244Y-135634193D01*
X118677382Y-135540640D01*
X118688394Y-135428175D01*
X118682271Y-135341378D01*
X118663726Y-135254396D01*
X118633421Y-135168230D01*
X118588499Y-135075244D01*
X118667267Y-134813172D01*
X119698583Y-134859944D01*
X119698583Y-136093737D01*
X119386196Y-136093737D01*
X119386196Y-135181612D01*
X118889284Y-135158775D01*
X118931749Y-135262552D01*
X118955963Y-135356246D01*
X118968627Y-135449857D01*
X118972815Y-135542481D01*
X118964040Y-135672174D01*
X118938937Y-135786039D01*
X118898688Y-135886497D01*
X118842018Y-135978073D01*
X118772903Y-136053824D01*
X118690471Y-136115352D01*
X118597897Y-136160223D01*
X118494584Y-136187760D01*
X118378206Y-136197296D01*
X118248460Y-136186087D01*
X118132884Y-136153623D01*
X118028817Y-136100454D01*
X117936701Y-136028228D01*
X117858579Y-135938732D01*
X117793733Y-135829833D01*
X117747818Y-135711126D01*
X117719210Y-135577231D01*
X117709225Y-135425488D01*
G37*
G36*
X119118704Y-117234513D02*
G01*
X119294072Y-117271146D01*
X119448932Y-117329780D01*
X119591223Y-117412938D01*
X119708166Y-117513394D01*
X119802595Y-117632031D01*
X119872219Y-117766374D01*
X119914696Y-117915583D01*
X119929357Y-118083147D01*
X119914696Y-118250711D01*
X119872219Y-118399921D01*
X119802595Y-118534264D01*
X119708154Y-118652967D01*
X119591210Y-118753420D01*
X119448932Y-118836514D01*
X119294065Y-118895217D01*
X119118698Y-118931889D01*
X118919291Y-118944714D01*
X118721290Y-118931937D01*
X118546186Y-118895308D01*
X118390628Y-118836514D01*
X118247715Y-118753370D01*
X118130424Y-118652909D01*
X118035865Y-118534264D01*
X117966311Y-118399928D01*
X117923874Y-118250718D01*
X117909225Y-118083147D01*
X118241273Y-118083147D01*
X118250755Y-118180274D01*
X118278188Y-118265685D01*
X118323339Y-118341800D01*
X118383954Y-118407178D01*
X118461488Y-118463414D01*
X118558789Y-118510450D01*
X118662800Y-118542689D01*
X118782180Y-118563096D01*
X118919291Y-118570290D01*
X119058343Y-118563040D01*
X119178073Y-118542582D01*
X119281137Y-118510450D01*
X119377555Y-118463484D01*
X119454679Y-118407258D01*
X119515244Y-118341800D01*
X119560465Y-118265677D01*
X119587937Y-118180267D01*
X119597431Y-118083147D01*
X119587964Y-117986588D01*
X119560518Y-117901276D01*
X119515244Y-117824860D01*
X119454656Y-117759170D01*
X119377528Y-117702785D01*
X119281137Y-117655722D01*
X119178080Y-117623657D01*
X119058350Y-117603240D01*
X118919291Y-117596005D01*
X118782174Y-117603185D01*
X118662793Y-117623551D01*
X118558789Y-117655722D01*
X118461515Y-117702855D01*
X118383977Y-117759251D01*
X118323339Y-117824860D01*
X118278136Y-117901268D01*
X118250727Y-117986581D01*
X118241273Y-118083147D01*
X117909225Y-118083147D01*
X117923874Y-117915576D01*
X117966311Y-117766366D01*
X118035865Y-117632031D01*
X118130412Y-117513452D01*
X118247702Y-117412988D01*
X118390628Y-117329780D01*
X118546179Y-117271055D01*
X118721284Y-117234466D01*
X118919291Y-117221703D01*
X119118704Y-117234513D01*
G37*
G36*
X118575886Y-119156839D02*
G01*
X118898653Y-119156839D01*
X118898653Y-120209403D01*
X118575886Y-120209403D01*
X118575886Y-119156839D01*
G37*
G36*
X117940000Y-120490038D02*
G01*
X119576304Y-121367603D01*
X119576304Y-120272540D01*
X119898583Y-120272540D01*
X119898583Y-121764009D01*
X119623810Y-121764009D01*
X117940000Y-120925523D01*
X117940000Y-120490038D01*
G37*
G36*
X154548953Y-139909841D02*
G01*
X154268867Y-139909841D01*
X154409918Y-139549094D01*
X154548953Y-139909841D01*
G37*
G36*
X155449841Y-139536730D02*
G01*
X155507911Y-139554528D01*
X155560862Y-139583072D01*
X155606585Y-139620596D01*
X155644172Y-139666276D01*
X155672653Y-139719637D01*
X155690376Y-139778149D01*
X155696406Y-139842002D01*
X155690396Y-139905709D01*
X155672836Y-139963269D01*
X155644480Y-140015625D01*
X155606707Y-140061088D01*
X155560880Y-140098464D01*
X155507972Y-140126606D01*
X155449925Y-140144036D01*
X155385973Y-140149993D01*
X155215369Y-140149993D01*
X155215369Y-139530654D01*
X155385912Y-139530654D01*
X155449841Y-139536730D01*
G37*
G36*
X155516522Y-137849668D02*
G01*
X155552542Y-137861974D01*
X155582100Y-137881673D01*
X155605046Y-137908264D01*
X155618782Y-137939525D01*
X155623560Y-137976927D01*
X155618773Y-138014575D01*
X155605028Y-138045972D01*
X155582100Y-138072609D01*
X155552546Y-138092273D01*
X155516527Y-138104559D01*
X155472313Y-138108941D01*
X155215369Y-138108941D01*
X155215369Y-137845280D01*
X155472313Y-137845280D01*
X155516522Y-137849668D01*
G37*
G36*
X156851899Y-140455521D02*
G01*
X153783454Y-140455521D01*
X153783454Y-140330000D01*
X153894565Y-140330000D01*
X154105591Y-140330000D01*
X154206097Y-140073239D01*
X154610685Y-140073239D01*
X154709787Y-140330000D01*
X154929422Y-140330000D01*
X154856277Y-140149993D01*
X155012587Y-140149993D01*
X155012587Y-140330000D01*
X155388782Y-140330000D01*
X155461318Y-140325722D01*
X155529033Y-140313185D01*
X155592602Y-140292630D01*
X155653115Y-140264233D01*
X155707667Y-140229733D01*
X155756795Y-140189010D01*
X155800251Y-140142326D01*
X155836664Y-140090937D01*
X155854511Y-140056936D01*
X155940282Y-140056936D01*
X155967040Y-140124411D01*
X156000365Y-140181643D01*
X156040124Y-140229918D01*
X156086584Y-140270160D01*
X156139129Y-140302010D01*
X156197462Y-140325122D01*
X156262567Y-140339438D01*
X156335650Y-140344410D01*
X156416150Y-140338571D01*
X156486754Y-140321850D01*
X156549057Y-140294951D01*
X156605363Y-140257413D01*
X156652159Y-140211610D01*
X156690291Y-140156831D01*
X156717839Y-140095880D01*
X156734866Y-140027328D01*
X156740788Y-139949652D01*
X156740788Y-139350708D01*
X156538005Y-139350708D01*
X156538005Y-139944218D01*
X156531379Y-140007181D01*
X156512722Y-140058594D01*
X156482623Y-140100961D01*
X156442419Y-140133420D01*
X156394576Y-140153105D01*
X156336810Y-140160006D01*
X156287829Y-140155032D01*
X156245881Y-140140771D01*
X156209499Y-140117447D01*
X156179145Y-140086099D01*
X156151622Y-140043253D01*
X156127250Y-139986350D01*
X155940282Y-140056936D01*
X155854511Y-140056936D01*
X155866338Y-140034405D01*
X155888006Y-139974363D01*
X155901175Y-139910472D01*
X155905661Y-139842002D01*
X155901170Y-139773530D01*
X155887956Y-139709261D01*
X155866154Y-139648501D01*
X155836332Y-139591158D01*
X155799849Y-139539207D01*
X155756428Y-139492185D01*
X155707276Y-139451160D01*
X155652783Y-139416504D01*
X155592419Y-139388077D01*
X155528969Y-139367526D01*
X155461317Y-139354987D01*
X155388782Y-139350708D01*
X155012587Y-139350708D01*
X155012587Y-140149993D01*
X154856277Y-140149993D01*
X154531489Y-139350708D01*
X154297322Y-139350708D01*
X154067365Y-139909841D01*
X153894565Y-140330000D01*
X153783454Y-140330000D01*
X153783454Y-137670708D01*
X153894565Y-137670708D01*
X154292070Y-138650000D01*
X154526299Y-138650000D01*
X154749025Y-138108941D01*
X155012587Y-138108941D01*
X155012587Y-138650000D01*
X155215369Y-138650000D01*
X155215369Y-138274904D01*
X155435676Y-138274904D01*
X155627529Y-138650000D01*
X155853515Y-138650000D01*
X155637848Y-138245900D01*
X155692034Y-138218191D01*
X155737817Y-138182770D01*
X155776151Y-138139227D01*
X155805001Y-138089213D01*
X155822358Y-138034535D01*
X155828297Y-137973874D01*
X155823346Y-137915565D01*
X155808981Y-137863350D01*
X155785432Y-137816093D01*
X155753374Y-137774055D01*
X155713908Y-137738545D01*
X155666181Y-137709176D01*
X155614020Y-137688204D01*
X155555769Y-137675219D01*
X155490326Y-137670708D01*
X155012587Y-137670708D01*
X155012587Y-138108941D01*
X154749025Y-138108941D01*
X154929422Y-137670708D01*
X154719190Y-137670708D01*
X154413703Y-138442149D01*
X154113773Y-137670708D01*
X153894565Y-137670708D01*
X153783454Y-137670708D01*
X153783454Y-137559597D01*
X156851899Y-137559597D01*
X156851899Y-140455521D01*
G37*
G36*
X152764533Y-128509841D02*
G01*
X152484447Y-128509841D01*
X152625498Y-128149094D01*
X152764533Y-128509841D01*
G37*
G36*
X153665421Y-128136730D02*
G01*
X153723491Y-128154528D01*
X153776442Y-128183072D01*
X153822165Y-128220596D01*
X153859752Y-128266276D01*
X153888233Y-128319637D01*
X153905956Y-128378149D01*
X153911986Y-128442002D01*
X153905976Y-128505709D01*
X153888416Y-128563269D01*
X153860060Y-128615625D01*
X153822287Y-128661088D01*
X153776460Y-128698464D01*
X153723552Y-128726606D01*
X153665505Y-128744036D01*
X153601553Y-128749993D01*
X153430949Y-128749993D01*
X153430949Y-128130654D01*
X153601492Y-128130654D01*
X153665421Y-128136730D01*
G37*
G36*
X156479049Y-126833201D02*
G01*
X156515664Y-126844902D01*
X156545107Y-126863363D01*
X156568040Y-126888707D01*
X156581773Y-126918925D01*
X156586567Y-126955565D01*
X156581773Y-126992248D01*
X156568039Y-127022507D01*
X156545107Y-127047889D01*
X156515669Y-127066315D01*
X156479054Y-127077996D01*
X156433366Y-127082205D01*
X156169400Y-127082205D01*
X156169400Y-126828986D01*
X156433366Y-126828986D01*
X156479049Y-126833201D01*
G37*
G36*
X156456727Y-126442349D02*
G01*
X156490550Y-126453005D01*
X156517629Y-126469766D01*
X156538687Y-126492878D01*
X156551352Y-126520770D01*
X156555792Y-126554945D01*
X156551397Y-126588412D01*
X156538769Y-126616182D01*
X156517629Y-126639637D01*
X156490514Y-126656676D01*
X156456690Y-126667489D01*
X156414376Y-126671388D01*
X156169400Y-126671388D01*
X156169400Y-126438503D01*
X156414376Y-126438503D01*
X156456727Y-126442349D01*
G37*
G36*
X156902842Y-129055521D02*
G01*
X151999034Y-129055521D01*
X151999034Y-128930000D01*
X152110145Y-128930000D01*
X152321171Y-128930000D01*
X152421677Y-128673239D01*
X152826265Y-128673239D01*
X152925367Y-128930000D01*
X153145002Y-128930000D01*
X153071857Y-128749993D01*
X153228167Y-128749993D01*
X153228167Y-128930000D01*
X153604362Y-128930000D01*
X153676898Y-128925722D01*
X153744613Y-128913185D01*
X153808182Y-128892630D01*
X153868695Y-128864233D01*
X153923247Y-128829733D01*
X153972375Y-128789010D01*
X154015831Y-128742326D01*
X154052244Y-128690937D01*
X154070091Y-128656936D01*
X154155862Y-128656936D01*
X154182620Y-128724411D01*
X154215945Y-128781643D01*
X154255704Y-128829918D01*
X154302164Y-128870160D01*
X154354709Y-128902010D01*
X154413042Y-128925122D01*
X154478147Y-128939438D01*
X154551230Y-128944410D01*
X154631730Y-128938571D01*
X154702334Y-128921850D01*
X154764637Y-128894951D01*
X154820943Y-128857413D01*
X154867739Y-128811610D01*
X154905871Y-128756831D01*
X154933419Y-128695880D01*
X154950446Y-128627328D01*
X154956368Y-128549652D01*
X154956368Y-127950708D01*
X154753585Y-127950708D01*
X154753585Y-128544218D01*
X154746959Y-128607181D01*
X154728302Y-128658594D01*
X154698203Y-128700961D01*
X154657999Y-128733420D01*
X154610156Y-128753105D01*
X154552390Y-128760006D01*
X154503409Y-128755032D01*
X154461461Y-128740771D01*
X154425079Y-128717447D01*
X154394725Y-128686099D01*
X154367202Y-128643253D01*
X154342830Y-128586350D01*
X154155862Y-128656936D01*
X154070091Y-128656936D01*
X154081918Y-128634405D01*
X154103586Y-128574363D01*
X154116755Y-128510472D01*
X154121241Y-128442002D01*
X154116750Y-128373530D01*
X154103536Y-128309261D01*
X154081734Y-128248501D01*
X154051912Y-128191158D01*
X154015429Y-128139207D01*
X153972008Y-128092185D01*
X153922856Y-128051160D01*
X153868363Y-128016504D01*
X153807999Y-127988077D01*
X153744549Y-127967526D01*
X153676897Y-127954987D01*
X153604362Y-127950708D01*
X153228167Y-127950708D01*
X153228167Y-128749993D01*
X153071857Y-128749993D01*
X152747069Y-127950708D01*
X152512902Y-127950708D01*
X152282945Y-128509841D01*
X152110145Y-128930000D01*
X151999034Y-128930000D01*
X151999034Y-127540404D01*
X154058165Y-127540404D01*
X154242752Y-127540404D01*
X154812143Y-126270708D01*
X154848596Y-126270708D01*
X155246101Y-127250000D01*
X155480330Y-127250000D01*
X155718514Y-126671388D01*
X155966618Y-126671388D01*
X155966618Y-127082205D01*
X155966618Y-127250000D01*
X156448753Y-127250000D01*
X156516529Y-127245783D01*
X156576162Y-127233730D01*
X156628821Y-127214462D01*
X156677388Y-127186971D01*
X156717075Y-127153775D01*
X156748927Y-127114628D01*
X156772466Y-127070069D01*
X156786793Y-127020711D01*
X156791731Y-126965396D01*
X156786998Y-126918529D01*
X156773053Y-126875560D01*
X156749660Y-126835519D01*
X156718821Y-126800400D01*
X156681081Y-126770410D01*
X156635538Y-126745394D01*
X156686755Y-126705891D01*
X156725297Y-126657527D01*
X156743556Y-126620706D01*
X156754499Y-126581590D01*
X156758209Y-126539497D01*
X156753402Y-126487526D01*
X156739428Y-126441043D01*
X156716382Y-126398935D01*
X156685425Y-126361953D01*
X156647081Y-126330535D01*
X156600367Y-126304474D01*
X156549804Y-126286184D01*
X156492381Y-126274723D01*
X156426954Y-126270708D01*
X155966618Y-126270708D01*
X155966618Y-126671388D01*
X155718514Y-126671388D01*
X155883453Y-126270708D01*
X155673221Y-126270708D01*
X155367734Y-127042149D01*
X155067804Y-126270708D01*
X154848596Y-126270708D01*
X154812143Y-126270708D01*
X154628167Y-126270708D01*
X154058165Y-127540404D01*
X151999034Y-127540404D01*
X151999034Y-126270708D01*
X152110145Y-126270708D01*
X152507650Y-127250000D01*
X152741879Y-127250000D01*
X152943441Y-126760354D01*
X153136270Y-126760354D01*
X153140772Y-126830142D01*
X153154026Y-126895778D01*
X153175899Y-126957946D01*
X153205937Y-127016642D01*
X153242824Y-127070104D01*
X153286846Y-127118780D01*
X153336757Y-127161446D01*
X153391733Y-127197365D01*
X153452260Y-127226735D01*
X153516038Y-127248033D01*
X153583631Y-127260980D01*
X153655714Y-127265387D01*
X153725445Y-127261087D01*
X153790362Y-127248492D01*
X153851169Y-127227834D01*
X153908662Y-127199177D01*
X153960347Y-127163979D01*
X154006752Y-127122016D01*
X154047257Y-127074172D01*
X154081463Y-127021041D01*
X154109517Y-126962098D01*
X154129786Y-126900032D01*
X154142167Y-126833667D01*
X154146398Y-126762308D01*
X154146398Y-126699904D01*
X153640082Y-126699904D01*
X153640082Y-126876125D01*
X153929205Y-126876125D01*
X153910356Y-126932110D01*
X153878646Y-126981760D01*
X153836118Y-127023098D01*
X153784063Y-127054666D01*
X153725252Y-127074229D01*
X153658339Y-127080983D01*
X153593299Y-127074810D01*
X153534325Y-127056742D01*
X153480726Y-127027634D01*
X153434430Y-126989209D01*
X153396584Y-126942315D01*
X153368057Y-126887299D01*
X153350493Y-126826860D01*
X153344487Y-126760354D01*
X153350381Y-126693543D01*
X153367507Y-126633653D01*
X153395441Y-126579250D01*
X153432415Y-126532964D01*
X153477724Y-126494929D01*
X153530356Y-126465980D01*
X153588306Y-126447866D01*
X153652294Y-126441678D01*
X153704197Y-126445319D01*
X153753060Y-126456061D01*
X153799451Y-126473857D01*
X153842619Y-126498453D01*
X153881914Y-126529781D01*
X153917664Y-126568379D01*
X154059447Y-126438197D01*
X154008843Y-126385453D01*
X153949784Y-126340744D01*
X153881333Y-126303803D01*
X153808218Y-126276927D01*
X153732129Y-126260772D01*
X153652294Y-126255321D01*
X153580862Y-126259714D01*
X153513586Y-126272649D01*
X153449817Y-126293972D01*
X153389373Y-126323343D01*
X153334754Y-126359245D01*
X153285442Y-126401866D01*
X153242065Y-126450487D01*
X153205574Y-126503967D01*
X153175716Y-126562761D01*
X153153946Y-126624921D01*
X153140752Y-126690558D01*
X153136270Y-126760354D01*
X152943441Y-126760354D01*
X153145002Y-126270708D01*
X152934770Y-126270708D01*
X152629283Y-127042149D01*
X152329353Y-126270708D01*
X152110145Y-126270708D01*
X151999034Y-126270708D01*
X151999034Y-126144210D01*
X156902842Y-126144210D01*
X156902842Y-129055521D01*
G37*
G36*
X161621284Y-141430000D02*
G01*
X161621284Y-140645491D01*
X161429187Y-140724260D01*
X161429187Y-140557442D01*
X161691687Y-140450708D01*
X161812465Y-140450708D01*
X161812465Y-141430000D01*
X161621284Y-141430000D01*
G37*
G36*
X162109769Y-141430000D02*
G01*
X162109769Y-140645491D01*
X161917672Y-140724260D01*
X161917672Y-140557442D01*
X162180172Y-140450708D01*
X162300950Y-140450708D01*
X162300950Y-141430000D01*
X162109769Y-141430000D01*
G37*
G36*
X162769042Y-141430000D02*
G01*
X162371536Y-140450708D01*
X162590744Y-140450708D01*
X162890675Y-141222149D01*
X163196161Y-140450708D01*
X163406393Y-140450708D01*
X163003271Y-141430000D01*
X162769042Y-141430000D01*
G37*
G36*
X163412438Y-141112056D02*
G01*
X163412438Y-140950673D01*
X163938721Y-140950673D01*
X163938721Y-141112056D01*
X163412438Y-141112056D01*
G37*
G36*
X164175087Y-141430000D02*
G01*
X164175087Y-140645491D01*
X163982990Y-140724260D01*
X163982990Y-140557442D01*
X164245490Y-140450708D01*
X164366268Y-140450708D01*
X164366268Y-141430000D01*
X164175087Y-141430000D01*
G37*
G36*
X164589017Y-141430000D02*
G01*
X165027800Y-140611847D01*
X164480268Y-140611847D01*
X164480268Y-140450708D01*
X165226003Y-140450708D01*
X165226003Y-140588094D01*
X164806760Y-141430000D01*
X164589017Y-141430000D01*
G37*
G36*
X165673578Y-141430000D02*
G01*
X165276072Y-140450708D01*
X165495280Y-140450708D01*
X165795211Y-141222149D01*
X166100697Y-140450708D01*
X166310929Y-140450708D01*
X165907807Y-141430000D01*
X165673578Y-141430000D01*
G37*
G36*
X103740000Y-129425139D02*
G01*
X105197885Y-128800000D01*
X105197885Y-129217533D01*
X104226775Y-129616015D01*
X105197885Y-130014375D01*
X105197885Y-130421528D01*
X103740000Y-129797121D01*
X103740000Y-129425139D01*
G37*
G36*
X103740000Y-130866294D02*
G01*
X105309016Y-130866294D01*
X105151479Y-130482100D01*
X105485115Y-130482100D01*
X105698583Y-131007100D01*
X105698583Y-131248656D01*
X103740000Y-131248656D01*
X103740000Y-130866294D01*
G37*
G36*
X103713255Y-131750453D02*
G01*
X103720727Y-131691075D01*
X103742704Y-131638347D01*
X103780055Y-131590474D01*
X103827926Y-131553116D01*
X103880614Y-131531143D01*
X103939912Y-131523674D01*
X103999291Y-131531146D01*
X104052018Y-131553123D01*
X104099891Y-131590474D01*
X104137243Y-131638347D01*
X104159219Y-131691075D01*
X104166692Y-131750453D01*
X104159219Y-131809832D01*
X104137243Y-131862559D01*
X104099891Y-131910432D01*
X104052018Y-131947784D01*
X103999291Y-131969760D01*
X103939912Y-131977233D01*
X103880614Y-131969763D01*
X103827926Y-131947790D01*
X103780055Y-131910432D01*
X103742704Y-131862559D01*
X103720727Y-131809832D01*
X103713255Y-131750453D01*
G37*
G36*
X104918704Y-132155029D02*
G01*
X105094072Y-132191662D01*
X105248932Y-132250296D01*
X105391223Y-132333454D01*
X105508166Y-132433910D01*
X105602595Y-132552547D01*
X105672219Y-132686889D01*
X105714696Y-132836099D01*
X105729357Y-133003663D01*
X105714696Y-133171227D01*
X105672219Y-133320437D01*
X105602595Y-133454780D01*
X105508154Y-133573483D01*
X105391210Y-133673936D01*
X105248932Y-133757030D01*
X105094065Y-133815733D01*
X104918698Y-133852405D01*
X104719291Y-133865230D01*
X104521290Y-133852453D01*
X104346186Y-133815824D01*
X104190628Y-133757030D01*
X104047715Y-133673886D01*
X103930424Y-133573425D01*
X103835865Y-133454780D01*
X103766311Y-133320444D01*
X103723874Y-133171234D01*
X103709225Y-133003663D01*
X104041273Y-133003663D01*
X104050755Y-133100790D01*
X104078188Y-133186201D01*
X104123339Y-133262316D01*
X104183954Y-133327694D01*
X104261488Y-133383930D01*
X104358789Y-133430966D01*
X104462800Y-133463205D01*
X104582180Y-133483612D01*
X104719291Y-133490806D01*
X104858343Y-133483556D01*
X104978073Y-133463098D01*
X105081137Y-133430966D01*
X105177555Y-133384000D01*
X105254679Y-133327774D01*
X105315244Y-133262316D01*
X105360465Y-133186193D01*
X105387937Y-133100783D01*
X105397431Y-133003663D01*
X105387964Y-132907104D01*
X105360518Y-132821792D01*
X105315244Y-132745376D01*
X105254656Y-132679686D01*
X105177528Y-132623301D01*
X105081137Y-132576238D01*
X104978080Y-132544173D01*
X104858350Y-132523756D01*
X104719291Y-132516521D01*
X104582174Y-132523701D01*
X104462793Y-132544067D01*
X104358789Y-132576238D01*
X104261515Y-132623371D01*
X104183977Y-132679766D01*
X104123339Y-132745376D01*
X104078136Y-132821784D01*
X104050727Y-132907096D01*
X104041273Y-133003663D01*
X103709225Y-133003663D01*
X103723874Y-132836092D01*
X103766311Y-132686882D01*
X103835865Y-132552547D01*
X103930412Y-132433968D01*
X104047702Y-132333504D01*
X104190628Y-132250296D01*
X104346179Y-132191571D01*
X104521284Y-132154982D01*
X104719291Y-132142219D01*
X104918704Y-132155029D01*
G37*
G36*
X100597232Y-131363255D02*
G01*
X100737990Y-131448046D01*
X100854147Y-131559910D01*
X100940467Y-131693754D01*
X100994128Y-131845214D01*
X101012519Y-132015666D01*
X100993590Y-132180885D01*
X100937780Y-132330495D01*
X100849601Y-132463846D01*
X100732616Y-132577913D01*
X100592160Y-132665246D01*
X100426092Y-132722993D01*
X100426092Y-131304675D01*
X100597232Y-131363255D01*
G37*
G36*
X101877383Y-121274842D02*
G01*
X101853077Y-121530558D01*
X101781884Y-121762840D01*
X101667709Y-121974644D01*
X101517613Y-122157536D01*
X101334894Y-122307884D01*
X101121451Y-122421807D01*
X100887400Y-122492697D01*
X100631988Y-122516817D01*
X100377160Y-122492778D01*
X100146922Y-122422540D01*
X99937498Y-122309117D01*
X99755645Y-122158025D01*
X99606142Y-121974714D01*
X99493572Y-121763084D01*
X99423854Y-121530895D01*
X99400027Y-121275087D01*
X99400027Y-120592672D01*
X101877383Y-120592672D01*
X101877383Y-121274842D01*
G37*
G36*
X99647293Y-108192432D02*
G01*
X99734452Y-108240750D01*
X99808157Y-108324354D01*
X99858873Y-108428107D01*
X99892298Y-108562946D01*
X99904633Y-108736880D01*
X99877278Y-109058792D01*
X99842540Y-109208279D01*
X99792770Y-109352128D01*
X99370963Y-109352128D01*
X99284549Y-109213189D01*
X99224661Y-109059281D01*
X99190370Y-108894082D01*
X99178499Y-108710502D01*
X99205248Y-108481865D01*
X99276685Y-108320446D01*
X99351187Y-108239016D01*
X99438110Y-108191954D01*
X99541933Y-108175854D01*
X99647293Y-108192432D01*
G37*
G36*
X103261185Y-133921659D02*
G01*
X98181089Y-133921659D01*
X98181089Y-132096510D01*
X98625533Y-132096510D01*
X98651735Y-132435944D01*
X98726406Y-132729344D01*
X98853687Y-133003376D01*
X99044654Y-133279134D01*
X99503098Y-132777459D01*
X99405521Y-132650660D01*
X99330662Y-132494626D01*
X99285196Y-132322720D01*
X99269602Y-132133391D01*
X99289372Y-131940897D01*
X99347515Y-131765561D01*
X99440942Y-131609271D01*
X99563426Y-131481507D01*
X99710950Y-131382579D01*
X99879720Y-131313468D01*
X99879720Y-132722993D01*
X99879720Y-133477215D01*
X100076580Y-133477215D01*
X100372562Y-133455363D01*
X100639050Y-133392046D01*
X100880872Y-133288904D01*
X101101844Y-133146726D01*
X101286917Y-132976143D01*
X101439455Y-132775261D01*
X101552407Y-132550650D01*
X101621041Y-132304305D01*
X101644619Y-132031053D01*
X101621742Y-131757675D01*
X101554605Y-131505848D01*
X101443363Y-131271214D01*
X101293301Y-131059030D01*
X101113318Y-130879882D01*
X100900900Y-130731193D01*
X100666511Y-130621659D01*
X100413255Y-130555304D01*
X100136664Y-130532623D01*
X99859509Y-130556215D01*
X99605502Y-130625332D01*
X99369986Y-130739741D01*
X99157729Y-130894112D01*
X98977329Y-131080615D01*
X98826545Y-131302233D01*
X98715721Y-131546007D01*
X98648511Y-131809274D01*
X98625533Y-132096510D01*
X98181089Y-132096510D01*
X98181089Y-128453628D01*
X98680000Y-128453628D01*
X98680000Y-129197592D01*
X101595771Y-130446406D01*
X101595771Y-129632100D01*
X99653551Y-128835380D01*
X101595771Y-128038415D01*
X101595771Y-127203349D01*
X98680000Y-128453628D01*
X98181089Y-128453628D01*
X98181089Y-126906350D01*
X98680000Y-126906350D01*
X101595771Y-126906350D01*
X101595771Y-126522889D01*
X101944794Y-126522889D01*
X101959131Y-126638959D01*
X102001043Y-126740738D01*
X102071800Y-126831856D01*
X102162935Y-126902759D01*
X102264713Y-126944745D01*
X102380767Y-126959106D01*
X102497767Y-126944691D01*
X102599753Y-126902656D01*
X102690467Y-126831856D01*
X102760786Y-126740790D01*
X102802473Y-126639008D01*
X102816741Y-126522889D01*
X102802486Y-126407093D01*
X102760812Y-126305465D01*
X102690467Y-126214410D01*
X102599786Y-126143717D01*
X102498031Y-126101776D01*
X102381500Y-126087404D01*
X102264945Y-126101761D01*
X102162933Y-126143691D01*
X102071800Y-126214410D01*
X102001017Y-126305518D01*
X101959118Y-126407142D01*
X101944794Y-126522889D01*
X101595771Y-126522889D01*
X101595771Y-126139916D01*
X98680000Y-126139916D01*
X98680000Y-126906350D01*
X98181089Y-126906350D01*
X98181089Y-124624145D01*
X98680000Y-124624145D01*
X100571416Y-124624145D01*
X100757076Y-124756073D01*
X100891374Y-124921144D01*
X100975358Y-125115336D01*
X101003726Y-125331716D01*
X100984431Y-125537124D01*
X100925324Y-125722749D01*
X101598213Y-125722749D01*
X101641054Y-125602173D01*
X101661228Y-125403768D01*
X101635476Y-125167588D01*
X101560844Y-124961444D01*
X101439417Y-124780259D01*
X101270439Y-124624145D01*
X101595771Y-124624145D01*
X101595771Y-123857711D01*
X98680000Y-123857711D01*
X98680000Y-124624145D01*
X98181089Y-124624145D01*
X98181089Y-121275087D01*
X98680000Y-121275087D01*
X98680000Y-121286322D01*
X98697108Y-121576468D01*
X98747256Y-121847328D01*
X98829476Y-122101605D01*
X98943066Y-122343656D01*
X99081064Y-122561861D01*
X99243956Y-122758374D01*
X99430692Y-122932200D01*
X99636251Y-123077852D01*
X99862379Y-123196545D01*
X100102547Y-123283220D01*
X100358110Y-123335893D01*
X100631988Y-123353838D01*
X100905879Y-123335875D01*
X101162952Y-123283018D01*
X101405994Y-123195812D01*
X101635366Y-123076524D01*
X101843171Y-122930590D01*
X102031256Y-122756908D01*
X102195357Y-122560298D01*
X102333982Y-122342326D01*
X102447690Y-122100872D01*
X102529892Y-121847071D01*
X102580048Y-121576464D01*
X102597166Y-121286322D01*
X102597166Y-119781542D01*
X98680000Y-119781542D01*
X98680000Y-121275087D01*
X98181089Y-121275087D01*
X98181089Y-117166189D01*
X98680000Y-117166189D01*
X99609588Y-117853489D01*
X98680000Y-118541521D01*
X98680000Y-119434228D01*
X100173545Y-118294347D01*
X101595771Y-119369504D01*
X101595771Y-118509525D01*
X100727732Y-117871074D01*
X101595771Y-117228471D01*
X101595771Y-116335764D01*
X100163775Y-117426308D01*
X98680000Y-116307920D01*
X98680000Y-117166189D01*
X98181089Y-117166189D01*
X98181089Y-116022889D01*
X98680000Y-116022889D01*
X101595771Y-116022889D01*
X101595771Y-115639427D01*
X101944794Y-115639427D01*
X101959131Y-115755497D01*
X102001043Y-115857277D01*
X102071800Y-115948394D01*
X102162935Y-116019298D01*
X102264713Y-116061284D01*
X102380767Y-116075645D01*
X102497767Y-116061229D01*
X102599753Y-116019195D01*
X102690467Y-115948394D01*
X102760786Y-115857329D01*
X102802473Y-115755546D01*
X102816741Y-115639427D01*
X102802486Y-115523632D01*
X102760812Y-115422004D01*
X102690467Y-115330949D01*
X102599786Y-115260255D01*
X102498031Y-115218315D01*
X102381500Y-115203942D01*
X102264945Y-115218299D01*
X102162933Y-115260230D01*
X102071800Y-115330949D01*
X102001017Y-115422056D01*
X101959118Y-115523680D01*
X101944794Y-115639427D01*
X101595771Y-115639427D01*
X101595771Y-115256454D01*
X98680000Y-115256454D01*
X98680000Y-116022889D01*
X98181089Y-116022889D01*
X98181089Y-113740683D01*
X98680000Y-113740683D01*
X100571416Y-113740683D01*
X100757076Y-113872612D01*
X100891374Y-114037683D01*
X100975358Y-114231875D01*
X101003726Y-114448255D01*
X100984431Y-114653663D01*
X100925324Y-114839288D01*
X101598213Y-114839288D01*
X101641054Y-114718712D01*
X101661228Y-114520307D01*
X101635476Y-114284126D01*
X101560844Y-114077983D01*
X101439417Y-113896798D01*
X101270439Y-113740683D01*
X101595771Y-113740683D01*
X101595771Y-112974249D01*
X98680000Y-112974249D01*
X98680000Y-113740683D01*
X98181089Y-113740683D01*
X98181089Y-111985066D01*
X98636036Y-111985066D01*
X98658995Y-112285484D01*
X98720788Y-112577355D01*
X99348736Y-112577355D01*
X99298667Y-112374633D01*
X99284012Y-112168981D01*
X99295743Y-112023150D01*
X99326010Y-111923149D01*
X99369986Y-111856594D01*
X99433699Y-111809585D01*
X99526740Y-111778032D01*
X99659658Y-111765980D01*
X100954877Y-111765980D01*
X100954877Y-112599092D01*
X101595771Y-112599092D01*
X101595771Y-111765980D01*
X102512903Y-111765980D01*
X102342421Y-111001256D01*
X101595771Y-111001256D01*
X101595771Y-110400907D01*
X100954877Y-110400907D01*
X100954877Y-111001256D01*
X99501388Y-111001256D01*
X99289781Y-111018823D01*
X99116081Y-111067901D01*
X98973041Y-111145319D01*
X98855366Y-111251116D01*
X98764840Y-111380674D01*
X98696438Y-111541489D01*
X98652097Y-111740222D01*
X98636036Y-111985066D01*
X98181089Y-111985066D01*
X98181089Y-108509734D01*
X98629685Y-108509734D01*
X98642854Y-108710502D01*
X98645474Y-108750440D01*
X98690746Y-108963293D01*
X98769542Y-109162654D01*
X98886140Y-109352128D01*
X98680000Y-109352128D01*
X98680000Y-110107327D01*
X100573859Y-110107327D01*
X100826941Y-110084999D01*
X101039129Y-110021918D01*
X101218256Y-109920987D01*
X101369846Y-109781018D01*
X101487448Y-109611839D01*
X101575273Y-109407437D01*
X101631530Y-109160780D01*
X101651702Y-108863154D01*
X101632509Y-108547027D01*
X101574521Y-108230321D01*
X101479655Y-107914045D01*
X101339804Y-107568667D01*
X100772672Y-107845394D01*
X100884290Y-108119263D01*
X100954145Y-108339009D01*
X100997515Y-108550068D01*
X101011053Y-108735903D01*
X100994712Y-108935038D01*
X100950821Y-109084574D01*
X100884291Y-109195812D01*
X100789379Y-109280213D01*
X100665022Y-109332977D01*
X100501807Y-109352128D01*
X100292735Y-109352128D01*
X100378067Y-109007350D01*
X100407041Y-108637718D01*
X100390291Y-108354542D01*
X100343660Y-108119166D01*
X100271302Y-107923923D01*
X100175498Y-107762351D01*
X100047890Y-107623878D01*
X99900269Y-107526645D01*
X99728698Y-107467120D01*
X99526789Y-107446301D01*
X99354936Y-107461869D01*
X99200690Y-107507169D01*
X99060530Y-107581856D01*
X98936856Y-107682486D01*
X98831612Y-107806709D01*
X98743991Y-107957501D01*
X98681741Y-108121363D01*
X98643113Y-108304345D01*
X98629685Y-108509734D01*
X98181089Y-108509734D01*
X98181089Y-103502023D01*
X98680000Y-103502023D01*
X101570858Y-103502023D01*
X98959902Y-104859281D01*
X101564508Y-106216538D01*
X98680000Y-106216538D01*
X98680000Y-106981263D01*
X102597166Y-106981263D01*
X102597166Y-105940544D01*
X100484466Y-104868806D01*
X102597166Y-103795603D01*
X102597166Y-102754884D01*
X98680000Y-102754884D01*
X98680000Y-103502023D01*
X98181089Y-103502023D01*
X98181089Y-102310440D01*
X103261185Y-102310440D01*
X103261185Y-133921659D01*
G37*
D11*
%TO.C,C14*%
X152115580Y-137590000D02*
X151834420Y-137590000D01*
X152115580Y-138610000D02*
X151834420Y-138610000D01*
%TO.C,C7*%
X151819800Y-129415580D02*
X151819800Y-129134420D01*
X150799800Y-129415580D02*
X150799800Y-129134420D01*
%TO.C,C8*%
X146009420Y-139160000D02*
X146290580Y-139160000D01*
X146009420Y-138140000D02*
X146290580Y-138140000D01*
D12*
%TO.C,L2*%
X148443500Y-128017900D02*
X142296700Y-128017900D01*
X142296700Y-128017900D02*
X142296700Y-129094860D01*
X142296700Y-133682100D02*
X148443500Y-133682100D01*
X148443500Y-133682100D02*
X148443500Y-132605140D01*
X148443500Y-129094860D02*
X148443500Y-128017900D01*
X142296700Y-132605140D02*
X142296700Y-133682100D01*
%TO.C,L1*%
X148493500Y-115967900D02*
X142346700Y-115967900D01*
X142346700Y-115967900D02*
X142346700Y-117044860D01*
X142346700Y-121632100D02*
X148493500Y-121632100D01*
X148493500Y-121632100D02*
X148493500Y-120555140D01*
X148493500Y-117044860D02*
X148493500Y-115967900D01*
X142346700Y-120555140D02*
X142346700Y-121632100D01*
%TO.C,J1*%
X160373001Y-106856449D02*
X160373001Y-107768760D01*
X160373001Y-109831240D02*
X160373001Y-112769004D01*
X160373001Y-114831484D02*
X160373001Y-117769248D01*
X160373001Y-119831728D02*
X160373001Y-122769492D01*
X160373001Y-124831972D02*
X160373001Y-127769736D01*
X160373001Y-129832216D02*
X160373001Y-130744527D01*
X160373001Y-132681588D02*
X168628001Y-132681588D01*
X168628001Y-104919388D02*
X160373001Y-104919388D01*
X168628001Y-110268882D02*
X168628001Y-106880928D01*
X168628001Y-115269126D02*
X168628001Y-112331362D01*
X168628001Y-120269370D02*
X168628001Y-117331606D01*
X168628001Y-125269614D02*
X168628001Y-122331850D01*
X168628001Y-130720048D02*
X168628001Y-127332094D01*
D13*
X162481000Y-133570588D02*
G75*
G02*
X161719000Y-133570588I-381000J0D01*
G01*
X161719000Y-133570588D02*
G75*
G02*
X162481000Y-133570588I381000J0D01*
G01*
D11*
%TO.C,R3*%
X149177500Y-126412258D02*
X149177500Y-125937742D01*
X150222500Y-126412258D02*
X150222500Y-125937742D01*
%TO.C,IC1*%
X152135000Y-116560000D02*
X150315000Y-116560000D01*
X152135000Y-116510000D02*
X152135000Y-116560000D01*
X152135000Y-113440000D02*
X152135000Y-113490000D01*
X150315000Y-116560000D02*
X150315000Y-116510000D01*
X150315000Y-115390000D02*
X150315000Y-114610000D01*
X150315000Y-113490000D02*
X150315000Y-113440000D01*
X150315000Y-113440000D02*
X152135000Y-113440000D01*
X152915000Y-116840000D02*
X152435000Y-116840000D01*
X152675000Y-116510000D01*
X152915000Y-116840000D01*
G36*
X152915000Y-116840000D02*
G01*
X152435000Y-116840000D01*
X152675000Y-116510000D01*
X152915000Y-116840000D01*
G37*
D12*
%TO.C,J2*%
X104376200Y-96078700D02*
X104376200Y-106721300D01*
X104376200Y-106721300D02*
X109769560Y-106721300D01*
X107269560Y-96078700D02*
X104376200Y-96078700D01*
X111730440Y-106721300D02*
X114769560Y-106721300D01*
X112269560Y-96078700D02*
X109230440Y-96078700D01*
X116730440Y-106721300D02*
X119769560Y-106721300D01*
X117269560Y-96078700D02*
X114230440Y-96078700D01*
X121730440Y-106721300D02*
X124769560Y-106721300D01*
X122269560Y-96078700D02*
X119230440Y-96078700D01*
X126730440Y-106721300D02*
X129623800Y-106721300D01*
X129623800Y-96078700D02*
X124230440Y-96078700D01*
X129623800Y-106721300D02*
X129623800Y-96078700D01*
D13*
X108631000Y-94399300D02*
G75*
G02*
X107869000Y-94399300I-381000J0D01*
G01*
X107869000Y-94399300D02*
G75*
G02*
X108631000Y-94399300I381000J0D01*
G01*
D11*
%TO.C,R4*%
X146387258Y-140722500D02*
X145912742Y-140722500D01*
X146387258Y-139677500D02*
X145912742Y-139677500D01*
%TO.C,C17*%
X152510000Y-118534420D02*
X152510000Y-118815580D01*
X151490000Y-118534420D02*
X151490000Y-118815580D01*
%TO.C,C1*%
X146074620Y-126290000D02*
X146355780Y-126290000D01*
X146074620Y-127310000D02*
X146355780Y-127310000D01*
%TO.C,U1*%
X148425200Y-124074432D02*
X148425200Y-125210000D01*
X146555200Y-125210000D02*
X146555200Y-123790000D01*
X148620200Y-123920000D02*
X148430200Y-123780000D01*
X148620200Y-123640000D01*
X148620200Y-123920000D01*
G36*
X148620200Y-123920000D02*
G01*
X148430200Y-123780000D01*
X148620200Y-123640000D01*
X148620200Y-123920000D01*
G37*
%TO.C,C2*%
X155010000Y-122113748D02*
X155010000Y-123536252D01*
X153190000Y-122113748D02*
X153190000Y-123536252D01*
%TO.C,R6*%
X149127500Y-138437258D02*
X149127500Y-137962742D01*
X150172500Y-138437258D02*
X150172500Y-137962742D01*
%TO.C,C4*%
X150210000Y-122659420D02*
X150210000Y-122940580D01*
X149190000Y-122659420D02*
X149190000Y-122940580D01*
%TO.C,J3*%
X112386068Y-115450000D02*
X112598200Y-115600000D01*
X112386068Y-115750000D02*
X112386068Y-115450000D01*
X112598200Y-115600000D02*
X112386068Y-115750000D01*
X112948200Y-115190000D02*
X112948200Y-119500000D01*
X112948200Y-123810000D02*
X112948200Y-119500000D01*
X113148200Y-114440000D02*
X113148200Y-115190000D01*
X113148200Y-115190000D02*
X112948200Y-115190000D01*
X113148200Y-123810000D02*
X112948200Y-123810000D01*
X113148200Y-124560000D02*
X113148200Y-123810000D01*
X116218200Y-114440000D02*
X113148200Y-114440000D01*
X116218200Y-115090000D02*
X116218200Y-114440000D01*
X116218200Y-123910000D02*
X116218200Y-124560000D01*
X116218200Y-124560000D02*
X113148200Y-124560000D01*
X116618200Y-115090000D02*
X116218200Y-115090000D01*
X116618200Y-115490000D02*
X116618200Y-115090000D01*
X116618200Y-123510000D02*
X116618200Y-123910000D01*
X116618200Y-123910000D02*
X116218200Y-123910000D01*
X117068200Y-115490000D02*
X116618200Y-115490000D01*
X117068200Y-119500000D02*
X117068200Y-115490000D01*
X117068200Y-119500000D02*
X117068200Y-123510000D01*
X117068200Y-123510000D02*
X116618200Y-123510000D01*
D12*
%TO.C,J5*%
X132376200Y-96078700D02*
X132376200Y-106721300D01*
X132376200Y-106721300D02*
X137769560Y-106721300D01*
X135269560Y-96078700D02*
X132376200Y-96078700D01*
X139730440Y-106721300D02*
X142769560Y-106721300D01*
X140269560Y-96078700D02*
X137230440Y-96078700D01*
X144730440Y-106721300D02*
X147769560Y-106721300D01*
X145269560Y-96078700D02*
X142230440Y-96078700D01*
X149730440Y-106721300D02*
X152769560Y-106721300D01*
X150269560Y-96078700D02*
X147230440Y-96078700D01*
X154730440Y-106721300D02*
X157623800Y-106721300D01*
X157623800Y-96078700D02*
X152230440Y-96078700D01*
X157623800Y-106721300D02*
X157623800Y-96078700D01*
D13*
X136631000Y-94399300D02*
G75*
G02*
X135869000Y-94399300I-381000J0D01*
G01*
X135869000Y-94399300D02*
G75*
G02*
X136631000Y-94399300I381000J0D01*
G01*
D11*
%TO.C,C13*%
X142390000Y-137211252D02*
X142390000Y-135788748D01*
X144210000Y-137211252D02*
X144210000Y-135788748D01*
%TO.C,C3*%
X152610000Y-122113748D02*
X152610000Y-123536252D01*
X150790000Y-122113748D02*
X150790000Y-123536252D01*
%TO.C,R2*%
X149177500Y-129512258D02*
X149177500Y-129037742D01*
X150222500Y-129512258D02*
X150222500Y-129037742D01*
%TO.C,C19*%
X147665580Y-114610000D02*
X147384420Y-114610000D01*
X147665580Y-113590000D02*
X147384420Y-113590000D01*
%TO.C,C11*%
X149140000Y-134784420D02*
X149140000Y-135065580D01*
X150160000Y-134784420D02*
X150160000Y-135065580D01*
%TO.C,C12*%
X139890000Y-137211252D02*
X139890000Y-135788748D01*
X141710000Y-137211252D02*
X141710000Y-135788748D01*
%TO.C,R1*%
X150712258Y-132122500D02*
X150237742Y-132122500D01*
X150712258Y-131077500D02*
X150237742Y-131077500D01*
%TO.C,R7*%
X124612258Y-123777500D02*
X124137742Y-123777500D01*
X124612258Y-124822500D02*
X124137742Y-124822500D01*
D12*
%TO.C,U2*%
X126326400Y-114726400D02*
X126326400Y-115365260D01*
X126326400Y-123434740D02*
X126326400Y-124073600D01*
X126326400Y-124073600D02*
X126965260Y-124073600D01*
X126965260Y-114726400D02*
X126326400Y-114726400D01*
X135034740Y-124073600D02*
X135673600Y-124073600D01*
X135673600Y-114726400D02*
X135034740Y-114726400D01*
X135673600Y-115365260D02*
X135673600Y-114726400D01*
X135673600Y-124073600D02*
X135673600Y-123434740D01*
D14*
G36*
X125899401Y-119590500D02*
G01*
X125645401Y-119590500D01*
X125645401Y-119209500D01*
X125899401Y-119209500D01*
X125899401Y-119590500D01*
G37*
G36*
X127590500Y-124500600D02*
G01*
X127590500Y-124754599D01*
X127209500Y-124754599D01*
X127209500Y-124500599D01*
X127590500Y-124500600D01*
G37*
G36*
X129990500Y-114299401D02*
G01*
X129609500Y-114299401D01*
X129609500Y-114045401D01*
X129990500Y-114045401D01*
X129990500Y-114299401D01*
G37*
G36*
X131590499Y-124754599D02*
G01*
X131209499Y-124754599D01*
X131209499Y-124500599D01*
X131590499Y-124500599D01*
X131590499Y-124754599D01*
G37*
G36*
X133990499Y-114299401D02*
G01*
X133609499Y-114299400D01*
X133609499Y-114045401D01*
X133990499Y-114045401D01*
X133990499Y-114299401D01*
G37*
G36*
X136354599Y-118790499D02*
G01*
X136100599Y-118790499D01*
X136100599Y-118409499D01*
X136354599Y-118409499D01*
X136354599Y-118790499D01*
G37*
G36*
X136354599Y-122790499D02*
G01*
X136100599Y-122790499D01*
X136100599Y-122409499D01*
X136354599Y-122409499D01*
X136354599Y-122790499D01*
G37*
D11*
%TO.C,U3*%
X148385000Y-136074432D02*
X148385000Y-137210000D01*
X146515000Y-137210000D02*
X146515000Y-135790000D01*
X148580000Y-135920000D02*
X148390000Y-135780000D01*
X148580000Y-135640000D01*
X148580000Y-135920000D01*
G36*
X148580000Y-135920000D02*
G01*
X148390000Y-135780000D01*
X148580000Y-135640000D01*
X148580000Y-135920000D01*
G37*
%TO.C,C6*%
X139880200Y-125111252D02*
X139880200Y-123688748D01*
X141700200Y-125111252D02*
X141700200Y-123688748D01*
%TO.C,C18*%
X150810000Y-118534420D02*
X150810000Y-118815580D01*
X149790000Y-118534420D02*
X149790000Y-118815580D01*
%TO.C,J4*%
X112356434Y-129450000D02*
X112568566Y-129600000D01*
X112356434Y-129750000D02*
X112356434Y-129450000D01*
X112568566Y-129600000D02*
X112356434Y-129750000D01*
X112918566Y-129190000D02*
X112918566Y-133500000D01*
X112918566Y-137810000D02*
X112918566Y-133500000D01*
X113118566Y-128440000D02*
X113118566Y-129190000D01*
X113118566Y-129190000D02*
X112918566Y-129190000D01*
X113118566Y-137810000D02*
X112918566Y-137810000D01*
X113118566Y-138560000D02*
X113118566Y-137810000D01*
X116188566Y-128440000D02*
X113118566Y-128440000D01*
X116188566Y-129090000D02*
X116188566Y-128440000D01*
X116188566Y-137910000D02*
X116188566Y-138560000D01*
X116188566Y-138560000D02*
X113118566Y-138560000D01*
X116588566Y-129090000D02*
X116188566Y-129090000D01*
X116588566Y-129490000D02*
X116588566Y-129090000D01*
X116588566Y-137510000D02*
X116588566Y-137910000D01*
X116588566Y-137910000D02*
X116188566Y-137910000D01*
X117038566Y-129490000D02*
X116588566Y-129490000D01*
X117038566Y-133500000D02*
X117038566Y-129490000D01*
X117038566Y-133500000D02*
X117038566Y-137510000D01*
X117038566Y-137510000D02*
X116588566Y-137510000D01*
%TO.C,C10*%
X150740000Y-134213748D02*
X150740000Y-135636252D01*
X152560000Y-134213748D02*
X152560000Y-135636252D01*
%TO.C,R5*%
X152212258Y-140222500D02*
X151737742Y-140222500D01*
X152212258Y-139177500D02*
X151737742Y-139177500D01*
%TO.C,C9*%
X153140000Y-134213748D02*
X153140000Y-135636252D01*
X154960000Y-134213748D02*
X154960000Y-135636252D01*
%TO.C,C5*%
X142380200Y-125111252D02*
X142380200Y-123688748D01*
X144200200Y-125111252D02*
X144200200Y-123688748D01*
%TD*%
M02*
