%TF.GenerationSoftware,KiCad,Pcbnew,9.0.7*%
%TF.CreationDate,2026-02-21T00:44:39-08:00*%
%TF.ProjectId,matrix-driver,6d617472-6978-42d6-9472-697665722e6b,rev?*%
%TF.SameCoordinates,Original*%
%TF.FileFunction,Soldermask,Top*%
%TF.FilePolarity,Negative*%
%FSLAX46Y46*%
G04 Gerber Fmt 4.6, Leading zero omitted, Abs format (unit mm)*
G04 Created by KiCad (PCBNEW 9.0.7) date 2026-02-21 00:44:39*
%MOMM*%
%LPD*%
G01*
G04 APERTURE LIST*
G04 Aperture macros list*
%AMRoundRect*
0 Rectangle with rounded corners*
0 $1 Rounding radius*
0 $2 $3 $4 $5 $6 $7 $8 $9 X,Y pos of 4 corners*
0 Add a 4 corners polygon primitive as box body*
4,1,4,$2,$3,$4,$5,$6,$7,$8,$9,$2,$3,0*
0 Add four circle primitives for the rounded corners*
1,1,$1+$1,$2,$3*
1,1,$1+$1,$4,$5*
1,1,$1+$1,$6,$7*
1,1,$1+$1,$8,$9*
0 Add four rect primitives between the rounded corners*
20,1,$1+$1,$2,$3,$4,$5,0*
20,1,$1+$1,$4,$5,$6,$7,0*
20,1,$1+$1,$6,$7,$8,$9,0*
20,1,$1+$1,$8,$9,$2,$3,0*%
G04 Aperture macros list end*
%ADD10O,1.700000X1.950000*%
%ADD11RoundRect,0.250000X-0.600000X-0.725000X0.600000X-0.725000X0.600000X0.725000X-0.600000X0.725000X0*%
%ADD12C,1.250000*%
%ADD13O,1.950000X1.700000*%
%ADD14RoundRect,0.250000X-0.725000X0.600000X-0.725000X-0.600000X0.725000X-0.600000X0.725000X0.600000X0*%
%ADD15R,1.700000X1.700000*%
%ADD16RoundRect,0.200000X0.275000X-0.200000X0.275000X0.200000X-0.275000X0.200000X-0.275000X-0.200000X0*%
%ADD17C,3.200000*%
%ADD18RoundRect,0.150000X0.512500X0.150000X-0.512500X0.150000X-0.512500X-0.150000X0.512500X-0.150000X0*%
%ADD19RoundRect,0.200000X0.200000X0.275000X-0.200000X0.275000X-0.200000X-0.275000X0.200000X-0.275000X0*%
%ADD20RoundRect,0.225000X-0.250000X0.225000X-0.250000X-0.225000X0.250000X-0.225000X0.250000X0.225000X0*%
%ADD21RoundRect,0.225000X-0.225000X-0.250000X0.225000X-0.250000X0.225000X0.250000X-0.225000X0.250000X0*%
%ADD22R,2.057400X2.844800*%
%ADD23RoundRect,0.087500X-0.087500X0.250000X-0.087500X-0.250000X0.087500X-0.250000X0.087500X0.250000X0*%
%ADD24RoundRect,0.250000X-0.650000X0.325000X-0.650000X-0.325000X0.650000X-0.325000X0.650000X0.325000X0*%
%ADD25R,0.800000X0.300000*%
%ADD26R,0.650000X0.300000*%
%ADD27R,0.950000X0.400000*%
%ADD28RoundRect,0.250000X0.650000X-0.325000X0.650000X0.325000X-0.650000X0.325000X-0.650000X-0.325000X0*%
%ADD29RoundRect,0.225000X0.225000X0.250000X-0.225000X0.250000X-0.225000X-0.250000X0.225000X-0.250000X0*%
%ADD30RoundRect,0.225000X0.250000X-0.225000X0.250000X0.225000X-0.250000X0.225000X-0.250000X-0.225000X0*%
%ADD31R,0.909599X0.204000*%
%ADD32R,0.204000X0.909599*%
%ADD33R,6.400800X6.400800*%
G04 APERTURE END LIST*
D10*
%TO.C,J6*%
X153700000Y-97300000D03*
X151200000Y-97300000D03*
X148700000Y-97300000D03*
X146200000Y-97300000D03*
X143700000Y-97300000D03*
X141200000Y-97300000D03*
X138700000Y-97300000D03*
D11*
X136200000Y-97300000D03*
D12*
X134600000Y-98900000D03*
%TD*%
D10*
%TO.C,J5*%
X125650000Y-97300000D03*
X123150000Y-97300000D03*
X120650000Y-97300000D03*
X118150000Y-97300000D03*
X115650000Y-97300000D03*
X113150000Y-97300000D03*
X110650000Y-97300000D03*
D11*
X108150000Y-97300000D03*
D12*
X106550000Y-98900000D03*
%TD*%
D13*
%TO.C,J2*%
X168800000Y-131750000D03*
X168800000Y-129250000D03*
X168800000Y-126750000D03*
X168800000Y-124250000D03*
X168800000Y-121750000D03*
X168800000Y-119250000D03*
X168800000Y-116750000D03*
X168800000Y-114250000D03*
X168800000Y-111750000D03*
X168800000Y-109250000D03*
X168800000Y-106750000D03*
D14*
X168800000Y-104250000D03*
D12*
X167200000Y-102650000D03*
%TD*%
D15*
%TO.C,J1*%
X164400000Y-98000000D03*
%TD*%
D16*
%TO.C,R5*%
X149700000Y-127000000D03*
X149700000Y-125350000D03*
%TD*%
D17*
%TO.C,H4*%
X170000000Y-138000000D03*
%TD*%
D18*
%TO.C,IC1*%
X152362500Y-115950000D03*
X152362500Y-115000000D03*
X152362500Y-114050000D03*
X150087500Y-114050000D03*
X150087500Y-115950000D03*
%TD*%
D17*
%TO.C,H3*%
X100000000Y-138000000D03*
%TD*%
D19*
%TO.C,R3*%
X146975000Y-140200000D03*
X145325000Y-140200000D03*
%TD*%
D20*
%TO.C,C7*%
X152000000Y-117900000D03*
X152000000Y-119450000D03*
%TD*%
D21*
%TO.C,C9*%
X145440200Y-126800000D03*
X146990200Y-126800000D03*
%TD*%
D22*
%TO.C,L2*%
X147440200Y-130850000D03*
X143300000Y-130850000D03*
%TD*%
D23*
%TO.C,U2*%
X147990200Y-123787500D03*
X147490200Y-123787500D03*
X146990200Y-123787500D03*
X146990200Y-125212500D03*
X147490200Y-125212500D03*
X147990200Y-125212500D03*
%TD*%
D24*
%TO.C,C1*%
X154100000Y-121350000D03*
X154100000Y-124300000D03*
%TD*%
D16*
%TO.C,R7*%
X149650000Y-139025000D03*
X149650000Y-137375000D03*
%TD*%
D20*
%TO.C,C5*%
X149700000Y-122025000D03*
X149700000Y-123575000D03*
%TD*%
D25*
%TO.C,J3*%
X113608200Y-115600000D03*
D26*
X116483200Y-115900000D03*
D25*
X113608200Y-116200000D03*
D26*
X116483200Y-116500000D03*
D25*
X113608200Y-116800000D03*
D26*
X116483200Y-117100000D03*
D25*
X113608200Y-117400000D03*
D26*
X116483200Y-117700000D03*
D25*
X113608200Y-118000000D03*
D26*
X116483200Y-118300000D03*
D25*
X113608200Y-118600000D03*
D26*
X116483200Y-118900000D03*
D25*
X113608200Y-119200000D03*
D26*
X116483200Y-119500000D03*
D25*
X113608200Y-119800000D03*
D26*
X116483200Y-120100000D03*
D25*
X113608200Y-120400000D03*
D26*
X116483200Y-120700000D03*
D25*
X113608200Y-121000000D03*
D26*
X116483200Y-121300000D03*
D25*
X113608200Y-121600000D03*
D26*
X116483200Y-121900000D03*
D25*
X113608200Y-122200000D03*
D26*
X116483200Y-122500000D03*
D25*
X113608200Y-122800000D03*
D26*
X116483200Y-123100000D03*
D25*
X113608200Y-123400000D03*
D27*
X113883200Y-114900000D03*
X113883200Y-124100000D03*
%TD*%
D17*
%TO.C,H1*%
X100000000Y-98000000D03*
%TD*%
D22*
%TO.C,L1*%
X147490200Y-118800000D03*
X143350000Y-118800000D03*
%TD*%
D28*
%TO.C,C17*%
X143300000Y-137975000D03*
X143300000Y-135025000D03*
%TD*%
D24*
%TO.C,C3*%
X151700000Y-121350000D03*
X151700000Y-124300000D03*
%TD*%
D16*
%TO.C,R4*%
X149700000Y-130100000D03*
X149700000Y-128450000D03*
%TD*%
D29*
%TO.C,C12*%
X152750000Y-138100000D03*
X151200000Y-138100000D03*
%TD*%
%TO.C,C13*%
X148300000Y-114100000D03*
X146750000Y-114100000D03*
%TD*%
D20*
%TO.C,C6*%
X149650000Y-134150000D03*
X149650000Y-135700000D03*
%TD*%
D28*
%TO.C,C15*%
X140800000Y-137975000D03*
X140800000Y-135025000D03*
%TD*%
D30*
%TO.C,C11*%
X151309800Y-130050000D03*
X151309800Y-128500000D03*
%TD*%
D19*
%TO.C,R2*%
X151300000Y-131600000D03*
X149650000Y-131600000D03*
%TD*%
%TO.C,R1*%
X125200000Y-124300000D03*
X123550000Y-124300000D03*
%TD*%
D17*
%TO.C,H2*%
X170000000Y-98000000D03*
%TD*%
D31*
%TO.C,U1*%
X126608200Y-115800000D03*
X126608199Y-116200001D03*
X126608200Y-116600001D03*
X126608200Y-117000000D03*
X126608200Y-117400002D03*
X126608200Y-117800000D03*
X126608200Y-118199999D03*
X126608200Y-118599998D03*
X126608199Y-119000001D03*
X126608199Y-119400000D03*
X126608199Y-119799999D03*
X126608200Y-120200002D03*
X126608200Y-120600001D03*
X126608200Y-121000000D03*
X126608200Y-121399998D03*
X126608200Y-121800000D03*
X126608200Y-122199999D03*
X126608199Y-122599999D03*
X126608200Y-123000000D03*
D32*
X127400000Y-123791800D03*
X127800001Y-123791801D03*
X128200001Y-123791800D03*
X128600000Y-123791800D03*
X128999999Y-123791800D03*
X129400000Y-123791800D03*
X129799999Y-123791800D03*
X130199998Y-123791800D03*
X130600001Y-123791801D03*
X131000000Y-123791801D03*
X131399999Y-123791801D03*
X131800002Y-123791800D03*
X132200001Y-123791800D03*
X132600000Y-123791800D03*
X132999998Y-123791800D03*
X133400000Y-123791800D03*
X133799999Y-123791800D03*
X134199999Y-123791801D03*
X134600000Y-123791800D03*
D31*
X135391800Y-123000000D03*
X135391801Y-122599999D03*
X135391800Y-122199999D03*
X135391800Y-121800000D03*
X135391800Y-121400001D03*
X135391800Y-121000000D03*
X135391800Y-120600001D03*
X135391800Y-120200002D03*
X135391801Y-119799999D03*
X135391801Y-119400000D03*
X135391801Y-119000001D03*
X135391800Y-118599998D03*
X135391800Y-118199999D03*
X135391800Y-117800000D03*
X135391800Y-117400002D03*
X135391800Y-117000000D03*
X135391800Y-116600001D03*
X135391801Y-116200001D03*
X135391800Y-115800000D03*
D32*
X134600000Y-115008200D03*
X134199999Y-115008199D03*
X133799999Y-115008200D03*
X133400000Y-115008200D03*
X133000001Y-115008200D03*
X132600000Y-115008200D03*
X132200001Y-115008200D03*
X131800002Y-115008200D03*
X131399999Y-115008199D03*
X131000000Y-115008199D03*
X130600001Y-115008199D03*
X130199998Y-115008200D03*
X129799999Y-115008200D03*
X129400000Y-115008200D03*
X129000002Y-115008200D03*
X128600000Y-115008200D03*
X128200001Y-115008200D03*
X127800001Y-115008199D03*
X127400000Y-115008200D03*
D33*
X131000000Y-119400000D03*
%TD*%
D23*
%TO.C,U3*%
X147950000Y-135787500D03*
X147450000Y-135787500D03*
X146950000Y-135787500D03*
X146950000Y-137212500D03*
X147450000Y-137212500D03*
X147950000Y-137212500D03*
%TD*%
D28*
%TO.C,C16*%
X140790200Y-125875000D03*
X140790200Y-122925000D03*
%TD*%
D20*
%TO.C,C8*%
X150300000Y-117900000D03*
X150300000Y-119450000D03*
%TD*%
D25*
%TO.C,J4*%
X113578566Y-129600000D03*
D26*
X116453566Y-129900000D03*
D25*
X113578566Y-130200000D03*
D26*
X116453566Y-130500000D03*
D25*
X113578566Y-130800000D03*
D26*
X116453566Y-131100000D03*
D25*
X113578566Y-131400000D03*
D26*
X116453566Y-131700000D03*
D25*
X113578566Y-132000000D03*
D26*
X116453566Y-132300000D03*
D25*
X113578566Y-132600000D03*
D26*
X116453566Y-132900000D03*
D25*
X113578566Y-133200000D03*
D26*
X116453566Y-133500000D03*
D25*
X113578566Y-133800000D03*
D26*
X116453566Y-134100000D03*
D25*
X113578566Y-134400000D03*
D26*
X116453566Y-134700000D03*
D25*
X113578566Y-135000000D03*
D26*
X116453566Y-135300000D03*
D25*
X113578566Y-135600000D03*
D26*
X116453566Y-135900000D03*
D25*
X113578566Y-136200000D03*
D26*
X116453566Y-136500000D03*
D25*
X113578566Y-136800000D03*
D26*
X116453566Y-137100000D03*
D25*
X113578566Y-137400000D03*
D27*
X113853566Y-128900000D03*
X113853566Y-138100000D03*
%TD*%
D24*
%TO.C,C4*%
X151650000Y-133450000D03*
X151650000Y-136400000D03*
%TD*%
D19*
%TO.C,R6*%
X152800000Y-139700000D03*
X151150000Y-139700000D03*
%TD*%
D24*
%TO.C,C2*%
X154050000Y-133450000D03*
X154050000Y-136400000D03*
%TD*%
D28*
%TO.C,C14*%
X143290200Y-125875000D03*
X143290200Y-122925000D03*
%TD*%
D21*
%TO.C,C10*%
X145375000Y-138650000D03*
X146925000Y-138650000D03*
%TD*%
M02*
