%TF.GenerationSoftware,KiCad,Pcbnew,9.0.7*%
%TF.CreationDate,2026-02-20T11:37:07-08:00*%
%TF.ProjectId,rgb-plate,7267622d-706c-4617-9465-2e6b69636164,rev?*%
%TF.SameCoordinates,Original*%
%TF.FileFunction,Copper,L3,Inr*%
%TF.FilePolarity,Positive*%
%FSLAX46Y46*%
G04 Gerber Fmt 4.6, Leading zero omitted, Abs format (unit mm)*
G04 Created by KiCad (PCBNEW 9.0.7) date 2026-02-20 11:37:07*
%MOMM*%
%LPD*%
G01*
G04 APERTURE LIST*
%TA.AperFunction,ViaPad*%
%ADD10C,0.400000*%
%TD*%
%TA.AperFunction,Conductor*%
%ADD11C,0.500000*%
%TD*%
%TA.AperFunction,Conductor*%
%ADD12C,0.400000*%
%TD*%
G04 APERTURE END LIST*
D10*
%TO.N,+3.3V*%
X171014998Y-124149000D03*
X171020805Y-84714399D03*
X155200000Y-85200000D03*
X115100000Y-125300000D03*
%TO.N,/matrix_driver_conn/TH2*%
X169400000Y-125200000D03*
X117110000Y-125200000D03*
%TO.N,GND*%
X176100000Y-105000000D03*
X102300000Y-95035000D03*
X177300000Y-90700000D03*
X177300000Y-80600000D03*
X141100000Y-140800000D03*
X151700000Y-95600000D03*
X176700000Y-80600000D03*
X176100000Y-100600000D03*
X141700000Y-105500000D03*
X111100000Y-90600000D03*
X131700000Y-85800000D03*
X131700000Y-140800000D03*
X177300000Y-95035000D03*
X101700000Y-125700000D03*
X176100000Y-105600000D03*
X161100000Y-110500000D03*
X141100000Y-100700000D03*
X121700000Y-140200000D03*
X131700000Y-80700000D03*
X121700000Y-80700000D03*
X121100000Y-120100000D03*
X141700000Y-110010002D03*
X151700000Y-140700000D03*
X131100000Y-115700000D03*
X176100000Y-80000000D03*
X152300000Y-140700000D03*
X111100000Y-115000000D03*
X122300000Y-110035000D03*
X132300000Y-135200000D03*
X151100000Y-100000000D03*
X111100000Y-100100000D03*
X101700000Y-100600000D03*
X111700000Y-85010002D03*
X152300000Y-80600000D03*
X141700000Y-80700000D03*
X141700000Y-90600000D03*
X121700000Y-115100000D03*
X132300000Y-100700000D03*
X151100000Y-115600000D03*
X142300000Y-90035000D03*
X122300000Y-110600000D03*
X121700000Y-105200000D03*
X131700000Y-125800000D03*
X151700000Y-105700000D03*
X132300000Y-130100000D03*
X112300000Y-130700000D03*
X176700000Y-80010002D03*
X152300000Y-100035000D03*
X111100000Y-105500000D03*
X151100000Y-110000000D03*
X111100000Y-130700000D03*
X112300000Y-135100000D03*
X122300000Y-130100000D03*
X141700000Y-75600000D03*
X161700000Y-120010002D03*
X131700000Y-90100000D03*
X101100000Y-95500000D03*
X151700000Y-120600000D03*
X111700000Y-105010002D03*
X151700000Y-80600000D03*
X176700000Y-100600000D03*
X101100000Y-85600000D03*
X177300000Y-95500000D03*
X131100000Y-100700000D03*
X131700000Y-105800000D03*
X102300000Y-80600000D03*
X176700000Y-140300000D03*
X131100000Y-110000000D03*
X122300000Y-115700000D03*
X141700000Y-140200000D03*
X176700000Y-135200000D03*
X121100000Y-95700000D03*
X141100000Y-120700000D03*
X122300000Y-100700000D03*
X102300000Y-105600000D03*
X141700000Y-140800000D03*
X121700000Y-110010002D03*
X161700000Y-90010002D03*
X152300000Y-80035000D03*
X121100000Y-130100000D03*
X112300000Y-120100000D03*
X141700000Y-80100000D03*
X102300000Y-70700000D03*
X151100000Y-95600000D03*
X142300000Y-110600000D03*
X112300000Y-80700000D03*
X102300000Y-100600000D03*
X161100000Y-100600000D03*
X177300000Y-100035000D03*
X151100000Y-90000000D03*
X101100000Y-65000000D03*
X111100000Y-115600000D03*
X141700000Y-100100000D03*
X162300000Y-140100000D03*
X121100000Y-85200000D03*
X122300000Y-90700000D03*
X122300000Y-115100000D03*
X131100000Y-105800000D03*
X111700000Y-115010002D03*
X112300000Y-100700000D03*
X131100000Y-110600000D03*
X162300000Y-95600000D03*
X111100000Y-105000000D03*
X177300000Y-140300000D03*
X141100000Y-130700000D03*
X132300000Y-80100000D03*
X161100000Y-85700000D03*
X176700000Y-135800000D03*
X111100000Y-110600000D03*
X101100000Y-70100000D03*
X151100000Y-80000000D03*
X102300000Y-130200000D03*
X112300000Y-110600000D03*
X102300000Y-85600000D03*
X177300000Y-70100000D03*
X131100000Y-85200000D03*
X111700000Y-140800000D03*
X112300000Y-95035000D03*
X121700000Y-115700000D03*
X111700000Y-100100000D03*
X141700000Y-75010002D03*
X121100000Y-135800000D03*
X111100000Y-120700000D03*
X111100000Y-135100000D03*
X121100000Y-80700000D03*
X101700000Y-135800000D03*
X152300000Y-140100000D03*
X152300000Y-105100000D03*
X101100000Y-70700000D03*
X121100000Y-100700000D03*
X131100000Y-130700000D03*
X101100000Y-130200000D03*
X111700000Y-95010002D03*
X132300000Y-95700000D03*
X141100000Y-105500000D03*
X121700000Y-130700000D03*
X176700000Y-70100000D03*
X141700000Y-120700000D03*
X101100000Y-115000000D03*
X131100000Y-90700000D03*
X122300000Y-105800000D03*
X112300000Y-115035000D03*
X161700000Y-80600000D03*
X101700000Y-110100000D03*
X142300000Y-95035000D03*
X101700000Y-90100000D03*
X111100000Y-95600000D03*
X152300000Y-120035000D03*
X151100000Y-90600000D03*
X142300000Y-130100000D03*
X161100000Y-115600000D03*
X111700000Y-85600000D03*
X176700000Y-75600000D03*
X101100000Y-80000000D03*
X131100000Y-120100000D03*
X162300000Y-90035000D03*
X177300000Y-70700000D03*
X111100000Y-80100000D03*
X101100000Y-130800000D03*
X151700000Y-120010002D03*
X161100000Y-105700000D03*
X176100000Y-95000000D03*
X161100000Y-80000000D03*
X111700000Y-135100000D03*
X121700000Y-135800000D03*
X151100000Y-95000000D03*
X142300000Y-100100000D03*
X112300000Y-135700000D03*
X102300000Y-90100000D03*
X111100000Y-90000000D03*
X111100000Y-85000000D03*
X177300000Y-105035000D03*
X176700000Y-95500000D03*
X131700000Y-140200000D03*
X142300000Y-130700000D03*
X176100000Y-140900000D03*
X131700000Y-95700000D03*
X132300000Y-120100000D03*
X151700000Y-130010002D03*
X131700000Y-110010002D03*
X131100000Y-95700000D03*
X152300000Y-115600000D03*
X122300000Y-80100000D03*
X161700000Y-85700000D03*
X151100000Y-120000000D03*
X162300000Y-120035000D03*
X102300000Y-65600000D03*
X176100000Y-80600000D03*
X131700000Y-80100000D03*
X161700000Y-135700000D03*
X101100000Y-100000000D03*
X111100000Y-140200000D03*
X111700000Y-135700000D03*
X111100000Y-95000000D03*
X122300000Y-95700000D03*
X121100000Y-80100000D03*
X101100000Y-120100000D03*
X121100000Y-140200000D03*
X101100000Y-120700000D03*
X161100000Y-95600000D03*
X112300000Y-125035000D03*
X132300000Y-115700000D03*
X141100000Y-130100000D03*
X102300000Y-105035000D03*
X161100000Y-130000000D03*
X122300000Y-90100000D03*
X112300000Y-105035000D03*
X176700000Y-95010002D03*
X101100000Y-105600000D03*
X162300000Y-140700000D03*
X141700000Y-130100000D03*
X102300000Y-120100000D03*
X101700000Y-95010002D03*
X131100000Y-135800000D03*
X131100000Y-80700000D03*
X162300000Y-80035000D03*
X101100000Y-135200000D03*
X131100000Y-85800000D03*
X102300000Y-125100000D03*
X101100000Y-110700000D03*
X141100000Y-90600000D03*
X101100000Y-75000000D03*
X111700000Y-130100000D03*
X142300000Y-115035000D03*
X101700000Y-75600000D03*
X177300000Y-135200000D03*
X132300000Y-85200000D03*
X142300000Y-105500000D03*
X161100000Y-90000000D03*
X141700000Y-110600000D03*
X121100000Y-110000000D03*
X111700000Y-120100000D03*
X161100000Y-105100000D03*
X151100000Y-85700000D03*
X121700000Y-85200000D03*
X152300000Y-85100000D03*
X101100000Y-65600000D03*
X151700000Y-95010002D03*
X131700000Y-120700000D03*
X102300000Y-75035000D03*
X151700000Y-80010002D03*
X161100000Y-120000000D03*
X101700000Y-105600000D03*
X141100000Y-95600000D03*
X122300000Y-135800000D03*
X102300000Y-125700000D03*
X151700000Y-110010002D03*
X177300000Y-85035000D03*
X131100000Y-125800000D03*
X161100000Y-109900000D03*
X151100000Y-130000000D03*
X152300000Y-120600000D03*
X101100000Y-110100000D03*
X101700000Y-85010002D03*
X121700000Y-135200000D03*
X102300000Y-115600000D03*
X101700000Y-135200000D03*
X142300000Y-110035000D03*
X102300000Y-135200000D03*
X141100000Y-75000000D03*
X102300000Y-85035000D03*
X141700000Y-85010002D03*
X172700000Y-65879000D03*
X131100000Y-90100000D03*
X111100000Y-80700000D03*
X131700000Y-115100000D03*
X122300000Y-85800000D03*
X161100000Y-130600000D03*
X131100000Y-120700000D03*
X152300000Y-90035000D03*
X141700000Y-90010002D03*
X121700000Y-140800000D03*
X121100000Y-130700000D03*
X121100000Y-115700000D03*
X101100000Y-90700000D03*
X102300000Y-135800000D03*
X101100000Y-125700000D03*
X132300000Y-135800000D03*
X151700000Y-110500000D03*
X121700000Y-100100000D03*
X142300000Y-80700000D03*
X176100000Y-140300000D03*
X111700000Y-110010002D03*
X122300000Y-120700000D03*
X121100000Y-95100000D03*
X151700000Y-100010002D03*
X111700000Y-75010002D03*
X102300000Y-115035000D03*
X121100000Y-115100000D03*
X161700000Y-130010002D03*
X131700000Y-135200000D03*
X152300000Y-100600000D03*
X111100000Y-75000000D03*
X176700000Y-70700000D03*
X152300000Y-95035000D03*
X121100000Y-110600000D03*
X162300000Y-100600000D03*
X132300000Y-110035000D03*
X121700000Y-130100000D03*
X111100000Y-125000000D03*
X111700000Y-140200000D03*
X102300000Y-110700000D03*
X161700000Y-95010002D03*
X141100000Y-110600000D03*
X111700000Y-75600000D03*
X151700000Y-140100000D03*
X114300000Y-125400000D03*
X141700000Y-105010002D03*
X101100000Y-140300000D03*
X132300000Y-90100000D03*
X174400000Y-65879000D03*
X141100000Y-135700000D03*
X161700000Y-95600000D03*
X101700000Y-65010002D03*
X101700000Y-70100000D03*
X152300000Y-130035000D03*
X101100000Y-90100000D03*
X131100000Y-130100000D03*
X102300000Y-95500000D03*
X141700000Y-95600000D03*
X101700000Y-90700000D03*
X111700000Y-110600000D03*
X132300000Y-80700000D03*
X142300000Y-135100000D03*
X121700000Y-100700000D03*
X176700000Y-100010002D03*
X101700000Y-105010002D03*
X132300000Y-105200000D03*
X141100000Y-140200000D03*
X121100000Y-105800000D03*
X142300000Y-90600000D03*
X111700000Y-90010002D03*
X151700000Y-85700000D03*
X151100000Y-135700000D03*
X151100000Y-80600000D03*
X131100000Y-140200000D03*
X176100000Y-135200000D03*
X141700000Y-135700000D03*
X121100000Y-135200000D03*
X176700000Y-105010002D03*
X132300000Y-105800000D03*
X121100000Y-105200000D03*
X161100000Y-140700000D03*
X162300000Y-100035000D03*
X111100000Y-140800000D03*
X101700000Y-120700000D03*
X152300000Y-90600000D03*
X121700000Y-120100000D03*
X151100000Y-110500000D03*
X151700000Y-130600000D03*
X161100000Y-120600000D03*
X132300000Y-110600000D03*
X131700000Y-115700000D03*
X112300000Y-110035000D03*
X122300000Y-140200000D03*
X131700000Y-135800000D03*
X176100000Y-135800000D03*
X131700000Y-105200000D03*
X131700000Y-90700000D03*
X152300000Y-135100000D03*
X161100000Y-95000000D03*
X161700000Y-140100000D03*
X111700000Y-95600000D03*
X141100000Y-95000000D03*
X102300000Y-130800000D03*
X161100000Y-140100000D03*
X141100000Y-135100000D03*
X132300000Y-125800000D03*
X111100000Y-75600000D03*
X151100000Y-115000000D03*
X161100000Y-90600000D03*
X122300000Y-130700000D03*
X161700000Y-90600000D03*
X102300000Y-140300000D03*
X121100000Y-100100000D03*
X177300000Y-90100000D03*
X121100000Y-120700000D03*
X111700000Y-80100000D03*
X151700000Y-115010002D03*
X121700000Y-85800000D03*
X101100000Y-80600000D03*
X152300000Y-130600000D03*
X102300000Y-120700000D03*
X131100000Y-115100000D03*
X141100000Y-115600000D03*
X112300000Y-140200000D03*
X151100000Y-135100000D03*
X177300000Y-80035000D03*
X142300000Y-140800000D03*
X152300000Y-115035000D03*
X152300000Y-95600000D03*
X101100000Y-100600000D03*
X176700000Y-140900000D03*
X111100000Y-120100000D03*
X176700000Y-75010002D03*
X101700000Y-65600000D03*
X112300000Y-100100000D03*
X142300000Y-75600000D03*
X122300000Y-100100000D03*
X132300000Y-85800000D03*
X121100000Y-90100000D03*
X122300000Y-85200000D03*
X162300000Y-135100000D03*
X121700000Y-90100000D03*
X112300000Y-140800000D03*
X121700000Y-110600000D03*
X177300000Y-100600000D03*
X111700000Y-115600000D03*
X141700000Y-85600000D03*
X111700000Y-130700000D03*
X101100000Y-105000000D03*
X101700000Y-130200000D03*
X111700000Y-90600000D03*
X101700000Y-70700000D03*
X112300000Y-120700000D03*
X111100000Y-130100000D03*
X102300000Y-140900000D03*
X101700000Y-110700000D03*
X112300000Y-125600000D03*
X151700000Y-105100000D03*
X177300000Y-105600000D03*
X142300000Y-85600000D03*
X111100000Y-135700000D03*
X151100000Y-130600000D03*
X121700000Y-105800000D03*
X131700000Y-100700000D03*
X161700000Y-105700000D03*
X176100000Y-75600000D03*
X111100000Y-85600000D03*
X101700000Y-85600000D03*
X112300000Y-75600000D03*
X131700000Y-130100000D03*
X122300000Y-140800000D03*
X142300000Y-75035000D03*
X115690000Y-125800000D03*
X101700000Y-120100000D03*
X152300000Y-105700000D03*
X131700000Y-120100000D03*
X151700000Y-85100000D03*
X176100000Y-70100000D03*
X141700000Y-115600000D03*
X141100000Y-120100000D03*
X152300000Y-110035000D03*
X142300000Y-85035000D03*
X111700000Y-105500000D03*
X161100000Y-135700000D03*
X162300000Y-130035000D03*
X141100000Y-100100000D03*
X111700000Y-80700000D03*
X175100000Y-65879000D03*
X101700000Y-115600000D03*
X142300000Y-135700000D03*
X102300000Y-75600000D03*
X101700000Y-75010002D03*
X101700000Y-95500000D03*
X169235000Y-130700000D03*
X121100000Y-140800000D03*
X111100000Y-110000000D03*
X161100000Y-100000000D03*
X176100000Y-85600000D03*
X101100000Y-125100000D03*
X102300000Y-80035000D03*
X151100000Y-140100000D03*
X162300000Y-135700000D03*
X141700000Y-95010002D03*
X102300000Y-90700000D03*
X161700000Y-120600000D03*
X177300000Y-85600000D03*
X154300000Y-85200000D03*
X112300000Y-90600000D03*
X142300000Y-120700000D03*
X162300000Y-90600000D03*
X101100000Y-135800000D03*
X177300000Y-140900000D03*
X121700000Y-95700000D03*
X131100000Y-140800000D03*
X162300000Y-85700000D03*
X111100000Y-125600000D03*
X177300000Y-75035000D03*
X177300000Y-135800000D03*
X112300000Y-85035000D03*
X101100000Y-75600000D03*
X177300000Y-75600000D03*
X111700000Y-125600000D03*
X101100000Y-95000000D03*
X112300000Y-95600000D03*
X161700000Y-80010002D03*
X161100000Y-135100000D03*
X132300000Y-140200000D03*
X101700000Y-115010002D03*
X141700000Y-120100000D03*
X141100000Y-115000000D03*
X112300000Y-115600000D03*
X112300000Y-80100000D03*
X101700000Y-100010002D03*
X102300000Y-110100000D03*
X176700000Y-105600000D03*
X121700000Y-80100000D03*
X141100000Y-80700000D03*
X151100000Y-105100000D03*
X121700000Y-120700000D03*
X141700000Y-135100000D03*
X112300000Y-85600000D03*
X152300000Y-85700000D03*
X176100000Y-100000000D03*
X162300000Y-95035000D03*
X132300000Y-100100000D03*
X161700000Y-140700000D03*
X122300000Y-105200000D03*
X141100000Y-105000000D03*
X132300000Y-120700000D03*
X176100000Y-70700000D03*
X122300000Y-95100000D03*
X141700000Y-115010002D03*
X112300000Y-130100000D03*
X141700000Y-100700000D03*
X176100000Y-95500000D03*
X142300000Y-115600000D03*
X151100000Y-85100000D03*
X141100000Y-90000000D03*
X111100000Y-100700000D03*
X101700000Y-140300000D03*
X176700000Y-90100000D03*
X151700000Y-135100000D03*
X111700000Y-125010002D03*
X162300000Y-120600000D03*
X111700000Y-120700000D03*
X151700000Y-90600000D03*
X112300000Y-90035000D03*
X102300000Y-70100000D03*
X176100000Y-85000000D03*
X141100000Y-75600000D03*
X141100000Y-85600000D03*
X112300000Y-105500000D03*
X152300000Y-110500000D03*
X176700000Y-85600000D03*
X141100000Y-80100000D03*
X151100000Y-105700000D03*
X131700000Y-130700000D03*
X176700000Y-85010002D03*
X132300000Y-115100000D03*
X141100000Y-85000000D03*
X162300000Y-130600000D03*
X142300000Y-80100000D03*
X142300000Y-100700000D03*
X151700000Y-90010002D03*
X151700000Y-135700000D03*
X101700000Y-80600000D03*
X101700000Y-80010002D03*
X151100000Y-120600000D03*
X131100000Y-100100000D03*
X131100000Y-105200000D03*
X132300000Y-95100000D03*
X122300000Y-120100000D03*
X176100000Y-75000000D03*
X101100000Y-85000000D03*
X151100000Y-140700000D03*
X162300000Y-80600000D03*
X142300000Y-95600000D03*
X151700000Y-100600000D03*
X132300000Y-140800000D03*
X101100000Y-140900000D03*
X121100000Y-90700000D03*
X152300000Y-135700000D03*
X101700000Y-130800000D03*
X121700000Y-90700000D03*
X101700000Y-140900000D03*
X102300000Y-100035000D03*
X141100000Y-110000000D03*
X151700000Y-115600000D03*
X151100000Y-100600000D03*
X161700000Y-130600000D03*
X161700000Y-100600000D03*
X131100000Y-95100000D03*
X161100000Y-80600000D03*
X131700000Y-95100000D03*
X155800000Y-85700000D03*
X121100000Y-85800000D03*
X132300000Y-90700000D03*
X142300000Y-140200000D03*
X131700000Y-100100000D03*
X131100000Y-80100000D03*
X111700000Y-100700000D03*
X141700000Y-130700000D03*
X101100000Y-115600000D03*
X132300000Y-130700000D03*
X131700000Y-85200000D03*
X161700000Y-135100000D03*
X101700000Y-125100000D03*
X112300000Y-75035000D03*
X121700000Y-95100000D03*
X131100000Y-135200000D03*
X102300000Y-65035000D03*
X131700000Y-110600000D03*
X122300000Y-80700000D03*
X122300000Y-135200000D03*
X161700000Y-100010002D03*
X142300000Y-105035000D03*
X142300000Y-120100000D03*
%TO.N,/matrix_driver_conn/TH1*%
X169425000Y-85035000D03*
X156800000Y-85200000D03*
%TO.N,/LINE0*%
X103500000Y-97100000D03*
X103500000Y-87100000D03*
X103500000Y-72100000D03*
X103500000Y-112100000D03*
X103500000Y-109300000D03*
X103500000Y-102100000D03*
X103500000Y-79300000D03*
X103500000Y-94300000D03*
X103500000Y-129300000D03*
X103500000Y-137100000D03*
X103500000Y-114300000D03*
X103500000Y-92100000D03*
X103500000Y-117100000D03*
X103475000Y-119300000D03*
X103500000Y-124300000D03*
X103500000Y-89300000D03*
X103475000Y-84300000D03*
X103500000Y-67100000D03*
X103500000Y-139300000D03*
X103500000Y-64300000D03*
X103500000Y-82100000D03*
X103525000Y-69800000D03*
X103500000Y-104300000D03*
X103500000Y-77100000D03*
X103500000Y-99300000D03*
X103500000Y-122100000D03*
X103500000Y-127100000D03*
X103500000Y-74300000D03*
X103500000Y-134300000D03*
X103525000Y-132100000D03*
X103500000Y-107100000D03*
%TO.N,/G0*%
X106700000Y-61500000D03*
X126700000Y-61500000D03*
X121725000Y-61500000D03*
X171725000Y-61500000D03*
X131725000Y-61500000D03*
X156725000Y-61500000D03*
X169711658Y-75715658D03*
X151725000Y-61500000D03*
X136725000Y-61500000D03*
X161725000Y-61500000D03*
X176725000Y-61500000D03*
X166700000Y-61500000D03*
X146700000Y-61500000D03*
X101725000Y-61500000D03*
X111725000Y-61500000D03*
X116725000Y-61500000D03*
X141725000Y-61500000D03*
%TO.N,/B0*%
X105825000Y-63539000D03*
X165825000Y-63539000D03*
X140825000Y-63539000D03*
X161000000Y-63539000D03*
X175825000Y-63539000D03*
X170900000Y-63539000D03*
X156000000Y-63539000D03*
X151000000Y-63539000D03*
X125900000Y-63539000D03*
X180825000Y-63539000D03*
X130857702Y-63539000D03*
X115857702Y-63539000D03*
X135825000Y-63539000D03*
X120857702Y-63539000D03*
X110800000Y-63539000D03*
X146017362Y-63591182D03*
%TO.N,/R0*%
X161200000Y-62861000D03*
X146175000Y-62861000D03*
X172690000Y-75135000D03*
X116200000Y-62861000D03*
X101200000Y-62861000D03*
X131200000Y-62861000D03*
X166175000Y-62861000D03*
X126175000Y-62861000D03*
X106175000Y-62861000D03*
X121200000Y-62861000D03*
X171200000Y-62861000D03*
X176200000Y-62861000D03*
X111200000Y-62861000D03*
X136200000Y-62861000D03*
X141200000Y-62861000D03*
X156200000Y-62861000D03*
X151200000Y-62861000D03*
%TO.N,/B1*%
X120857702Y-68539000D03*
X135850000Y-68539000D03*
X175850000Y-68539000D03*
X180850000Y-68539000D03*
X105850000Y-68539000D03*
X130857702Y-68539000D03*
X145957702Y-68539000D03*
X150957702Y-68539000D03*
X110825000Y-68539000D03*
X140850000Y-68539000D03*
X125857702Y-68539000D03*
X115857702Y-68539000D03*
X165850000Y-68539000D03*
X160957702Y-68539000D03*
X170825000Y-68539000D03*
X155957702Y-68539000D03*
%TO.N,/R1*%
X161225000Y-67861000D03*
X171225000Y-67861000D03*
X116225000Y-67861000D03*
X176225000Y-67861000D03*
X126200000Y-67861000D03*
X101225000Y-67861000D03*
X146200000Y-67861000D03*
X106200000Y-67861000D03*
X156225000Y-67861000D03*
X131225000Y-67861000D03*
X136225000Y-67861000D03*
X151225000Y-67861000D03*
X121225000Y-67861000D03*
X166406760Y-67866806D03*
X110993101Y-67844429D03*
X141093126Y-67861084D03*
%TO.N,/G1*%
X116750000Y-66500000D03*
X146725000Y-66500000D03*
X166700000Y-66489000D03*
X161750000Y-66500000D03*
X101750000Y-66500000D03*
X171750000Y-66500000D03*
X131750000Y-66500000D03*
X141093098Y-66489000D03*
X106725000Y-66500000D03*
X110993098Y-66489000D03*
X121750000Y-66500000D03*
X156750000Y-66500000D03*
X126725000Y-66500000D03*
X176000000Y-66489000D03*
X136750000Y-66500000D03*
X151750000Y-66500000D03*
%TO.N,/G2*%
X151442298Y-71500000D03*
X176750000Y-71500000D03*
X131342298Y-71489000D03*
X136750000Y-71500000D03*
X171750000Y-71500000D03*
X126342298Y-71489000D03*
X141093098Y-71489000D03*
X161400000Y-71500000D03*
X166725000Y-71500000D03*
X156442298Y-71500000D03*
X146442298Y-71500000D03*
X121342298Y-71489000D03*
X101750000Y-71500000D03*
X110993098Y-71489000D03*
X116342298Y-71489000D03*
X106725000Y-71500000D03*
%TO.N,/R2*%
X101225000Y-72861000D03*
X156225000Y-72861000D03*
X146200000Y-72861000D03*
X166306902Y-72861000D03*
X110993100Y-72844429D03*
X136225000Y-72861000D03*
X121225000Y-72861000D03*
X151225000Y-72861000D03*
X131225000Y-72861000D03*
X106200000Y-72861000D03*
X176225000Y-72861000D03*
X161225000Y-72861000D03*
X116225000Y-72861000D03*
X126200000Y-72861000D03*
X141093098Y-72861000D03*
X171225000Y-72861000D03*
%TO.N,/B2*%
X166009768Y-73811170D03*
X130825000Y-73539000D03*
X136000000Y-74000000D03*
X105850000Y-73539000D03*
X120850000Y-73539000D03*
X140850000Y-73539000D03*
X125850000Y-73539000D03*
X155850000Y-73539000D03*
X160850000Y-73539000D03*
X145850000Y-73539000D03*
X170825000Y-73539000D03*
X150825000Y-73539000D03*
X115850000Y-73539000D03*
X175850000Y-73539000D03*
X110825000Y-73539000D03*
X180850000Y-73539000D03*
%TO.N,/G3*%
X131750000Y-76500000D03*
X171000000Y-76489000D03*
X101750000Y-76500000D03*
X111750000Y-76500000D03*
X176750000Y-76500000D03*
X136750000Y-76500000D03*
X151750000Y-76500000D03*
X166725000Y-76500000D03*
X106725000Y-76500000D03*
X146725000Y-76500000D03*
X116750000Y-76500000D03*
X156750000Y-76500000D03*
X126725000Y-76500000D03*
X141750000Y-76500000D03*
X161750000Y-76500000D03*
X121750000Y-76500000D03*
%TO.N,/B3*%
X170825000Y-78539000D03*
X175850000Y-78539000D03*
X105850000Y-78539000D03*
X145850000Y-78539000D03*
X120850000Y-78539000D03*
X155850000Y-78539000D03*
X130825000Y-78539000D03*
X110825000Y-78539000D03*
X135850000Y-78539000D03*
X140850000Y-78539000D03*
X150825000Y-78539000D03*
X160850000Y-78539000D03*
X125850000Y-78539000D03*
X165850000Y-78539000D03*
X115850000Y-78539000D03*
X180850000Y-78539000D03*
%TO.N,/R3*%
X101225000Y-77861000D03*
X136225000Y-77861000D03*
X116225000Y-77861000D03*
X131225000Y-77861000D03*
X161225000Y-77861000D03*
X121225000Y-77861000D03*
X111225000Y-77861000D03*
X156225000Y-77861000D03*
X166200000Y-77861000D03*
X126200000Y-77861000D03*
X171225000Y-77861000D03*
X151225000Y-77861000D03*
X176225000Y-77861000D03*
X106200000Y-77861000D03*
X146200000Y-77861000D03*
X141225000Y-77861000D03*
%TO.N,/B4*%
X145850000Y-83539000D03*
X130825000Y-83539000D03*
X170825000Y-83539000D03*
X135850000Y-83539000D03*
X125850000Y-83539000D03*
X176014998Y-83539000D03*
X165850000Y-83539000D03*
X160850000Y-83539000D03*
X110825000Y-83539000D03*
X180850000Y-83539000D03*
X140850000Y-83539000D03*
X150825000Y-83539000D03*
X155850000Y-83539000D03*
X120850000Y-83539000D03*
X115850000Y-83539000D03*
X105850000Y-83539000D03*
%TO.N,/G4*%
X101750000Y-81500000D03*
X151750000Y-81500000D03*
X121750000Y-81500000D03*
X156750000Y-81500000D03*
X141750000Y-81500000D03*
X106725000Y-81500000D03*
X131750000Y-81500000D03*
X116750000Y-81500000D03*
X111750000Y-81500000D03*
X136750000Y-81500000D03*
X171539998Y-81489000D03*
X126725000Y-81500000D03*
X176750000Y-81500000D03*
X161750000Y-81500000D03*
X146725000Y-81500000D03*
X166725000Y-81500000D03*
%TO.N,/R4*%
X176225000Y-82861000D03*
X136225000Y-82861000D03*
X126200000Y-82861000D03*
X166200000Y-82861000D03*
X121225000Y-82861000D03*
X151225000Y-82861000D03*
X131225000Y-82861000D03*
X146200000Y-82861000D03*
X141225000Y-82861000D03*
X106200000Y-82861000D03*
X111225000Y-82861000D03*
X161225000Y-82861000D03*
X156225000Y-82861000D03*
X101225000Y-82861000D03*
X116225000Y-82861000D03*
X171225000Y-82861000D03*
%TO.N,/G5*%
X156775000Y-86500000D03*
X126750000Y-86500000D03*
X111775000Y-86500000D03*
X161775000Y-86500000D03*
X171775000Y-86500000D03*
X106750000Y-86500000D03*
X121775000Y-86500000D03*
X136775000Y-86500000D03*
X116775000Y-86500000D03*
X166100000Y-86500000D03*
X141775000Y-86500000D03*
X101775000Y-86500000D03*
X176100000Y-86489000D03*
X146750000Y-86500000D03*
X131775000Y-86500000D03*
X151775000Y-86500000D03*
%TO.N,/B5*%
X170850000Y-88539000D03*
X115875000Y-88539000D03*
X150850000Y-88539000D03*
X165875000Y-88539000D03*
X110850000Y-88539000D03*
X105875000Y-88539000D03*
X160875000Y-88539000D03*
X175875000Y-88539000D03*
X135875000Y-88539000D03*
X130850000Y-88539000D03*
X125875000Y-88539000D03*
X155875000Y-88539000D03*
X145875000Y-88539000D03*
X180875000Y-88539000D03*
X120875000Y-88539000D03*
X140875000Y-88539000D03*
%TO.N,/R5*%
X121250000Y-87861000D03*
X156250000Y-87861000D03*
X131250000Y-87861000D03*
X146225000Y-87861000D03*
X151250000Y-87861000D03*
X161250000Y-87861000D03*
X116250000Y-87861000D03*
X171250000Y-87861000D03*
X141250000Y-87861000D03*
X111250000Y-87861000D03*
X176250000Y-87861000D03*
X101250000Y-87861000D03*
X136250000Y-87861000D03*
X126225000Y-87861000D03*
X166225000Y-87861000D03*
X106225000Y-87861000D03*
%TO.N,/B6*%
X155875000Y-93539000D03*
X110850000Y-93539000D03*
X105875000Y-93539000D03*
X140875000Y-93539000D03*
X125875000Y-93539000D03*
X145875000Y-93539000D03*
X180875000Y-93539000D03*
X165875000Y-93539000D03*
X135875000Y-93539000D03*
X170850000Y-93539000D03*
X160875000Y-93539000D03*
X120875000Y-93539000D03*
X150850000Y-93539000D03*
X175875000Y-93539000D03*
X115875000Y-93539000D03*
X130850000Y-93539000D03*
%TO.N,/G6*%
X121775000Y-91500000D03*
X101775000Y-91500000D03*
X136775000Y-91500000D03*
X141775000Y-91500000D03*
X106750000Y-91500000D03*
X131775000Y-91500000D03*
X151775000Y-91500000D03*
X171775000Y-91500000D03*
X111775000Y-91500000D03*
X156775000Y-91500000D03*
X176000000Y-91489000D03*
X116775000Y-91500000D03*
X161775000Y-91500000D03*
X146750000Y-91500000D03*
X126750000Y-91500000D03*
X166000000Y-91489000D03*
%TO.N,/R6*%
X136250000Y-92861000D03*
X176250000Y-92861000D03*
X111250000Y-92861000D03*
X116250000Y-92861000D03*
X121250000Y-92861000D03*
X151250000Y-92861000D03*
X146225000Y-92861000D03*
X101250000Y-92861000D03*
X171250000Y-92861000D03*
X156250000Y-92861000D03*
X166225000Y-92861000D03*
X131250000Y-92861000D03*
X106225000Y-92861000D03*
X126225000Y-92861000D03*
X141250000Y-92861000D03*
X161250000Y-92861000D03*
%TO.N,/G7*%
X156775000Y-96500000D03*
X141775000Y-96500000D03*
X176775000Y-96500000D03*
X136775000Y-96500000D03*
X166750000Y-96500000D03*
X106750000Y-96500000D03*
X151775000Y-96500000D03*
X121775000Y-96500000D03*
X116775000Y-96500000D03*
X131775000Y-96500000D03*
X146750000Y-96500000D03*
X111775000Y-96500000D03*
X126750000Y-96500000D03*
X171775000Y-96500000D03*
X161775000Y-96500000D03*
X101775000Y-96500000D03*
%TO.N,/B7*%
X170850000Y-98539000D03*
X165875000Y-98539000D03*
X150850000Y-98539000D03*
X160875000Y-98539000D03*
X120875000Y-98539000D03*
X135875000Y-98539000D03*
X145875000Y-98539000D03*
X130850000Y-98539000D03*
X115875000Y-98539000D03*
X125875000Y-98539000D03*
X180875000Y-98539000D03*
X140875000Y-98539000D03*
X175875000Y-98539000D03*
X110850000Y-98539000D03*
X105875000Y-98539000D03*
X155875000Y-98539000D03*
%TO.N,/R7*%
X176250000Y-97861000D03*
X131250000Y-97861000D03*
X151250000Y-97861000D03*
X171250000Y-97861000D03*
X116250000Y-97861000D03*
X121250000Y-97861000D03*
X141250000Y-97861000D03*
X136250000Y-97861000D03*
X111250000Y-97861000D03*
X156250000Y-97861000D03*
X101250000Y-97861000D03*
X166225000Y-97861000D03*
X161250000Y-97861000D03*
X126225000Y-97861000D03*
X146225000Y-97861000D03*
X106225000Y-97861000D03*
%TO.N,/B8*%
X110825000Y-103539000D03*
X150825000Y-103539000D03*
X175850000Y-103539000D03*
X155850000Y-103539000D03*
X170825000Y-103539000D03*
X115850000Y-103539000D03*
X160850000Y-103539000D03*
X180850000Y-103539000D03*
X130825000Y-103539000D03*
X125850000Y-103539000D03*
X105850000Y-103539000D03*
X165850000Y-103539000D03*
X120850000Y-103539000D03*
X135850000Y-103539000D03*
X140850000Y-103539000D03*
X145850000Y-103539000D03*
%TO.N,/R8*%
X166200000Y-102861000D03*
X111225000Y-102861000D03*
X161225000Y-102861000D03*
X171225000Y-102861000D03*
X156225000Y-102861000D03*
X146200000Y-102861000D03*
X151225000Y-102861000D03*
X106200000Y-102861000D03*
X126200000Y-102861000D03*
X176225000Y-102861000D03*
X141225000Y-102861000D03*
X136225000Y-102861000D03*
X101225000Y-102861000D03*
X131225000Y-102861000D03*
X121225000Y-102861000D03*
X116225000Y-102861000D03*
%TO.N,/G8*%
X176750000Y-101500000D03*
X166725000Y-101500000D03*
X141750000Y-101500000D03*
X126725000Y-101500000D03*
X106725000Y-101500000D03*
X136750000Y-101500000D03*
X101750000Y-101500000D03*
X156750000Y-101500000D03*
X116750000Y-101500000D03*
X111750000Y-101500000D03*
X151750000Y-101500000D03*
X131750000Y-101500000D03*
X121750000Y-101500000D03*
X146725000Y-101500000D03*
X171750000Y-101500000D03*
X161750000Y-101500000D03*
%TO.N,/G9*%
X151775000Y-106500000D03*
X166750000Y-106500000D03*
X121775000Y-106500000D03*
X111775000Y-106500000D03*
X131775000Y-106500000D03*
X176000000Y-106489000D03*
X136775000Y-106500000D03*
X126750000Y-106500000D03*
X116775000Y-106500000D03*
X146750000Y-106500000D03*
X141775000Y-106500000D03*
X156775000Y-106500000D03*
X101775000Y-106500000D03*
X106750000Y-106500000D03*
X171775000Y-106500000D03*
X161775000Y-106500000D03*
%TO.N,/B9*%
X165875000Y-108539000D03*
X140875000Y-108539000D03*
X125875000Y-108539000D03*
X145875000Y-108539000D03*
X110850000Y-108539000D03*
X175875000Y-108539000D03*
X105875000Y-108539000D03*
X120875000Y-108539000D03*
X115875000Y-108539000D03*
X180875000Y-108539000D03*
X155875000Y-108539000D03*
X130850000Y-108539000D03*
X170850000Y-108539000D03*
X135875000Y-108539000D03*
X160875000Y-108539000D03*
X150850000Y-108539000D03*
%TO.N,/R9*%
X161250000Y-107861000D03*
X151250000Y-107861000D03*
X111250000Y-107861000D03*
X121250000Y-107861000D03*
X116250000Y-107861000D03*
X101250000Y-107861000D03*
X146225000Y-107861000D03*
X106225000Y-107861000D03*
X136250000Y-107861000D03*
X166225000Y-107861000D03*
X126225000Y-107861000D03*
X131250000Y-107861000D03*
X176250000Y-107861000D03*
X141250000Y-107861000D03*
X171250000Y-107861000D03*
X156250000Y-107861000D03*
%TO.N,/B10*%
X160875000Y-113539000D03*
X125875000Y-113539000D03*
X170850000Y-113539000D03*
X130850000Y-113539000D03*
X110850000Y-113539000D03*
X120875000Y-113539000D03*
X150850000Y-113539000D03*
X140875000Y-113539000D03*
X115875000Y-113539000D03*
X145875000Y-113539000D03*
X165875000Y-113539000D03*
X155875000Y-113539000D03*
X105875000Y-113539000D03*
X180875000Y-113539000D03*
X175875000Y-113539000D03*
X135875000Y-113539000D03*
%TO.N,/G10*%
X171775000Y-111500000D03*
X141775000Y-111500000D03*
X131775000Y-111500000D03*
X116775000Y-111500000D03*
X101775000Y-111500000D03*
X111775000Y-111500000D03*
X136775000Y-111500000D03*
X151775000Y-111500000D03*
X161775000Y-111500000D03*
X121775000Y-111500000D03*
X156775000Y-111500000D03*
X146750000Y-111500000D03*
X106750000Y-111500000D03*
X126750000Y-111500000D03*
X176775000Y-111500000D03*
X166750000Y-111500000D03*
%TO.N,/R10*%
X151250000Y-112861000D03*
X126225000Y-112861000D03*
X116250000Y-112861000D03*
X136250000Y-112861000D03*
X176250000Y-112861000D03*
X111250000Y-112861000D03*
X166225000Y-112861000D03*
X141250000Y-112861000D03*
X101250000Y-112861000D03*
X171200000Y-112861000D03*
X161250000Y-112861000D03*
X146225000Y-112861000D03*
X156250000Y-112861000D03*
X131250000Y-112861000D03*
X121250000Y-112861000D03*
X106225000Y-112861000D03*
%TO.N,/R11*%
X121250000Y-117861000D03*
X161250000Y-117861000D03*
X111250000Y-117861000D03*
X101250000Y-117861000D03*
X136250000Y-117861000D03*
X171250000Y-117861000D03*
X156250000Y-117861000D03*
X116250000Y-117861000D03*
X126225000Y-117861000D03*
X146225000Y-117861000D03*
X166225000Y-117861000D03*
X176250000Y-117861000D03*
X131250000Y-117861000D03*
X141250000Y-117861000D03*
X151250000Y-117861000D03*
X106225000Y-117861000D03*
%TO.N,/B11*%
X125875000Y-118539000D03*
X135875000Y-118539000D03*
X175875000Y-118539000D03*
X155875000Y-118539000D03*
X110850000Y-118539000D03*
X165875000Y-118539000D03*
X115875000Y-118539000D03*
X170850000Y-118539000D03*
X150850000Y-118539000D03*
X160875000Y-118539000D03*
X105875000Y-118539000D03*
X130850000Y-118539000D03*
X140875000Y-118539000D03*
X120875000Y-118539000D03*
X180875000Y-118539000D03*
X145875000Y-118539000D03*
%TO.N,/G11*%
X166300000Y-116489000D03*
X101775000Y-116500000D03*
X146750000Y-116500000D03*
X111775000Y-116500000D03*
X156775000Y-116500000D03*
X141775000Y-116500000D03*
X176775000Y-116500000D03*
X136775000Y-116500000D03*
X131775000Y-116500000D03*
X126750000Y-116500000D03*
X106750000Y-116500000D03*
X151775000Y-116500000D03*
X171100000Y-116489000D03*
X116775000Y-116500000D03*
X161775000Y-116500000D03*
X121775000Y-116500000D03*
%TO.N,/B12*%
X150825000Y-123539000D03*
X180850000Y-123539000D03*
X125850000Y-123539000D03*
X135850000Y-123539000D03*
X140850000Y-123539000D03*
X170825000Y-123539000D03*
X105850000Y-123539000D03*
X175850000Y-123539000D03*
X155850000Y-123539000D03*
X160850000Y-123539000D03*
X165850000Y-123539000D03*
X130825000Y-123539000D03*
X110825000Y-123539000D03*
X120850000Y-123539000D03*
X145850000Y-123539000D03*
X115850000Y-123539000D03*
%TO.N,/G12*%
X156750000Y-121500000D03*
X101750000Y-121500000D03*
X146725000Y-121500000D03*
X116750000Y-121500000D03*
X111750000Y-121500000D03*
X106725000Y-121500000D03*
X161750000Y-121500000D03*
X151750000Y-121500000D03*
X126725000Y-121500000D03*
X176750000Y-121500000D03*
X131750000Y-121500000D03*
X121750000Y-121500000D03*
X141750000Y-121500000D03*
X166725000Y-121500000D03*
X136750000Y-121500000D03*
X171539998Y-121509184D03*
%TO.N,/R12*%
X146200000Y-122861000D03*
X156225000Y-122861000D03*
X166200000Y-122861000D03*
X106200000Y-122861000D03*
X171004836Y-122856164D03*
X136225000Y-122861000D03*
X116225000Y-122861000D03*
X101225000Y-122861000D03*
X141225000Y-122861000D03*
X176225000Y-122861000D03*
X121225000Y-122861000D03*
X161225000Y-122861000D03*
X111225000Y-122861000D03*
X126200000Y-122861000D03*
X151225000Y-122861000D03*
X131225000Y-122861000D03*
%TO.N,/B13*%
X135875000Y-128539000D03*
X180875000Y-128539000D03*
X120875000Y-128539000D03*
X150850000Y-128539000D03*
X130850000Y-128539000D03*
X170850000Y-128539000D03*
X105875000Y-128539000D03*
X140875000Y-128539000D03*
X155875000Y-128539000D03*
X165875000Y-128539000D03*
X160875000Y-128539000D03*
X115875000Y-128539000D03*
X175875000Y-128539000D03*
X125875000Y-128539000D03*
X110850000Y-128539000D03*
X145875000Y-128539000D03*
%TO.N,/G13*%
X116775000Y-126500000D03*
X176775000Y-126500000D03*
X101775000Y-126500000D03*
X146750000Y-126500000D03*
X171775000Y-126500000D03*
X151775000Y-126500000D03*
X156775000Y-126500000D03*
X136775000Y-126500000D03*
X121775000Y-126500000D03*
X106750000Y-126500000D03*
X131775000Y-126500000D03*
X141775000Y-126500000D03*
X126750000Y-126500000D03*
X111775000Y-126500000D03*
X166000000Y-126489000D03*
X161775000Y-126500000D03*
%TO.N,/R13*%
X136250000Y-127861000D03*
X101250000Y-127861000D03*
X121250000Y-127861000D03*
X176250000Y-127861000D03*
X126225000Y-127861000D03*
X161250000Y-127861000D03*
X131250000Y-127861000D03*
X106225000Y-127861000D03*
X166029836Y-127831164D03*
X116250000Y-127861000D03*
X171250000Y-127861000D03*
X111250000Y-127861000D03*
X156250000Y-127861000D03*
X141250000Y-127861000D03*
X146225000Y-127861000D03*
X151250000Y-127861000D03*
%TO.N,/R14*%
X126225000Y-132861000D03*
X111250000Y-132861000D03*
X171250000Y-132861000D03*
X146225000Y-132861000D03*
X166029836Y-132831164D03*
X156250000Y-132861000D03*
X101250000Y-132861000D03*
X116250000Y-132861000D03*
X141250000Y-132861000D03*
X121250000Y-132861000D03*
X136250000Y-132861000D03*
X161250000Y-132861000D03*
X176250000Y-132861000D03*
X131250000Y-132861000D03*
X106225000Y-132861000D03*
X151250000Y-132861000D03*
%TO.N,/G14*%
X111775000Y-131500000D03*
X141775000Y-131500000D03*
X176775000Y-131500000D03*
X131775000Y-131500000D03*
X146750000Y-131500000D03*
X121775000Y-131500000D03*
X151775000Y-131500000D03*
X171775000Y-131500000D03*
X161775000Y-131500000D03*
X101775000Y-131500000D03*
X106750000Y-131500000D03*
X126750000Y-131500000D03*
X116775000Y-131500000D03*
X156775000Y-131500000D03*
X136775000Y-131500000D03*
X165900000Y-131489000D03*
%TO.N,/B14*%
X160875000Y-133539000D03*
X125875000Y-133539000D03*
X180875000Y-133539000D03*
X130850000Y-133539000D03*
X135875000Y-133539000D03*
X115875000Y-133539000D03*
X170850000Y-133539000D03*
X110850000Y-133539000D03*
X175875000Y-133539000D03*
X150850000Y-133539000D03*
X105875000Y-133539000D03*
X145875000Y-133539000D03*
X155875000Y-133539000D03*
X165875000Y-133539000D03*
X140875000Y-133539000D03*
X120875000Y-133539000D03*
%TO.N,/G15*%
X121775000Y-136500000D03*
X111775000Y-136500000D03*
X131775000Y-136500000D03*
X161775000Y-136500000D03*
X126750000Y-136500000D03*
X106750000Y-136500000D03*
X116775000Y-136500000D03*
X166000000Y-136489000D03*
X176775000Y-136500000D03*
X156775000Y-136500000D03*
X151775000Y-136500000D03*
X146750000Y-136500000D03*
X171775000Y-136500000D03*
X136775000Y-136500000D03*
X141775000Y-136500000D03*
X101775000Y-136500000D03*
%TO.N,/R15*%
X156250000Y-137861000D03*
X151250000Y-137861000D03*
X136250000Y-137861000D03*
X121250000Y-137861000D03*
X166225000Y-137861000D03*
X131250000Y-137861000D03*
X161250000Y-137861000D03*
X111250000Y-137861000D03*
X176250000Y-137861000D03*
X101250000Y-137861000D03*
X116250000Y-137861000D03*
X141250000Y-137861000D03*
X146225000Y-137861000D03*
X106225000Y-137861000D03*
X171250000Y-137861000D03*
X126225000Y-137861000D03*
%TO.N,/B15*%
X150850000Y-138539000D03*
X130850000Y-138539000D03*
X110850000Y-138539000D03*
X155875000Y-138539000D03*
X165875000Y-138539000D03*
X105875000Y-138539000D03*
X115875000Y-138539000D03*
X135875000Y-138539000D03*
X180875000Y-138539000D03*
X120875000Y-138539000D03*
X160875000Y-138539000D03*
X125875000Y-138539000D03*
X145875000Y-138539000D03*
X170850000Y-138539000D03*
X140875000Y-138539000D03*
X175875000Y-138539000D03*
%TO.N,/LINE1*%
X108500000Y-79300000D03*
X108500000Y-137100000D03*
X108500000Y-67100000D03*
X108500000Y-127100000D03*
X108500000Y-99300000D03*
X108500000Y-114300000D03*
X108500000Y-107100000D03*
X108500000Y-97100000D03*
X108500000Y-104300000D03*
X108500000Y-87100000D03*
X108475000Y-84300000D03*
X108500000Y-109300000D03*
X108500000Y-122100000D03*
X108500000Y-124300000D03*
X108500000Y-92100000D03*
X108500000Y-77100000D03*
X108500000Y-94300000D03*
X108500000Y-89300000D03*
X108500000Y-132100000D03*
X108500000Y-134300000D03*
X108500000Y-82100000D03*
X108475000Y-119300000D03*
X108500000Y-117100000D03*
X108500000Y-112100000D03*
X108500000Y-74300000D03*
X108500000Y-129300000D03*
X108500000Y-64300000D03*
X108500000Y-69149000D03*
X108500000Y-72100000D03*
X108500000Y-102100000D03*
X108500000Y-139300000D03*
%TO.N,/LINE2*%
X113500000Y-94300000D03*
X113500000Y-137100000D03*
X113475000Y-84300000D03*
X113500000Y-102100000D03*
X113500000Y-87100000D03*
X113500000Y-122100000D03*
X113500000Y-117100000D03*
X113500000Y-114300000D03*
X113525000Y-132100000D03*
X113500000Y-129300000D03*
X113500000Y-99300000D03*
X113500000Y-109300000D03*
X113500000Y-92100000D03*
X113500000Y-134300000D03*
X113500000Y-82100000D03*
X113500000Y-127100000D03*
X113500000Y-104300000D03*
X113475000Y-119300000D03*
X113500000Y-89300000D03*
X113500000Y-77100000D03*
X113500000Y-107100000D03*
X113500000Y-112100000D03*
X113500000Y-97100000D03*
X113500000Y-139300000D03*
X113500000Y-79300000D03*
%TO.N,/LINE3*%
X118500000Y-89300000D03*
X118500000Y-114300000D03*
X118500000Y-79300000D03*
X118500000Y-87100000D03*
X118500000Y-117100000D03*
X118500000Y-109300000D03*
X118500000Y-112100000D03*
X118500000Y-77100000D03*
X118500000Y-139300000D03*
X118500000Y-122100000D03*
X118500000Y-134300000D03*
X118500000Y-129300000D03*
X118500000Y-124300000D03*
X118500000Y-97100000D03*
X118500000Y-127100000D03*
X118500000Y-104300000D03*
X118500000Y-137100000D03*
X118500000Y-82100000D03*
X118500000Y-102100000D03*
X118500000Y-99300000D03*
X118500000Y-94300000D03*
X118475000Y-84300000D03*
X118500000Y-107100000D03*
X118500000Y-92100000D03*
X118475000Y-119300000D03*
%TO.N,/LINE4*%
X123500000Y-114300000D03*
X123500000Y-134300000D03*
X123475000Y-119300000D03*
X123500000Y-107100000D03*
X123500000Y-112100000D03*
X123500000Y-97100000D03*
X123500000Y-137100000D03*
X123500000Y-117100000D03*
X123500000Y-127100000D03*
X123475000Y-84300000D03*
X123525000Y-132100000D03*
X123500000Y-122100000D03*
X123500000Y-89300000D03*
X123500000Y-92100000D03*
X123500000Y-94300000D03*
X123500000Y-109300000D03*
X123500000Y-104300000D03*
X123500000Y-139300000D03*
X123500000Y-124300000D03*
X123500000Y-82100000D03*
X123500000Y-99300000D03*
X123500000Y-129300000D03*
X123500000Y-87100000D03*
X123500000Y-77100000D03*
X123500000Y-102100000D03*
X123475000Y-69300000D03*
X123500000Y-79300000D03*
%TO.N,/LINE5*%
X128500000Y-107100000D03*
X128500000Y-109300000D03*
X128500000Y-99300000D03*
X128500000Y-64300000D03*
X128475000Y-69300000D03*
X128500000Y-122100000D03*
X128500000Y-132100000D03*
X128500000Y-77100000D03*
X128500000Y-79300000D03*
X128500000Y-112100000D03*
X128500000Y-117100000D03*
X128500000Y-94300000D03*
X128500000Y-139300000D03*
X128500000Y-87100000D03*
X128500000Y-72100000D03*
X128500000Y-137100000D03*
X128500000Y-114300000D03*
X128500000Y-89300000D03*
X128500000Y-92100000D03*
X128500000Y-102100000D03*
X128500000Y-134300000D03*
X128475000Y-119300000D03*
X128500000Y-129300000D03*
X128500000Y-127100000D03*
X128475000Y-84300000D03*
X128500000Y-74300000D03*
X128500000Y-97100000D03*
X128500000Y-124300000D03*
X128500000Y-67100000D03*
X128500000Y-82100000D03*
X128500000Y-104300000D03*
%TO.N,/LINE6*%
X133500000Y-107100000D03*
X133500000Y-77100000D03*
X133500000Y-124300000D03*
X133500000Y-72100000D03*
X133500000Y-134300000D03*
X133500000Y-139300000D03*
X133500000Y-129300000D03*
X133500000Y-64300000D03*
X133475000Y-69300000D03*
X133475000Y-119300000D03*
X133500000Y-102100000D03*
X133500000Y-109300000D03*
X133500000Y-79300000D03*
X133500000Y-82100000D03*
X133475000Y-84300000D03*
X133500000Y-117100000D03*
X133500000Y-87100000D03*
X133500000Y-97100000D03*
X133500000Y-99300000D03*
X133500000Y-137100000D03*
X133500000Y-67100000D03*
X133500000Y-74300000D03*
X133525000Y-132100000D03*
X133500000Y-114300000D03*
X133500000Y-104300000D03*
X133500000Y-127100000D03*
X133500000Y-94300000D03*
X133500000Y-112100000D03*
X133500000Y-122100000D03*
X133500000Y-89300000D03*
X133500000Y-92100000D03*
%TO.N,/LINE7*%
X138525000Y-132100000D03*
X138475000Y-119300000D03*
X138500000Y-67100000D03*
X138500000Y-137100000D03*
X138500000Y-139300000D03*
X138500000Y-114300000D03*
X138500000Y-94300000D03*
X138500000Y-79300000D03*
X138500000Y-127100000D03*
X138500000Y-129300000D03*
X138500000Y-109300000D03*
X138500000Y-124300000D03*
X138500000Y-72100000D03*
X138500000Y-99300000D03*
X138500000Y-82100000D03*
X138500000Y-77100000D03*
X138500000Y-97100000D03*
X138500000Y-102100000D03*
X138475000Y-69300000D03*
X138500000Y-87100000D03*
X138500000Y-64300000D03*
X138500000Y-134300000D03*
X138500000Y-92100000D03*
X138500000Y-74300000D03*
X138500000Y-112100000D03*
X138475000Y-84300000D03*
X138500000Y-104300000D03*
X138500000Y-122100000D03*
X138500000Y-89300000D03*
X138500000Y-107100000D03*
X138500000Y-117100000D03*
%TO.N,/LINE8*%
X143475000Y-84300000D03*
X143500000Y-104300000D03*
X143500000Y-129300000D03*
X143500000Y-139300000D03*
X143500000Y-102100000D03*
X143500000Y-79300000D03*
X143500000Y-74300000D03*
X143500000Y-99300000D03*
X143500000Y-97100000D03*
X143500000Y-109300000D03*
X143500000Y-117100000D03*
X143525000Y-132100000D03*
X143500000Y-134300000D03*
X143500000Y-137100000D03*
X143475000Y-69300000D03*
X143500000Y-122100000D03*
X143500000Y-127100000D03*
X143500000Y-64300000D03*
X143500000Y-67100000D03*
X143500000Y-87100000D03*
X143475000Y-119300000D03*
X143500000Y-94300000D03*
X143500000Y-72100000D03*
X143500000Y-124300000D03*
X143500000Y-112100000D03*
X143500000Y-107100000D03*
X143500000Y-92100000D03*
X143500000Y-82100000D03*
X143500000Y-89300000D03*
X143500000Y-77100000D03*
X143500000Y-114300000D03*
%TO.N,/LINE9*%
X148500000Y-104300000D03*
X148500000Y-122100000D03*
X148475000Y-84300000D03*
X148500000Y-139300000D03*
X148500000Y-99300000D03*
X148500000Y-77100000D03*
X148500000Y-72100000D03*
X148500000Y-79300000D03*
X148500000Y-89300000D03*
X148500000Y-64300000D03*
X148500000Y-92100000D03*
X148500000Y-129300000D03*
X148500000Y-94300000D03*
X148500000Y-67100000D03*
X148475000Y-119300000D03*
X148500000Y-114300000D03*
X148475000Y-69300000D03*
X148500000Y-124300000D03*
X148500000Y-132100000D03*
X148500000Y-97100000D03*
X148500000Y-134300000D03*
X148500000Y-112100000D03*
X148500000Y-107100000D03*
X148500000Y-127100000D03*
X148500000Y-74300000D03*
X148500000Y-109300000D03*
X148500000Y-137100000D03*
X148500000Y-117100000D03*
X148500000Y-82100000D03*
X148500000Y-87100000D03*
X148500000Y-102100000D03*
%TO.N,/LINE10*%
X153500000Y-104300000D03*
X153500000Y-114300000D03*
X153500000Y-94300000D03*
X153500000Y-77100000D03*
X153525000Y-132100000D03*
X153500000Y-127100000D03*
X153500000Y-67100000D03*
X153500000Y-97100000D03*
X153500000Y-99300000D03*
X153500000Y-87100000D03*
X153500000Y-137100000D03*
X153500000Y-79300000D03*
X153500000Y-107100000D03*
X153500000Y-134300000D03*
X153500000Y-109300000D03*
X153500000Y-82100000D03*
X153500000Y-102100000D03*
X153500000Y-124300000D03*
X153500000Y-64300000D03*
X153500000Y-122100000D03*
X153500000Y-112100000D03*
X153475000Y-119300000D03*
X153500000Y-89300000D03*
X153500000Y-117100000D03*
X153500000Y-92100000D03*
X153500000Y-129300000D03*
X153500000Y-139300000D03*
%TO.N,/LINE11*%
X158500000Y-117100000D03*
X158500000Y-124300000D03*
X158500000Y-92100000D03*
X158500000Y-127100000D03*
X158500000Y-97099000D03*
X158475000Y-84300000D03*
X158500000Y-137100000D03*
X158500000Y-89300000D03*
X158500000Y-132200000D03*
X158500000Y-102100000D03*
X158500000Y-139300000D03*
X158500000Y-114300000D03*
X158500000Y-82100000D03*
X158500000Y-67100000D03*
X158500000Y-129300000D03*
X158500000Y-122100000D03*
X158500000Y-112100000D03*
X158500000Y-79300000D03*
X158500000Y-77100000D03*
X158500000Y-134300000D03*
X158500000Y-107100000D03*
X158500000Y-99300000D03*
X158500000Y-94300000D03*
X158500000Y-64300000D03*
X158500000Y-104300000D03*
X158475000Y-119300000D03*
X158500000Y-87100000D03*
X158500000Y-109300000D03*
%TO.N,/LINE12*%
X163500000Y-137100000D03*
X163475000Y-117125000D03*
X163500000Y-129300000D03*
X163500000Y-122100000D03*
X163500000Y-77100000D03*
X163500000Y-107100000D03*
X163500000Y-87100000D03*
X163500000Y-139300000D03*
X163475000Y-119300000D03*
X163500000Y-99300000D03*
X163525000Y-132100000D03*
X163500000Y-124300000D03*
X163500000Y-97100000D03*
X163500000Y-127100000D03*
X163500000Y-109300000D03*
X163500000Y-89300000D03*
X163500000Y-102100000D03*
X163500000Y-79300000D03*
X163500000Y-82100000D03*
X163500000Y-64300000D03*
X163500000Y-67100000D03*
X163500000Y-94300000D03*
X163475000Y-84300000D03*
X163500000Y-92100000D03*
X163500000Y-104300000D03*
X163500000Y-134300000D03*
%TO.N,/LINE13*%
X168500000Y-109300000D03*
X168500000Y-72100000D03*
X168500000Y-74165204D03*
X168500000Y-99300000D03*
X168500000Y-102100000D03*
X168500000Y-107100000D03*
X168500000Y-114300000D03*
X168500000Y-67100000D03*
X168500000Y-104300000D03*
X168500000Y-64300000D03*
X168500000Y-112100000D03*
%TO.N,/LINE14*%
X173500000Y-114300000D03*
X173500000Y-104300000D03*
X173500000Y-109300000D03*
X173500000Y-127100000D03*
X173500000Y-97100000D03*
X173500000Y-112100000D03*
X173500000Y-64300000D03*
X173500000Y-107100000D03*
X173500000Y-99300000D03*
X173500000Y-139300000D03*
X173525000Y-132100000D03*
X173500000Y-134300000D03*
X173500000Y-102100000D03*
X173500000Y-129300000D03*
X173500000Y-137100000D03*
%TO.N,/LINE15*%
X178525000Y-94300000D03*
X178525000Y-79300000D03*
X178525000Y-124300000D03*
X178525000Y-122100000D03*
X178525000Y-134300000D03*
X178525000Y-72100000D03*
X178525000Y-139300000D03*
X178525000Y-97100000D03*
X178525000Y-87100000D03*
X178525000Y-99300000D03*
X178500000Y-109300000D03*
X178525000Y-117100000D03*
X178525000Y-102100000D03*
X178500000Y-69300000D03*
X178525000Y-92100000D03*
X178500000Y-119300000D03*
X178500000Y-84300000D03*
X178500000Y-104300000D03*
X178525000Y-132000000D03*
X178525000Y-127100000D03*
X178525000Y-129300000D03*
X178500000Y-107100000D03*
X178525000Y-137100000D03*
X178525000Y-112100000D03*
X178525000Y-82100000D03*
X178525000Y-77100000D03*
X178525000Y-74300000D03*
X178525000Y-89300000D03*
X178525000Y-64300000D03*
%TD*%
D11*
%TO.N,/G0*%
X101725000Y-61500000D02*
X176725000Y-61500000D01*
%TO.N,/B0*%
X170900000Y-63539000D02*
X180825000Y-63539000D01*
X161000000Y-63539000D02*
X170900000Y-63539000D01*
X105825000Y-63539000D02*
X151000000Y-63539000D01*
X151000000Y-63539000D02*
X156000000Y-63539000D01*
X156000000Y-63539000D02*
X161000000Y-63539000D01*
%TO.N,/R0*%
X171200000Y-62861000D02*
X101200000Y-62861000D01*
X176200000Y-62861000D02*
X171200000Y-62861000D01*
%TO.N,/B1*%
X105850000Y-68539000D02*
X180850000Y-68539000D01*
%TO.N,/R1*%
X176225000Y-67861000D02*
X101225000Y-67861000D01*
%TO.N,/G1*%
X176000000Y-66489000D02*
X166700000Y-66489000D01*
X166700000Y-66489000D02*
X101761000Y-66489000D01*
X101761000Y-66489000D02*
X101750000Y-66500000D01*
%TO.N,/G2*%
X101761000Y-71489000D02*
X101750000Y-71500000D01*
X176739000Y-71489000D02*
X101761000Y-71489000D01*
X176750000Y-71500000D02*
X176739000Y-71489000D01*
%TO.N,/R2*%
X101225000Y-72861000D02*
X176225000Y-72861000D01*
%TO.N,/B2*%
X166000000Y-73539000D02*
X136000000Y-73539000D01*
X136000000Y-73539000D02*
X105850000Y-73539000D01*
D12*
X136000000Y-74000000D02*
X136000000Y-73539000D01*
X166000000Y-73756095D02*
X166000000Y-73539000D01*
D11*
X180850000Y-73539000D02*
X166000000Y-73539000D01*
D12*
X166009768Y-73811170D02*
X166009768Y-73765863D01*
X166009768Y-73765863D02*
X166000000Y-73756095D01*
D11*
%TO.N,/G3*%
X101750000Y-76500000D02*
X101761000Y-76489000D01*
X101761000Y-76489000D02*
X176739000Y-76489000D01*
X176739000Y-76489000D02*
X176750000Y-76500000D01*
%TO.N,/B3*%
X105850000Y-78539000D02*
X180850000Y-78539000D01*
%TO.N,/R3*%
X176225000Y-77861000D02*
X101225000Y-77861000D01*
%TO.N,/B4*%
X180850000Y-83539000D02*
X105850000Y-83539000D01*
%TO.N,/G4*%
X176750000Y-81500000D02*
X176739000Y-81489000D01*
X101761000Y-81489000D02*
X101750000Y-81500000D01*
X176739000Y-81489000D02*
X171700000Y-81489000D01*
X171700000Y-81489000D02*
X101761000Y-81489000D01*
%TO.N,/R4*%
X101225000Y-82861000D02*
X176225000Y-82861000D01*
%TO.N,/G5*%
X176100000Y-86489000D02*
X101786000Y-86489000D01*
X101786000Y-86489000D02*
X101775000Y-86500000D01*
%TO.N,/B5*%
X105875000Y-88539000D02*
X180875000Y-88539000D01*
%TO.N,/R5*%
X101250000Y-87861000D02*
X176250000Y-87861000D01*
%TO.N,/B6*%
X180875000Y-93539000D02*
X105875000Y-93539000D01*
%TO.N,/G6*%
X176000000Y-91489000D02*
X101786000Y-91489000D01*
X101786000Y-91489000D02*
X101775000Y-91500000D01*
%TO.N,/R6*%
X176250000Y-92861000D02*
X101250000Y-92861000D01*
%TO.N,/G7*%
X101786000Y-96489000D02*
X176764000Y-96489000D01*
X101775000Y-96500000D02*
X101786000Y-96489000D01*
X176764000Y-96489000D02*
X176775000Y-96500000D01*
%TO.N,/B7*%
X105875000Y-98539000D02*
X180875000Y-98539000D01*
%TO.N,/R7*%
X176250000Y-97861000D02*
X101250000Y-97861000D01*
%TO.N,/B8*%
X180850000Y-103539000D02*
X105850000Y-103539000D01*
%TO.N,/R8*%
X101225000Y-102861000D02*
X176225000Y-102861000D01*
%TO.N,/G8*%
X176739000Y-101489000D02*
X101761000Y-101489000D01*
X101761000Y-101489000D02*
X101750000Y-101500000D01*
X176750000Y-101500000D02*
X176739000Y-101489000D01*
%TO.N,/G9*%
X176000000Y-106489000D02*
X101786000Y-106489000D01*
X101786000Y-106489000D02*
X101775000Y-106500000D01*
%TO.N,/B9*%
X105875000Y-108539000D02*
X180875000Y-108539000D01*
%TO.N,/R9*%
X176250000Y-107861000D02*
X101250000Y-107861000D01*
%TO.N,/B10*%
X180875000Y-113539000D02*
X105875000Y-113539000D01*
%TO.N,/G10*%
X176775000Y-111500000D02*
X176764000Y-111489000D01*
X176764000Y-111489000D02*
X101786000Y-111489000D01*
X101786000Y-111489000D02*
X101775000Y-111500000D01*
%TO.N,/R10*%
X171200000Y-112861000D02*
X176250000Y-112861000D01*
X101250000Y-112861000D02*
X171200000Y-112861000D01*
%TO.N,/R11*%
X176250000Y-117861000D02*
X101250000Y-117861000D01*
%TO.N,/B11*%
X105875000Y-118539000D02*
X180875000Y-118539000D01*
%TO.N,/G11*%
X101786000Y-116489000D02*
X176764000Y-116489000D01*
X101775000Y-116500000D02*
X101786000Y-116489000D01*
X176764000Y-116489000D02*
X176775000Y-116500000D01*
%TO.N,/B12*%
X180850000Y-123539000D02*
X105850000Y-123539000D01*
%TO.N,/G12*%
X176739000Y-121489000D02*
X101761000Y-121489000D01*
X176750000Y-121500000D02*
X176739000Y-121489000D01*
X101761000Y-121489000D02*
X101750000Y-121500000D01*
%TO.N,/R12*%
X101225000Y-122861000D02*
X176225000Y-122861000D01*
%TO.N,/B13*%
X105875000Y-128539000D02*
X180875000Y-128539000D01*
%TO.N,/G13*%
X176764000Y-126489000D02*
X176775000Y-126500000D01*
X101775000Y-126500000D02*
X101786000Y-126489000D01*
X101786000Y-126489000D02*
X176764000Y-126489000D01*
%TO.N,/R13*%
X176250000Y-127861000D02*
X101250000Y-127861000D01*
%TO.N,/R14*%
X101250000Y-132861000D02*
X176250000Y-132861000D01*
%TO.N,/G14*%
X165900000Y-131489000D02*
X101786000Y-131489000D01*
X101786000Y-131489000D02*
X101775000Y-131500000D01*
X176775000Y-131500000D02*
X176764000Y-131489000D01*
X176764000Y-131489000D02*
X165900000Y-131489000D01*
%TO.N,/B14*%
X180875000Y-133539000D02*
X105875000Y-133539000D01*
%TO.N,/G15*%
X176764000Y-136489000D02*
X176775000Y-136500000D01*
X101786000Y-136489000D02*
X176764000Y-136489000D01*
X101775000Y-136500000D02*
X101786000Y-136489000D01*
%TO.N,/R15*%
X176250000Y-137861000D02*
X101250000Y-137861000D01*
%TO.N,/B15*%
X105875000Y-138539000D02*
X180875000Y-138539000D01*
%TD*%
M02*
