M48
; DRILL file {KiCad 9.0.7} date 2026-02-20T11:37:00-0800
; FORMAT={-:-/ absolute / inch / decimal}
; #@! TF.CreationDate,2026-02-20T11:37:00-08:00
; #@! TF.GenerationSoftware,Kicad,Pcbnew,9.0.7
; #@! TF.FileFunction,Plated,1,4,PTH
FMAT,2
INCH
; #@! TA.AperFunction,Plated,PTH,ViaDrill
T1C0.0079
%
G90
G05
T1
X3.9803Y-2.5591
X3.9803Y-2.5827
X3.9803Y-2.7598
X3.9803Y-2.7835
X3.9803Y-2.9528
X3.9803Y-2.9764
X3.9803Y-3.1496
X3.9803Y-3.1732
X3.9803Y-3.3465
X3.9803Y-3.3701
X3.9803Y-3.5472
X3.9803Y-3.5709
X3.9803Y-3.7402
X3.9803Y-3.7598
X3.9803Y-3.937
X3.9803Y-3.9606
X3.9803Y-4.1339
X3.9803Y-4.1575
X3.9803Y-4.3346
X3.9803Y-4.3583
X3.9803Y-4.5276
X3.9803Y-4.5512
X3.9803Y-4.7283
X3.9803Y-4.752
X3.9803Y-4.9252
X3.9803Y-4.9488
X3.9803Y-5.126
X3.9803Y-5.1496
X3.9803Y-5.3228
X3.9803Y-5.3465
X3.9803Y-5.5236
X3.9803Y-5.5472
X3.9843Y-2.4748
X3.9852Y-2.6717
X3.9852Y-2.8685
X3.9852Y-3.0654
X3.9852Y-3.2622
X3.9852Y-4.0496
X3.9852Y-4.837
X3.9862Y-3.4591
X3.9862Y-3.6559
X3.9862Y-3.8528
X3.9862Y-4.2465
X3.9862Y-4.4433
X3.9862Y-4.6402
X3.9862Y-5.0339
X3.9862Y-5.2307
X3.9862Y-5.4276
X4.0039Y-2.5594
X4.0039Y-2.5827
X4.0039Y-2.7598
X4.0039Y-2.7835
X4.0039Y-2.9531
X4.0039Y-2.9764
X4.0039Y-3.15
X4.0039Y-3.1732
X4.0039Y-3.3469
X4.0039Y-3.3701
X4.0039Y-3.5472
X4.0039Y-3.5709
X4.0039Y-3.7406
X4.0039Y-3.7598
X4.0039Y-3.9374
X4.0039Y-3.9606
X4.0039Y-4.1343
X4.0039Y-4.1575
X4.0039Y-4.3346
X4.0039Y-4.3583
X4.0039Y-4.528
X4.0039Y-4.5512
X4.0039Y-4.7283
X4.0039Y-4.752
X4.0039Y-4.9252
X4.0039Y-4.9488
X4.0039Y-5.126
X4.0039Y-5.1496
X4.0039Y-5.3228
X4.0039Y-5.3465
X4.0039Y-5.5236
X4.0039Y-5.5472
X4.0049Y-2.4213
X4.0059Y-2.6181
X4.0059Y-2.815
X4.0059Y-3.0118
X4.0059Y-3.2087
X4.0059Y-3.9961
X4.0059Y-4.7835
X4.0069Y-3.4055
X4.0069Y-3.6024
X4.0069Y-3.7992
X4.0069Y-4.1929
X4.0069Y-4.3898
X4.0069Y-4.5866
X4.0069Y-4.9803
X4.0069Y-5.1772
X4.0069Y-5.374
X4.0276Y-2.5604
X4.0276Y-2.5827
X4.0276Y-2.7598
X4.0276Y-2.7835
X4.0276Y-2.9541
X4.0276Y-2.9764
X4.0276Y-3.151
X4.0276Y-3.1732
X4.0276Y-3.3478
X4.0276Y-3.3701
X4.0276Y-3.5472
X4.0276Y-3.5709
X4.0276Y-3.7415
X4.0276Y-3.7598
X4.0276Y-3.9384
X4.0276Y-3.9606
X4.0276Y-4.1352
X4.0276Y-4.1575
X4.0276Y-4.3346
X4.0276Y-4.3583
X4.0276Y-4.5289
X4.0276Y-4.5512
X4.0276Y-4.7283
X4.0276Y-4.752
X4.0276Y-4.9252
X4.0276Y-4.9488
X4.0276Y-5.126
X4.0276Y-5.1496
X4.0276Y-5.3228
X4.0276Y-5.3465
X4.0276Y-5.5236
X4.0276Y-5.5472
X4.0738Y-3.3189
X4.0738Y-4.6969
X4.0748Y-2.5315
X4.0748Y-2.6417
X4.0748Y-2.8386
X4.0748Y-2.9252
X4.0748Y-3.0354
X4.0748Y-3.122
X4.0748Y-3.2323
X4.0748Y-3.4291
X4.0748Y-3.5157
X4.0748Y-3.626
X4.0748Y-3.7126
X4.0748Y-3.8228
X4.0748Y-3.9094
X4.0748Y-4.0197
X4.0748Y-4.1063
X4.0748Y-4.2165
X4.0748Y-4.3031
X4.0748Y-4.4134
X4.0748Y-4.5
X4.0748Y-4.6102
X4.0748Y-4.8071
X4.0748Y-4.8937
X4.0748Y-5.0039
X4.0748Y-5.0906
X4.0748Y-5.2874
X4.0748Y-5.3976
X4.0748Y-5.4843
X4.0758Y-2.748
X4.0758Y-5.2008
X4.1663Y-2.5015
X4.1673Y-2.6984
X4.1673Y-2.8952
X4.1673Y-3.0921
X4.1673Y-3.2889
X4.1673Y-4.0763
X4.1673Y-4.8637
X4.1683Y-3.4858
X4.1683Y-3.6826
X4.1683Y-3.8795
X4.1683Y-4.2732
X4.1683Y-4.47
X4.1683Y-4.6669
X4.1683Y-5.0606
X4.1683Y-5.2574
X4.1683Y-5.4543
X4.1801Y-2.4748
X4.1811Y-2.6717
X4.1811Y-2.8685
X4.1811Y-3.0654
X4.1811Y-3.2622
X4.1811Y-4.0496
X4.1811Y-4.837
X4.1821Y-3.4591
X4.1821Y-3.6559
X4.1821Y-3.8528
X4.1821Y-4.2465
X4.1821Y-4.4433
X4.1821Y-4.6402
X4.1821Y-5.0339
X4.1821Y-5.2307
X4.1821Y-5.4276
X4.2008Y-2.4213
X4.2018Y-2.6181
X4.2018Y-2.815
X4.2018Y-3.0118
X4.2018Y-3.2087
X4.2018Y-3.9961
X4.2018Y-4.7835
X4.2028Y-3.4055
X4.2028Y-3.6024
X4.2028Y-3.7992
X4.2028Y-4.1929
X4.2028Y-4.3898
X4.2028Y-4.5866
X4.2028Y-4.9803
X4.2028Y-5.1772
X4.2028Y-5.374
X4.2707Y-3.3189
X4.2707Y-4.6969
X4.2717Y-2.5315
X4.2717Y-2.6417
X4.2717Y-2.7224
X4.2717Y-2.8386
X4.2717Y-2.9252
X4.2717Y-3.0354
X4.2717Y-3.122
X4.2717Y-3.2323
X4.2717Y-3.4291
X4.2717Y-3.5157
X4.2717Y-3.626
X4.2717Y-3.7126
X4.2717Y-3.8228
X4.2717Y-3.9094
X4.2717Y-4.0197
X4.2717Y-4.1063
X4.2717Y-4.2165
X4.2717Y-4.3031
X4.2717Y-4.4134
X4.2717Y-4.5
X4.2717Y-4.6102
X4.2717Y-4.8071
X4.2717Y-4.8937
X4.2717Y-5.0039
X4.2717Y-5.0906
X4.2717Y-5.2008
X4.2717Y-5.2874
X4.2717Y-5.3976
X4.2717Y-5.4843
X4.3622Y-2.5015
X4.3632Y-2.6984
X4.3632Y-2.8952
X4.3632Y-3.0921
X4.3632Y-3.2889
X4.3632Y-4.0763
X4.3632Y-4.8637
X4.3642Y-3.4858
X4.3642Y-3.6826
X4.3642Y-3.8795
X4.3642Y-4.2732
X4.3642Y-4.47
X4.3642Y-4.6669
X4.3642Y-5.0606
X4.3642Y-5.2574
X4.3642Y-5.4543
X4.3698Y-2.6177
X4.3698Y-2.8145
X4.3698Y-2.8679
X4.3698Y-2.671
X4.374Y-2.9528
X4.374Y-2.9764
X4.374Y-3.1535
X4.374Y-3.1772
X4.374Y-3.3465
X4.374Y-3.3701
X4.374Y-3.5433
X4.374Y-3.5669
X4.374Y-3.7402
X4.374Y-3.7638
X4.374Y-3.9409
X4.374Y-3.9646
X4.374Y-4.1339
X4.374Y-4.1535
X4.374Y-4.3307
X4.374Y-4.3543
X4.374Y-4.5276
X4.374Y-4.5512
X4.374Y-4.7283
X4.374Y-4.752
X4.374Y-4.9213
X4.374Y-4.9449
X4.374Y-5.122
X4.374Y-5.1457
X4.374Y-5.3189
X4.374Y-5.3425
X4.374Y-5.5197
X4.374Y-5.5433
X4.378Y-2.4748
X4.3789Y-3.0654
X4.3789Y-3.2622
X4.3789Y-4.0496
X4.3789Y-4.837
X4.3799Y-3.4591
X4.3799Y-3.6559
X4.3799Y-3.8528
X4.3799Y-4.2465
X4.3799Y-4.4433
X4.3799Y-4.6402
X4.3799Y-5.0339
X4.3799Y-5.2307
X4.3799Y-5.4276
X4.3976Y-2.9531
X4.3976Y-2.9764
X4.3976Y-3.1535
X4.3976Y-3.1772
X4.3976Y-3.3469
X4.3976Y-3.3701
X4.3976Y-3.5437
X4.3976Y-3.5669
X4.3976Y-3.7406
X4.3976Y-3.7638
X4.3976Y-3.9409
X4.3976Y-3.9646
X4.3976Y-4.1343
X4.3976Y-4.1535
X4.3976Y-4.3311
X4.3976Y-4.3543
X4.3976Y-4.528
X4.3976Y-4.5512
X4.3976Y-4.7283
X4.3976Y-4.752
X4.3976Y-4.9217
X4.3976Y-4.9449
X4.3976Y-5.122
X4.3976Y-5.1457
X4.3976Y-5.3189
X4.3976Y-5.3425
X4.3976Y-5.5197
X4.3976Y-5.5433
X4.3986Y-2.4213
X4.3996Y-3.0118
X4.3996Y-3.2087
X4.3996Y-3.9961
X4.3996Y-4.7835
X4.4006Y-3.4055
X4.4006Y-3.6024
X4.4006Y-3.7992
X4.4006Y-4.1929
X4.4006Y-4.3898
X4.4006Y-4.5866
X4.4006Y-4.9803
X4.4006Y-5.1772
X4.4006Y-5.374
X4.4213Y-2.9541
X4.4213Y-2.9764
X4.4213Y-3.1535
X4.4213Y-3.1772
X4.4213Y-3.3478
X4.4213Y-3.3701
X4.4213Y-3.5447
X4.4213Y-3.5669
X4.4213Y-3.7415
X4.4213Y-3.7638
X4.4213Y-3.9409
X4.4213Y-3.9646
X4.4213Y-4.1352
X4.4213Y-4.1535
X4.4213Y-4.3321
X4.4213Y-4.3543
X4.4213Y-4.5289
X4.4213Y-4.5512
X4.4213Y-4.7283
X4.4213Y-4.752
X4.4213Y-4.9226
X4.4213Y-4.9449
X4.4213Y-5.122
X4.4213Y-5.1457
X4.4213Y-5.3189
X4.4213Y-5.3425
X4.4213Y-5.5197
X4.4213Y-5.5433
X4.4675Y-3.3189
X4.4675Y-4.6969
X4.4685Y-3.0354
X4.4685Y-3.122
X4.4685Y-3.2323
X4.4685Y-3.4291
X4.4685Y-3.5157
X4.4685Y-3.626
X4.4685Y-3.7126
X4.4685Y-3.8228
X4.4685Y-3.9094
X4.4685Y-4.0197
X4.4685Y-4.1063
X4.4685Y-4.2165
X4.4685Y-4.3031
X4.4685Y-4.4134
X4.4685Y-4.5
X4.4685Y-4.6102
X4.4685Y-4.8071
X4.4685Y-5.0039
X4.4685Y-5.0906
X4.4685Y-5.2874
X4.4685Y-5.3976
X4.4685Y-5.4843
X4.4695Y-5.2008
X4.5Y-4.937
X4.5315Y-4.9331
X4.5547Y-4.9528
X4.561Y-2.8952
X4.561Y-3.0921
X4.561Y-3.2889
X4.561Y-4.0763
X4.561Y-4.8637
X4.5613Y-2.5015
X4.5613Y-2.6984
X4.562Y-3.4858
X4.562Y-3.6826
X4.562Y-3.8795
X4.562Y-4.2732
X4.562Y-4.47
X4.562Y-4.6669
X4.562Y-5.0606
X4.562Y-5.2574
X4.562Y-5.4543
X4.5748Y-2.4748
X4.5758Y-2.6717
X4.5758Y-2.8685
X4.5758Y-3.0654
X4.5758Y-3.2622
X4.5758Y-4.0496
X4.5758Y-4.837
X4.5768Y-3.4591
X4.5768Y-3.6559
X4.5768Y-3.8528
X4.5768Y-4.2465
X4.5768Y-4.4433
X4.5768Y-4.6402
X4.5768Y-5.0339
X4.5768Y-5.2307
X4.5768Y-5.4276
X4.5804Y-2.8145
X4.5955Y-2.4213
X4.5965Y-2.6181
X4.5965Y-3.0118
X4.5965Y-3.2087
X4.5965Y-3.9961
X4.5965Y-4.7835
X4.5974Y-3.4055
X4.5974Y-3.6024
X4.5974Y-3.7992
X4.5974Y-4.1929
X4.5974Y-4.3898
X4.5974Y-4.5866
X4.5974Y-4.9803
X4.5974Y-5.1772
X4.5974Y-5.374
X4.6106Y-4.9291
X4.6644Y-3.3189
X4.6644Y-4.6969
X4.6654Y-3.0354
X4.6654Y-3.122
X4.6654Y-3.2323
X4.6654Y-3.4291
X4.6654Y-3.5157
X4.6654Y-3.626
X4.6654Y-3.7126
X4.6654Y-3.8228
X4.6654Y-3.9094
X4.6654Y-4.0197
X4.6654Y-4.1063
X4.6654Y-4.2165
X4.6654Y-4.3031
X4.6654Y-4.4134
X4.6654Y-4.5
X4.6654Y-4.6102
X4.6654Y-4.8071
X4.6654Y-4.8937
X4.6654Y-5.0039
X4.6654Y-5.0906
X4.6654Y-5.2874
X4.6654Y-5.3976
X4.6654Y-5.4843
X4.7579Y-2.8952
X4.7579Y-3.0921
X4.7579Y-3.2889
X4.7579Y-4.0763
X4.7579Y-4.8637
X4.7582Y-2.5015
X4.7582Y-2.6984
X4.7589Y-3.4858
X4.7589Y-3.6826
X4.7589Y-3.8795
X4.7589Y-4.2732
X4.7589Y-4.47
X4.7589Y-4.6669
X4.7589Y-5.0606
X4.7589Y-5.2574
X4.7589Y-5.4543
X4.7677Y-3.1535
X4.7677Y-3.1772
X4.7677Y-3.3543
X4.7677Y-3.378
X4.7677Y-3.5472
X4.7677Y-3.5709
X4.7677Y-3.7441
X4.7677Y-3.7677
X4.7677Y-3.9409
X4.7677Y-3.9646
X4.7677Y-4.1417
X4.7677Y-4.1654
X4.7677Y-4.3307
X4.7677Y-4.3543
X4.7677Y-4.5315
X4.7677Y-4.5551
X4.7677Y-4.7283
X4.7677Y-4.752
X4.7677Y-5.122
X4.7677Y-5.1457
X4.7677Y-5.3228
X4.7677Y-5.3465
X4.7677Y-5.5197
X4.7677Y-5.5433
X4.7717Y-2.4748
X4.7726Y-2.6717
X4.7726Y-2.8685
X4.7726Y-3.0654
X4.7726Y-3.2622
X4.7726Y-4.0496
X4.7726Y-4.837
X4.7736Y-3.4591
X4.7736Y-3.6559
X4.7736Y-3.8528
X4.7736Y-4.2465
X4.7736Y-4.4433
X4.7736Y-4.6402
X4.7736Y-5.0339
X4.7736Y-5.2307
X4.7736Y-5.4276
X4.7773Y-2.8145
X4.7913Y-3.1535
X4.7913Y-3.1772
X4.7913Y-3.3543
X4.7913Y-3.378
X4.7913Y-3.5472
X4.7913Y-3.5709
X4.7913Y-3.7441
X4.7913Y-3.7677
X4.7913Y-3.9409
X4.7913Y-3.9646
X4.7913Y-4.1417
X4.7913Y-4.1654
X4.7913Y-4.3311
X4.7913Y-4.3543
X4.7913Y-4.5315
X4.7913Y-4.5551
X4.7913Y-4.7283
X4.7913Y-4.752
X4.7913Y-5.122
X4.7913Y-5.1457
X4.7913Y-5.3228
X4.7913Y-5.3465
X4.7913Y-5.5197
X4.7913Y-5.5433
X4.7923Y-2.4213
X4.7933Y-2.6181
X4.7933Y-3.0118
X4.7933Y-3.2087
X4.7933Y-3.9961
X4.7933Y-4.7835
X4.7943Y-3.4055
X4.7943Y-3.6024
X4.7943Y-3.7992
X4.7943Y-4.1929
X4.7943Y-4.3898
X4.7943Y-4.5866
X4.7943Y-4.9803
X4.7943Y-5.1772
X4.7943Y-5.374
X4.815Y-3.1535
X4.815Y-3.1772
X4.815Y-3.3543
X4.815Y-3.378
X4.815Y-3.5472
X4.815Y-3.5709
X4.815Y-3.7441
X4.815Y-3.7677
X4.815Y-3.9409
X4.815Y-3.9646
X4.815Y-4.1417
X4.815Y-4.1654
X4.815Y-4.3321
X4.815Y-4.3543
X4.815Y-4.5315
X4.815Y-4.5551
X4.815Y-4.7283
X4.815Y-4.752
X4.815Y-5.122
X4.815Y-5.1457
X4.815Y-5.3228
X4.815Y-5.3465
X4.815Y-5.5197
X4.815Y-5.5433
X4.8612Y-2.7283
X4.8612Y-3.3189
X4.8612Y-4.6969
X4.8622Y-3.0354
X4.8622Y-3.122
X4.8622Y-3.2323
X4.8622Y-3.4291
X4.8622Y-3.5157
X4.8622Y-3.626
X4.8622Y-3.7126
X4.8622Y-3.8228
X4.8622Y-3.9094
X4.8622Y-4.0197
X4.8622Y-4.1063
X4.8622Y-4.2165
X4.8622Y-4.3031
X4.8622Y-4.4134
X4.8622Y-4.5
X4.8622Y-4.6102
X4.8622Y-4.8071
X4.8622Y-4.8937
X4.8622Y-5.0039
X4.8622Y-5.0906
X4.8622Y-5.2874
X4.8622Y-5.3976
X4.8622Y-5.4843
X4.8632Y-5.2008
X4.9547Y-2.8952
X4.9547Y-3.0921
X4.9547Y-3.2889
X4.9547Y-4.0763
X4.9547Y-4.8637
X4.955Y-2.6984
X4.9557Y-3.4858
X4.9557Y-3.6826
X4.9557Y-3.8795
X4.9557Y-4.2732
X4.9557Y-4.47
X4.9557Y-4.6669
X4.9557Y-5.0606
X4.9557Y-5.2574
X4.9557Y-5.4543
X4.9567Y-2.5015
X4.9675Y-2.4748
X4.9685Y-2.6717
X4.9685Y-2.8685
X4.9685Y-3.0654
X4.9685Y-3.2622
X4.9685Y-4.0496
X4.9685Y-4.837
X4.9695Y-3.4591
X4.9695Y-3.6559
X4.9695Y-3.8528
X4.9695Y-4.2465
X4.9695Y-4.4433
X4.9695Y-4.6402
X4.9695Y-5.0339
X4.9695Y-5.2307
X4.9695Y-5.4276
X4.9741Y-2.8145
X4.9882Y-2.4213
X4.9892Y-2.6181
X4.9892Y-3.0118
X4.9892Y-3.2087
X4.9892Y-3.9961
X4.9892Y-4.7835
X4.9902Y-3.4055
X4.9902Y-3.6024
X4.9902Y-3.7992
X4.9902Y-4.1929
X4.9902Y-4.3898
X4.9902Y-4.5866
X4.9902Y-4.9803
X4.9902Y-5.1772
X4.9902Y-5.374
X5.0581Y-2.7283
X5.0581Y-3.3189
X5.0581Y-4.6969
X5.0591Y-2.5315
X5.0591Y-2.6417
X5.0591Y-2.8386
X5.0591Y-2.9252
X5.0591Y-3.0354
X5.0591Y-3.122
X5.0591Y-3.2323
X5.0591Y-3.4291
X5.0591Y-3.5157
X5.0591Y-3.626
X5.0591Y-3.7126
X5.0591Y-3.8228
X5.0591Y-3.9094
X5.0591Y-4.0197
X5.0591Y-4.1063
X5.0591Y-4.2165
X5.0591Y-4.3031
X5.0591Y-4.4134
X5.0591Y-4.5
X5.0591Y-4.6102
X5.0591Y-4.8071
X5.0591Y-4.8937
X5.0591Y-5.0039
X5.0591Y-5.0906
X5.0591Y-5.2008
X5.0591Y-5.2874
X5.0591Y-5.3976
X5.0591Y-5.4843
X5.1506Y-2.8952
X5.1506Y-3.0921
X5.1506Y-3.2889
X5.1506Y-4.0763
X5.1506Y-4.8637
X5.1516Y-3.4858
X5.1516Y-3.6826
X5.1516Y-3.8795
X5.1516Y-4.2732
X5.1516Y-4.47
X5.1516Y-4.6669
X5.1516Y-5.0606
X5.1516Y-5.2574
X5.1516Y-5.4543
X5.1519Y-2.5015
X5.1519Y-2.6984
X5.1614Y-3.1535
X5.1614Y-3.1772
X5.1614Y-3.3543
X5.1614Y-3.378
X5.1614Y-3.5472
X5.1614Y-3.5709
X5.1614Y-3.7441
X5.1614Y-3.7677
X5.1614Y-3.9409
X5.1614Y-3.9646
X5.1614Y-4.1417
X5.1614Y-4.1654
X5.1614Y-4.3307
X5.1614Y-4.3543
X5.1614Y-4.5315
X5.1614Y-4.5551
X5.1614Y-4.7283
X5.1614Y-4.752
X5.1614Y-4.9528
X5.1614Y-5.122
X5.1614Y-5.1457
X5.1614Y-5.3228
X5.1614Y-5.3465
X5.1614Y-5.5197
X5.1614Y-5.5433
X5.1654Y-2.4748
X5.1663Y-2.6717
X5.1663Y-2.8685
X5.1663Y-3.0654
X5.1663Y-3.2622
X5.1663Y-4.0496
X5.1663Y-4.837
X5.1673Y-3.4591
X5.1673Y-3.6559
X5.1673Y-3.8528
X5.1673Y-4.2465
X5.1673Y-4.4433
X5.1673Y-4.6402
X5.1673Y-5.0339
X5.1673Y-5.2307
X5.1673Y-5.4276
X5.171Y-2.8145
X5.185Y-3.1535
X5.185Y-3.1772
X5.185Y-3.3543
X5.185Y-3.378
X5.185Y-3.5472
X5.185Y-3.5709
X5.185Y-3.7441
X5.185Y-3.7677
X5.185Y-3.9409
X5.185Y-3.9646
X5.185Y-4.1417
X5.185Y-4.1654
X5.185Y-4.3311
X5.185Y-4.3543
X5.185Y-4.5315
X5.185Y-4.5551
X5.185Y-4.7283
X5.185Y-4.752
X5.185Y-4.9528
X5.185Y-5.122
X5.185Y-5.1457
X5.185Y-5.3228
X5.185Y-5.3465
X5.185Y-5.5197
X5.185Y-5.5433
X5.186Y-2.4213
X5.187Y-2.6181
X5.187Y-3.0118
X5.187Y-3.2087
X5.187Y-3.9961
X5.187Y-4.7835
X5.188Y-3.4055
X5.188Y-3.6024
X5.188Y-3.7992
X5.188Y-4.1929
X5.188Y-4.3898
X5.188Y-4.5866
X5.188Y-4.9803
X5.188Y-5.1772
X5.188Y-5.374
X5.2087Y-3.1535
X5.2087Y-3.1772
X5.2087Y-3.3543
X5.2087Y-3.378
X5.2087Y-3.5472
X5.2087Y-3.5709
X5.2087Y-3.7441
X5.2087Y-3.7677
X5.2087Y-3.9409
X5.2087Y-3.9646
X5.2087Y-4.1417
X5.2087Y-4.1654
X5.2087Y-4.3321
X5.2087Y-4.3543
X5.2087Y-4.5315
X5.2087Y-4.5551
X5.2087Y-4.7283
X5.2087Y-4.752
X5.2087Y-4.9528
X5.2087Y-5.122
X5.2087Y-5.1457
X5.2087Y-5.3228
X5.2087Y-5.3465
X5.2087Y-5.5197
X5.2087Y-5.5433
X5.2549Y-2.7283
X5.2549Y-3.3189
X5.2549Y-4.6969
X5.2559Y-2.5315
X5.2559Y-2.6417
X5.2559Y-2.8386
X5.2559Y-2.9252
X5.2559Y-3.0354
X5.2559Y-3.122
X5.2559Y-3.2323
X5.2559Y-3.4291
X5.2559Y-3.5157
X5.2559Y-3.626
X5.2559Y-3.7126
X5.2559Y-3.8228
X5.2559Y-3.9094
X5.2559Y-4.0197
X5.2559Y-4.1063
X5.2559Y-4.2165
X5.2559Y-4.3031
X5.2559Y-4.4134
X5.2559Y-4.5
X5.2559Y-4.6102
X5.2559Y-4.8071
X5.2559Y-4.8937
X5.2559Y-5.0039
X5.2559Y-5.0906
X5.2559Y-5.2874
X5.2559Y-5.3976
X5.2559Y-5.4843
X5.2569Y-5.2008
X5.3474Y-2.5015
X5.3484Y-2.6984
X5.3484Y-3.0921
X5.3484Y-3.2889
X5.3484Y-4.0763
X5.3484Y-4.8637
X5.3494Y-3.4858
X5.3494Y-3.6826
X5.3494Y-3.8795
X5.3494Y-4.2732
X5.3494Y-4.47
X5.3494Y-4.6669
X5.3494Y-5.0606
X5.3494Y-5.2574
X5.3494Y-5.4543
X5.3543Y-2.9134
X5.3622Y-2.4748
X5.3632Y-2.6717
X5.3632Y-2.8685
X5.3632Y-3.0654
X5.3632Y-3.2622
X5.3632Y-4.0496
X5.3632Y-4.837
X5.3642Y-3.4591
X5.3642Y-3.6559
X5.3642Y-3.8528
X5.3642Y-4.2465
X5.3642Y-4.4433
X5.3642Y-4.6402
X5.3642Y-5.0339
X5.3642Y-5.2307
X5.3642Y-5.4276
X5.3829Y-2.4213
X5.3839Y-2.6181
X5.3839Y-2.815
X5.3839Y-3.0118
X5.3839Y-3.2087
X5.3839Y-3.9961
X5.3839Y-4.7835
X5.3848Y-3.4055
X5.3848Y-3.6024
X5.3848Y-3.7992
X5.3848Y-4.1929
X5.3848Y-4.3898
X5.3848Y-4.5866
X5.3848Y-4.9803
X5.3848Y-5.1772
X5.3848Y-5.374
X5.4518Y-2.7283
X5.4518Y-3.3189
X5.4518Y-4.6969
X5.4528Y-2.5315
X5.4528Y-2.6417
X5.4528Y-2.8386
X5.4528Y-2.9252
X5.4528Y-3.0354
X5.4528Y-3.122
X5.4528Y-3.2323
X5.4528Y-3.4291
X5.4528Y-3.5157
X5.4528Y-3.626
X5.4528Y-3.7126
X5.4528Y-3.8228
X5.4528Y-3.9094
X5.4528Y-4.0197
X5.4528Y-4.1063
X5.4528Y-4.2165
X5.4528Y-4.3031
X5.4528Y-4.4134
X5.4528Y-4.5
X5.4528Y-4.6102
X5.4528Y-4.8071
X5.4528Y-4.8937
X5.4528Y-5.0039
X5.4528Y-5.0906
X5.4528Y-5.2874
X5.4528Y-5.3976
X5.4528Y-5.4843
X5.4537Y-5.2008
X5.5443Y-2.5015
X5.5453Y-2.6984
X5.5453Y-2.8952
X5.5453Y-3.0921
X5.5453Y-3.2889
X5.5453Y-4.0763
X5.5453Y-4.8637
X5.5463Y-3.4858
X5.5463Y-3.6826
X5.5463Y-3.8795
X5.5463Y-4.2732
X5.5463Y-4.47
X5.5463Y-4.6669
X5.5463Y-5.0606
X5.5463Y-5.2574
X5.5463Y-5.4543
X5.5548Y-2.6177
X5.5548Y-2.8145
X5.5548Y-2.8685
X5.5548Y-2.6717
X5.5551Y-2.9528
X5.5551Y-2.9764
X5.5551Y-3.1535
X5.5551Y-3.1772
X5.5551Y-3.3465
X5.5551Y-3.3701
X5.5551Y-3.5433
X5.5551Y-3.5669
X5.5551Y-3.7402
X5.5551Y-3.7638
X5.5551Y-3.9409
X5.5551Y-3.9646
X5.5551Y-4.1339
X5.5551Y-4.1535
X5.5551Y-4.3307
X5.5551Y-4.3543
X5.5551Y-4.5276
X5.5551Y-4.5512
X5.5551Y-4.7283
X5.5551Y-4.752
X5.5551Y-5.122
X5.5551Y-5.1457
X5.5551Y-5.3189
X5.5551Y-5.3425
X5.5551Y-5.5197
X5.5551Y-5.5433
X5.5591Y-2.4748
X5.56Y-3.0654
X5.56Y-3.2622
X5.56Y-4.0496
X5.56Y-4.837
X5.561Y-3.4591
X5.561Y-3.6559
X5.561Y-3.8528
X5.561Y-4.2465
X5.561Y-4.4433
X5.561Y-4.6402
X5.561Y-5.0339
X5.561Y-5.2307
X5.561Y-5.4276
X5.5787Y-2.9531
X5.5787Y-2.9764
X5.5787Y-3.1535
X5.5787Y-3.1772
X5.5787Y-3.3469
X5.5787Y-3.3701
X5.5787Y-3.5437
X5.5787Y-3.5669
X5.5787Y-3.7406
X5.5787Y-3.7638
X5.5787Y-3.9409
X5.5787Y-3.9646
X5.5787Y-4.1343
X5.5787Y-4.1535
X5.5787Y-4.3311
X5.5787Y-4.3543
X5.5787Y-4.528
X5.5787Y-4.5512
X5.5787Y-4.7283
X5.5787Y-4.752
X5.5787Y-5.122
X5.5787Y-5.1457
X5.5787Y-5.3189
X5.5787Y-5.3425
X5.5787Y-5.5197
X5.5787Y-5.5433
X5.5797Y-2.4213
X5.5807Y-3.0118
X5.5807Y-3.2087
X5.5807Y-3.9961
X5.5807Y-4.7835
X5.5817Y-3.4055
X5.5817Y-3.6024
X5.5817Y-3.7992
X5.5817Y-4.1929
X5.5817Y-4.3898
X5.5817Y-4.5866
X5.5817Y-4.9803
X5.5817Y-5.1772
X5.5817Y-5.374
X5.6024Y-2.9541
X5.6024Y-2.9764
X5.6024Y-3.1535
X5.6024Y-3.1772
X5.6024Y-3.3478
X5.6024Y-3.3701
X5.6024Y-3.5447
X5.6024Y-3.5669
X5.6024Y-3.7415
X5.6024Y-3.7638
X5.6024Y-3.9409
X5.6024Y-3.9646
X5.6024Y-4.1352
X5.6024Y-4.1535
X5.6024Y-4.3321
X5.6024Y-4.3543
X5.6024Y-4.5289
X5.6024Y-4.5512
X5.6024Y-4.7283
X5.6024Y-4.752
X5.6024Y-5.122
X5.6024Y-5.1457
X5.6024Y-5.3189
X5.6024Y-5.3425
X5.6024Y-5.5197
X5.6024Y-5.5433
X5.6486Y-2.7283
X5.6486Y-3.3189
X5.6486Y-4.6969
X5.6496Y-2.5315
X5.6496Y-2.6417
X5.6496Y-2.8386
X5.6496Y-2.9252
X5.6496Y-3.0354
X5.6496Y-3.122
X5.6496Y-3.2323
X5.6496Y-3.4291
X5.6496Y-3.5157
X5.6496Y-3.626
X5.6496Y-3.7126
X5.6496Y-3.8228
X5.6496Y-3.9094
X5.6496Y-4.0197
X5.6496Y-4.1063
X5.6496Y-4.2165
X5.6496Y-4.3031
X5.6496Y-4.4134
X5.6496Y-4.5
X5.6496Y-4.6102
X5.6496Y-4.8071
X5.6496Y-4.8937
X5.6496Y-5.0039
X5.6496Y-5.0906
X5.6496Y-5.2874
X5.6496Y-5.3976
X5.6496Y-5.4843
X5.6506Y-5.2008
X5.7421Y-2.8952
X5.7421Y-3.0921
X5.7421Y-3.2889
X5.7421Y-4.0763
X5.7421Y-4.8637
X5.7431Y-3.4858
X5.7431Y-3.6826
X5.7431Y-3.8795
X5.7431Y-4.2732
X5.7431Y-4.47
X5.7431Y-4.6669
X5.7431Y-5.0606
X5.7431Y-5.2574
X5.7431Y-5.4543
X5.7464Y-2.6984
X5.7487Y-2.5036
X5.7549Y-2.4748
X5.7559Y-2.6717
X5.7559Y-2.8685
X5.7559Y-3.0654
X5.7559Y-3.2622
X5.7559Y-4.0496
X5.7559Y-4.837
X5.7569Y-3.4591
X5.7569Y-3.6559
X5.7569Y-3.8528
X5.7569Y-4.2465
X5.7569Y-4.4433
X5.7569Y-4.6402
X5.7569Y-5.0339
X5.7569Y-5.2307
X5.7569Y-5.4276
X5.7654Y-2.815
X5.7756Y-2.4213
X5.7766Y-2.6181
X5.7766Y-3.0118
X5.7766Y-3.2087
X5.7766Y-3.9961
X5.7766Y-4.7835
X5.7776Y-3.4055
X5.7776Y-3.6024
X5.7776Y-3.7992
X5.7776Y-4.1929
X5.7776Y-4.3898
X5.7776Y-4.5866
X5.7776Y-4.9803
X5.7776Y-5.1772
X5.7776Y-5.374
X5.8455Y-2.7283
X5.8455Y-3.3189
X5.8455Y-4.6969
X5.8465Y-2.5315
X5.8465Y-2.6417
X5.8465Y-2.8386
X5.8465Y-2.9252
X5.8465Y-3.0354
X5.8465Y-3.122
X5.8465Y-3.2323
X5.8465Y-3.4291
X5.8465Y-3.5157
X5.8465Y-3.626
X5.8465Y-3.7126
X5.8465Y-3.8228
X5.8465Y-3.9094
X5.8465Y-4.0197
X5.8465Y-4.1063
X5.8465Y-4.2165
X5.8465Y-4.3031
X5.8465Y-4.4134
X5.8465Y-4.5
X5.8465Y-4.6102
X5.8465Y-4.8071
X5.8465Y-4.8937
X5.8465Y-5.0039
X5.8465Y-5.0906
X5.8465Y-5.2008
X5.8465Y-5.2874
X5.8465Y-5.3976
X5.8465Y-5.4843
X5.938Y-2.8952
X5.938Y-3.0921
X5.938Y-3.2889
X5.938Y-4.0763
X5.938Y-4.8637
X5.939Y-3.4858
X5.939Y-3.6826
X5.939Y-3.8795
X5.939Y-4.2732
X5.939Y-4.47
X5.939Y-4.6669
X5.939Y-5.0606
X5.939Y-5.2574
X5.939Y-5.4543
X5.9432Y-2.6984
X5.9449Y-2.5015
X5.9488Y-3.1496
X5.9488Y-3.1732
X5.9488Y-3.3504
X5.9488Y-3.374
X5.9488Y-3.5433
X5.9488Y-3.5669
X5.9488Y-3.7402
X5.9488Y-3.7638
X5.9488Y-3.937
X5.9488Y-3.9606
X5.9488Y-4.1378
X5.9488Y-4.1614
X5.9488Y-4.3307
X5.9488Y-4.3504
X5.9488Y-4.5276
X5.9488Y-4.5512
X5.9488Y-4.7244
X5.9488Y-4.748
X5.9488Y-5.1181
X5.9488Y-5.1417
X5.9488Y-5.3189
X5.9488Y-5.3425
X5.9488Y-5.5157
X5.9488Y-5.5394
X5.9528Y-2.4748
X5.9537Y-2.6717
X5.9537Y-2.8685
X5.9537Y-3.0654
X5.9537Y-3.2622
X5.9537Y-4.0496
X5.9537Y-4.837
X5.9547Y-3.4591
X5.9547Y-3.6559
X5.9547Y-3.8528
X5.9547Y-4.2465
X5.9547Y-4.4433
X5.9547Y-4.6402
X5.9547Y-5.0339
X5.9547Y-5.2307
X5.9547Y-5.4276
X5.9623Y-2.815
X5.9724Y-3.15
X5.9724Y-3.1732
X5.9724Y-3.3504
X5.9724Y-3.374
X5.9724Y-3.5437
X5.9724Y-3.5669
X5.9724Y-3.7406
X5.9724Y-3.7638
X5.9724Y-3.9374
X5.9724Y-3.9606
X5.9724Y-4.1378
X5.9724Y-4.1614
X5.9724Y-4.3311
X5.9724Y-4.3504
X5.9724Y-4.528
X5.9724Y-4.5512
X5.9724Y-4.7248
X5.9724Y-4.748
X5.9724Y-5.1185
X5.9724Y-5.1417
X5.9724Y-5.3189
X5.9724Y-5.3425
X5.9724Y-5.5157
X5.9724Y-5.5394
X5.9734Y-2.4213
X5.9744Y-2.6181
X5.9744Y-3.0118
X5.9744Y-3.2087
X5.9744Y-3.9961
X5.9744Y-4.7835
X5.9754Y-3.4055
X5.9754Y-3.6024
X5.9754Y-3.7992
X5.9754Y-4.1929
X5.9754Y-4.3898
X5.9754Y-4.5866
X5.9754Y-4.9803
X5.9754Y-5.1772
X5.9754Y-5.374
X5.9961Y-3.151
X5.9961Y-3.1732
X5.9961Y-3.3504
X5.9961Y-3.374
X5.9961Y-3.5447
X5.9961Y-3.5669
X5.9961Y-3.7415
X5.9961Y-3.7638
X5.9961Y-3.9384
X5.9961Y-3.9606
X5.9961Y-4.1378
X5.9961Y-4.1614
X5.9961Y-4.3321
X5.9961Y-4.3504
X5.9961Y-4.5289
X5.9961Y-4.5512
X5.9961Y-4.7258
X5.9961Y-4.748
X5.9961Y-5.1195
X5.9961Y-5.1417
X5.9961Y-5.3189
X5.9961Y-5.3425
X5.9961Y-5.5157
X5.9961Y-5.5394
X6.0423Y-4.6969
X6.0433Y-2.5315
X6.0433Y-2.6417
X6.0433Y-3.0354
X6.0433Y-3.122
X6.0433Y-3.2323
X6.0433Y-3.4291
X6.0433Y-3.5157
X6.0433Y-3.626
X6.0433Y-3.7126
X6.0433Y-3.8228
X6.0433Y-3.9094
X6.0433Y-4.0197
X6.0433Y-4.1063
X6.0433Y-4.2165
X6.0433Y-4.3031
X6.0433Y-4.4134
X6.0433Y-4.5
X6.0433Y-4.6102
X6.0433Y-4.8071
X6.0433Y-4.8937
X6.0433Y-5.0039
X6.0433Y-5.0906
X6.0433Y-5.2874
X6.0433Y-5.3976
X6.0433Y-5.4843
X6.0443Y-5.2008
X6.0748Y-3.3543
X6.1102Y-3.3543
X6.1339Y-3.374
X6.1358Y-2.8952
X6.1358Y-3.0921
X6.1358Y-3.2889
X6.1358Y-4.0763
X6.1358Y-4.8637
X6.1368Y-3.4858
X6.1368Y-3.6826
X6.1368Y-3.8795
X6.1368Y-4.2732
X6.1368Y-4.47
X6.1368Y-4.6669
X6.1368Y-5.0606
X6.1368Y-5.2574
X6.1368Y-5.4543
X6.1401Y-2.6984
X6.1417Y-2.5015
X6.1496Y-2.4748
X6.1506Y-2.6717
X6.1506Y-2.8685
X6.1506Y-3.0654
X6.1506Y-3.2622
X6.1506Y-4.0496
X6.1506Y-4.837
X6.1516Y-3.4591
X6.1516Y-3.6559
X6.1516Y-3.8528
X6.1516Y-4.2465
X6.1516Y-4.4433
X6.1516Y-4.6402
X6.1516Y-5.0339
X6.1516Y-5.2307
X6.1516Y-5.4276
X6.1591Y-2.815
X6.1703Y-2.4213
X6.1713Y-2.6181
X6.1713Y-3.0118
X6.1713Y-3.2087
X6.1713Y-3.9961
X6.1713Y-4.7835
X6.1722Y-3.4055
X6.1722Y-3.6024
X6.1722Y-3.7992
X6.1722Y-4.1929
X6.1722Y-4.3898
X6.1722Y-4.5866
X6.1722Y-4.9803
X6.1722Y-5.1772
X6.1722Y-5.374
X6.1732Y-3.3543
X6.2392Y-3.3189
X6.2392Y-4.6969
X6.2402Y-2.5315
X6.2402Y-2.6417
X6.2402Y-3.0354
X6.2402Y-3.122
X6.2402Y-3.2323
X6.2402Y-3.4291
X6.2402Y-3.5157
X6.2402Y-3.626
X6.2402Y-3.7126
X6.2402Y-3.8228
X6.2402Y-3.9094
X6.2402Y-4.0197
X6.2402Y-4.1063
X6.2402Y-4.2165
X6.2402Y-4.3031
X6.2402Y-4.4134
X6.2402Y-4.5
X6.2402Y-4.6102
X6.2402Y-4.8071
X6.2402Y-4.8937
X6.2402Y-5.0039
X6.2402Y-5.0906
X6.2402Y-5.2047
X6.2402Y-5.2874
X6.2402Y-5.3976
X6.2402Y-5.4843
X6.3327Y-2.8952
X6.3327Y-3.0921
X6.3327Y-3.2889
X6.3327Y-4.0763
X6.3327Y-4.8637
X6.3337Y-3.4858
X6.3337Y-3.6826
X6.3337Y-3.8795
X6.3337Y-4.2732
X6.3337Y-4.47
X6.3337Y-4.6669
X6.3337Y-5.0606
X6.3337Y-5.2574
X6.3337Y-5.4543
X6.3369Y-2.6984
X6.3386Y-2.5015
X6.3425Y-3.1496
X6.3425Y-3.1732
X6.3425Y-3.374
X6.3425Y-3.5433
X6.3425Y-3.5669
X6.3425Y-3.7402
X6.3425Y-3.7638
X6.3425Y-3.937
X6.3425Y-3.9606
X6.3425Y-4.1378
X6.3425Y-4.1614
X6.3425Y-4.3268
X6.3425Y-4.3504
X6.3425Y-4.5512
X6.3425Y-4.7244
X6.3425Y-4.748
X6.3425Y-5.1181
X6.3425Y-5.1417
X6.3425Y-5.3189
X6.3425Y-5.3425
X6.3425Y-5.5157
X6.3425Y-5.5394
X6.3465Y-2.4748
X6.3474Y-2.6717
X6.3474Y-2.8685
X6.3474Y-3.0654
X6.3474Y-3.2622
X6.3474Y-4.0496
X6.3474Y-4.837
X6.3484Y-3.4591
X6.3484Y-3.6559
X6.3484Y-3.8528
X6.3484Y-4.2465
X6.3484Y-4.4433
X6.3484Y-4.6402
X6.3484Y-5.0339
X6.3484Y-5.2307
X6.3484Y-5.4276
X6.3543Y-2.815
X6.3661Y-3.15
X6.3661Y-3.1732
X6.3661Y-3.374
X6.3661Y-3.5437
X6.3661Y-3.5669
X6.3661Y-3.7406
X6.3661Y-3.7638
X6.3661Y-3.9374
X6.3661Y-3.9606
X6.3661Y-4.1614
X6.3661Y-4.7248
X6.3661Y-4.748
X6.3661Y-5.1185
X6.3661Y-5.1417
X6.3661Y-5.3189
X6.3661Y-5.3425
X6.3661Y-5.5157
X6.3661Y-5.5394
X6.3671Y-2.4213
X6.3681Y-2.6181
X6.3681Y-3.0118
X6.3681Y-3.2087
X6.3681Y-3.9961
X6.3681Y-4.7835
X6.3691Y-3.4055
X6.3691Y-3.6024
X6.3691Y-3.7992
X6.3691Y-4.1929
X6.3691Y-4.3898
X6.3691Y-4.5866
X6.3691Y-4.9803
X6.3691Y-5.1772
X6.3691Y-5.374
X6.3898Y-3.151
X6.3898Y-3.1732
X6.3898Y-3.374
X6.3898Y-3.5447
X6.3898Y-3.5669
X6.3898Y-3.7415
X6.3898Y-3.7638
X6.3898Y-3.9384
X6.3898Y-3.9606
X6.3898Y-4.7258
X6.3898Y-4.748
X6.3898Y-5.1195
X6.3898Y-5.1417
X6.3898Y-5.3189
X6.3898Y-5.3425
X6.3898Y-5.5157
X6.3898Y-5.5394
X6.436Y-3.3189
X6.436Y-4.6112
X6.436Y-4.6969
X6.437Y-2.5315
X6.437Y-2.6417
X6.437Y-3.0354
X6.437Y-3.122
X6.437Y-3.2323
X6.437Y-3.4291
X6.437Y-3.5157
X6.437Y-3.626
X6.437Y-3.7126
X6.437Y-3.8228
X6.437Y-3.9094
X6.437Y-4.0197
X6.437Y-4.1063
X6.437Y-4.2165
X6.437Y-4.3031
X6.437Y-4.8071
X6.437Y-4.8937
X6.437Y-5.0039
X6.437Y-5.0906
X6.437Y-5.2874
X6.437Y-5.3976
X6.437Y-5.4843
X6.438Y-5.2008
X6.5285Y-2.5015
X6.5295Y-2.6984
X6.5295Y-3.0921
X6.5295Y-3.2889
X6.5295Y-4.0763
X6.5295Y-4.8637
X6.5305Y-3.4858
X6.5305Y-3.6826
X6.5305Y-3.8795
X6.5305Y-4.2732
X6.5305Y-4.47
X6.5305Y-4.6669
X6.5305Y-5.0606
X6.5305Y-5.2574
X6.5305Y-5.4543
X6.5315Y-5.1767
X6.5354Y-3.6019
X6.5354Y-4.9799
X6.5354Y-5.3736
X6.5358Y-2.906
X6.5366Y-5.0327
X6.5366Y-5.2296
X6.5394Y-3.4055
X6.5423Y-2.4748
X6.5433Y-3.0654
X6.5433Y-3.2622
X6.5433Y-4.0496
X6.5433Y-4.837
X6.5443Y-3.4591
X6.5443Y-3.6559
X6.5443Y-3.8528
X6.5443Y-4.2465
X6.5443Y-4.4433
X6.5443Y-4.6402
X6.5443Y-5.4276
X6.5472Y-4.5862
X6.5475Y-2.8685
X6.5514Y-2.6719
X6.563Y-2.4213
X6.563Y-2.6177
X6.564Y-2.815
X6.564Y-3.0118
X6.564Y-3.2087
X6.564Y-3.9961
X6.564Y-4.7835
X6.565Y-3.7992
X6.565Y-4.1929
X6.565Y-4.3898
X6.6339Y-2.5315
X6.6339Y-2.6417
X6.6339Y-2.8386
X6.6339Y-2.9199
X6.6339Y-3.9094
X6.6339Y-4.0197
X6.6339Y-4.1063
X6.6339Y-4.2165
X6.6339Y-4.3031
X6.6339Y-4.4134
X6.6339Y-4.5
X6.6628Y-5.1457
X6.6693Y-4.9291
X6.6703Y-3.3478
X6.6816Y-2.9809
X6.7254Y-2.6984
X6.7254Y-2.8952
X6.7254Y-3.0921
X6.7254Y-3.2889
X6.7254Y-4.0763
X6.7254Y-4.8637
X6.7264Y-3.4858
X6.7264Y-3.6826
X6.7264Y-3.8795
X6.7264Y-4.2732
X6.7264Y-4.47
X6.7264Y-4.6669
X6.7264Y-5.0606
X6.7264Y-5.2574
X6.7264Y-5.4543
X6.7283Y-2.5015
X6.7323Y-3.0114
X6.7325Y-4.8369
X6.7329Y-4.8878
X6.7331Y-3.3352
X6.7362Y-4.5862
X6.7402Y-2.4748
X6.7402Y-4.4433
X6.7411Y-2.6717
X6.7411Y-2.8685
X6.7411Y-3.0654
X6.7411Y-3.2622
X6.7411Y-4.0496
X6.7421Y-3.4591
X6.7421Y-3.6559
X6.7421Y-3.8528
X6.7421Y-4.2465
X6.7421Y-4.6402
X6.7421Y-5.0339
X6.7421Y-5.2307
X6.7421Y-5.4276
X6.7535Y-3.2082
X6.7535Y-4.7838
X6.7608Y-2.4213
X6.7618Y-2.6181
X6.7618Y-2.815
X6.7618Y-3.9961
X6.7628Y-3.4055
X6.7628Y-3.6024
X6.7628Y-3.7992
X6.7628Y-4.1929
X6.7628Y-4.3898
X6.7628Y-4.9803
X6.7628Y-5.1772
X6.7628Y-5.374
X6.7988Y-2.9581
X6.7992Y-2.5937
X6.8307Y-2.5315
X6.8307Y-3.8228
X6.8307Y-3.9094
X6.8307Y-4.0197
X6.8307Y-4.1063
X6.8307Y-4.2165
X6.8307Y-4.3031
X6.8307Y-4.4134
X6.8307Y-4.5
X6.8307Y-5.0039
X6.8307Y-5.0906
X6.8307Y-5.2874
X6.8307Y-5.3976
X6.8307Y-5.4843
X6.8317Y-5.2008
X6.8661Y-2.5937
X6.8937Y-2.5937
X6.9222Y-2.5015
X6.9232Y-2.6984
X6.9232Y-2.8952
X6.9232Y-3.0921
X6.9232Y-4.0763
X6.9232Y-4.8637
X6.9242Y-3.4858
X6.9242Y-3.6826
X6.9242Y-3.8795
X6.9242Y-4.2732
X6.9242Y-4.47
X6.9242Y-4.6669
X6.9242Y-5.0606
X6.9242Y-5.2574
X6.9242Y-5.4543
X6.9291Y-2.6177
X6.9291Y-3.6019
X6.9291Y-4.1925
X6.9297Y-3.2889
X6.9331Y-2.7598
X6.9331Y-2.7835
X6.9331Y-2.9528
X6.9331Y-2.9764
X6.9331Y-3.1496
X6.9331Y-3.1732
X6.9331Y-3.3465
X6.9331Y-3.3701
X6.9331Y-3.4051
X6.9331Y-3.7402
X6.9331Y-3.7598
X6.9331Y-3.937
X6.9331Y-3.9606
X6.9331Y-4.1339
X6.9331Y-4.1575
X6.9331Y-5.3228
X6.9331Y-5.3465
X6.9331Y-5.5236
X6.9331Y-5.5472
X6.937Y-2.4748
X6.938Y-2.6717
X6.938Y-2.8685
X6.938Y-3.0654
X6.938Y-3.2622
X6.938Y-4.0496
X6.938Y-4.837
X6.939Y-3.4591
X6.939Y-3.6559
X6.939Y-3.8528
X6.939Y-4.2465
X6.939Y-4.4433
X6.939Y-4.6402
X6.939Y-5.0339
X6.939Y-5.2307
X6.939Y-5.4276
X6.9567Y-2.7598
X6.9567Y-2.7835
X6.9567Y-2.9531
X6.9567Y-2.9764
X6.9567Y-3.15
X6.9567Y-3.1732
X6.9567Y-3.3469
X6.9567Y-3.3701
X6.9567Y-3.5472
X6.9567Y-3.7406
X6.9567Y-3.7598
X6.9567Y-3.9374
X6.9567Y-3.9606
X6.9567Y-4.1343
X6.9567Y-4.1575
X6.9567Y-5.3228
X6.9567Y-5.3465
X6.9567Y-5.5236
X6.9567Y-5.5472
X6.9577Y-2.4213
X6.9587Y-2.815
X6.9587Y-3.0118
X6.9587Y-3.2087
X6.9587Y-3.9961
X6.9587Y-4.7835
X6.9596Y-3.7992
X6.9596Y-4.3898
X6.9596Y-4.5866
X6.9596Y-4.9803
X6.9596Y-5.1772
X6.9596Y-5.374
X6.9803Y-2.7598
X6.9803Y-2.7835
X6.9803Y-2.9541
X6.9803Y-2.9764
X6.9803Y-3.151
X6.9803Y-3.1732
X6.9803Y-3.3478
X6.9803Y-3.3701
X6.9803Y-3.5472
X6.9803Y-3.5709
X6.9803Y-3.7415
X6.9803Y-3.7598
X6.9803Y-3.9384
X6.9803Y-3.9606
X6.9803Y-4.1352
X6.9803Y-4.1575
X6.9803Y-5.3228
X6.9803Y-5.3465
X6.9803Y-5.5236
X6.9803Y-5.5472
X7.0276Y-2.7283
X7.0276Y-3.3189
X7.0276Y-4.1063
X7.0276Y-4.2165
X7.0276Y-4.3031
X7.0276Y-4.6969
X7.0285Y-2.5315
X7.0285Y-2.8386
X7.0285Y-2.9252
X7.0285Y-3.0354
X7.0285Y-3.122
X7.0285Y-3.2323
X7.0285Y-3.4291
X7.0285Y-3.5157
X7.0285Y-3.626
X7.0285Y-3.7126
X7.0285Y-3.8228
X7.0285Y-3.9094
X7.0285Y-4.0197
X7.0285Y-4.4134
X7.0285Y-4.6102
X7.0285Y-4.8071
X7.0285Y-4.8937
X7.0285Y-5.0039
X7.0285Y-5.0906
X7.0285Y-5.1969
X7.0285Y-5.2874
X7.0285Y-5.3976
X7.0285Y-5.4843
X7.1191Y-2.5015
X7.1201Y-2.6984
X7.1201Y-2.8952
X7.1201Y-3.0921
X7.1201Y-3.2889
X7.1201Y-4.0763
X7.1201Y-4.8637
X7.1211Y-3.4858
X7.1211Y-3.6826
X7.1211Y-3.8795
X7.1211Y-4.2732
X7.1211Y-4.47
X7.1211Y-4.6669
X7.1211Y-5.0606
X7.1211Y-5.2574
X7.1211Y-5.4543
M30
