%TF.GenerationSoftware,KiCad,Pcbnew,9.0.7*%
%TF.CreationDate,2026-02-20T11:37:08-08:00*%
%TF.ProjectId,rgb-plate,7267622d-706c-4617-9465-2e6b69636164,rev?*%
%TF.SameCoordinates,Original*%
%TF.FileFunction,Soldermask,Top*%
%TF.FilePolarity,Negative*%
%FSLAX46Y46*%
G04 Gerber Fmt 4.6, Leading zero omitted, Abs format (unit mm)*
G04 Created by KiCad (PCBNEW 9.0.7) date 2026-02-20 11:37:08*
%MOMM*%
%LPD*%
G01*
G04 APERTURE LIST*
G04 Aperture macros list*
%AMRoundRect*
0 Rectangle with rounded corners*
0 $1 Rounding radius*
0 $2 $3 $4 $5 $6 $7 $8 $9 X,Y pos of 4 corners*
0 Add a 4 corners polygon primitive as box body*
4,1,4,$2,$3,$4,$5,$6,$7,$8,$9,$2,$3,0*
0 Add four circle primitives for the rounded corners*
1,1,$1+$1,$2,$3*
1,1,$1+$1,$4,$5*
1,1,$1+$1,$6,$7*
1,1,$1+$1,$8,$9*
0 Add four rect primitives between the rounded corners*
20,1,$1+$1,$2,$3,$4,$5,0*
20,1,$1+$1,$4,$5,$6,$7,0*
20,1,$1+$1,$6,$7,$8,$9,0*
20,1,$1+$1,$8,$9,$2,$3,0*%
G04 Aperture macros list end*
%ADD10RoundRect,0.135000X-0.135000X-0.185000X0.135000X-0.185000X0.135000X0.185000X-0.135000X0.185000X0*%
%ADD11RoundRect,0.140000X0.140000X0.170000X-0.140000X0.170000X-0.140000X-0.170000X0.140000X-0.170000X0*%
%ADD12R,1.295400X6.197600*%
%ADD13R,1.193800X3.302000*%
%ADD14RoundRect,0.135000X0.135000X0.185000X-0.135000X0.185000X-0.135000X-0.185000X0.135000X-0.185000X0*%
%ADD15R,0.800000X0.300000*%
%ADD16R,0.650000X0.300000*%
%ADD17R,0.950000X0.400000*%
G04 APERTURE END LIST*
D10*
%TO.C,TH2*%
X116090000Y-124700000D03*
X117110000Y-124700000D03*
%TD*%
D11*
%TO.C,C2*%
X115080000Y-124700000D03*
X114120000Y-124700000D03*
%TD*%
D10*
%TO.C,TH1*%
X156200000Y-84600000D03*
X157220000Y-84600000D03*
%TD*%
D12*
%TO.C,J2*%
X114850000Y-66605700D03*
X117350000Y-71805700D03*
X119850000Y-66605700D03*
X122350000Y-71805700D03*
X124850000Y-66605700D03*
X127350000Y-71805700D03*
X129850000Y-66605700D03*
X132350000Y-71805700D03*
D13*
X111950000Y-66205701D03*
X135250000Y-66205701D03*
X111950000Y-71805700D03*
X135250000Y-71805700D03*
%TD*%
D14*
%TO.C,R1*%
X157220000Y-85700000D03*
X156200000Y-85700000D03*
%TD*%
D12*
%TO.C,J3*%
X144950000Y-66605700D03*
X147450000Y-71805700D03*
X149950000Y-66605700D03*
X152450000Y-71805700D03*
X154950000Y-66605700D03*
X157450000Y-71805700D03*
X159950000Y-66605700D03*
X162450000Y-71805700D03*
D13*
X142050000Y-66205701D03*
X165350000Y-66205701D03*
X142050000Y-71805700D03*
X165350000Y-71805700D03*
%TD*%
D11*
%TO.C,C1*%
X155190000Y-84600000D03*
X154230000Y-84600000D03*
%TD*%
D15*
%TO.C,J5*%
X172300000Y-84600000D03*
D16*
X169425000Y-84300000D03*
D15*
X172300000Y-84000000D03*
D16*
X169425000Y-83700000D03*
D15*
X172300000Y-83400000D03*
D16*
X169425000Y-83100000D03*
D15*
X172300000Y-82800000D03*
D16*
X169425000Y-82500000D03*
D15*
X172300000Y-82200000D03*
D16*
X169425000Y-81900000D03*
D15*
X172300000Y-81600000D03*
D16*
X169425000Y-81300000D03*
D15*
X172300000Y-81000000D03*
D16*
X169425000Y-80700000D03*
D15*
X172300000Y-80400000D03*
D16*
X169425000Y-80100000D03*
D15*
X172300000Y-79800000D03*
D16*
X169425000Y-79500000D03*
D15*
X172300000Y-79200000D03*
D16*
X169425000Y-78900000D03*
D15*
X172300000Y-78600000D03*
D16*
X169425000Y-78300000D03*
D15*
X172300000Y-78000000D03*
D16*
X169425000Y-77700000D03*
D15*
X172300000Y-77400000D03*
D16*
X169425000Y-77100000D03*
D15*
X172300000Y-76800000D03*
D17*
X172025000Y-85300000D03*
X172025000Y-76100000D03*
%TD*%
D15*
%TO.C,J1*%
X172300000Y-124600000D03*
D16*
X169425000Y-124300000D03*
D15*
X172300000Y-124000000D03*
D16*
X169425000Y-123700000D03*
D15*
X172300000Y-123400000D03*
D16*
X169425000Y-123100000D03*
D15*
X172300000Y-122800000D03*
D16*
X169425000Y-122500000D03*
D15*
X172300000Y-122200000D03*
D16*
X169425000Y-121900000D03*
D15*
X172300000Y-121600000D03*
D16*
X169425000Y-121300000D03*
D15*
X172300000Y-121000000D03*
D16*
X169425000Y-120700000D03*
D15*
X172300000Y-120400000D03*
D16*
X169425000Y-120100000D03*
D15*
X172300000Y-119800000D03*
D16*
X169425000Y-119500000D03*
D15*
X172300000Y-119200000D03*
D16*
X169425000Y-118900000D03*
D15*
X172300000Y-118600000D03*
D16*
X169425000Y-118300000D03*
D15*
X172300000Y-118000000D03*
D16*
X169425000Y-117700000D03*
D15*
X172300000Y-117400000D03*
D16*
X169425000Y-117100000D03*
D15*
X172300000Y-116800000D03*
D17*
X172025000Y-125300000D03*
X172025000Y-116100000D03*
%TD*%
D14*
%TO.C,R2*%
X117110000Y-125800000D03*
X116090000Y-125800000D03*
%TD*%
M02*
